<?xml version="1.0" encoding="UTF-8"?>
<svg height="100%" width="100%" xmlns="http://www.w3.org/2000/svg">
	<defs>
		<font horiz-adv-x="615" id="web">
			<font-face alphabetic="0" ascent="1167" descent="-259" font-family="" panose-1="2 11 5 2 2 2 2 2 2 4"/>
			<missing-glyph d="M30 752H570V-210H30ZM100 682V-140H500V682Z" horiz-adv-x="600"/>
			<glyph d="" horiz-adv-x="261" unicode=" "/>
			<glyph d="M112 710H197L184 218H125ZM156 94Q179 94 194 79T209 41Q209 19 193 4T156 -11Q134 -11 119 4T104 41Q104 63 119 78T156 94Z" horiz-adv-x="312" unicode="!"/>
			<glyph d="M223 710H299L288 474H234ZM54 710H130L119 474H65Z" horiz-adv-x="353" unicode="&quot;"/>
			<glyph d="M270 710H329L297 528H434L466 710H524L492 528H639V471H482L441 241H587V183H431L399 0H340L372 183H235L203 0H145L177 183H30V241H187L228 471H82V528H238ZM287 471L246 241H383L424 471Z" horiz-adv-x="669" unicode="#"/>
			<glyph d="M267 781H323V704Q411 700 489 659L471 591Q400 631 323 638V389Q382 371 423 350T490 293T517 199Q517 115 465 63T323 3V-83H267V3Q210 6 157 24T66 73L87 141Q119 113 166 93T267 69V331Q185 354 129 395T73 519Q73 598 125 646T267 703ZM267 639Q211 633 177 603T144 523Q144 477 175 451T267 406ZM323 314V69Q383 74 414 105T446 192Q446 241 416 268T323 314Z" horiz-adv-x="584" unicode="$"/>
			<glyph d="M176 716Q244 716 283 667T322 534Q322 448 283 399T176 351Q108 351 69 399T31 534Q31 620 69 668T176 716ZM537 710H599L179 0H118ZM176 664Q91 664 91 534Q91 403 176 403Q262 403 262 534Q262 664 176 664ZM541 359Q609 359 647 310T686 177Q686 91 647 42T541 -6Q472 -6 433 42T395 177Q395 263 433 311T541 359ZM541 307Q455 307 455 177Q455 46 541 46Q626 46 626 177Q626 307 541 307Z" horiz-adv-x="717" unicode="%"/>
			<glyph d="M285 721Q333 721 372 699T433 644T455 572Q455 520 423 473T311 380L491 192Q547 273 580 392L643 360Q605 231 538 142L673 0H580L494 91Q390 -11 258 -11Q194 -11 143 12T63 77T34 175Q34 243 74 290T210 393L203 400Q161 445 139 483T117 568Q117 607 137 642T195 699T285 721ZM286 660Q240 660 213 632T187 566Q187 531 202 505T261 433L269 425Q338 465 362 498T386 569Q386 605 358 632T286 660ZM253 347Q195 313 164 287T121 236T109 177Q109 120 152 87T260 55Q365 55 448 140Z" horiz-adv-x="683" unicode="&amp;"/>
			<glyph d="M54 710H130L119 474H65Z" horiz-adv-x="184" unicode="'"/>
			<glyph d="M306 752V692Q204 692 167 589T130 310Q130 135 167 33T306 -68V-128Q171 -128 116 -9T62 310Q62 752 306 752Z" horiz-adv-x="348" unicode="("/>
			<glyph d="M42 752Q286 752 286 310Q286 110 231 -9T42 -128V-68Q144 -68 181 33T218 310Q218 486 181 589T42 692Z" horiz-adv-x="348" unicode=")"/>
			<glyph d="M165 710H233L222 578L345 629L366 565L236 534L323 433L268 393L199 506L130 393L75 433L162 534L32 565L53 629L176 578Z" horiz-adv-x="398" unicode="*"/>
			<glyph d="M261 575H320V380H516V321H320V125H261V321H66V380H261Z" horiz-adv-x="582" unicode="+"/>
			<glyph d="M126 89H203L108 -142H43Z" horiz-adv-x="290" unicode=","/>
			<glyph d="M50 302H395V241H50Z" horiz-adv-x="445" unicode="-"/>
			<glyph d="M145 94Q168 94 183 79T198 41Q198 19 182 4T145 -11Q123 -11 108 4T93 41Q93 63 108 78T145 94Z" horiz-adv-x="290" unicode="."/>
			<glyph d="M345 752H410L75 -168H10Z" horiz-adv-x="420" unicode="/"/>
			<glyph d="M291 720Q419 720 471 621T523 353Q523 184 470 87T291 -10Q162 -10 110 86T59 353Q59 523 111 621T291 720ZM291 652Q226 652 191 613T145 509T133 353Q133 262 145 198T191 96T291 58Q356 58 391 97T437 199T449 354Q449 495 416 573T291 652Z" horiz-adv-x="582" unicode="0"/>
			<glyph d="M262 716H293V0H219V612L60 502V576Z" horiz-adv-x="449" unicode="1"/>
			<glyph d="M289 720Q351 720 397 695T468 627T492 534Q492 473 456 414T349 274L170 67H513V0H68V46L300 315Q363 387 390 434T418 530Q418 585 384 619T284 653Q185 653 108 563L75 621Q113 667 168 693T289 720Z" horiz-adv-x="582" unicode="2"/>
			<glyph d="M287 720Q345 720 389 698T459 639T484 552Q484 493 448 449T346 385Q429 366 472 317T515 199Q515 140 485 92T400 16T276 -11Q202 -11 145 17T55 90L93 150Q166 56 276 56Q351 56 396 96T442 202Q442 274 385 310T233 346V408Q292 409 332 428T392 479T412 546Q412 594 377 623T283 653Q191 653 109 571L75 631Q168 720 287 720Z" horiz-adv-x="582" unicode="3"/>
			<glyph d="M377 710H430V224H534V159H430V0H356V159H35V206ZM356 578L118 224H356Z" horiz-adv-x="582" unicode="4"/>
			<glyph d="M143 710H488V643H201L177 409Q219 431 279 431Q350 431 402 403T482 327T510 215Q510 150 479 98T395 18T272 -11Q198 -11 143 15T58 84L95 144Q161 56 267 56Q344 56 390 99T437 215Q437 284 392 324T270 365Q201 365 145 328L106 342Z" horiz-adv-x="582" unicode="5"/>
			<glyph d="M473 715L489 653Q161 653 125 362Q156 402 205 427T313 452Q375 452 424 423T501 342T529 224Q529 160 498 106T415 21T300 -10Q231 -10 174 24T85 127T52 294Q52 414 95 509T232 659T473 715ZM302 390Q241 390 191 356T121 276Q124 168 173 111T298 55Q344 55 380 77T437 137T458 223Q458 297 414 343T302 390Z" horiz-adv-x="582" unicode="6"/>
			<glyph d="M57 710H519V662L222 0H144L438 643H57Z" horiz-adv-x="582" unicode="7"/>
			<glyph d="M291 720Q349 720 394 696T465 631T491 541Q491 491 462 450T382 389Q452 366 489 315T526 200Q526 142 495 94T410 18T291 -10Q225 -10 171 18T87 94T56 200Q56 265 93 315T200 389Q147 410 118 450T90 541Q90 590 116 631T187 696T291 720ZM292 656Q235 656 199 622T163 539Q163 488 198 454T292 421Q350 421 385 454T421 539Q421 588 384 622T292 656ZM291 352Q247 352 209 332T150 277T129 202Q129 161 150 127T209 73T291 54Q336 54 373 73T432 127T454 202Q454 244 432 278T373 332T291 352Z" horiz-adv-x="582" unicode="8"/>
			<glyph d="M285 720Q351 720 406 685T495 581T529 416Q529 296 487 201T356 51T126 -5L111 57Q279 57 361 136T457 352Q426 310 378 284T269 258Q207 258 157 287T80 369T52 487Q52 551 82 604T166 689T285 720ZM287 655Q239 655 202 633T144 573T123 488Q123 414 166 367T279 321Q338 321 387 353T460 436Q455 542 406 598T287 655Z" horiz-adv-x="582" unicode="9"/>
			<glyph d="M145 467Q167 467 182 452T198 415Q198 393 183 377T145 362Q123 362 108 377T93 415Q93 437 108 452T145 467ZM145 94Q168 94 183 79T198 41Q198 19 182 4T145 -11Q123 -11 108 4T93 41Q93 63 108 78T145 94ZZ" horiz-adv-x="290" unicode=":"/>
			<glyph d="M145 467Q168 467 183 452T198 414Q198 392 182 377T145 362Q123 362 108 377T93 414Q93 436 108 451T145 467ZM124 89H201L106 -142H41ZZ" horiz-adv-x="290" unicode=";"/>
			<glyph d="M516 542V483L114 350L516 217V157L66 313V387Z" horiz-adv-x="582" unicode="&lt;"/>
			<glyph d="M66 477H516V418H66ZM66 283H516V224H66Z" horiz-adv-x="582" unicode="="/>
			<glyph d="M66 543L516 387V313L66 158V217L468 350L66 483Z" horiz-adv-x="582" unicode="&gt;"/>
			<glyph d="M252 718Q312 718 356 695T424 631T448 540Q448 483 425 440T357 350Q312 300 296 273T280 221H214Q214 247 220 266T243 311T300 383Q342 433 359 464T377 536Q377 589 344 620T249 652Q189 652 153 622T106 543L49 574Q63 637 117 677T252 718ZM250 94Q272 94 287 78T303 41Q303 19 287 4T250 -11Q228 -11 212 4T197 41Q197 63 212 78T250 94Z" horiz-adv-x="497" unicode="?"/>
			<glyph d="M491 727Q608 727 706 673T862 525T919 318Q919 251 900 187T854 78H639V174Q612 118 567 94T472 71Q410 71 360 101T283 185T255 301Q255 363 283 415T360 498T471 529Q525 529 568 504T639 425V519H702V136H816Q836 174 847 220T858 315Q858 414 809 495T677 622T492 669Q389 669 304 620T170 487T121 302Q121 201 170 116T303 -17T492 -66Q549 -66 604 -51T702 -12L711 -73Q676 -95 615 -110T492 -125Q372 -125 273 -68T117 87T60 302Q60 419 117 516T272 670T491 727ZM478 468Q434 468 397 446T340 386T320 302Q320 256 340 217T397 156T478 134Q522 134 559 156T617 216T638 302Q638 348 617 386T559 446T478 468Z" horiz-adv-x="979" unicode="@"/>
			<glyph d="M294 710H372L645 0H567L480 230H184L97 0H21ZM332 624L207 293H457Z" horiz-adv-x="666" unicode="A"/>
			<glyph d="M103 710H301Q400 710 457 660T514 529Q514 421 417 372Q483 358 521 312T560 199Q560 109 501 54T341 0H103ZM178 644V390H307Q367 390 404 428T442 523Q442 578 403 611T296 644ZM178 325V66H334Q405 66 445 103T485 202Q485 261 448 293T347 325Z" horiz-adv-x="618" unicode="B"/>
			<glyph d="M433 720Q501 720 562 699T671 641L645 570Q601 607 547 627T434 648Q350 648 284 610T180 506T143 357Q143 273 180 206T284 100T434 62Q498 62 555 84T659 142L682 72Q626 30 565 10T432 -10Q328 -10 244 37T113 168T66 357Q66 461 113 544T245 673T433 720Z" horiz-adv-x="729" unicode="C"/>
			<glyph d="M103 710H327Q437 710 519 666T645 544T690 361Q690 253 645 171T519 45T327 0H103ZM178 642V68H323Q413 68 478 104T579 205T614 360Q614 445 579 509T478 607T324 642Z" horiz-adv-x="757" unicode="D"/>
			<glyph d="M103 710H492V642H178V390H483V323H178V68H500V0H103Z" horiz-adv-x="578" unicode="E"/>
			<glyph d="M103 710H490V642H178V388H476V320H178V0H103Z" horiz-adv-x="534" unicode="F"/>
			<glyph d="M432 720Q510 720 573 698T697 634L670 563Q614 605 558 626T432 648Q349 648 283 610T180 506T143 354Q143 270 177 203T274 99T417 62Q492 62 549 92T636 171T669 272H425V336H741V0H671V130Q642 74 574 32T411 -10Q312 -10 233 37T110 168T66 355Q66 459 114 542T245 673T432 720Z" horiz-adv-x="821" unicode="G"/>
			<glyph d="M103 710H178V390H580V710H655V0H580V321H178V0H103Z" horiz-adv-x="759" unicode="H"/>
			<glyph d="M103 710H178V0H103Z" horiz-adv-x="282" unicode="I"/>
			<glyph d="M228 710H303V225Q303 111 250 50T103 -10Q46 -10 0 11L15 78Q33 69 55 63T96 58Q157 58 192 102T228 234Z" horiz-adv-x="398" unicode="J"/>
			<glyph d="M103 710H178V360L491 710H585L272 365L613 0H513L178 358V0H103Z" horiz-adv-x="619" unicode="K"/>
			<glyph d="M103 710H178V69H495V0H103Z" horiz-adv-x="515" unicode="L"/>
			<glyph d="M103 710H189L429 345L675 710H759V0H685V601L456 259H402L177 601V0H103Z" horiz-adv-x="862" unicode="M"/>
			<glyph d="M103 710H174L599 119V710H673V0H602L177 591V0H103Z" horiz-adv-x="776" unicode="N"/>
			<glyph d="M436 720Q540 720 624 673T757 542T805 356Q805 252 757 168T624 37T435 -10Q331 -10 246 37T114 167T66 355Q66 459 114 542T246 673T436 720ZM436 649Q352 649 285 611T180 505T142 355Q142 272 180 205T285 100T436 62Q519 62 586 100T691 205T729 355Q729 438 691 505T586 611T436 649Z" horiz-adv-x="871" unicode="O"/>
			<glyph d="M103 710H300Q415 710 477 651T539 492Q539 431 511 379T429 296T300 265H178V0H103ZM178 644V331H292Q366 331 414 374T462 492Q462 572 416 608T292 644Z" horiz-adv-x="585" unicode="P"/>
			<glyph d="M436 720Q540 720 624 673T757 542T805 356Q805 278 777 210T698 93L797 -12H705L646 51Q554 -10 435 -10Q331 -10 246 37T114 167T66 355Q66 459 114 542T246 673T436 720ZM436 649Q352 649 285 611T180 505T142 355Q142 272 180 205T285 100T436 62Q523 62 595 105L478 229H569L647 147Q686 187 707 240T729 355Q729 438 691 505T586 611T436 649Z" horiz-adv-x="872" unicode="Q"/>
			<glyph d="M103 710H307Q410 710 470 655T531 507Q531 438 493 385T389 311L598 0H509L315 297H299H178V0H103ZM178 644V361H297Q364 361 409 396T455 505Q455 576 410 610T300 644Z" horiz-adv-x="632" unicode="R"/>
			<glyph d="M307 721Q357 721 405 708T492 675L474 604Q437 626 391 639T302 653Q235 653 194 620T154 534Q154 496 173 471T223 430T311 392Q320 388 331 385Q396 360 432 340T491 285T515 191Q515 96 452 43T285 -10Q224 -10 166 9T64 61L85 134Q126 99 180 79T291 59Q361 59 401 92T441 186Q441 225 422 249T371 289T279 327Q214 351 173 374T106 434T80 529Q80 587 108 630T188 697T307 721Z" horiz-adv-x="583" unicode="S"/>
			<glyph d="M25 710H497V642H301V0H226V642H25Z" horiz-adv-x="522" unicode="T"/>
			<glyph d="M98 710H173V273Q173 169 227 115T371 62Q461 62 515 115T569 273V710H644V260Q644 179 611 118T517 23T371 -10Q286 -10 224 23T130 118T98 260Z" horiz-adv-x="741" unicode="U"/>
			<glyph d="M3 710H83L312 92L540 710H618L350 0H271Z" horiz-adv-x="621" unicode="V"/>
			<glyph d="M24 710H104L271 109L451 710H526L704 112L871 710H947L743 0H666L486 602L304 0H228Z" horiz-adv-x="971" unicode="W"/>
			<glyph d="M59 710H146L340 420L536 710H617L380 362L626 0H539L337 300L135 0H52L296 359Z" horiz-adv-x="667" unicode="X"/>
			<glyph d="M2 710H86L295 358L503 710H582L329 284V0H255V284Z" horiz-adv-x="584" unicode="Y"/>
			<glyph d="M80 710H554V672L174 68H558V0H70V39L452 642H80Z" horiz-adv-x="621" unicode="Z"/>
			<glyph d="M103 752H314V695H170V-73H314V-130H103Z" horiz-adv-x="356" unicode="["/>
			<glyph d="M10 752H75L410 -168H345Z" horiz-adv-x="420" unicode="\"/>
			<glyph d="M42 752H253V-130H42V-73H186V695H42Z" horiz-adv-x="356" unicode="]"/>
			<glyph d="M165 710H240L395 260H336L203 661L69 260H10Z" horiz-adv-x="405" unicode="^"/>
			<glyph d="M-5 -92H455V-137H-5Z" horiz-adv-x="450" unicode="_"/>
			<glyph d="M282 725H356L468 573H402Z" horiz-adv-x="400" unicode="`"/>
			<glyph d="M289 512Q386 512 438 461T491 312V0H422V88Q398 44 348 17T234 -10Q154 -10 108 30T63 139Q63 196 98 230T212 281T421 299V312Q421 376 384 413T279 450Q190 450 114 389L94 452Q129 478 179 495T289 512ZM421 248Q312 247 250 235T162 201T136 141Q136 98 165 73T248 48Q290 48 329 63T395 113T421 198Z" horiz-adv-x="577" unicode="a"/>
			<glyph d="M93 752H163V401Q194 455 247 483T359 512Q428 512 483 478T568 385T599 252Q599 177 568 117T481 24T353 -10Q297 -10 244 18T163 101V0H93ZM349 446Q296 446 252 421T182 351T157 252Q157 197 182 152T250 82T347 56Q400 56 441 81T505 150T528 251Q528 306 506 350T443 420T349 446Z" horiz-adv-x="648" unicode="b"/>
			<glyph d="M303 512Q399 512 475 459L452 395Q386 446 306 446Q223 446 172 392T121 252Q121 194 144 149T207 80T300 56Q344 56 386 70T464 110L482 48Q447 22 399 6T297 -10Q226 -10 169 22T81 114T49 250Q49 327 81 386T171 479T303 512Z" horiz-adv-x="520" unicode="c"/>
			<glyph d="M486 752H556V-2H486V103Q454 45 404 17T292 -10Q221 -10 166 23T80 116T49 250Q49 325 80 385T167 478T292 512Q354 512 405 484T486 402ZM302 446Q249 446 208 421T144 352T121 250Q121 164 170 110T301 56Q355 56 398 82T466 152T491 252Q491 307 466 351T398 420T302 446Z" horiz-adv-x="647" unicode="d"/>
			<glyph d="M296 512Q365 512 418 479T502 387T532 255V246H120Q122 158 174 106T313 54Q368 54 416 74T496 124L516 62Q481 31 426 10T309 -10Q231 -10 172 24T81 119T49 251Q49 325 81 384T170 478T296 512ZM296 450Q233 450 184 408T124 301H458Q450 367 406 408T296 450Z" horiz-adv-x="576" unicode="e"/>
			<glyph d="M252 754Q300 754 344 733L328 670Q315 678 296 683T260 689Q224 689 205 665T186 587V502H309V441H186V0H116V441H28V502H116V592Q116 672 152 713T252 754Z" horiz-adv-x="329" unicode="f"/>
			<glyph d="M296 512Q420 512 486 404V502H556V13Q556 -100 487 -159T300 -219Q173 -219 88 -150L110 -81Q190 -154 303 -154Q388 -154 437 -111T486 14V106Q455 51 406 24T295 -3Q224 -3 168 30T80 121T49 253Q49 326 79 385T166 478T296 512ZM305 447Q250 447 208 421T143 352T120 254Q120 199 143 155T209 86T306 62Q360 62 402 87T468 157T491 255Q491 306 467 350T400 420T305 447Z" horiz-adv-x="647" unicode="g"/>
			<glyph d="M93 752H163V411Q188 459 235 486T345 513Q432 513 480 461T528 308V0H458V290Q458 368 424 408T325 449Q279 449 242 428T184 371T163 288V0H93Z" unicode="h"/>
			<glyph d="M93 502H163V0H93ZM129 718Q151 718 166 703T182 665Q182 643 166 627T129 612Q106 612 91 627T76 665Q76 688 91 703T129 718Z" horiz-adv-x="255" unicode="i"/>
			<glyph d="M93 502H163V-59Q163 -143 132 -181T41 -219Q4 -219 -21 -209L-11 -147Q8 -153 28 -153Q64 -153 78 -131T93 -49ZM129 718Q151 718 166 703T182 665Q182 643 166 627T129 612Q106 612 91 627T76 665Q76 688 91 703T129 718Z" horiz-adv-x="257" unicode="j"/>
			<glyph d="M93 752H163V264L399 502H493L250 265L502 0H406L163 259V0H93Z" horiz-adv-x="513" unicode="k"/>
			<glyph d="M90 752H160V120Q160 54 209 54Q223 54 237 58T261 67L272 8Q240 -10 193 -10Q144 -10 117 19T90 110Z" horiz-adv-x="286" unicode="l"/>
			<glyph d="M320 513Q378 513 418 485T476 401Q524 513 644 513Q725 513 769 461T814 308V0H744V290Q744 368 713 408T623 449Q586 449 555 428T506 373T488 295V0H418V290Q418 368 388 408T299 449Q240 449 201 403T163 288V0H93V502H163V417Q185 462 225 487T320 513Z" horiz-adv-x="901" unicode="m"/>
			<glyph d="M347 512Q433 512 480 460T528 307V0H458V288Q458 367 424 407T325 448Q279 448 242 427T184 369T163 286V0H93V502H163V409Q188 457 236 484T347 512Z" unicode="n"/>
			<glyph d="M312 512Q389 512 448 478T541 386T575 251Q575 175 541 116T448 23T312 -10Q235 -10 175 23T82 116T49 251Q49 327 82 386T175 478T312 512ZM312 445Q256 445 212 420T145 352T121 252Q121 194 145 150T213 81T312 57Q368 57 412 81T480 150T504 251Q504 308 479 352T411 420T312 445Z" horiz-adv-x="624" unicode="o"/>
			<glyph d="M359 512Q428 512 483 478T568 385T599 252Q599 177 568 117T481 24T353 -10Q297 -10 244 18T163 101V-210H93V502H163V401Q194 455 247 483T359 512ZM349 446Q296 446 252 421T182 351T157 252Q157 197 182 152T250 82T347 56Q400 56 441 81T505 150T528 251Q528 306 506 350T443 420T349 446Z" horiz-adv-x="648" unicode="p"/>
			<glyph d="M292 512Q354 512 405 484T486 402V502H556V-210H486V103Q454 45 404 17T292 -10Q221 -10 166 23T80 116T49 250Q49 325 80 385T167 478T292 512ZM302 446Q249 446 208 421T144 352T121 250Q121 164 170 110T301 56Q355 56 398 82T466 152T491 252Q491 307 466 351T398 420T302 446Z" horiz-adv-x="647" unicode="q"/>
			<glyph d="M292 513Q328 513 353 502L336 434Q306 444 285 444Q224 444 193 396T162 267V0H93V502H162V412Q183 466 215 489T292 513Z" horiz-adv-x="364" unicode="r"/>
			<glyph d="M252 512Q297 512 336 500T404 470L389 408Q320 453 250 453Q202 453 173 432T145 375Q145 339 173 320T261 286Q338 264 379 233T420 140Q420 72 370 31T235 -10Q183 -10 135 5T60 44L79 106Q107 82 149 65T239 49Q291 49 321 71T351 133Q351 158 337 173T299 199T227 225T147 255T95 297T75 368Q75 435 123 473T252 512Z" horiz-adv-x="480" unicode="s"/>
			<glyph d="M180 661V502H326V441H180V134Q180 95 198 75T251 56Q293 56 341 86L355 25Q334 10 303 0T238 -10Q179 -10 144 24T110 126V441H39V502H110V649Z" horiz-adv-x="359" unicode="t"/>
			<glyph d="M86 502H156V213Q156 134 190 93T290 53Q336 53 373 74T431 132T452 216V502H522V0H452V95Q428 45 380 17T267 -10Q182 -10 134 41T86 194Z" unicode="u"/>
			<glyph d="M4 502H81L244 80L409 502H484L280 0H208Z" horiz-adv-x="488" unicode="v"/>
			<glyph d="M14 502H91L224 84L359 502H423L558 87L689 502H764L598 0H525L391 413L256 0H183Z" horiz-adv-x="778" unicode="w"/>
			<glyph d="M30 502H116L259 309L403 502H486L300 260L497 0H414L258 209L101 0H18L217 259Z" horiz-adv-x="515" unicode="x"/>
			<glyph d="M4 502H81L256 108L410 502H485L250 -72Q220 -146 177 -180T72 -215Q39 -215 14 -207L24 -143Q42 -148 62 -148Q105 -148 134 -127T187 -49L219 25Z" horiz-adv-x="489" unicode="y"/>
			<glyph d="M57 502H434V467L151 61H440V0H48V33L335 441H57Z" horiz-adv-x="492" unicode="z"/>
			<glyph d="M226 752H292V695H237Q173 695 173 645Q173 619 177 592T187 540T195 509Q213 441 213 410Q213 367 193 344T126 311Q173 301 193 278T213 213Q213 195 207 168T195 113Q193 106 186 76T176 22T173 -23Q173 -73 237 -73H292V-130H226Q110 -130 110 -35Q110 -7 115 21T131 95Q140 133 145 158T150 207Q150 243 126 263T58 283H29V340H58Q103 340 126 359T150 415Q150 438 145 463T131 527Q120 573 115 601T110 657Q110 752 226 752Z" horiz-adv-x="333" unicode="{"/>
			<glyph d="M77 752H140V-210H77Z" horiz-adv-x="217" unicode="|"/>
			<glyph d="M30 752H96Q212 752 212 657Q212 629 207 601T191 527Q182 489 177 463T172 415Q172 379 195 359T264 340H293V283H264Q219 283 195 263T172 207Q172 184 177 158T191 95Q202 49 207 21T212 -35Q212 -130 96 -130H30V-73H85Q149 -73 149 -23Q149 3 144 30T134 81T127 113Q120 141 114 168T109 213Q109 255 129 278T196 311Q149 321 129 344T109 410Q109 441 127 509Q129 516 135 545T145 600T149 645Q149 695 85 695H30Z" horiz-adv-x="333" unicode="}"/>
			<glyph d="M191 377Q221 377 289 358Q296 357 310 353Q305 354 337 346Q382 334 405 334Q422 334 435 345T453 377H506Q500 330 473 303T413 276Q391 276 368 281T323 292T293 300Q227 319 199 319Q161 319 148 276H95Q101 327 128 352T191 377Z" horiz-adv-x="582" unicode="~"/>
			<glyph d="" horiz-adv-x="261" unicode=" "/>
			<glyph d="M156 511Q178 511 193 496T208 459Q208 437 193 421T156 406Q134 406 118 421T103 459Q103 481 118 496T156 511ZM128 282H187L200 -210H115Z" horiz-adv-x="312" unicode="¡"/>
			<glyph d="M270 711H324V632Q410 626 474 581L452 517Q393 561 324 566V177Q364 180 401 194T468 231L486 169Q456 146 414 130T324 111V0H270V114Q208 122 157 158T78 249T49 371Q49 440 77 496T156 588T270 631ZM270 564Q203 553 162 500T121 371Q121 301 163 248T270 181Z" horiz-adv-x="519" unicode="¢"/>
			<glyph d="M342 725Q396 725 438 705T516 651L488 584Q427 656 343 656Q281 656 248 615T215 490V383H405V320H215V182Q215 102 159 67H529V0H49V67Q93 75 116 103T139 179V320H49V383H139V484Q139 603 193 664T342 725Z" horiz-adv-x="549" unicode="£"/>
			<glyph d="M100 578L158 520Q212 558 278 558Q345 558 398 519L457 578L507 528L448 470Q486 416 486 350Q486 283 448 231L507 172L457 122L398 181Q344 143 278 143Q213 143 159 181L100 122L50 172L109 230Q71 284 71 350Q71 416 109 470L50 528ZM278 488Q241 488 209 469T159 419T141 350Q141 313 159 281T209 231T278 213Q315 213 347 231T397 281T416 350Q416 387 397 419T347 469T278 488Z" horiz-adv-x="557" unicode="¤"/>
			<glyph d="M21 710H105L292 362L479 710H557L343 317H521V266H326V190H521V139H326V0H252V139H57V190H252V266H57V317H235Z" horiz-adv-x="578" unicode="¥"/>
			<glyph d="M77 752H140V381H77ZM77 161H140V-210H77Z" horiz-adv-x="217" unicode="¦"/>
			<glyph d="M243 762Q333 762 402 720L386 658Q318 703 242 703Q196 703 168 681T141 627Q141 602 152 586T190 558T264 534Q347 513 384 479T421 387Q421 345 398 311T334 259Q377 239 396 209T416 137Q416 95 393 61T329 9T238 -10Q177 -10 130 5T56 44L75 106Q104 81 146 65T237 49Q286 49 316 71T346 131Q346 167 319 186T222 226Q137 249 101 281T66 372Q66 417 91 450T161 499Q113 519 92 548T71 622Q71 686 119 724T243 762ZM246 472Q192 472 164 446T136 379Q136 343 161 322T251 285H252Q297 285 324 311T352 380Q352 415 328 436T250 472Z" horiz-adv-x="480" unicode="§"/>
			<glyph d="M301 716Q321 716 335 701T350 666Q350 646 335 631T301 617Q280 617 265 631T251 666Q251 687 265 701T301 716ZM513 716Q534 716 548 701T563 666Q563 646 548 631T513 617Q492 617 478 631T464 666Q464 687 478 701T513 716Z" horiz-adv-x="400" unicode="¨"/>
			<glyph d="M405 720Q504 720 588 671T721 538T770 355Q770 256 721 172T588 39T405 -10Q306 -10 222 39T89 172T40 355Q40 454 89 538T222 671T405 720ZM405 672Q319 672 246 629T130 514T88 355Q88 269 130 196T246 80T405 38Q491 38 564 80T679 196T722 355Q722 441 679 514T564 629T405 672ZM414 580Q457 580 496 566T566 526L546 472Q519 497 484 510T414 524Q367 524 328 502T268 441T246 356Q246 309 268 270T329 208T415 186Q453 186 489 200T554 238L572 183Q502 130 414 130Q351 130 299 160T217 242T188 357Q188 419 218 470T299 550T414 580Z" horiz-adv-x="810" unicode="©"/>
			<glyph d="M177 724Q233 724 265 693T298 604V416H245V464Q229 440 200 424T134 409Q89 409 61 433T34 501Q34 551 83 574T244 597V604Q244 638 224 657T168 677Q113 677 68 643L55 688Q104 724 177 724ZM244 561Q159 561 125 547T91 503Q91 479 106 465T149 452Q186 452 215 472T244 532Z" horiz-adv-x="345" unicode="ª"/>
			<glyph d="M195 460H277L107 260L277 60H195L30 260ZM402 460H484L314 260L484 60H402L237 260Z" horiz-adv-x="513" unicode="«"/>
			<glyph d="M66 508H516V193H457V449H66Z" horiz-adv-x="582" unicode="¬"/>
			<glyph d="M50 302H395V241H50Z" horiz-adv-x="445" unicode="­"/>
			<glyph d="M231 710Q289 710 334 684T405 613T431 510Q431 452 405 406T334 335T231 310Q174 310 128 335T56 406T31 510Q31 567 57 612T128 684T231 710ZM231 676Q158 676 112 630T66 510Q66 437 112 391T231 345Q305 345 351 390T397 510Q397 584 351 630T231 676ZM160 629H231Q267 629 288 609T309 558Q309 536 298 519T268 493L337 391H291L230 485H229H198V391H160ZM198 594V518H228Q248 518 259 528T271 557Q271 574 260 584T229 594Z" horiz-adv-x="463" unicode="®"/>
			<glyph d="M251 679H564V625H251Z" horiz-adv-x="400" unicode="¯"/>
			<glyph d="M183 710Q225 710 260 689T316 634T337 557Q337 515 316 480T260 424T183 404Q141 404 106 424T50 480T30 557Q30 599 50 634T106 689T183 710ZM183 653Q143 653 115 625T88 557Q88 517 115 489T183 461Q223 461 251 489T279 557Q279 597 251 625T183 653Z" horiz-adv-x="366" unicode="°"/>
			<glyph d="M261 569H320V427H516V373H320V232H261V373H66V427H261ZM66 202H516V148H66Z" horiz-adv-x="582" unicode="±"/>
			<glyph d="M209 870Q271 870 308 837T345 752Q345 714 322 678T253 597L147 489H360V435H61V471L212 627Q251 667 268 694T286 748Q286 779 265 797T206 816Q172 816 144 803T90 764L64 809Q90 838 127 854T209 870Z" horiz-adv-x="422" unicode="²"/>
			<glyph d="M203 870Q263 870 299 841T335 765Q335 728 312 702T248 665Q303 652 329 623T355 553Q355 497 311 461T195 425Q150 425 111 440T50 484L80 532Q128 479 196 479Q242 479 269 500T296 557Q296 596 261 616T165 636V684Q220 684 248 706T277 758Q277 784 256 800T200 816Q143 816 90 767L63 814Q123 870 203 870Z" horiz-adv-x="416" unicode="³"/>
			<glyph d="M319 725H393L274 573H208Z" horiz-adv-x="400" unicode="´"/>
			<glyph d="M93 502H163V213Q163 136 197 94T298 53Q343 53 380 74T437 132T458 216V502H528V0H458V89Q434 42 390 16T288 -10Q249 -10 216 4T163 45V-210H93Z" horiz-adv-x="621" unicode="µ"/>
			<glyph d="M284 710H619V659H540V-210H488V659H377V-210H324V151H284Q208 151 150 186T61 284T30 431Q30 514 61 577T150 675T284 710Z" horiz-adv-x="649" unicode="¶"/>
			<glyph d="M145 402Q168 402 183 387T198 349Q198 327 182 312T145 297Q123 297 108 312T93 349Q93 371 108 386T145 402Z" horiz-adv-x="290" unicode="·"/>
			<glyph d="M261 0H310V-44Q339 -53 356 -73T373 -122Q373 -164 338 -189T231 -214V-162Q276 -162 295 -151T314 -121Q314 -103 299 -94T261 -85Z" horiz-adv-x="400" unicode="¸"/>
			<glyph d="M190 865H214V435H155V786L54 724V782Z" horiz-adv-x="355" unicode="¹"/>
			<glyph d="M186 720Q232 720 269 699T327 643T348 563Q348 518 327 482T269 426T186 406Q116 406 71 450T26 563Q26 607 46 643T103 699T186 720ZM187 669Q141 669 111 638T82 562Q82 516 111 486T186 457Q231 457 260 487T290 563Q290 610 261 639T187 669Z" horiz-adv-x="374" unicode="º"/>
			<glyph d="M29 460H111L276 260L111 60H29L199 260ZM236 460H318L483 260L318 60H236L406 260Z" horiz-adv-x="513" unicode="»"/>
			<glyph d="M190 715H214V285H155V636L54 574V632ZM669 710H735L178 0H112ZM699 429H748V140H812V91H748V0H688V91H482V130ZM688 336L546 140H688Z" horiz-adv-x="854" unicode="¼"/>
			<glyph d="M190 715H214V285H155V636L54 574V632ZM666 710H732L175 0H109ZM738 435Q800 435 837 402T874 317Q874 279 851 243T782 162L676 54H889V0H590V36L741 192Q780 232 797 259T815 313Q815 344 794 362T735 381Q701 381 673 368T619 329L593 374Q619 403 656 419T738 435Z" horiz-adv-x="951" unicode="½"/>
			<glyph d="M203 720Q263 720 299 691T335 615Q335 578 312 552T248 515Q303 502 329 473T355 403Q355 347 311 311T195 275Q150 275 111 290T50 334L80 382Q128 329 196 329Q242 329 269 350T296 407Q296 446 261 466T165 486V534Q220 534 248 556T277 608Q277 634 256 650T200 666Q143 666 90 617L63 664Q123 720 203 720ZM726 710H792L235 0H169ZM745 429H794V140H858V91H794V0H734V91H528V130ZM734 336L592 140H734Z" horiz-adv-x="900" unicode="¾"/>
			<glyph d="M247 512Q269 512 284 496T300 459Q300 437 284 421T247 406Q225 406 209 421T194 459Q194 481 209 496T247 512ZM217 280H283Q283 254 277 235T253 190T197 118Q155 68 137 36T120 -36Q120 -89 153 -120T248 -152Q307 -152 343 -121T391 -43L448 -74Q434 -137 380 -177T245 -218Q185 -218 141 -195T73 -131T49 -40Q49 18 72 60T140 151Q186 200 201 226T217 280Z" horiz-adv-x="497" unicode="¿"/>
			<glyph d="M294 710H372L645 0H567L480 230H184L97 0H21ZM332 624L207 293H457ZM193 917H273L387 774H321Z" horiz-adv-x="666" unicode="À"/>
			<glyph d="M294 710H372L645 0H567L480 230H184L97 0H21ZM332 624L207 293H457ZM390 917H469L341 774H275Z" horiz-adv-x="666" unicode="Á"/>
			<glyph d="M294 710H372L645 0H567L480 230H184L97 0H21ZM332 624L207 293H457ZM295 904H371L491 774H425L333 858L241 774H175Z" horiz-adv-x="666" unicode="Â"/>
			<glyph d="M294 710H372L645 0H567L480 230H184L97 0H21ZM332 624L207 293H457ZM253 872Q281 872 342 848Q360 841 377 835T405 829Q420 829 427 839T438 872H489Q483 825 463 799T410 774Q393 774 373 780T324 798Q276 817 260 817Q245 817 238 807T225 774H174Q180 824 200 848T253 872Z" horiz-adv-x="666" unicode="Ã"/>
			<glyph d="M294 710H372L645 0H567L480 230H184L97 0H21ZM332 624L207 293H457ZM228 894Q248 894 262 879T277 844Q277 824 262 809T228 795Q207 795 192 809T178 844Q178 865 192 879T228 894ZM440 894Q461 894 475 879T490 844Q490 824 475 809T440 795Q419 795 405 809T391 844Q391 865 405 879T440 894Z" horiz-adv-x="666" unicode="Ä"/>
			<glyph d="M294 710H372L645 0H567L480 230H184L97 0H21ZM332 624L207 293H457ZM333 940Q375 940 403 912T431 844Q431 802 402 775T332 749Q288 749 261 776T234 844Q234 885 262 912T333 940ZM333 892Q311 892 297 878T284 844Q284 824 297 810T333 796Q354 796 367 809T381 844Q381 865 368 878T333 892ZZ" horiz-adv-x="666" unicode="Å"/>
			<glyph d="M294 710H835V642H521V390H825V323H521V68H842V0H446V230H186L97 0H21ZM345 641L210 293H446V641Z" horiz-adv-x="920" unicode="Æ"/>
			<glyph d="M433 720Q501 720 562 699T671 641L645 570Q601 607 547 627T434 648Q350 648 284 610T180 506T143 357Q143 273 180 206T284 100T434 62Q498 62 555 84T659 142L682 72Q573 -10 434 -10V-44Q463 -53 480 -73T497 -122Q497 -164 462 -189T355 -214V-162Q400 -162 419 -151T438 -121Q438 -103 423 -94T385 -85V-7Q292 3 219 52T106 181T66 357Q66 461 113 544T245 673T433 720Z" horiz-adv-x="729" unicode="Ç"/>
			<glyph d="M103 710H492V642H178V390H483V323H178V68H500V0H103ZM162 917H242L356 774H290Z" horiz-adv-x="578" unicode="È"/>
			<glyph d="M103 710H492V642H178V390H483V323H178V68H500V0H103ZM359 917H438L310 774H244Z" horiz-adv-x="578" unicode="É"/>
			<glyph d="M103 710H492V642H178V390H483V323H178V68H500V0H103ZM264 904H340L460 774H394L302 858L210 774H144Z" horiz-adv-x="578" unicode="Ê"/>
			<glyph d="M103 710H492V642H178V390H483V323H178V68H500V0H103ZM197 894Q217 894 231 879T246 844Q246 824 231 809T197 795Q176 795 161 809T147 844Q147 865 161 879T197 894ZM409 894Q430 894 444 879T459 844Q459 824 444 809T409 795Q388 795 374 809T360 844Q360 865 374 879T409 894Z" horiz-adv-x="578" unicode="Ë"/>
			<glyph d="M103 710H178V0H103ZM1 917H81L195 774H129Z" horiz-adv-x="282" unicode="Ì"/>
			<glyph d="M103 710H178V0H103ZM198 917H277L149 774H83Z" horiz-adv-x="282" unicode="Í"/>
			<glyph d="M103 710H178V0H103ZM103 904H179L299 774H233L141 858L49 774H-17Z" horiz-adv-x="282" unicode="Î"/>
			<glyph d="M103 710H178V0H103ZM36 894Q56 894 70 879T85 844Q85 824 70 809T36 795Q15 795 0 809T-14 844Q-14 865 0 879T36 894ZM248 894Q269 894 283 879T298 844Q298 824 283 809T248 795Q227 795 213 809T199 844Q199 865 213 879T248 894Z" horiz-adv-x="282" unicode="Ï"/>
			<glyph d="M103 710H327Q437 710 519 666T645 544T690 361Q690 253 645 171T519 45T327 0H103V323H11V388H103ZM178 642V388H385V323H178V68H323Q413 68 478 104T579 205T614 360Q614 445 579 509T478 607T324 642Z" horiz-adv-x="757" unicode="Ð"/>
			<glyph d="M103 710H174L599 119V710H673V0H602L177 591V0H103ZM316 872Q344 872 405 848Q423 841 440 835T468 829Q483 829 490 839T501 872H552Q546 825 526 799T473 774Q456 774 436 780T387 798Q339 817 323 817Q308 817 301 807T288 774H237Q243 824 263 848T316 872Z" horiz-adv-x="776" unicode="Ñ"/>
			<glyph d="M436 720Q540 720 624 673T757 542T805 356Q805 252 757 168T624 37T435 -10Q331 -10 246 37T114 167T66 355Q66 459 114 542T246 673T436 720ZM436 649Q352 649 285 611T180 505T142 355Q142 272 180 205T285 100T436 62Q519 62 586 100T691 205T729 355Q729 438 691 505T586 611T436 649ZM295 917H375L489 774H423Z" horiz-adv-x="871" unicode="Ò"/>
			<glyph d="M436 720Q540 720 624 673T757 542T805 356Q805 252 757 168T624 37T435 -10Q331 -10 246 37T114 167T66 355Q66 459 114 542T246 673T436 720ZM436 649Q352 649 285 611T180 505T142 355Q142 272 180 205T285 100T436 62Q519 62 586 100T691 205T729 355Q729 438 691 505T586 611T436 649ZM492 917H571L443 774H377Z" horiz-adv-x="871" unicode="Ó"/>
			<glyph d="M436 720Q540 720 624 673T757 542T805 356Q805 252 757 168T624 37T435 -10Q331 -10 246 37T114 167T66 355Q66 459 114 542T246 673T436 720ZM436 649Q352 649 285 611T180 505T142 355Q142 272 180 205T285 100T436 62Q519 62 586 100T691 205T729 355Q729 438 691 505T586 611T436 649ZM397 904H473L593 774H527L435 858L343 774H277Z" horiz-adv-x="871" unicode="Ô"/>
			<glyph d="M436 720Q540 720 624 673T757 542T805 356Q805 252 757 168T624 37T435 -10Q331 -10 246 37T114 167T66 355Q66 459 114 542T246 673T436 720ZM436 649Q352 649 285 611T180 505T142 355Q142 272 180 205T285 100T436 62Q519 62 586 100T691 205T729 355Q729 438 691 505T586 611T436 649ZM355 872Q383 872 444 848Q462 841 479 835T507 829Q522 829 529 839T540 872H591Q585 825 565 799T512 774Q495 774 475 780T426 798Q378 817 362 817Q347 817 340 807T327 774H276Q282 824 302 848T355 872Z" horiz-adv-x="871" unicode="Õ"/>
			<glyph d="M436 720Q540 720 624 673T757 542T805 356Q805 252 757 168T624 37T435 -10Q331 -10 246 37T114 167T66 355Q66 459 114 542T246 673T436 720ZM436 649Q352 649 285 611T180 505T142 355Q142 272 180 205T285 100T436 62Q519 62 586 100T691 205T729 355Q729 438 691 505T586 611T436 649ZM330 894Q350 894 364 879T379 844Q379 824 364 809T330 795Q309 795 294 809T280 844Q280 865 294 879T330 894ZM542 894Q563 894 577 879T592 844Q592 824 577 809T542 795Q521 795 507 809T493 844Q493 865 507 879T542 894Z" horiz-adv-x="871" unicode="Ö"/>
			<glyph d="M433 534L474 493L332 351L475 208L433 167L291 309L149 167L108 209L250 351L108 492L150 533L291 392Z" horiz-adv-x="582" unicode="×"/>
			<glyph d="M677 760H746L668 644Q733 594 769 519T805 356Q805 252 757 168T624 37T435 -10Q338 -10 256 32L201 -50H132L208 62Q141 112 103 187T66 355Q66 459 114 542T246 673T436 720Q538 720 620 675ZM436 649Q352 649 285 611T180 505T142 355Q142 284 170 224T249 124L579 615Q516 649 436 649ZM627 583L298 94Q359 62 436 62Q519 62 586 100T691 205T729 355Q729 424 702 483T627 583Z" horiz-adv-x="871" unicode="Ø"/>
			<glyph d="M98 710H173V273Q173 169 227 115T371 62Q461 62 515 115T569 273V710H644V260Q644 179 611 118T517 23T371 -10Q286 -10 224 23T130 118T98 260ZM232 917H312L426 774H360Z" horiz-adv-x="741" unicode="Ù"/>
			<glyph d="M98 710H173V273Q173 169 227 115T371 62Q461 62 515 115T569 273V710H644V260Q644 179 611 118T517 23T371 -10Q286 -10 224 23T130 118T98 260ZM429 917H508L380 774H314Z" horiz-adv-x="741" unicode="Ú"/>
			<glyph d="M98 710H173V273Q173 169 227 115T371 62Q461 62 515 115T569 273V710H644V260Q644 179 611 118T517 23T371 -10Q286 -10 224 23T130 118T98 260ZM334 904H410L530 774H464L372 858L280 774H214Z" horiz-adv-x="741" unicode="Û"/>
			<glyph d="M98 710H173V273Q173 169 227 115T371 62Q461 62 515 115T569 273V710H644V260Q644 179 611 118T517 23T371 -10Q286 -10 224 23T130 118T98 260ZM267 894Q287 894 301 879T316 844Q316 824 301 809T267 795Q246 795 231 809T217 844Q217 865 231 879T267 894ZM479 894Q500 894 514 879T529 844Q529 824 514 809T479 795Q458 795 444 809T430 844Q430 865 444 879T479 894Z" horiz-adv-x="741" unicode="Ü"/>
			<glyph d="M2 710H86L295 358L503 710H582L329 284V0H255V284ZM347 917H426L298 774H232Z" horiz-adv-x="584" unicode="Ý"/>
			<glyph d="M103 710H178V575H300Q415 575 477 516T539 357Q539 296 511 244T429 161T300 130H178V0H103ZM178 509V196H292Q366 196 414 239T462 357Q462 437 416 473T292 509Z" horiz-adv-x="585" unicode="Þ"/>
			<glyph d="M303 753Q396 753 448 705T501 579Q501 522 469 478T387 415Q458 403 509 351T561 214Q561 111 498 51T330 -8Q261 -8 224 9L234 78Q271 57 323 57Q399 57 444 98T489 217Q489 294 433 335T280 377H263V433L286 434Q319 436 352 452T408 500T430 578Q430 628 397 658T306 688Q244 688 202 650T161 524V0H93V533Q93 640 152 696T303 753Z" horiz-adv-x="610" unicode="ß"/>
			<glyph d="M289 512Q386 512 438 461T491 312V0H422V88Q398 44 348 17T234 -10Q154 -10 108 30T63 139Q63 196 98 230T212 281T421 299V312Q421 376 384 413T279 450Q190 450 114 389L94 452Q129 478 179 495T289 512ZM421 248Q312 247 250 235T162 201T136 141Q136 98 165 73T248 48Q290 48 329 63T395 113T421 198ZM173 725H247L359 573H293Z" horiz-adv-x="577" unicode="à"/>
			<glyph d="M289 512Q386 512 438 461T491 312V0H422V88Q398 44 348 17T234 -10Q154 -10 108 30T63 139Q63 196 98 230T212 281T421 299V312Q421 376 384 413T279 450Q190 450 114 389L94 452Q129 478 179 495T289 512ZM421 248Q312 247 250 235T162 201T136 141Q136 98 165 73T248 48Q290 48 329 63T395 113T421 198ZM349 725H423L304 573H238Z" horiz-adv-x="577" unicode="á"/>
			<glyph d="M289 512Q386 512 438 461T491 312V0H422V88Q398 44 348 17T234 -10Q154 -10 108 30T63 139Q63 196 98 230T212 281T421 299V312Q421 376 384 413T279 450Q190 450 114 389L94 452Q129 478 179 495T289 512ZM421 248Q312 247 250 235T162 201T136 141Q136 98 165 73T248 48Q290 48 329 63T395 113T421 198ZM255 725H331L451 573H385L293 680L201 573H135Z" horiz-adv-x="577" unicode="â"/>
			<glyph d="M289 512Q386 512 438 461T491 312V0H422V88Q398 44 348 17T234 -10Q154 -10 108 30T63 139Q63 196 98 230T212 281T421 299V312Q421 376 384 413T279 450Q190 450 114 389L94 452Q129 478 179 495T289 512ZM421 248Q312 247 250 235T162 201T136 141Q136 98 165 73T248 48Q290 48 329 63T395 113T421 198ZM215 695Q243 695 302 671Q321 663 336 657T361 652Q392 652 398 695H449Q443 646 420 621T367 597Q351 597 331 603T284 621Q239 640 221 640Q208 640 199 631T185 597H134Q140 647 162 671T215 695Z" horiz-adv-x="577" unicode="ã"/>
			<glyph d="M289 512Q386 512 438 461T491 312V0H422V88Q398 44 348 17T234 -10Q154 -10 108 30T63 139Q63 196 98 230T212 281T421 299V312Q421 376 384 413T279 450Q190 450 114 389L94 452Q129 478 179 495T289 512ZM421 248Q312 247 250 235T162 201T136 141Q136 98 165 73T248 48Q290 48 329 63T395 113T421 198ZM186 716Q206 716 220 701T235 666Q235 646 220 631T186 617Q165 617 150 631T136 666Q136 687 150 701T186 716ZM398 716Q419 716 433 701T448 666Q448 646 433 631T398 617Q377 617 363 631T349 666Q349 687 363 701T398 716Z" horiz-adv-x="577" unicode="ä"/>
			<glyph d="M289 512Q386 512 438 461T491 312V0H422V88Q398 44 348 17T234 -10Q154 -10 108 30T63 139Q63 196 98 230T212 281T421 299V312Q421 376 384 413T279 450Q190 450 114 389L94 452Q129 478 179 495T289 512ZM421 248Q312 247 250 235T162 201T136 141Q136 98 165 73T248 48Q290 48 329 63T395 113T421 198ZM294 756Q337 756 365 728T393 659Q393 616 364 589T292 562Q248 562 221 590T194 659Q194 701 222 728T294 756ZM294 707Q272 707 258 694T245 659Q245 637 258 624T294 611Q316 611 329 624T342 659Q342 681 329 694T294 707Z" horiz-adv-x="577" unicode="å"/>
			<glyph d="M290 512Q357 512 403 487T472 412Q506 459 557 485T670 512Q739 512 792 479T876 387T906 255V246H494Q496 158 548 106T687 54Q742 54 790 74T870 124L890 62Q855 31 800 10T683 -10Q606 -10 548 23T457 114Q428 59 372 24T236 -10Q155 -10 109 29T63 138Q63 195 98 230T212 281T421 299V312Q421 376 384 413T279 450Q190 450 114 389L94 452Q129 478 179 495T290 512ZM670 450Q607 450 558 408T498 301H832Q824 367 780 408T670 450ZM421 248Q313 246 251 235T162 201T136 140Q136 97 165 72T248 48Q290 48 329 64T395 115T421 203Z" horiz-adv-x="950" unicode="æ"/>
			<glyph d="M303 512Q399 512 475 459L452 395Q386 446 306 446Q223 446 172 392T121 252Q121 194 144 149T207 80T300 56Q344 56 386 70T464 110L482 48Q450 24 405 8T310 -10V-44Q339 -53 356 -73T373 -122Q373 -164 338 -189T231 -214V-162Q276 -162 295 -151T314 -121Q314 -103 299 -94T261 -85V-8Q199 0 151 34T76 124T49 250Q49 327 81 386T171 479T303 512Z" horiz-adv-x="520" unicode="ç"/>
			<glyph d="M296 512Q365 512 418 479T502 387T532 255V246H120Q122 158 174 106T313 54Q368 54 416 74T496 124L516 62Q481 31 426 10T309 -10Q231 -10 172 24T81 119T49 251Q49 325 81 384T170 478T296 512ZM296 450Q233 450 184 408T124 301H458Q450 367 406 408T296 450ZM180 725H254L366 573H300Z" horiz-adv-x="576" unicode="è"/>
			<glyph d="M296 512Q365 512 418 479T502 387T532 255V246H120Q122 158 174 106T313 54Q368 54 416 74T496 124L516 62Q481 31 426 10T309 -10Q231 -10 172 24T81 119T49 251Q49 325 81 384T170 478T296 512ZM296 450Q233 450 184 408T124 301H458Q450 367 406 408T296 450ZM356 725H430L311 573H245Z" horiz-adv-x="576" unicode="é"/>
			<glyph d="M296 512Q365 512 418 479T502 387T532 255V246H120Q122 158 174 106T313 54Q368 54 416 74T496 124L516 62Q481 31 426 10T309 -10Q231 -10 172 24T81 119T49 251Q49 325 81 384T170 478T296 512ZM296 450Q233 450 184 408T124 301H458Q450 367 406 408T296 450ZM262 725H338L458 573H392L300 680L208 573H142Z" horiz-adv-x="576" unicode="ê"/>
			<glyph d="M296 512Q365 512 418 479T502 387T532 255V246H120Q122 158 174 106T313 54Q368 54 416 74T496 124L516 62Q481 31 426 10T309 -10Q231 -10 172 24T81 119T49 251Q49 325 81 384T170 478T296 512ZM296 450Q233 450 184 408T124 301H458Q450 367 406 408T296 450ZM193 716Q213 716 227 701T242 666Q242 646 227 631T193 617Q172 617 157 631T143 666Q143 687 157 701T193 716ZM405 716Q426 716 440 701T455 666Q455 646 440 631T405 617Q384 617 370 631T356 666Q356 687 370 701T405 716Z" horiz-adv-x="576" unicode="ë"/>
			<glyph d="M93 502H163V0H93ZM9 725H83L195 573H129Z" horiz-adv-x="255" unicode="ì"/>
			<glyph d="M93 502H163V0H93ZM185 725H259L140 573H74Z" horiz-adv-x="255" unicode="í"/>
			<glyph d="M93 502H163V0H93ZM91 725H167L267 573H201L129 679L57 573H-9Z" horiz-adv-x="255" unicode="î"/>
			<glyph d="M93 502H163V0H93ZM44 717Q65 717 80 702T95 666Q95 645 80 630T44 615Q22 615 7 630T-7 666Q-7 688 7 702T44 717ZM212 717Q234 717 248 702T263 666Q263 645 248 630T212 615Q191 615 176 630T161 666Q161 688 176 702T212 717Z" horiz-adv-x="255" unicode="ï"/>
			<glyph d="M191 760Q266 723 318 686L453 741L475 693L367 649Q465 569 520 470T575 262Q575 181 541 119T448 23T313 -10Q237 -10 177 23T83 115T49 249Q49 324 84 383T178 475T310 508Q394 508 461 446Q410 540 304 623L152 560L131 610L252 659Q196 696 146 720ZM315 445Q260 445 215 420T144 351T119 251Q119 194 144 149T213 80T312 55Q367 55 411 80T480 150T505 249Q505 304 480 349T412 419T315 445Z" horiz-adv-x="624" unicode="ð"/>
			<glyph d="M347 512Q433 512 480 460T528 307V0H458V288Q458 367 424 407T325 448Q279 448 242 427T184 369T163 286V0H93V502H163V409Q188 457 236 484T347 512ZM245 695Q273 695 332 671Q351 663 366 657T391 652Q422 652 428 695H479Q473 646 450 621T397 597Q381 597 361 603T314 621Q269 640 251 640Q238 640 229 631T215 597H164Q170 647 192 671T245 695Z" unicode="ñ"/>
			<glyph d="M312 512Q389 512 448 478T541 386T575 251Q575 175 541 116T448 23T312 -10Q235 -10 175 23T82 116T49 251Q49 327 82 386T175 478T312 512ZM312 445Q256 445 212 420T145 352T121 252Q121 194 145 150T213 81T312 57Q368 57 412 81T480 150T504 251Q504 308 479 352T411 420T312 445ZM192 725H266L378 573H312Z" horiz-adv-x="624" unicode="ò"/>
			<glyph d="M312 512Q389 512 448 478T541 386T575 251Q575 175 541 116T448 23T312 -10Q235 -10 175 23T82 116T49 251Q49 327 82 386T175 478T312 512ZM312 445Q256 445 212 420T145 352T121 252Q121 194 145 150T213 81T312 57Q368 57 412 81T480 150T504 251Q504 308 479 352T411 420T312 445ZM368 725H442L323 573H257Z" horiz-adv-x="624" unicode="ó"/>
			<glyph d="M312 512Q389 512 448 478T541 386T575 251Q575 175 541 116T448 23T312 -10Q235 -10 175 23T82 116T49 251Q49 327 82 386T175 478T312 512ZM312 445Q256 445 212 420T145 352T121 252Q121 194 145 150T213 81T312 57Q368 57 412 81T480 150T504 251Q504 308 479 352T411 420T312 445ZM274 725H350L470 573H404L312 680L220 573H154Z" horiz-adv-x="624" unicode="ô"/>
			<glyph d="M312 512Q389 512 448 478T541 386T575 251Q575 175 541 116T448 23T312 -10Q235 -10 175 23T82 116T49 251Q49 327 82 386T175 478T312 512ZM312 445Q256 445 212 420T145 352T121 252Q121 194 145 150T213 81T312 57Q368 57 412 81T480 150T504 251Q504 308 479 352T411 420T312 445ZM234 695Q262 695 321 671Q340 663 355 657T380 652Q411 652 417 695H468Q462 646 439 621T386 597Q370 597 350 603T303 621Q258 640 240 640Q227 640 218 631T204 597H153Q159 647 181 671T234 695Z" horiz-adv-x="624" unicode="õ"/>
			<glyph d="M312 512Q389 512 448 478T541 386T575 251Q575 175 541 116T448 23T312 -10Q235 -10 175 23T82 116T49 251Q49 327 82 386T175 478T312 512ZM312 445Q256 445 212 420T145 352T121 252Q121 194 145 150T213 81T312 57Q368 57 412 81T480 150T504 251Q504 308 479 352T411 420T312 445ZM205 716Q225 716 239 701T254 666Q254 646 239 631T205 617Q184 617 169 631T155 666Q155 687 169 701T205 716ZM417 716Q438 716 452 701T467 666Q467 646 452 631T417 617Q396 617 382 631T368 666Q368 687 382 701T417 716Z" horiz-adv-x="624" unicode="ö"/>
			<glyph d="M291 553Q312 553 326 538T341 503Q341 482 326 467T291 453Q270 453 255 467T241 503Q241 524 255 538T291 553ZM66 380H516V321H66ZM291 248Q312 248 326 233T341 198Q341 177 326 162T291 148Q270 148 255 162T241 198Q241 219 255 233T291 248Z" horiz-adv-x="582" unicode="÷"/>
			<glyph d="M495 554H559L487 451Q529 416 552 364T575 251Q575 176 541 116T447 23T312 -10Q241 -10 183 20L131 -54H67L139 49Q96 84 72 136T49 251Q49 326 83 385T176 478T312 512Q384 512 443 481ZM312 447Q256 447 212 422T143 353T119 252Q119 207 134 169T179 105L405 426Q365 447 312 447ZM448 396L222 75Q262 55 312 55Q368 55 412 80T480 149T505 251Q505 295 490 332T448 396Z" horiz-adv-x="624" unicode="ø"/>
			<glyph d="M86 502H156V213Q156 134 190 93T290 53Q336 53 373 74T431 132T452 216V502H522V0H452V95Q428 45 380 17T267 -10Q182 -10 134 41T86 194ZM190 725H264L376 573H310Z" unicode="ù"/>
			<glyph d="M86 502H156V213Q156 134 190 93T290 53Q336 53 373 74T431 132T452 216V502H522V0H452V95Q428 45 380 17T267 -10Q182 -10 134 41T86 194ZM366 725H440L321 573H255Z" unicode="ú"/>
			<glyph d="M86 502H156V213Q156 134 190 93T290 53Q336 53 373 74T431 132T452 216V502H522V0H452V95Q428 45 380 17T267 -10Q182 -10 134 41T86 194ZM272 725H348L468 573H402L310 680L218 573H152Z" unicode="û"/>
			<glyph d="M86 502H156V213Q156 134 190 93T290 53Q336 53 373 74T431 132T452 216V502H522V0H452V95Q428 45 380 17T267 -10Q182 -10 134 41T86 194ZM203 716Q223 716 237 701T252 666Q252 646 237 631T203 617Q182 617 167 631T153 666Q153 687 167 701T203 716ZM415 716Q436 716 450 701T465 666Q465 646 450 631T415 617Q394 617 380 631T366 666Q366 687 380 701T415 716Z" unicode="ü"/>
			<glyph d="M4 502H81L256 108L410 502H485L250 -72Q220 -146 177 -180T72 -215Q39 -215 14 -207L24 -143Q42 -148 62 -148Q105 -148 134 -127T187 -49L219 25ZM302 725H376L257 573H191Z" horiz-adv-x="489" unicode="ý"/>
			<glyph d="M93 752H163V401Q194 455 247 483T359 512Q428 512 483 478T568 385T599 252Q599 177 568 117T481 24T353 -10Q297 -10 244 18T163 101V-210H93ZM349 446Q296 446 252 421T182 351T157 252Q157 197 182 152T250 82T347 56Q400 56 441 81T505 150T528 251Q528 306 506 350T443 420T349 446Z" horiz-adv-x="648" unicode="þ"/>
			<glyph d="M4 502H81L256 108L410 502H485L250 -72Q220 -146 177 -180T72 -215Q39 -215 14 -207L24 -143Q42 -148 62 -148Q105 -148 134 -127T187 -49L219 25ZM139 716Q159 716 173 701T188 666Q188 646 173 631T139 617Q118 617 103 631T89 666Q89 687 103 701T139 716ZM351 716Q372 716 386 701T401 666Q401 646 386 631T351 617Q330 617 316 631T302 666Q302 687 316 701T351 716Z" horiz-adv-x="489" unicode="ÿ"/>
			<glyph d="M294 710H372L645 0H567L480 230H184L97 0H21ZM332 624L207 293H457ZM175 863H488V810H175ZZ" horiz-adv-x="666" unicode="Ā"/>
			<glyph d="M289 512Q386 512 438 461T491 312V0H422V88Q398 44 348 17T234 -10Q154 -10 108 30T63 139Q63 196 98 230T212 281T421 299V312Q421 376 384 413T279 450Q190 450 114 389L94 452Q129 478 179 495T289 512ZM421 248Q312 247 250 235T162 201T136 141Q136 98 165 73T248 48Q290 48 329 63T395 113T421 198ZM135 679H448V625H135Z" horiz-adv-x="577" unicode="ā"/>
			<glyph d="M294 710H372L645 0H567L480 230H184L97 0H21ZM332 624L207 293H457ZM191 892H246Q249 860 272 843T335 826Q372 826 394 843T421 892H475Q471 839 432 807T334 776Q268 776 231 807T191 892Z" horiz-adv-x="666" unicode="Ă"/>
			<glyph d="M289 512Q386 512 438 461T491 312V0H422V88Q398 44 348 17T234 -10Q154 -10 108 30T63 139Q63 196 98 230T212 281T421 299V312Q421 376 384 413T279 450Q190 450 114 389L94 452Q129 478 179 495T289 512ZM421 248Q312 247 250 235T162 201T136 141Q136 98 165 73T248 48Q290 48 329 63T395 113T421 198ZM152 725H207Q208 680 231 657T293 634Q333 634 355 657T379 725H433Q432 660 393 622T292 584Q229 584 191 621T152 725Z" horiz-adv-x="577" unicode="ă"/>
			<glyph d="M294 710H372L645 0H567L480 230H184L97 0H21ZM332 624L207 293H457ZM578 0H639Q574 -35 574 -90Q574 -117 588 -129T626 -142Q647 -142 668 -134L680 -181Q668 -187 649 -191T613 -195Q568 -195 540 -170T513 -104Q513 -72 530 -45T578 0Z" horiz-adv-x="666" unicode="Ą"/>
			<glyph d="M289 512Q386 512 438 461T491 312V0H485Q420 -35 420 -90Q420 -117 434 -129T472 -142Q493 -142 514 -134L526 -181Q514 -187 495 -191T459 -195Q414 -195 386 -170T359 -104Q359 -72 376 -45T424 0H422V88Q398 44 348 17T234 -10Q154 -10 108 30T63 139Q63 196 98 230T212 281T421 299V312Q421 376 384 413T279 450Q190 450 114 389L94 452Q129 478 179 495T289 512ZM421 248Q312 247 250 235T162 201T136 141Q136 98 165 73T248 48Q290 48 329 63T395 113T421 198Z" horiz-adv-x="577" unicode="ą"/>
			<glyph d="M433 720Q501 720 562 699T671 641L645 570Q601 607 547 627T434 648Q350 648 284 610T180 506T143 357Q143 273 180 206T284 100T434 62Q498 62 555 84T659 142L682 72Q626 30 565 10T432 -10Q328 -10 244 37T113 168T66 357Q66 461 113 544T245 673T433 720ZM486 917H565L437 774H371Z" horiz-adv-x="729" unicode="Ć"/>
			<glyph d="M303 512Q399 512 475 459L452 395Q386 446 306 446Q223 446 172 392T121 252Q121 194 144 149T207 80T300 56Q344 56 386 70T464 110L482 48Q447 22 399 6T297 -10Q226 -10 169 22T81 114T49 250Q49 327 81 386T171 479T303 512ZM355 725H429L310 573H244Z" horiz-adv-x="520" unicode="ć"/>
			<glyph d="M433 720Q501 720 562 699T671 641L645 570Q601 607 547 627T434 648Q350 648 284 610T180 506T143 357Q143 273 180 206T284 100T434 62Q498 62 555 84T659 142L682 72Q626 30 565 10T432 -10Q328 -10 244 37T113 168T66 357Q66 461 113 544T245 673T433 720ZM391 904H467L587 774H521L429 858L337 774H271Z" horiz-adv-x="729" unicode="Ĉ"/>
			<glyph d="M303 512Q399 512 475 459L452 395Q386 446 306 446Q223 446 172 392T121 252Q121 194 144 149T207 80T300 56Q344 56 386 70T464 110L482 48Q447 22 399 6T297 -10Q226 -10 169 22T81 114T49 250Q49 327 81 386T171 479T303 512ZM261 725H337L457 573H391L299 680L207 573H141Z" horiz-adv-x="520" unicode="ĉ"/>
			<glyph d="M433 720Q501 720 562 699T671 641L645 570Q601 607 547 627T434 648Q350 648 284 610T180 506T143 357Q143 273 180 206T284 100T434 62Q498 62 555 84T659 142L682 72Q626 30 565 10T432 -10Q328 -10 244 37T113 168T66 357Q66 461 113 544T245 673T433 720ZM429 896Q451 896 466 881T482 843Q482 821 466 805T429 790Q406 790 391 805T376 843Q376 866 391 881T429 896Z" horiz-adv-x="729" unicode="Ċ"/>
			<glyph d="M303 512Q399 512 475 459L452 395Q386 446 306 446Q223 446 172 392T121 252Q121 194 144 149T207 80T300 56Q344 56 386 70T464 110L482 48Q447 22 399 6T297 -10Q226 -10 169 22T81 114T49 250Q49 327 81 386T171 479T303 512ZM299 718Q321 718 336 703T352 665Q352 643 336 627T299 612Q276 612 261 627T246 665Q246 688 261 703T299 718Z" horiz-adv-x="520" unicode="ċ"/>
			<glyph d="M433 720Q501 720 562 699T671 641L645 570Q601 607 547 627T434 648Q350 648 284 610T180 506T143 357Q143 273 180 206T284 100T434 62Q498 62 555 84T659 142L682 72Q626 30 565 10T432 -10Q328 -10 244 37T113 168T66 357Q66 461 113 544T245 673T433 720ZM271 904H337L429 820L521 904H587L467 774H391Z" horiz-adv-x="729" unicode="Č"/>
			<glyph d="M303 512Q399 512 475 459L452 395Q386 446 306 446Q223 446 172 392T121 252Q121 194 144 149T207 80T300 56Q344 56 386 70T464 110L482 48Q447 22 399 6T297 -10Q226 -10 169 22T81 114T49 250Q49 327 81 386T171 479T303 512ZM146 725H212L300 619L387 725H453L337 573H262Z" horiz-adv-x="520" unicode="č"/>
			<glyph d="M103 710H327Q437 710 519 666T645 544T690 361Q690 253 645 171T519 45T327 0H103ZM178 642V68H323Q413 68 478 104T579 205T614 360Q614 445 579 509T478 607T324 642ZM212 904H278L370 820L462 904H528L408 774H332Z" horiz-adv-x="757" unicode="Ď"/>
			<glyph d="M486 752H556V-2H486V103Q454 45 404 17T292 -10Q221 -10 166 23T80 116T49 250Q49 325 80 385T167 478T292 512Q354 512 405 484T486 402ZM302 446Q249 446 208 421T144 352T121 250Q121 164 170 110T301 56Q355 56 398 82T466 152T491 252Q491 307 466 351T398 420T302 446ZM692 752H765L688 542H630Z" horiz-adv-x="736" unicode="ď"/>
			<glyph d="M103 710H327Q437 710 519 666T645 544T690 361Q690 253 645 171T519 45T327 0H103V323H11V388H103ZM178 642V388H385V323H178V68H323Q413 68 478 104T579 205T614 360Q614 445 579 509T478 607T324 642Z" horiz-adv-x="757" unicode="Đ"/>
			<glyph d="M486 752H556V653H628V597H556V-2H486V102Q454 44 404 17T292 -10Q221 -10 166 23T80 115T49 248Q49 323 80 382T167 474T292 507Q354 507 405 479T486 397V597H315V653H486ZM302 442Q250 442 208 417T144 349T121 248Q121 162 170 108T301 55Q355 55 398 80T466 150T491 249Q491 303 466 347T398 416T302 442Z" horiz-adv-x="647" unicode="đ"/>
			<glyph d="M103 710H492V642H178V390H483V323H178V68H500V0H103ZM144 863H457V810H144ZZ" horiz-adv-x="578" unicode="Ē"/>
			<glyph d="M296 512Q365 512 418 479T502 387T532 255V246H120Q122 158 174 106T313 54Q368 54 416 74T496 124L516 62Q481 31 426 10T309 -10Q231 -10 172 24T81 119T49 251Q49 325 81 384T170 478T296 512ZM296 450Q233 450 184 408T124 301H458Q450 367 406 408T296 450ZM142 679H455V625H142Z" horiz-adv-x="576" unicode="ē"/>
			<glyph d="M103 710H492V642H178V390H483V323H178V68H500V0H103ZM160 892H215Q218 860 241 843T304 826Q341 826 363 843T390 892H444Q440 839 401 807T303 776Q237 776 200 807T160 892Z" horiz-adv-x="578" unicode="Ĕ"/>
			<glyph d="M296 512Q365 512 418 479T502 387T532 255V246H120Q122 158 174 106T313 54Q368 54 416 74T496 124L516 62Q481 31 426 10T309 -10Q231 -10 172 24T81 119T49 251Q49 325 81 384T170 478T296 512ZM296 450Q233 450 184 408T124 301H458Q450 367 406 408T296 450ZM159 725H214Q215 680 238 657T300 634Q340 634 362 657T386 725H440Q439 660 400 622T299 584Q236 584 198 621T159 725Z" horiz-adv-x="576" unicode="ĕ"/>
			<glyph d="M103 710H492V642H178V390H483V323H178V68H500V0H103ZM302 896Q324 896 339 881T355 843Q355 821 339 805T302 790Q279 790 264 805T249 843Q249 866 264 881T302 896Z" horiz-adv-x="578" unicode="Ė"/>
			<glyph d="M296 512Q365 512 418 479T502 387T532 255V246H120Q122 158 174 106T313 54Q368 54 416 74T496 124L516 62Q481 31 426 10T309 -10Q231 -10 172 24T81 119T49 251Q49 325 81 384T170 478T296 512ZM296 450Q233 450 184 408T124 301H458Q450 367 406 408T296 450ZM300 718Q322 718 337 703T353 665Q353 643 337 627T300 612Q277 612 262 627T247 665Q247 688 262 703T300 718Z" horiz-adv-x="576" unicode="ė"/>
			<glyph d="M103 710H492V642H178V390H483V323H178V68H500V0H103ZM396 0H457Q392 -35 392 -90Q392 -117 406 -129T444 -142Q465 -142 486 -134L498 -181Q486 -187 467 -191T431 -195Q386 -195 358 -170T331 -104Q331 -72 348 -45T396 0Z" horiz-adv-x="578" unicode="Ę"/>
			<glyph d="M296 512Q365 512 418 479T502 387T532 255V246H120Q122 159 174 106T314 54Q368 54 416 74T496 123L516 62Q497 44 462 22Q417 -8 395 -31T374 -90Q374 -117 387 -129T425 -142Q446 -142 467 -134L479 -181Q467 -187 448 -191T412 -195Q368 -195 340 -170T313 -104Q313 -75 327 -49T368 -6Q343 -10 310 -10Q231 -10 172 24T81 118T49 251Q49 325 81 384T170 478T296 512ZM296 450Q233 450 184 408T124 301H458Q450 367 406 408T296 450Z" horiz-adv-x="576" unicode="ę"/>
			<glyph d="M103 710H492V642H178V390H483V323H178V68H500V0H103ZM144 904H210L302 820L394 904H460L340 774H264Z" horiz-adv-x="578" unicode="Ě"/>
			<glyph d="M296 512Q365 512 418 479T502 387T532 255V246H120Q122 158 174 106T313 54Q368 54 416 74T496 124L516 62Q481 31 426 10T309 -10Q231 -10 172 24T81 119T49 251Q49 325 81 384T170 478T296 512ZM296 450Q233 450 184 408T124 301H458Q450 367 406 408T296 450ZM147 725H213L301 619L388 725H454L338 573H263Z" horiz-adv-x="576" unicode="ě"/>
			<glyph d="M432 720Q510 720 573 698T697 634L670 563Q614 605 558 626T432 648Q349 648 283 610T180 506T143 354Q143 270 177 203T274 99T417 62Q492 62 549 92T636 171T669 272H425V336H741V0H671V130Q642 74 574 32T411 -10Q312 -10 233 37T110 168T66 355Q66 459 114 542T245 673T432 720ZM388 904H464L584 774H518L426 858L334 774H268Z" horiz-adv-x="821" unicode="Ĝ"/>
			<glyph d="M296 512Q420 512 486 404V502H556V13Q556 -100 487 -159T300 -219Q173 -219 88 -150L110 -81Q190 -154 303 -154Q388 -154 437 -111T486 14V106Q455 51 406 24T295 -3Q224 -3 168 30T80 121T49 253Q49 326 79 385T166 478T296 512ZM305 447Q250 447 208 421T143 352T120 254Q120 199 143 155T209 86T306 62Q360 62 402 87T468 157T491 255Q491 306 467 350T400 420T305 447ZM273 725H349L469 573H403L311 680L219 573H153Z" horiz-adv-x="647" unicode="ĝ"/>
			<glyph d="M432 720Q510 720 573 698T697 634L670 563Q614 605 558 626T432 648Q349 648 283 610T180 506T143 354Q143 270 177 203T274 99T417 62Q492 62 549 92T636 171T669 272H425V336H741V0H671V130Q642 74 574 32T411 -10Q312 -10 233 37T110 168T66 355Q66 459 114 542T245 673T432 720ZM284 892H339Q342 860 365 843T428 826Q465 826 487 843T514 892H568Q564 839 525 807T427 776Q361 776 324 807T284 892Z" horiz-adv-x="821" unicode="Ğ"/>
			<glyph d="M296 512Q420 512 486 404V502H556V13Q556 -100 487 -159T300 -219Q173 -219 88 -150L110 -81Q190 -154 303 -154Q388 -154 437 -111T486 14V106Q455 51 406 24T295 -3Q224 -3 168 30T80 121T49 253Q49 326 79 385T166 478T296 512ZM305 447Q250 447 208 421T143 352T120 254Q120 199 143 155T209 86T306 62Q360 62 402 87T468 157T491 255Q491 306 467 350T400 420T305 447ZM170 725H225Q226 680 249 657T311 634Q351 634 373 657T397 725H451Q450 660 411 622T310 584Q247 584 209 621T170 725Z" horiz-adv-x="647" unicode="ğ"/>
			<glyph d="M432 720Q510 720 573 698T697 634L670 563Q614 605 558 626T432 648Q349 648 283 610T180 506T143 354Q143 270 177 203T274 99T417 62Q492 62 549 92T636 171T669 272H425V336H741V0H671V130Q642 74 574 32T411 -10Q312 -10 233 37T110 168T66 355Q66 459 114 542T245 673T432 720ZM426 896Q448 896 463 881T479 843Q479 821 463 805T426 790Q403 790 388 805T373 843Q373 866 388 881T426 896Z" horiz-adv-x="821" unicode="Ġ"/>
			<glyph d="M296 512Q420 512 486 404V502H556V13Q556 -100 487 -159T300 -219Q173 -219 88 -150L110 -81Q190 -154 303 -154Q388 -154 437 -111T486 14V106Q455 51 406 24T295 -3Q224 -3 168 30T80 121T49 253Q49 326 79 385T166 478T296 512ZM305 447Q250 447 208 421T143 352T120 254Q120 199 143 155T209 86T306 62Q360 62 402 87T468 157T491 255Q491 306 467 350T400 420T305 447ZM311 718Q333 718 348 703T364 665Q364 643 348 627T311 612Q288 612 273 627T258 665Q258 688 273 703T311 718Z" horiz-adv-x="647" unicode="ġ"/>
			<glyph d="M432 720Q510 720 573 698T697 634L670 563Q614 605 558 626T432 648Q349 648 283 610T180 506T143 354Q143 270 177 203T274 99T417 62Q492 62 549 92T636 171T669 272H425V336H741V0H671V130Q642 74 574 32T411 -10Q312 -10 233 37T110 168T66 355Q66 459 114 542T245 673T432 720ZM373 -56H447L376 -219H314Z" horiz-adv-x="821" unicode="Ģ"/>
			<glyph d="M296 512Q420 512 486 404V502H556V13Q556 -100 487 -159T300 -219Q173 -219 88 -150L110 -81Q190 -154 303 -154Q388 -154 437 -111T486 14V106Q455 51 406 24T295 -3Q224 -3 168 30T80 121T49 253Q49 326 79 385T166 478T296 512ZM305 447Q250 447 208 421T143 352T120 254Q120 199 143 155T209 86T306 62Q360 62 402 87T468 157T491 255Q491 306 467 350T400 420T305 447ZM331 738H393L328 573H254Z" horiz-adv-x="647" unicode="ģ"/>
			<glyph d="M103 710H178V390H580V710H655V0H580V321H178V0H103ZM342 904H418L538 774H472L380 858L288 774H222Z" horiz-adv-x="759" unicode="Ĥ"/>
			<glyph d="M93 752H163V411Q188 459 235 486T345 513Q432 513 480 461T528 308V0H458V290Q458 368 424 408T325 449Q279 449 242 428T184 371T163 288V0H93ZM90 924H166L286 794H220L128 878L36 794H-30Z" unicode="ĥ"/>
			<glyph d="M103 710H178V587H580V710H655V0H580V321H178V0H103ZM178 522V390H580V522Z" horiz-adv-x="759" unicode="Ħ"/>
			<glyph d="M93 752H163V653H332V596H163V406Q188 454 235 481T345 508Q432 508 480 456T528 303V0H458V285Q458 363 424 403T325 444Q279 444 242 423T184 366T163 283V0H93V596H20V653H93Z" unicode="ħ"/>
			<glyph d="M103 710H178V0H103ZM61 872Q89 872 150 848Q168 841 185 835T213 829Q228 829 235 839T246 872H297Q291 825 271 799T218 774Q201 774 181 780T132 798Q84 817 68 817Q53 817 46 807T33 774H-18Q-12 824 8 848T61 872Z" horiz-adv-x="282" unicode="Ĩ"/>
			<glyph d="M93 502H163V0H93ZM64 695Q79 695 94 689T136 671Q140 669 152 663T172 654T186 652Q212 652 216 695H267Q256 597 194 597Q179 597 164 602T122 621Q84 640 70 640Q59 640 52 630T41 597H-9Q0 695 64 695Z" horiz-adv-x="255" unicode="ĩ"/>
			<glyph d="M103 710H178V0H103ZM-17 863H296V810H-17ZZ" horiz-adv-x="282" unicode="Ī"/>
			<glyph d="M93 502H163V0H93ZM1 679H254V625H1Z" horiz-adv-x="255" unicode="ī"/>
			<glyph d="M103 710H178V0H103ZM-1 892H54Q57 860 80 843T143 826Q180 826 202 843T229 892H283Q279 839 240 807T142 776Q76 776 39 807T-1 892Z" horiz-adv-x="282" unicode="Ĭ"/>
			<glyph d="M93 502H163V0H93ZM-2 725H53Q56 634 129 634Q201 634 205 725H259Q258 658 222 621T128 584Q69 584 34 620T-2 725Z" horiz-adv-x="255" unicode="ĭ"/>
			<glyph d="M103 710H178V0H103ZM111 0H172Q107 -35 107 -90Q107 -117 121 -129T159 -142Q180 -142 201 -134L213 -181Q201 -187 182 -191T146 -195Q101 -195 73 -170T46 -104Q46 -72 63 -45T111 0Z" horiz-adv-x="282" unicode="Į"/>
			<glyph d="M93 502H163V0H93ZM129 718Q151 718 166 703T182 665Q182 643 166 627T129 612Q106 612 91 627T76 665Q76 688 91 703T129 718ZM95 0H156Q91 -35 91 -90Q91 -117 105 -129T143 -142Q164 -142 185 -134L197 -181Q185 -187 166 -191T130 -195Q85 -195 57 -170T30 -104Q30 -72 47 -45T95 0Z" horiz-adv-x="255" unicode="į"/>
			<glyph d="M103 710H178V0H103ZM141 896Q163 896 178 881T194 843Q194 821 178 805T141 790Q118 790 103 805T88 843Q88 866 103 881T141 896Z" horiz-adv-x="282" unicode="İ"/>
			<glyph d="M93 502H163V0H93Z" horiz-adv-x="255" unicode="ı"/>
			<glyph d="M103 710H178V0H103ZM510 710H585V225Q585 111 532 50T385 -10Q328 -10 282 11L297 78Q315 69 337 63T378 58Q439 58 474 102T510 234Z" horiz-adv-x="680" unicode="Ĳ"/>
			<glyph d="M93 502H163V0H93ZM129 718Q151 718 166 703T182 665Q182 643 166 627T129 612Q106 612 91 627T76 665Q76 688 91 703T129 718ZM348 502H418V-59Q418 -143 387 -181T296 -219Q259 -219 234 -209L244 -147Q263 -153 283 -153Q319 -153 333 -131T348 -49ZM384 718Q406 718 421 703T437 665Q437 643 421 627T384 612Q361 612 346 627T331 665Q331 688 346 703T384 718Z" horiz-adv-x="512" unicode="ĳ"/>
			<glyph d="M228 710H303V225Q303 111 250 50T103 -10Q46 -10 0 11L15 78Q33 69 55 63T96 58Q157 58 192 102T228 234ZM227 904H303L423 774H357L265 858L173 774H107Z" horiz-adv-x="398" unicode="Ĵ"/>
			<glyph d="M93 502H163V-59Q163 -143 132 -181T41 -219Q4 -219 -21 -209L-11 -147Q8 -153 28 -153Q64 -153 78 -131T93 -49ZM91 725H167L267 573H201L129 679L57 573H-9Z" horiz-adv-x="257" unicode="ĵ"/>
			<glyph d="M103 710H178V360L491 710H585L272 365L613 0H513L178 358V0H103ZM298 -56H372L301 -219H239Z" horiz-adv-x="619" unicode="Ķ"/>
			<glyph d="M93 752H163V264L399 502H493L250 265L502 0H406L163 259V0H93ZM238 -56H312L241 -219H179Z" horiz-adv-x="513" unicode="ķ"/>
			<glyph d="M93 502H163V264L399 502H493L250 265L502 0H406L163 259V0H93Z" horiz-adv-x="513" unicode="ĸ"/>
			<glyph d="M103 710H178V69H495V0H103ZM220 917H299L171 774H105Z" horiz-adv-x="515" unicode="Ĺ"/>
			<glyph d="M90 752H160V120Q160 54 209 54Q223 54 237 58T261 67L272 8Q240 -10 193 -10Q144 -10 117 19T90 110ZM209 938H288L160 795H94Z" horiz-adv-x="286" unicode="ĺ"/>
			<glyph d="M103 710H178V69H495V0H103ZM265 -56H339L268 -219H206Z" horiz-adv-x="515" unicode="Ļ"/>
			<glyph d="M90 752H160V120Q160 54 209 54Q223 54 237 58T261 67L272 8Q240 -10 193 -10Q144 -10 117 19T90 110ZM136 -56H210L139 -219H77Z" horiz-adv-x="286" unicode="ļ"/>
			<glyph d="M103 710H178V69H495V0H103ZM395 710H468L391 500H333Z" horiz-adv-x="515" unicode="Ľ"/>
			<glyph d="M90 752H160V120Q160 54 209 54Q223 54 237 58T261 67L272 8Q240 -10 193 -10Q144 -10 117 19T90 110ZM296 752H369L292 542H234Z" horiz-adv-x="340" unicode="ľ"/>
			<glyph d="M103 710H178V69H495V0H103ZM401 443Q423 443 438 428T454 390Q454 368 438 352T401 337Q378 337 363 352T348 390Q348 413 363 428T401 443Z" horiz-adv-x="515" unicode="Ŀ"/>
			<glyph d="M90 752H160V120Q160 54 209 54Q223 54 237 58T261 67L272 8Q240 -10 193 -10Q144 -10 117 19T90 110ZM277 452Q299 452 314 437T330 399Q330 377 314 361T277 346Q254 346 239 361T224 399Q224 422 239 437T277 452Z" horiz-adv-x="301" unicode="ŀ"/>
			<glyph d="M103 710H178V395L331 483V410L178 322V69H495V0H103V279L25 234V306L103 351Z" horiz-adv-x="515" unicode="Ł"/>
			<glyph d="M92 752H162V434L260 491V425L162 368V120Q162 54 211 54Q225 54 239 58T263 67L274 8Q242 -10 195 -10Q146 -10 119 19T92 110V328L21 287V353L92 394Z" horiz-adv-x="289" unicode="ł"/>
			<glyph d="M103 710H174L599 119V710H673V0H602L177 591V0H103ZM453 917H532L404 774H338Z" horiz-adv-x="776" unicode="Ń"/>
			<glyph d="M347 512Q433 512 480 460T528 307V0H458V288Q458 367 424 407T325 448Q279 448 242 427T184 369T163 286V0H93V502H163V409Q188 457 236 484T347 512ZM379 725H453L334 573H268Z" unicode="ń"/>
			<glyph d="M103 710H174L599 119V710H673V0H602L177 591V0H103ZM350 -56H424L353 -219H291Z" horiz-adv-x="776" unicode="Ņ"/>
			<glyph d="M347 512Q433 512 480 460T528 307V0H458V288Q458 367 424 407T325 448Q279 448 242 427T184 369T163 286V0H93V502H163V409Q188 457 236 484T347 512ZM284 -56H358L287 -219H225Z" unicode="ņ"/>
			<glyph d="M103 710H174L599 119V710H673V0H602L177 591V0H103ZM238 904H304L396 820L488 904H554L434 774H358Z" horiz-adv-x="776" unicode="Ň"/>
			<glyph d="M347 512Q433 512 480 460T528 307V0H458V288Q458 367 424 407T325 448Q279 448 242 427T184 369T163 286V0H93V502H163V409Q188 457 236 484T347 512ZM170 725H236L324 619L411 725H477L361 573H286Z" unicode="ň"/>
			<glyph d="M370 512Q456 512 503 460T551 307V0H481V288Q481 367 447 407T348 448Q302 448 265 427T207 369T186 286V0H116V502H186V409Q211 457 259 484T370 512ZM31 710H109L26 507H-36Z" horiz-adv-x="638" unicode="ŉ"/>
			<glyph d="M103 710H174L599 135V710H673V-3Q673 -104 619 -162T476 -221Q418 -221 372 -200L387 -135Q427 -155 466 -155Q531 -155 565 -116T599 -6V20L177 592V0H103Z" horiz-adv-x="776" unicode="Ŋ"/>
			<glyph d="M347 512Q433 512 480 460T528 307V-59Q528 -145 499 -182T406 -219Q370 -219 345 -209L355 -147Q375 -153 394 -153Q430 -153 444 -131T458 -49V288Q458 367 424 407T325 448Q279 448 242 427T184 369T163 286V0H93V502H163V407Q188 456 235 484T347 512Z" unicode="ŋ"/>
			<glyph d="M436 720Q540 720 624 673T757 542T805 356Q805 252 757 168T624 37T435 -10Q331 -10 246 37T114 167T66 355Q66 459 114 542T246 673T436 720ZM436 649Q352 649 285 611T180 505T142 355Q142 272 180 205T285 100T436 62Q519 62 586 100T691 205T729 355Q729 438 691 505T586 611T436 649ZM277 863H590V810H277ZZ" horiz-adv-x="871" unicode="Ō"/>
			<glyph d="M312 512Q389 512 448 478T541 386T575 251Q575 175 541 116T448 23T312 -10Q235 -10 175 23T82 116T49 251Q49 327 82 386T175 478T312 512ZM312 445Q256 445 212 420T145 352T121 252Q121 194 145 150T213 81T312 57Q368 57 412 81T480 150T504 251Q504 308 479 352T411 420T312 445ZM154 679H467V625H154Z" horiz-adv-x="624" unicode="ō"/>
			<glyph d="M436 720Q540 720 624 673T757 542T805 356Q805 252 757 168T624 37T435 -10Q331 -10 246 37T114 167T66 355Q66 459 114 542T246 673T436 720ZM436 649Q352 649 285 611T180 505T142 355Q142 272 180 205T285 100T436 62Q519 62 586 100T691 205T729 355Q729 438 691 505T586 611T436 649ZM293 892H348Q351 860 374 843T437 826Q474 826 496 843T523 892H577Q573 839 534 807T436 776Q370 776 333 807T293 892Z" horiz-adv-x="871" unicode="Ŏ"/>
			<glyph d="M312 512Q389 512 448 478T541 386T575 251Q575 175 541 116T448 23T312 -10Q235 -10 175 23T82 116T49 251Q49 327 82 386T175 478T312 512ZM312 445Q256 445 212 420T145 352T121 252Q121 194 145 150T213 81T312 57Q368 57 412 81T480 150T504 251Q504 308 479 352T411 420T312 445ZM171 725H226Q227 680 250 657T312 634Q352 634 374 657T398 725H452Q451 660 412 622T311 584Q248 584 210 621T171 725Z" horiz-adv-x="624" unicode="ŏ"/>
			<glyph d="M436 720Q540 720 624 673T757 542T805 356Q805 252 757 168T624 37T435 -10Q331 -10 246 37T114 167T66 355Q66 459 114 542T246 673T436 720ZM436 649Q352 649 285 611T180 505T142 355Q142 272 180 205T285 100T436 62Q519 62 586 100T691 205T729 355Q729 438 691 505T586 611T436 649ZM434 918H508L384 774H318ZM580 918H654L530 774H464Z" horiz-adv-x="871" unicode="Ő"/>
			<glyph d="M312 512Q389 512 448 478T541 386T575 251Q575 175 541 116T448 23T312 -10Q235 -10 175 23T82 116T49 251Q49 327 82 386T175 478T312 512ZM312 445Q256 445 212 420T145 352T121 252Q121 194 145 150T213 81T312 57Q368 57 412 81T480 150T504 251Q504 308 479 352T411 420T312 445ZM297 725H371L251 573H185ZM443 725H517L397 573H331Z" horiz-adv-x="624" unicode="ő"/>
			<glyph d="M434 720Q527 720 604 681T730 576V710H1118V642H805V390H1109V323H805V68H1126V0H730V136Q681 68 604 29T433 -10Q330 -10 246 37T114 167T66 355Q66 459 114 542T246 673T434 720ZM436 648Q353 648 286 610T181 505T143 355Q143 272 181 205T285 100T435 62Q518 62 585 100T691 205T729 355Q729 438 691 505T586 610T436 648Z" horiz-adv-x="1204" unicode="Œ"/>
			<glyph d="M312 512Q387 512 446 479T539 390Q572 447 627 479T751 512Q820 512 873 479T957 387T987 255V246H575Q577 158 629 106T768 54Q823 54 871 74T951 124L971 62Q936 31 881 10T764 -10Q688 -10 630 22T540 112Q507 55 447 22T312 -10Q235 -10 175 23T82 116T49 251Q49 327 82 386T175 478T312 512ZM751 450Q688 450 639 408T579 301H913Q905 367 861 408T751 450ZM312 445Q256 445 212 420T145 352T121 252Q121 194 145 150T213 81T312 57Q368 57 412 81T480 150T504 251Q504 308 479 352T411 420T312 445Z" horiz-adv-x="1031" unicode="œ"/>
			<glyph d="M103 710H307Q410 710 470 655T531 507Q531 438 493 385T389 311L598 0H509L315 297H299H178V0H103ZM178 644V361H297Q364 361 409 396T455 505Q455 576 410 610T300 644ZM359 917H438L310 774H244Z" horiz-adv-x="632" unicode="Ŕ"/>
			<glyph d="M292 513Q328 513 353 502L336 434Q306 444 285 444Q224 444 193 396T162 267V0H93V502H162V412Q183 466 215 489T292 513ZM282 725H356L237 573H171Z" horiz-adv-x="364" unicode="ŕ"/>
			<glyph d="M103 710H307Q410 710 470 655T531 507Q531 438 493 385T389 311L598 0H509L315 297H299H178V0H103ZM178 644V361H297Q364 361 409 396T455 505Q455 576 410 610T300 644ZM300 -56H374L303 -219H241Z" horiz-adv-x="632" unicode="Ŗ"/>
			<glyph d="M292 513Q328 513 353 502L336 434Q306 444 285 444Q224 444 193 396T162 267V0H93V502H162V412Q183 466 215 489T292 513ZM87 -56H161L90 -219H28Z" horiz-adv-x="364" unicode="ŗ"/>
			<glyph d="M103 710H307Q410 710 470 655T531 507Q531 438 493 385T389 311L598 0H509L315 297H299H178V0H103ZM178 644V361H297Q364 361 409 396T455 505Q455 576 410 610T300 644ZM144 904H210L302 820L394 904H460L340 774H264Z" horiz-adv-x="632" unicode="Ř"/>
			<glyph d="M292 513Q328 513 353 502L336 434Q306 444 285 444Q224 444 193 396T162 267V0H93V502H162V412Q183 466 215 489T292 513ZM88 726H154L226 620L298 726H364L264 574H188Z" horiz-adv-x="364" unicode="ř"/>
			<glyph d="M307 721Q357 721 405 708T492 675L474 604Q437 626 391 639T302 653Q235 653 194 620T154 534Q154 496 173 471T223 430T311 392Q320 388 331 385Q396 360 432 340T491 285T515 191Q515 96 452 43T285 -10Q224 -10 166 9T64 61L85 134Q126 99 180 79T291 59Q361 59 401 92T441 186Q441 225 422 249T371 289T279 327Q214 351 173 374T106 434T80 529Q80 587 108 630T188 697T307 721ZM351 917H430L302 774H236Z" horiz-adv-x="583" unicode="Ś"/>
			<glyph d="M252 512Q297 512 336 500T404 470L389 408Q320 453 250 453Q202 453 173 432T145 375Q145 339 173 320T261 286Q338 264 379 233T420 140Q420 72 370 31T235 -10Q183 -10 135 5T60 44L79 106Q107 82 149 65T239 49Q291 49 321 71T351 133Q351 158 337 173T299 199T227 225T147 255T95 297T75 368Q75 435 123 473T252 512ZM298 725H372L253 573H187Z" horiz-adv-x="480" unicode="ś"/>
			<glyph d="M307 721Q357 721 405 708T492 675L474 604Q437 626 391 639T302 653Q235 653 194 620T154 534Q154 496 173 471T223 430T311 392Q320 388 331 385Q396 360 432 340T491 285T515 191Q515 96 452 43T285 -10Q224 -10 166 9T64 61L85 134Q126 99 180 79T291 59Q361 59 401 92T441 186Q441 225 422 249T371 289T279 327Q214 351 173 374T106 434T80 529Q80 587 108 630T188 697T307 721ZM256 904H332L452 774H386L294 858L202 774H136Z" horiz-adv-x="583" unicode="Ŝ"/>
			<glyph d="M252 512Q297 512 336 500T404 470L389 408Q320 453 250 453Q202 453 173 432T145 375Q145 339 173 320T261 286Q338 264 379 233T420 140Q420 72 370 31T235 -10Q183 -10 135 5T60 44L79 106Q107 82 149 65T239 49Q291 49 321 71T351 133Q351 158 337 173T299 199T227 225T147 255T95 297T75 368Q75 435 123 473T252 512ZM204 725H280L400 573H334L242 680L150 573H84Z" horiz-adv-x="480" unicode="ŝ"/>
			<glyph d="M307 721Q357 721 405 708T492 675L474 604Q437 626 391 639T302 653Q235 653 194 620T154 534Q154 496 173 471T223 430T311 392Q320 388 331 385Q396 360 432 340T491 285T515 191Q515 101 458 48T306 -9V-44Q335 -53 352 -73T369 -122Q369 -164 334 -189T227 -214V-162Q272 -162 291 -151T310 -121Q310 -103 295 -94T257 -85V-9Q204 -5 153 13T64 61L85 134Q126 99 180 79T291 59Q361 59 401 92T441 186Q441 225 422 249T371 289T279 327Q214 351 173 374T106 434T80 529Q80 587 108 630T188 697T307 721Z" horiz-adv-x="583" unicode="Ş"/>
			<glyph d="M252 512Q297 512 336 500T404 470L389 408Q320 453 250 453Q202 453 173 432T145 375Q145 339 173 320T261 286Q338 264 379 233T420 140Q420 77 377 36T258 -9V-44Q287 -53 304 -73T321 -122Q321 -164 286 -189T179 -214V-162Q224 -162 243 -151T262 -121Q262 -103 247 -94T209 -85V-9Q164 -5 124 9T60 44L79 106Q107 82 149 65T239 49Q291 49 321 71T351 133Q351 158 337 173T299 199T227 225T147 255T95 297T75 368Q75 435 123 473T252 512Z" horiz-adv-x="480" unicode="ş"/>
			<glyph d="M307 721Q357 721 405 708T492 675L474 604Q437 626 391 639T302 653Q235 653 194 620T154 534Q154 496 173 471T223 430T311 392Q320 388 331 385Q396 360 432 340T491 285T515 191Q515 96 452 43T285 -10Q224 -10 166 9T64 61L85 134Q126 99 180 79T291 59Q361 59 401 92T441 186Q441 225 422 249T371 289T279 327Q214 351 173 374T106 434T80 529Q80 587 108 630T188 697T307 721ZM136 904H202L294 820L386 904H452L332 774H256Z" horiz-adv-x="583" unicode="Š"/>
			<glyph d="M252 512Q297 512 336 500T404 470L389 408Q320 453 250 453Q202 453 173 432T145 375Q145 339 173 320T261 286Q338 264 379 233T420 140Q420 72 370 31T235 -10Q183 -10 135 5T60 44L79 106Q107 82 149 65T239 49Q291 49 321 71T351 133Q351 158 337 173T299 199T227 225T147 255T95 297T75 368Q75 435 123 473T252 512ZM89 725H155L243 619L330 725H396L280 573H205Z" horiz-adv-x="480" unicode="š"/>
			<glyph d="M25 710H497V642H301V0H226V642H25ZM239 0H288V-44Q317 -53 334 -73T351 -122Q351 -164 316 -189T209 -214V-162Q254 -162 273 -151T292 -121Q292 -103 277 -94T239 -85Z" horiz-adv-x="522" unicode="Ţ"/>
			<glyph d="M180 661V502H326V441H180V134Q180 95 198 75T251 56Q293 56 341 86L355 25Q334 10 303 0T239 -10V-44Q268 -53 285 -73T302 -122Q302 -164 267 -189T160 -214V-162Q205 -162 224 -151T243 -121Q243 -103 228 -94T190 -85V-3Q152 9 131 41T110 126V441H39V502H110V649Z" horiz-adv-x="359" unicode="ţ"/>
			<glyph d="M25 710H497V642H301V0H226V642H25ZM103 904H169L261 820L353 904H419L299 774H223Z" horiz-adv-x="522" unicode="Ť"/>
			<glyph d="M180 661V502H326V441H180V134Q180 95 198 75T251 56Q293 56 341 86L355 25Q334 10 303 0T238 -10Q179 -10 144 24T110 126V441H39V502H110V649ZM341 774H414L337 564H279Z" horiz-adv-x="366" unicode="ť"/>
			<glyph d="M25 710H497V642H301V423H466V355H301V0H226V355H58V423H226V642H25Z" horiz-adv-x="522" unicode="Ŧ"/>
			<glyph d="M180 661V502H326V441H180V320H326V264H180V134Q180 95 198 75T251 56Q293 56 341 86L355 25Q334 10 303 0T238 -10Q179 -10 144 24T110 126V264H39V320H110V441H39V502H110V649Z" horiz-adv-x="359" unicode="ŧ"/>
			<glyph d="M98 710H173V273Q173 169 227 115T371 62Q461 62 515 115T569 273V710H644V260Q644 179 611 118T517 23T371 -10Q286 -10 224 23T130 118T98 260ZM292 872Q320 872 381 848Q399 841 416 835T444 829Q459 829 466 839T477 872H528Q522 825 502 799T449 774Q432 774 412 780T363 798Q315 817 299 817Q284 817 277 807T264 774H213Q219 824 239 848T292 872Z" horiz-adv-x="741" unicode="Ũ"/>
			<glyph d="M86 502H156V213Q156 134 190 93T290 53Q336 53 373 74T431 132T452 216V502H522V0H452V95Q428 45 380 17T267 -10Q182 -10 134 41T86 194ZM232 695Q260 695 319 671Q338 663 353 657T378 652Q409 652 415 695H466Q460 646 437 621T384 597Q368 597 348 603T301 621Q256 640 238 640Q225 640 216 631T202 597H151Q157 647 179 671T232 695Z" unicode="ũ"/>
			<glyph d="M98 710H173V273Q173 169 227 115T371 62Q461 62 515 115T569 273V710H644V260Q644 179 611 118T517 23T371 -10Q286 -10 224 23T130 118T98 260ZM214 863H527V810H214ZZ" horiz-adv-x="741" unicode="Ū"/>
			<glyph d="M86 502H156V213Q156 134 190 93T290 53Q336 53 373 74T431 132T452 216V502H522V0H452V95Q428 45 380 17T267 -10Q182 -10 134 41T86 194ZM152 679H465V625H152Z" unicode="ū"/>
			<glyph d="M98 710H173V273Q173 169 227 115T371 62Q461 62 515 115T569 273V710H644V260Q644 179 611 118T517 23T371 -10Q286 -10 224 23T130 118T98 260ZM230 892H285Q288 860 311 843T374 826Q411 826 433 843T460 892H514Q510 839 471 807T373 776Q307 776 270 807T230 892Z" horiz-adv-x="741" unicode="Ŭ"/>
			<glyph d="M86 502H156V213Q156 134 190 93T290 53Q336 53 373 74T431 132T452 216V502H522V0H452V95Q428 45 380 17T267 -10Q182 -10 134 41T86 194ZM169 725H224Q225 680 248 657T310 634Q350 634 372 657T396 725H450Q449 660 410 622T309 584Q246 584 208 621T169 725Z" unicode="ŭ"/>
			<glyph d="M98 710H173V273Q173 169 227 115T371 62Q461 62 515 115T569 273V710H644V260Q644 179 611 118T517 23T371 -10Q286 -10 224 23T130 118T98 260ZM372 940Q414 940 442 912T470 844Q470 802 441 775T371 749Q327 749 300 776T273 844Q273 885 301 912T372 940ZM372 892Q350 892 336 878T323 844Q323 824 336 810T372 796Q393 796 406 809T420 844Q420 865 407 878T372 892ZZ" horiz-adv-x="741" unicode="Ů"/>
			<glyph d="M86 502H156V213Q156 134 190 93T290 53Q336 53 373 74T431 132T452 216V502H522V0H452V95Q428 45 380 17T267 -10Q182 -10 134 41T86 194ZM311 756Q354 756 382 728T410 659Q410 616 381 589T309 562Q265 562 238 590T211 659Q211 701 239 728T311 756ZM311 707Q289 707 275 694T262 659Q262 637 275 624T311 611Q333 611 346 624T359 659Q359 681 346 694T311 707Z" unicode="ů"/>
			<glyph d="M98 710H173V273Q173 169 227 115T371 62Q461 62 515 115T569 273V710H644V260Q644 179 611 118T517 23T371 -10Q286 -10 224 23T130 118T98 260ZM371 918H445L321 774H255ZM517 918H591L467 774H401Z" horiz-adv-x="741" unicode="Ű"/>
			<glyph d="M86 502H156V213Q156 134 190 93T290 53Q336 53 373 74T431 132T452 216V502H522V0H452V95Q428 45 380 17T267 -10Q182 -10 134 41T86 194ZM295 725H369L249 573H183ZM441 725H515L395 573H329Z" unicode="ű"/>
			<glyph d="M98 710H173V270Q173 173 228 117T371 62Q459 62 514 117T569 270V710H644V258Q644 183 614 130T531 36Q503 13 487 -1T458 -39T444 -91Q444 -116 458 -129T496 -142Q516 -142 537 -134L549 -181Q537 -187 519 -191T483 -195Q437 -195 410 -170T383 -104Q383 -43 431 -5Q407 -10 370 -10Q287 -10 225 26T131 123T98 258Z" horiz-adv-x="741" unicode="Ų"/>
			<glyph d="M86 502H156V213Q156 134 190 93T290 53Q336 53 373 74T431 132T452 216V502H522V0H523Q458 -35 458 -90Q458 -117 472 -129T510 -142Q531 -142 552 -134L564 -181Q552 -187 533 -191T497 -195Q452 -195 424 -170T397 -104Q397 -72 414 -45T462 0H452V95Q428 45 380 17T267 -10Q182 -10 134 41T86 194Z" unicode="ų"/>
			<glyph d="M24 710H104L271 109L451 710H526L704 112L871 710H947L743 0H666L486 602L304 0H228ZM451 904H527L647 774H581L489 858L397 774H331Z" horiz-adv-x="971" unicode="Ŵ"/>
			<glyph d="M14 502H91L224 84L359 502H423L558 87L689 502H764L598 0H525L391 413L256 0H183ZM352 725H428L548 573H482L390 680L298 573H232Z" horiz-adv-x="778" unicode="ŵ"/>
			<glyph d="M2 710H86L295 358L503 710H582L329 284V0H255V284ZM252 904H328L448 774H382L290 858L198 774H132Z" horiz-adv-x="584" unicode="Ŷ"/>
			<glyph d="M4 502H81L256 108L410 502H485L250 -72Q220 -146 177 -180T72 -215Q39 -215 14 -207L24 -143Q42 -148 62 -148Q105 -148 134 -127T187 -49L219 25ZM208 725H284L404 573H338L246 680L154 573H88Z" horiz-adv-x="489" unicode="ŷ"/>
			<glyph d="M2 710H86L295 358L503 710H582L329 284V0H255V284ZM185 894Q205 894 219 879T234 844Q234 824 219 809T185 795Q164 795 149 809T135 844Q135 865 149 879T185 894ZM397 894Q418 894 432 879T447 844Q447 824 432 809T397 795Q376 795 362 809T348 844Q348 865 362 879T397 894Z" horiz-adv-x="584" unicode="Ÿ"/>
			<glyph d="M80 710H554V672L174 68H558V0H70V39L452 642H80ZM370 917H449L321 774H255Z" horiz-adv-x="621" unicode="Ź"/>
			<glyph d="M57 502H434V467L151 61H440V0H48V33L335 441H57ZM301 725H375L256 573H190Z" horiz-adv-x="492" unicode="ź"/>
			<glyph d="M80 710H554V672L174 68H558V0H70V39L452 642H80ZM313 896Q335 896 350 881T366 843Q366 821 350 805T313 790Q290 790 275 805T260 843Q260 866 275 881T313 896Z" horiz-adv-x="621" unicode="Ż"/>
			<glyph d="M57 502H434V467L151 61H440V0H48V33L335 441H57ZM245 718Q267 718 282 703T298 665Q298 643 282 627T245 612Q222 612 207 627T192 665Q192 688 207 703T245 718Z" horiz-adv-x="492" unicode="ż"/>
			<glyph d="M80 710H554V672L174 68H558V0H70V39L452 642H80ZM155 904H221L313 820L405 904H471L351 774H275Z" horiz-adv-x="621" unicode="Ž"/>
			<glyph d="M57 502H434V467L151 61H440V0H48V33L335 441H57ZM92 725H158L246 619L333 725H399L283 573H208Z" horiz-adv-x="492" unicode="ž"/>
			<glyph d="M346 720Q450 720 533 672T664 541T711 353Q711 248 667 164T547 34T375 -13Q273 -13 199 31T87 157T48 344V357H635Q633 442 595 508T491 611T343 648Q280 648 222 626T119 569L95 638Q205 720 346 720ZM134 289Q142 185 208 123T377 62Q439 62 492 89T582 168T630 289Z" horiz-adv-x="778" unicode="Ə"/>
			<glyph d="M470 754Q493 754 518 747T561 729L537 670Q525 678 506 683T469 689Q399 689 380 585L366 502H488L477 441H355L276 -7Q262 -84 221 -126T118 -169Q94 -169 68 -163T24 -148L51 -85Q63 -93 81 -98T119 -104Q190 -104 208 3L285 441H197L208 502H296L312 592Q326 669 367 711T470 754Z" horiz-adv-x="582" unicode="ƒ"/>
			<glyph d="M803 855Q823 817 823 769Q823 715 789 677T689 625Q745 576 775 506T805 356Q805 252 757 168T624 37T435 -10Q331 -10 246 37T114 168T66 356Q66 460 114 543T247 673T440 720Q506 720 568 698Q624 678 655 678Q698 678 728 704T759 772Q759 789 754 807T742 839ZM436 649Q352 649 285 611T180 505T142 355Q142 272 180 205T285 100T436 62Q519 62 586 100T691 205T729 355Q729 438 691 505T586 611T436 649Z" horiz-adv-x="871" unicode="Ơ"/>
			<glyph d="M581 639Q601 602 601 558Q601 506 574 474T506 434Q539 400 557 353T575 251Q575 175 541 116T448 23T312 -10Q235 -10 175 23T82 116T49 251Q49 327 82 386T176 478T313 512Q338 512 359 508T410 495Q443 486 462 486Q499 486 518 502T537 558Q537 597 520 622ZM311 445Q255 445 212 420T145 352T121 252Q121 194 145 150T213 81T313 57Q369 57 412 81T480 150T504 251Q504 308 479 352T411 420T311 445Z" horiz-adv-x="624" unicode="ơ"/>
			<glyph d="M723 855Q743 820 743 775Q743 732 718 702T644 660V260Q644 179 611 118T517 23T371 -10Q286 -10 224 23T130 118T98 260V710H173V273Q173 169 227 115T371 62Q461 62 515 115T569 273V710H580Q630 710 654 725T679 776Q679 812 662 839Z" horiz-adv-x="741" unicode="Ư"/>
			<glyph d="M601 647Q621 612 621 567Q621 524 596 494T522 452V0H452V95Q428 45 380 17T267 -10Q182 -10 134 41T86 194V502H156V213Q156 134 190 93T290 53Q336 53 373 74T431 132T452 216V502H458Q508 502 532 517T557 568Q557 604 540 631Z" unicode="ư"/>
			<glyph d="M390 1016H469L341 873H275ZM333 857Q375 857 403 829T431 761Q431 734 418 712T384 679L645 0H567L480 230H184L97 0H21L282 678Q260 690 247 712T234 761Q234 802 262 829T333 857ZM333 809Q311 809 297 795T284 761Q284 741 298 727T333 713Q354 713 367 726T381 761Q381 782 368 795T333 809ZM332 624L207 293H457Z" horiz-adv-x="666" unicode="Ǻ"/>
			<glyph d="M289 512Q386 512 438 461T491 312V0H422V88Q398 44 348 17T234 -10Q154 -10 108 30T63 139Q63 196 98 230T212 281T421 299V312Q421 376 384 413T279 450Q190 450 114 389L94 452Q129 478 179 495T289 512ZM421 248Q312 247 250 235T162 201T136 141Q136 98 165 73T248 48Q290 48 329 63T395 113T421 198ZM294 756Q337 756 365 728T393 659Q393 616 364 589T292 562Q248 562 221 590T194 659Q194 701 222 728T294 756ZM294 707Q272 707 258 694T245 659Q245 637 258 624T294 611Q316 611 329 624T342 659Q342 681 329 694T294 707ZM349 979H423L304 827H238Z" horiz-adv-x="577" unicode="ǻ"/>
			<glyph d="M294 710H835V642H521V390H825V323H521V68H842V0H446V230H186L97 0H21ZM345 641L210 293H446V641ZM538 917H617L489 774H423Z" horiz-adv-x="920" unicode="Ǽ"/>
			<glyph d="M290 512Q357 512 403 487T472 412Q506 459 557 485T670 512Q739 512 792 479T876 387T906 255V246H494Q496 158 548 106T687 54Q742 54 790 74T870 124L890 62Q855 31 800 10T683 -10Q606 -10 548 23T457 114Q428 59 372 24T236 -10Q155 -10 109 29T63 138Q63 195 98 230T212 281T421 299V312Q421 376 384 413T279 450Q190 450 114 389L94 452Q129 478 179 495T290 512ZM670 450Q607 450 558 408T498 301H832Q824 367 780 408T670 450ZM421 248Q313 246 251 235T162 201T136 140Q136 97 165 72T248 48Q290 48 329 64T395 115T421 203ZM534 725H608L489 573H423Z" horiz-adv-x="950" unicode="ǽ"/>
			<glyph d="M677 760H746L668 644Q733 594 769 519T805 356Q805 252 757 168T624 37T435 -10Q338 -10 256 32L201 -50H132L208 62Q141 112 103 187T66 355Q66 459 114 542T246 673T436 720Q538 720 620 675ZM436 649Q352 649 285 611T180 505T142 355Q142 284 170 224T249 124L579 615Q516 649 436 649ZM627 583L298 94Q359 62 436 62Q519 62 586 100T691 205T729 355Q729 424 702 483T627 583ZM492 917H571L443 774H377Z" horiz-adv-x="871" unicode="Ǿ"/>
			<glyph d="M495 554H559L487 451Q529 416 552 364T575 251Q575 176 541 116T447 23T312 -10Q241 -10 183 20L131 -54H67L139 49Q96 84 72 136T49 251Q49 326 83 385T176 478T312 512Q384 512 443 481ZM312 447Q256 447 212 422T143 353T119 252Q119 207 134 169T179 105L405 426Q365 447 312 447ZM448 396L222 75Q262 55 312 55Q368 55 412 80T480 149T505 251Q505 295 490 332T448 396ZM368 725H442L323 573H257Z" horiz-adv-x="624" unicode="ǿ"/>
			<glyph d="M307 721Q357 721 405 708T492 675L474 604Q437 626 391 639T302 653Q235 653 194 620T154 534Q154 496 173 471T223 430T311 392Q320 388 331 385Q396 360 432 340T491 285T515 191Q515 96 452 43T285 -10Q224 -10 166 9T64 61L85 134Q126 99 180 79T291 59Q361 59 401 92T441 186Q441 225 422 249T371 289T279 327Q214 351 173 374T106 434T80 529Q80 587 108 630T188 697T307 721ZM241 -56H315L244 -219H182Z" horiz-adv-x="583" unicode="Ș"/>
			<glyph d="M252 512Q297 512 336 500T404 470L389 408Q320 453 250 453Q202 453 173 432T145 375Q145 339 173 320T261 286Q338 264 379 233T420 140Q420 72 370 31T235 -10Q183 -10 135 5T60 44L79 106Q107 82 149 65T239 49Q291 49 321 71T351 133Q351 158 337 173T299 199T227 225T147 255T95 297T75 368Q75 435 123 473T252 512ZM193 -56H267L196 -219H134Z" horiz-adv-x="480" unicode="ș"/>
			<glyph d="M25 710H497V642H301V0H226V642H25ZM223 -56H297L226 -219H164Z" horiz-adv-x="522" unicode="Ț"/>
			<glyph d="M180 661V502H326V441H180V134Q180 95 198 75T251 56Q293 56 341 86L355 25Q334 10 303 0T238 -10Q179 -10 144 24T110 126V441H39V502H110V649ZM174 -56H248L177 -219H115Z" horiz-adv-x="359" unicode="ț"/>
			<glyph d="M93 502H163V-59Q163 -143 132 -181T41 -219Q4 -219 -21 -209L-11 -147Q8 -153 28 -153Q64 -153 78 -131T93 -49Z" horiz-adv-x="257" unicode="ȷ"/>
			<glyph d="M267 512Q345 512 404 477T495 383T527 251Q527 177 494 117T406 24T280 -10Q211 -10 157 23T74 114T44 247V256H456Q454 344 401 396T263 448Q208 448 160 428T80 378L60 440Q95 471 149 491T267 512ZM118 201Q126 135 170 93T280 52Q343 52 391 93T452 201Z" horiz-adv-x="576" unicode="ə"/>
			<glyph d="M105 710H183L100 507H38Z" horiz-adv-x="221" unicode="ʼ"/>
			<glyph d="M370 725H446L566 573H500L408 680L316 573H250Z" horiz-adv-x="400" unicode="ˆ"/>
			<glyph d="M250 725H316L404 619L491 725H557L441 573H366Z" horiz-adv-x="400" unicode="ˇ"/>
			<glyph d="M251 679H564V625H251Z" horiz-adv-x="400" unicode="ˉ"/>
			<glyph d="M250 725H305Q306 680 329 657T391 634Q431 634 453 657T477 725H531Q530 660 491 622T390 584Q327 584 289 621T250 725Z" horiz-adv-x="400" unicode="˘"/>
			<glyph d="M303 718Q325 718 340 703T356 665Q356 643 340 627T303 612Q280 612 265 627T250 665Q250 688 265 703T303 718Z" horiz-adv-x="400" unicode="˙"/>
			<glyph d="M350 756Q393 756 421 728T449 659Q449 616 420 589T348 562Q304 562 277 590T250 659Q250 701 278 728T350 756ZM350 707Q328 707 314 694T301 659Q301 637 314 624T350 611Q372 611 385 624T398 659Q398 681 385 694T350 707Z" horiz-adv-x="400" unicode="˚"/>
			<glyph d="M325 0H386Q321 -35 321 -90Q321 -117 335 -129T373 -142Q394 -142 415 -134L427 -181Q415 -187 396 -191T360 -195Q315 -195 287 -170T260 -104Q260 -72 277 -45T325 0Z" horiz-adv-x="400" unicode="˛"/>
			<glyph d="M332 695Q360 695 419 671Q438 663 453 657T478 652Q509 652 515 695H566Q560 646 537 621T484 597Q468 597 448 603T401 621Q356 640 338 640Q325 640 316 631T302 597H251Q257 647 279 671T332 695Z" horiz-adv-x="400" unicode="˜"/>
			<glyph d="M340 725H414L294 573H228ZM486 725H560L440 573H374Z" horiz-adv-x="400" unicode="˝"/>
			<glyph d="M-236 725H-162L-50 573H-116Z" horiz-adv-x="0" unicode="̀"/>
			<glyph d="M-124 725H-50L-169 573H-235Z" horiz-adv-x="0" unicode="́"/>
			<glyph d="M-246 725H-170L-50 573H-116L-208 680L-300 573H-366Z" horiz-adv-x="0" unicode="̂"/>
			<glyph d="M-284 695Q-256 695 -197 671Q-178 663 -163 657T-138 652Q-107 652 -101 695H-50Q-56 646 -78 621T-132 597Q-148 597 -167 603T-215 621Q-260 640 -278 640Q-291 640 -299 631T-314 597H-365Q-359 647 -337 671T-284 695Z" horiz-adv-x="0" unicode="̃"/>
			<glyph d="M-363 679H-50V625H-363Z" horiz-adv-x="0" unicode="̄"/>
			<glyph d="M-331 725H-276Q-275 680 -252 657T-190 634Q-150 634 -128 657T-104 725H-50Q-51 660 -89 622T-191 584Q-254 584 -291 621T-331 725Z" horiz-adv-x="0" unicode="̆"/>
			<glyph d="M-103 718Q-81 718 -65 703T-50 665Q-50 643 -65 627T-103 612Q-126 612 -141 627T-156 665Q-156 688 -141 703T-103 718Z" horiz-adv-x="0" unicode="̇"/>
			<glyph d="M-312 716Q-292 716 -277 701T-263 666Q-263 646 -277 631T-312 617Q-333 617 -347 631T-362 666Q-362 687 -347 701T-312 716ZM-100 716Q-79 716 -64 701T-50 666Q-50 646 -64 631T-100 617Q-121 617 -135 631T-149 666Q-149 687 -135 701T-100 716Z" horiz-adv-x="0" unicode="̈"/>
			<glyph d="M-147 758Q-107 758 -78 737T-50 680Q-50 651 -66 633T-113 598Q-127 591 -130 585T-135 563H-194Q-194 592 -186 604T-155 628Q-129 641 -118 650T-108 675Q-108 707 -156 707Q-189 707 -217 693L-229 740Q-212 748 -189 753T-147 758Z" horiz-adv-x="0" unicode="̉"/>
			<glyph d="M-149 756Q-106 756 -78 728T-50 659Q-50 616 -79 589T-151 562Q-195 562 -222 590T-249 659Q-249 701 -220 728T-149 756ZM-149 707Q-171 707 -184 694T-198 659Q-198 637 -184 624T-149 611Q-127 611 -114 624T-101 659Q-101 681 -114 694T-149 707Z" horiz-adv-x="0" unicode="̊"/>
			<glyph d="M-270 725H-196L-316 573H-382ZM-124 725H-50L-170 573H-236Z" horiz-adv-x="0" unicode="̋"/>
			<glyph d="M-357 725H-291L-203 619L-116 725H-50L-166 573H-241Z" horiz-adv-x="0" unicode="̌"/>
			<glyph d="M-112 738H-50L-115 573H-189Z" horiz-adv-x="0" unicode="̒"/>
			<glyph d="M-70 647Q-50 612 -50 567Q-50 511 -91 478T-213 445V502Q-163 502 -138 517T-114 568Q-114 604 -131 631Z" horiz-adv-x="0" unicode="̛"/>
			<glyph d="M-103 -89Q-81 -89 -65 -104T-50 -142Q-50 -165 -65 -180T-103 -195Q-126 -195 -141 -180T-156 -142Q-156 -120 -141 -104T-103 -89Z" horiz-adv-x="0" unicode="̣"/>
			<glyph d="M-124 -56H-50L-121 -219H-183Z" horiz-adv-x="0" unicode="̦"/>
			<glyph d="M-162 0H-113V-44Q-84 -53 -67 -73T-50 -122Q-50 -164 -85 -189T-192 -214V-162Q-147 -162 -128 -151T-109 -121Q-109 -103 -124 -94T-162 -85Z" horiz-adv-x="0" unicode="̧"/>
			<glyph d="M-152 0H-91Q-156 -35 -156 -90Q-156 -117 -142 -129T-104 -142Q-83 -142 -62 -134L-50 -181Q-62 -187 -80 -191T-117 -195Q-162 -195 -189 -170T-217 -104Q-217 -72 -200 -45T-152 0Z" horiz-adv-x="0" unicode="̨"/>
			<glyph d="M-395 302H-50V241H-395Z" horiz-adv-x="0" unicode="̵"/>
			<glyph d="M166 726H243L141 428H79Z" horiz-adv-x="308" unicode="ʹ"/>
			<glyph d="M166 156H243L141 -142H79Z" horiz-adv-x="308" unicode="͵"/>
			<glyph d="M145 467Q168 467 183 452T198 414Q198 392 182 377T145 362Q123 362 108 377T93 414Q93 436 108 451T145 467ZM124 89H201L106 -142H41ZZ" horiz-adv-x="290" unicode=";"/>
			<glyph d="M21 726H98L17 573H-46Z" horiz-adv-x="0" unicode="΄"/>
			<glyph d="M-4 769H65L15 628H-37ZM-103 691Q-84 691 -71 678T-58 646Q-58 627 -71 613T-103 600Q-122 600 -135 613T-148 646Q-148 665 -135 678T-103 691ZM99 691Q118 691 131 678T144 646Q144 627 131 613T99 600Q80 600 67 613T54 646Q54 665 67 678T99 691Z" horiz-adv-x="0" unicode="΅"/>
			<glyph d="M294 710H372L645 0H567L480 230H184L97 0H21ZM332 624L207 293H457ZM88 727H165L84 574H21Z" horiz-adv-x="666" unicode="Ά"/>
			<glyph d="M145 402Q168 402 183 387T198 349Q198 327 182 312T145 297Q123 297 108 312T93 349Q93 371 108 386T145 402Z" horiz-adv-x="290" unicode="·"/>
			<glyph d="M165 710H554V642H240V390H545V323H240V68H562V0H165ZM27 726H104L23 573H-40Z" horiz-adv-x="639" unicode="Έ"/>
			<glyph d="M167 710H242V390H644V710H719V0H644V321H242V0H167ZM27 726H104L23 573H-40Z" horiz-adv-x="823" unicode="Ή"/>
			<glyph d="M167 710H242V0H167ZM27 726H104L23 573H-40Z" horiz-adv-x="346" unicode="Ί"/>
			<glyph d="M462 720Q566 720 650 673T783 542T831 356Q831 252 783 168T650 37T461 -10Q357 -10 272 37T140 167T92 355Q92 459 140 542T272 673T462 720ZM462 649Q378 649 311 611T206 505T168 355Q168 272 206 205T311 100T462 62Q545 62 612 100T717 205T755 355Q755 438 717 505T612 611T462 649ZM57 726H134L53 573H-10Z" horiz-adv-x="897" unicode="Ό"/>
			<glyph d="M147 710H231L440 358L648 710H727L474 284V0H400V284ZM32 726H109L28 573H-35Z" horiz-adv-x="729" unicode="Ύ"/>
			<glyph d="M462 720Q565 720 645 679T771 568T817 407Q817 296 756 221T595 119V67H820V0H529V158Q627 176 684 240T741 402Q741 472 705 528T606 616T462 648Q381 648 317 616T217 528T182 402Q182 305 240 240T395 158V0H104V67H328V119Q229 146 167 220T106 407Q106 497 151 568T278 679T462 720ZM57 726H134L53 573H-10Z" horiz-adv-x="887" unicode="Ώ"/>
			<glyph d="M93 502H163V121Q163 85 175 69T212 54Q226 54 241 58T267 67L278 9Q264 1 242 -4T196 -10Q147 -10 120 19T93 110ZM138 769H207L157 628H105ZM39 691Q58 691 71 678T84 646Q84 627 71 613T39 600Q20 600 7 613T-6 646Q-6 665 7 678T39 691ZM241 691Q260 691 273 678T286 646Q286 627 273 613T241 600Q222 600 209 613T196 646Q196 665 209 678T241 691Z" horiz-adv-x="292" unicode="ΐ"/>
			<glyph d="M294 710H372L645 0H567L480 230H184L97 0H21ZM332 624L207 293H457Z" horiz-adv-x="666" unicode="Α"/>
			<glyph d="M103 710H301Q400 710 457 660T514 529Q514 421 417 372Q483 358 521 312T560 199Q560 109 501 54T341 0H103ZM178 644V390H307Q367 390 404 428T442 523Q442 578 403 611T296 644ZM178 325V66H334Q405 66 445 103T485 202Q485 261 448 293T347 325Z" horiz-adv-x="618" unicode="Β"/>
			<glyph d="M103 710H495V641H178V0H103Z" horiz-adv-x="520" unicode="Γ"/>
			<glyph d="M292 710H370L619 66V0H43V66ZM330 624L118 66H543Z" horiz-adv-x="662" unicode="Δ"/>
			<glyph d="M103 710H492V642H178V390H483V323H178V68H500V0H103Z" horiz-adv-x="578" unicode="Ε"/>
			<glyph d="M80 710H554V672L174 68H558V0H70V39L452 642H80Z" horiz-adv-x="621" unicode="Ζ"/>
			<glyph d="M103 710H178V390H580V710H655V0H580V321H178V0H103Z" horiz-adv-x="759" unicode="Η"/>
			<glyph d="M435 720Q538 720 622 672T756 541T805 356Q805 254 756 170T622 38T435 -10Q333 -10 248 38T115 169T66 355Q66 457 115 540T248 672T435 720ZM436 648Q355 648 288 609T182 503T143 355Q143 274 182 207T288 101T436 62Q517 62 584 101T690 207T729 355Q729 436 690 503T584 609T436 648ZM274 390H598V323H274Z" horiz-adv-x="871" unicode="Θ"/>
			<glyph d="M103 710H178V0H103Z" horiz-adv-x="282" unicode="Ι"/>
			<glyph d="M103 710H178V360L491 710H585L272 365L613 0H513L178 358V0H103Z" horiz-adv-x="619" unicode="Κ"/>
			<glyph d="M296 710H375L643 0H563L334 618L106 0H28Z" horiz-adv-x="671" unicode="Λ"/>
			<glyph d="M103 710H189L429 345L675 710H759V0H685V601L456 259H402L177 601V0H103Z" horiz-adv-x="862" unicode="Μ"/>
			<glyph d="M103 710H174L599 119V710H673V0H602L177 591V0H103Z" horiz-adv-x="776" unicode="Ν"/>
			<glyph d="M97 710H535V642H97ZM119 390H513V323H119ZM78 67H554V0H78Z" horiz-adv-x="632" unicode="Ξ"/>
			<glyph d="M436 720Q540 720 624 673T757 542T805 356Q805 252 757 168T624 37T435 -10Q331 -10 246 37T114 167T66 355Q66 459 114 542T246 673T436 720ZM436 649Q352 649 285 611T180 505T142 355Q142 272 180 205T285 100T436 62Q519 62 586 100T691 205T729 355Q729 438 691 505T586 611T436 649Z" horiz-adv-x="871" unicode="Ο"/>
			<glyph d="M103 710H645V0H570V642H178V0H103Z" horiz-adv-x="749" unicode="Π"/>
			<glyph d="M103 710H300Q415 710 477 651T539 492Q539 431 511 379T429 296T300 265H178V0H103ZM178 644V331H292Q366 331 414 374T462 492Q462 572 416 608T292 644Z" horiz-adv-x="585" unicode="Ρ"/>
			<glyph d="M94 710H532V642H201L417 383V345L177 68H563V0H70V49L342 364L94 662Z" horiz-adv-x="607" unicode="Σ"/>
			<glyph d="M25 710H497V642H301V0H226V642H25Z" horiz-adv-x="522" unicode="Τ"/>
			<glyph d="M2 710H86L295 358L503 710H582L329 284V0H255V284Z" horiz-adv-x="584" unicode="Υ"/>
			<glyph d="M390 722H461V649Q560 643 637 606T757 504T800 355Q800 270 757 205T637 104T461 61V-12H390V61Q290 67 213 104T92 205T49 355Q49 440 92 504T213 606T390 649ZM390 585Q270 577 196 515T123 355Q123 256 196 194T390 125ZM461 585V125Q580 134 653 195T726 355Q726 453 653 514T461 585Z" horiz-adv-x="849" unicode="Φ"/>
			<glyph d="M59 710H146L340 420L536 710H617L380 362L626 0H539L337 300L135 0H52L296 359Z" horiz-adv-x="667" unicode="Χ"/>
			<glyph d="M78 710H150V494Q150 393 212 334T390 270V710H461V270Q576 277 638 335T700 494V710H771V492Q771 364 689 289T461 206V0H390V205Q242 213 160 288T78 492Z" horiz-adv-x="849" unicode="Ψ"/>
			<glyph d="M426 720Q529 720 609 679T735 568T781 407Q781 296 720 221T559 119V67H784V0H493V158Q591 176 648 240T705 402Q705 472 669 528T570 616T426 648Q345 648 281 616T181 528T146 402Q146 305 204 240T359 158V0H68V67H292V119Q193 146 131 220T70 407Q70 497 115 568T242 679T426 720Z" horiz-adv-x="852" unicode="Ω"/>
			<glyph d="M103 710H178V0H103ZM36 894Q56 894 70 879T85 844Q85 824 70 809T36 795Q15 795 0 809T-14 844Q-14 865 0 879T36 894ZM248 894Q269 894 283 879T298 844Q298 824 283 809T248 795Q227 795 213 809T199 844Q199 865 213 879T248 894Z" horiz-adv-x="282" unicode="Ϊ"/>
			<glyph d="M2 710H86L295 358L503 710H582L329 284V0H255V284ZM185 894Q205 894 219 879T234 844Q234 824 219 809T185 795Q164 795 149 809T135 844Q135 865 149 879T185 894ZM397 894Q418 894 432 879T447 844Q447 824 432 809T397 795Q376 795 362 809T348 844Q348 865 362 879T397 894Z" horiz-adv-x="584" unicode="Ϋ"/>
			<glyph d="M293 512Q358 512 409 482T489 388Q491 434 507 502H576Q566 452 561 407T556 301V154Q556 95 567 74T602 54Q619 54 637 63L650 6Q626 -10 585 -10Q538 -10 516 19T490 109Q459 47 409 18T295 -10Q222 -10 166 23T79 116T49 251Q49 326 79 385T165 478T293 512ZM301 445Q249 445 208 420T144 352T121 252Q121 195 144 150T208 81T302 57Q355 57 397 82T463 152T487 251Q487 305 463 349T397 419T301 445ZM350 726H427L346 573H283Z" horiz-adv-x="655" unicode="ά"/>
			<glyph d="M279 512Q376 512 464 466L444 405Q370 450 281 450Q216 450 182 429T148 372Q148 334 193 311T342 288V230Q219 229 171 205T124 141Q124 96 165 74T274 53Q380 53 468 103L487 44Q449 22 390 6T267 -10Q172 -10 110 26T49 133Q49 190 90 222T203 261Q140 267 108 300T76 378Q76 436 130 474T279 512ZM291 726H368L287 573H224Z" horiz-adv-x="519" unicode="έ"/>
			<glyph d="M347 512Q433 512 480 460T528 307V-210H458V288Q458 367 424 407T325 448Q279 448 242 427T184 369T163 286V0H93V502H163V409Q188 457 236 484T347 512ZM329 726H406L325 573H262Z" unicode="ή"/>
			<glyph d="M93 502H163V121Q163 85 175 69T212 54Q226 54 241 58T267 67L278 9Q264 1 242 -4T196 -10Q147 -10 120 19T93 110ZM163 726H240L159 573H96Z" horiz-adv-x="292" unicode="ί"/>
			<glyph d="M86 502H156V213Q156 135 195 94T307 53Q378 53 415 94T452 216V502H522V211Q522 99 463 44T304 -10Q205 -10 145 43T86 204ZM302 769H371L321 628H269ZM203 691Q222 691 235 678T248 646Q248 627 235 613T203 600Q184 600 171 613T158 646Q158 665 171 678T203 691ZM405 691Q424 691 437 678T450 646Q450 627 437 613T405 600Q386 600 373 613T360 646Q360 665 373 678T405 691Z" horiz-adv-x="608" unicode="ΰ"/>
			<glyph d="M293 512Q358 512 409 482T489 388Q491 434 507 502H576Q566 452 561 407T556 301V154Q556 95 567 74T602 54Q619 54 637 63L650 6Q626 -10 585 -10Q538 -10 516 19T490 109Q459 47 409 18T295 -10Q222 -10 166 23T79 116T49 251Q49 326 79 385T165 478T293 512ZM301 445Q249 445 208 420T144 352T121 252Q121 195 144 150T208 81T302 57Q355 57 397 82T463 152T487 251Q487 305 463 349T397 419T301 445Z" horiz-adv-x="655" unicode="α"/>
			<glyph d="M314 762Q377 762 422 738T491 673T515 580Q515 516 483 472T396 411Q465 398 512 349T559 215Q559 147 529 96T445 19T321 -8Q272 -8 231 3T161 31V-210H93V533Q93 642 153 702T314 762ZM312 697Q243 697 202 656T161 534V103Q230 56 315 56Q392 56 439 98T486 217Q486 294 431 333T280 373H263V433L286 434Q358 437 401 468T445 574Q445 627 410 662T312 697Z" horiz-adv-x="608" unicode="β"/>
			<glyph d="M4 502H81L250 66Q409 299 409 502H484Q481 383 427 260T277 0V-210H208V0Z" horiz-adv-x="514" unicode="γ"/>
			<glyph d="M113 752H535V691H220L473 464Q575 372 575 249Q575 173 541 114T448 22T312 -10Q236 -10 176 22T82 114T49 250Q49 327 83 386T178 477T316 510H330L113 704ZM312 445Q257 445 213 421T145 353T121 252Q121 194 145 149T213 81T312 57Q367 57 410 81T478 149T503 252Q503 310 478 353T410 421T312 445Z" horiz-adv-x="624" unicode="δ"/>
			<glyph d="M279 512Q376 512 464 466L444 405Q370 450 281 450Q216 450 182 429T148 372Q148 334 193 311T342 288V230Q219 229 171 205T124 141Q124 96 165 74T274 53Q380 53 468 103L487 44Q449 22 390 6T267 -10Q172 -10 110 26T49 133Q49 190 90 222T203 261Q140 267 108 300T76 378Q76 436 130 474T279 512Z" horiz-adv-x="519" unicode="ε"/>
			<glyph d="M84 752H484V704L221 429Q168 372 144 329T121 239Q121 190 143 160T201 113T303 75Q364 56 396 41T446 2T464 -59Q464 -127 405 -210L343 -192Q369 -159 382 -130T396 -75Q396 -51 382 -36T341 -10T259 18Q193 38 149 61T77 126T49 236Q49 301 77 352T170 469L387 691H84Z" horiz-adv-x="484" unicode="ζ"/>
			<glyph d="M347 512Q433 512 480 460T528 307V-210H458V288Q458 367 424 407T325 448Q279 448 242 427T184 369T163 286V0H93V502H163V409Q188 457 236 484T347 512Z" unicode="η"/>
			<glyph d="M303 760Q433 760 485 656T538 373Q538 195 485 92T303 -10Q172 -10 119 92T67 373Q67 552 120 656T303 760ZM303 694Q212 694 177 616T139 402H466Q463 539 428 616T303 694ZM139 343Q142 207 177 131T303 56Q394 56 428 132T466 343Z" horiz-adv-x="605" unicode="θ"/>
			<glyph d="M93 502H163V121Q163 85 175 69T212 54Q226 54 241 58T267 67L278 9Q264 1 242 -4T196 -10Q147 -10 120 19T93 110Z" horiz-adv-x="292" unicode="ι"/>
			<glyph d="M93 502H163V250L406 502H492L267 271L502 0H414L217 225L163 177V0H93Z" horiz-adv-x="512" unicode="κ"/>
			<glyph d="M90 753Q153 753 195 719T267 610L503 0H427L278 404L76 0H0L246 482L206 585Q184 643 154 665T82 688Q55 688 35 680L26 743Q58 753 90 753Z" horiz-adv-x="507" unicode="λ"/>
			<glyph d="M93 502H163V213Q163 136 197 94T298 53Q343 53 380 74T437 132T458 216V502H528V0H458V89Q434 42 390 16T288 -10Q249 -10 216 4T163 45V-210H93Z" horiz-adv-x="621" unicode="μ"/>
			<glyph d="M4 502H81L250 64Q409 295 409 502H484Q481 382 428 259T281 0H208Z" horiz-adv-x="514" unicode="ν"/>
			<glyph d="M308 762Q358 762 402 747T480 710L457 646Q388 696 310 696Q247 696 211 664T176 582Q176 522 224 491T345 452V391Q121 391 121 238Q121 187 144 155T205 107T301 76Q356 61 388 47T442 8T464 -60Q464 -129 405 -210L343 -192Q369 -158 383 -130T397 -76Q397 -47 380 -30T337 -4T259 18Q49 65 49 229Q49 303 93 361T243 428Q179 445 141 484T104 587Q104 638 129 677T200 739T308 762Z" horiz-adv-x="480" unicode="ξ"/>
			<glyph d="M312 512Q389 512 448 478T541 386T575 251Q575 175 541 116T448 23T312 -10Q235 -10 175 23T82 116T49 251Q49 327 82 386T175 478T312 512ZM312 445Q256 445 212 420T145 352T121 252Q121 194 145 150T213 81T312 57Q368 57 412 81T480 150T504 251Q504 308 479 352T411 420T312 445Z" horiz-adv-x="624" unicode="ο"/>
			<glyph d="M50 502H649V441H510V121Q510 87 524 70T559 54Q586 54 622 67L634 10Q599 -10 543 -10Q497 -10 468 20T440 109V441H218V0H148V441H29Z" horiz-adv-x="677" unicode="π"/>
			<glyph d="M335 512Q413 512 471 478T560 384T591 250Q591 176 560 116T473 23T347 -10Q284 -10 234 17T154 98V-210H84V228Q84 318 115 382T203 479T335 512ZM334 445Q251 445 202 390T154 248Q154 186 179 143T245 78T336 57Q390 57 431 82T496 151T519 251Q519 306 496 350T431 420T334 445Z" horiz-adv-x="640" unicode="ρ"/>
			<glyph d="M301 512Q394 512 473 460L450 396Q381 446 301 446Q218 446 169 396T121 259Q121 200 143 165T201 113T299 75Q359 56 391 40T440 2T458 -58Q458 -99 441 -135T398 -210L336 -192Q363 -158 376 -130T390 -75Q390 -51 378 -36T340 -11T259 16Q198 36 155 59T80 131T49 257Q49 336 81 393T171 481T301 512Z" horiz-adv-x="510" unicode="ς"/>
			<glyph d="M345 502H636V441H466Q520 405 547 357T575 242Q575 168 541 110T448 21T313 -10Q237 -10 176 22T82 112T49 247Q49 324 84 381T186 469T345 502ZM349 440Q237 440 179 388T121 249Q121 161 174 109T312 57Q368 57 411 80T478 146T503 246Q503 311 471 358T383 440Z" horiz-adv-x="631" unicode="σ"/>
			<glyph d="M50 502H427V441H251V122Q251 55 309 55Q334 55 373 68L386 10Q371 1 347 -4T297 -10Q241 -10 211 20T181 113V441H29Z" horiz-adv-x="456" unicode="τ"/>
			<glyph d="M86 502H156V213Q156 135 195 94T307 53Q378 53 415 94T452 216V502H522V211Q522 99 463 44T304 -10Q205 -10 145 43T86 204Z" horiz-adv-x="608" unicode="υ"/>
			<glyph d="M306 710H375V512Q455 505 513 469T601 376T632 251Q632 183 601 126T513 33T375 -10V-210H306V-10Q227 -3 169 32T80 125T49 251Q49 320 80 377T169 469T306 512ZM375 448V54Q462 64 511 119T560 252Q560 331 510 384T375 448ZM306 448Q219 438 170 384T121 252Q121 173 170 118T306 54Z" horiz-adv-x="681" unicode="φ"/>
			<glyph d="M75 508Q115 508 139 488T184 426L269 247L395 502H472L303 175L485 -210H409L260 118L84 -210H8L225 188L128 393Q115 419 100 430T67 441Q44 441 29 435L19 498Q49 508 75 508Z" horiz-adv-x="485" unicode="χ"/>
			<glyph d="M343 710H411V54Q511 61 555 114T600 263V502H669V259Q669 135 603 67T411 -9V-210H343V-9Q218 -1 152 66T86 252V502H155V260Q155 70 343 54Z" horiz-adv-x="755" unicode="ψ"/>
			<glyph d="M107 502H183Q159 450 145 382T132 242Q132 155 154 108T224 61Q276 61 303 125T330 332H404Q405 190 430 125T510 60Q603 60 603 235Q603 311 586 380T545 502H622Q643 462 659 386T675 232Q675 119 635 54T514 -10Q384 -10 367 166Q361 79 319 35T217 -8Q139 -8 99 58T59 240Q59 314 72 387T107 502Z" horiz-adv-x="735" unicode="ω"/>
			<glyph d="M93 502H163V121Q163 85 175 69T212 54Q226 54 241 58T267 67L278 9Q264 1 242 -4T196 -10Q147 -10 120 19T93 110ZM56 717Q77 717 92 702T107 666Q107 645 92 630T56 615Q34 615 19 630T5 666Q5 688 19 702T56 717ZM224 717Q246 717 260 702T275 666Q275 645 260 630T224 615Q203 615 188 630T173 666Q173 688 188 702T224 717Z" horiz-adv-x="292" unicode="ϊ"/>
			<glyph d="M86 502H156V213Q156 135 195 94T307 53Q378 53 415 94T452 216V502H522V211Q522 99 463 44T304 -10Q205 -10 145 43T86 204ZM198 716Q218 716 232 701T247 666Q247 646 232 631T198 617Q177 617 162 631T148 666Q148 687 162 701T198 716ZM410 716Q431 716 445 701T460 666Q460 646 445 631T410 617Q389 617 375 631T361 666Q361 687 375 701T410 716Z" horiz-adv-x="608" unicode="ϋ"/>
			<glyph d="M312 512Q389 512 448 478T541 386T575 251Q575 175 541 116T448 23T312 -10Q235 -10 175 23T82 116T49 251Q49 327 82 386T175 478T312 512ZM312 445Q256 445 212 420T145 352T121 252Q121 194 145 150T213 81T312 57Q368 57 412 81T480 150T504 251Q504 308 479 352T411 420T312 445ZM334 726H411L330 573H267Z" horiz-adv-x="624" unicode="ό"/>
			<glyph d="M86 502H156V213Q156 135 195 94T307 53Q378 53 415 94T452 216V502H522V211Q522 99 463 44T304 -10Q205 -10 145 43T86 204ZM327 726H404L323 573H260Z" horiz-adv-x="608" unicode="ύ"/>
			<glyph d="M107 502H183Q159 450 145 382T132 242Q132 155 154 108T224 61Q276 61 303 125T330 332H404Q405 190 430 125T510 60Q603 60 603 235Q603 311 586 380T545 502H622Q643 462 659 386T675 232Q675 119 635 54T514 -10Q384 -10 367 166Q361 79 319 35T217 -8Q139 -8 99 58T59 240Q59 314 72 387T107 502ZM389 726H466L385 573H322Z" horiz-adv-x="735" unicode="ώ"/>
			<glyph d="M229 710H301V502H501V348H436V442H301V0H229V442H90V348H25V502H229Z" horiz-adv-x="525" unicode="ϯ"/>
			<glyph d="M103 710H492V642H178V390H483V323H178V68H500V0H103ZM162 917H242L356 774H290Z" horiz-adv-x="578" unicode="Ѐ"/>
			<glyph d="M103 710H492V642H178V390H483V323H178V68H500V0H103ZM197 894Q217 894 231 879T246 844Q246 824 231 809T197 795Q176 795 161 809T147 844Q147 865 161 879T197 894ZM409 894Q430 894 444 879T459 844Q459 824 444 809T409 795Q388 795 374 809T360 844Q360 865 374 879T409 894Z" horiz-adv-x="578" unicode="Ё"/>
			<glyph d="M25 710H497V642H301V374Q351 410 404 431T524 452Q634 452 697 391T761 226Q761 154 732 100T652 18T537 -10Q479 -10 433 11L448 78Q466 69 491 63T539 58Q603 58 645 101T687 220Q687 297 641 341T514 385Q462 385 407 365T301 311V0H226V642H25Z" horiz-adv-x="808" unicode="Ђ"/>
			<glyph d="M103 710H495V641H178V0H103ZM363 917H442L314 774H248Z" horiz-adv-x="520" unicode="Ѓ"/>
			<glyph d="M432 720Q501 720 562 699T671 640L645 571Q601 609 547 629T432 650Q354 650 290 616T188 523T142 386H537V319H143Q151 243 190 184T292 92T433 60Q498 60 555 82T659 140L682 72Q572 -10 435 -10Q329 -10 245 36T113 165T66 355Q66 461 113 544T244 673T432 720Z" horiz-adv-x="729" unicode="Є"/>
			<glyph d="M307 721Q357 721 405 708T492 675L474 604Q437 626 391 639T302 653Q235 653 194 620T154 534Q154 496 173 471T223 430T311 392Q320 388 331 385Q396 360 432 340T491 285T515 191Q515 96 452 43T285 -10Q224 -10 166 9T64 61L85 134Q126 99 180 79T291 59Q361 59 401 92T441 186Q441 225 422 249T371 289T279 327Q214 351 173 374T106 434T80 529Q80 587 108 630T188 697T307 721Z" horiz-adv-x="583" unicode="Ѕ"/>
			<glyph d="M103 710H178V0H103Z" horiz-adv-x="282" unicode="І"/>
			<glyph d="M103 710H178V0H103ZM36 894Q56 894 70 879T85 844Q85 824 70 809T36 795Q15 795 0 809T-14 844Q-14 865 0 879T36 894ZM248 894Q269 894 283 879T298 844Q298 824 283 809T248 795Q227 795 213 809T199 844Q199 865 213 879T248 894Z" horiz-adv-x="282" unicode="Ї"/>
			<glyph d="M228 710H303V225Q303 111 250 50T103 -10Q46 -10 0 11L15 78Q33 69 55 63T96 58Q157 58 192 102T228 234Z" horiz-adv-x="398" unicode="Ј"/>
			<glyph d="M172 710H531V407H689Q803 407 860 354T918 209Q918 112 860 56T689 0H456V642H239L190 129Q184 61 154 27T66 -7Q30 -7 0 6L14 74Q21 69 34 65T61 61Q88 61 101 82T119 153ZM531 341V66H678Q759 66 800 102T841 208Q841 275 798 308T678 341Z" horiz-adv-x="964" unicode="Љ"/>
			<glyph d="M103 710H178V407H543V710H618V407H776Q890 407 947 354T1005 209Q1005 112 947 56T776 0H543V340H178V0H103ZM618 341V66H765Q846 66 887 102T928 208Q928 275 885 308T765 341Z" horiz-adv-x="1051" unicode="Њ"/>
			<glyph d="M25 710H497V642H301V369Q414 451 549 451Q653 451 704 399T755 256V0H680V249Q680 382 538 382Q478 382 415 362T301 306V0H226V642H25Z" horiz-adv-x="851" unicode="Ћ"/>
			<glyph d="M103 709H178V388H239L512 709H599L303 364L629 -1H537L245 324H178V-1H103ZM397 917H476L348 774H282Z" horiz-adv-x="635" unicode="Ќ"/>
			<glyph d="M103 710H177V117L602 710H673V0H599V593L174 0H103ZM248 917H328L442 774H376Z" horiz-adv-x="776" unicode="Ѝ"/>
			<glyph d="M17 710H98L332 237L535 710H614L374 164Q348 103 325 67T266 11T175 -10Q114 -10 68 11L86 77Q121 57 172 57Q216 57 243 81T295 160ZM156 892H211Q215 857 240 842T311 828Q355 828 379 843T408 892H462Q458 836 417 807T310 778Q238 778 198 806T156 892Z" horiz-adv-x="617" unicode="Ў"/>
			<glyph d="M103 710H178V68H570V710H645V0H408V-167H340V0H103Z" horiz-adv-x="749" unicode="Џ"/>
			<glyph d="M294 710H372L645 0H567L480 230H184L97 0H21ZM332 624L207 293H457Z" horiz-adv-x="666" unicode="А"/>
			<glyph d="M103 710H481V641H178V407H336Q450 407 507 354T565 209Q565 112 507 56T336 0H103ZM178 341V66H325Q406 66 447 102T488 208Q488 275 445 308T325 341Z" horiz-adv-x="611" unicode="Б"/>
			<glyph d="M103 710H301Q400 710 457 660T514 529Q514 421 417 372Q483 358 521 312T560 199Q560 109 501 54T341 0H103ZM178 644V390H307Q367 390 404 428T442 523Q442 578 403 611T296 644ZM178 325V66H334Q405 66 445 103T485 202Q485 261 448 293T347 325Z" horiz-adv-x="618" unicode="В"/>
			<glyph d="M103 710H495V641H178V0H103Z" horiz-adv-x="520" unicode="Г"/>
			<glyph d="M192 710H564V68H646V-167H578V0H79V-167H10V68H53Q83 68 107 116T140 238ZM259 642L213 233Q206 166 190 123T156 68H489V642Z" horiz-adv-x="679" unicode="Д"/>
			<glyph d="M103 710H492V642H178V390H483V323H178V68H500V0H103Z" horiz-adv-x="578" unicode="Е"/>
			<glyph d="M36 709H124L395 388H458V709H532V388H595L866 709H954L658 364L984 -1H894L601 324H532V-1H458V324H389L96 -1H6L333 364Z" horiz-adv-x="990" unicode="Ж"/>
			<glyph d="M287 720Q385 720 445 672T505 545Q505 479 465 435T359 377Q441 365 486 320T532 199Q532 138 502 90T416 15T280 -11Q198 -11 136 16T33 88L71 148Q111 107 161 82T279 57Q361 57 409 95T458 201Q458 272 398 305T213 339V402Q334 404 382 442T431 537Q431 591 391 622T285 653Q183 653 100 581L67 640Q164 720 287 720Z" horiz-adv-x="590" unicode="З"/>
			<glyph d="M103 710H177V117L602 710H673V0H599V593L174 0H103Z" horiz-adv-x="776" unicode="И"/>
			<glyph d="M103 710H177V117L602 710H673V0H599V593L174 0H103ZM235 892H290Q294 857 319 842T390 828Q434 828 458 843T487 892H541Q537 836 496 807T389 778Q317 778 277 806T235 892Z" horiz-adv-x="776" unicode="Й"/>
			<glyph d="M103 709H178V388H239L512 709H599L303 364L629 -1H537L245 324H178V-1H103Z" horiz-adv-x="635" unicode="К"/>
			<glyph d="M172 710H562V0H487V642H239L190 129Q184 61 154 27T66 -7Q30 -7 0 6L14 74Q21 69 34 65T60 61Q87 61 100 82T119 153Z" horiz-adv-x="665" unicode="Л"/>
			<glyph d="M103 710H189L429 345L675 710H759V0H685V601L456 259H402L177 601V0H103Z" horiz-adv-x="862" unicode="М"/>
			<glyph d="M103 710H178V390H580V710H655V0H580V321H178V0H103Z" horiz-adv-x="759" unicode="Н"/>
			<glyph d="M436 720Q540 720 624 673T757 542T805 356Q805 252 757 168T624 37T435 -10Q331 -10 246 37T114 167T66 355Q66 459 114 542T246 673T436 720ZM436 649Q352 649 285 611T180 505T142 355Q142 272 180 205T285 100T436 62Q519 62 586 100T691 205T729 355Q729 438 691 505T586 611T436 649Z" horiz-adv-x="871" unicode="О"/>
			<glyph d="M103 710H645V0H570V642H178V0H103Z" horiz-adv-x="749" unicode="П"/>
			<glyph d="M103 710H300Q415 710 477 651T539 492Q539 431 511 379T429 296T300 265H178V0H103ZM178 644V331H292Q366 331 414 374T462 492Q462 572 416 608T292 644Z" horiz-adv-x="585" unicode="Р"/>
			<glyph d="M433 720Q501 720 562 699T671 641L645 570Q601 607 547 627T434 648Q350 648 284 610T180 506T143 357Q143 273 180 206T284 100T434 62Q498 62 555 84T659 142L682 72Q626 30 565 10T432 -10Q328 -10 244 37T113 168T66 357Q66 461 113 544T245 673T433 720Z" horiz-adv-x="729" unicode="С"/>
			<glyph d="M25 710H497V642H301V0H226V642H25Z" horiz-adv-x="522" unicode="Т"/>
			<glyph d="M17 710H98L332 237L535 710H614L374 164Q348 103 325 67T266 11T175 -10Q114 -10 68 11L86 77Q121 57 172 57Q216 57 243 81T295 160Z" horiz-adv-x="617" unicode="У"/>
			<glyph d="M390 722H461V649Q560 643 637 606T757 504T800 355Q800 270 757 205T637 104T461 61V-12H390V61Q290 67 213 104T92 205T49 355Q49 440 92 504T213 606T390 649ZM390 585Q270 577 196 515T123 355Q123 256 196 194T390 125ZM461 585V125Q580 134 653 195T726 355Q726 453 653 514T461 585Z" horiz-adv-x="849" unicode="Ф"/>
			<glyph d="M59 710H146L340 420L536 710H617L380 362L626 0H539L337 300L135 0H52L296 359Z" horiz-adv-x="667" unicode="Х"/>
			<glyph d="M103 710H178V68H571V710H646V68H729V-167H660V0H103Z" horiz-adv-x="761" unicode="Ц"/>
			<glyph d="M67 710H142V472Q142 399 177 361T290 323Q350 323 412 344T526 404V710H601V1H526V341Q477 303 413 280T278 257Q171 257 119 310T67 458Z" horiz-adv-x="704" unicode="Ч"/>
			<glyph d="M103 710H178V68H525V710H600V68H947V710H1022V0H103Z" horiz-adv-x="1126" unicode="Ш"/>
			<glyph d="M103 710H178V68H525V710H600V68H947V710H1022V68H1105V-167H1036V0H103Z" horiz-adv-x="1138" unicode="Щ"/>
			<glyph d="M25 710H304V407H462Q576 407 633 354T691 209Q691 112 633 56T462 0H229V641H25ZM304 341V66H451Q532 66 573 102T614 208Q614 275 571 308T451 341Z" horiz-adv-x="737" unicode="Ъ"/>
			<glyph d="M103 710H178V407H336Q450 407 507 354T565 209Q565 112 507 56T336 0H103ZM178 341V66H325Q406 66 447 102T488 208Q488 275 445 308T325 341ZM714 710H789V0H714Z" horiz-adv-x="893" unicode="Ы"/>
			<glyph d="M103 710H178V407H336Q450 407 507 354T565 209Q565 112 507 56T336 0H103ZM178 341V66H325Q406 66 447 102T488 208Q488 275 445 308T325 341Z" horiz-adv-x="611" unicode="Ь"/>
			<glyph d="M303 720Q407 720 489 674T617 545T663 355Q663 249 616 165T490 36T312 -10Q231 -10 167 10T47 72L70 140Q171 60 305 60Q380 60 441 92T540 183T586 319H192V386H587Q581 464 544 523T444 616T303 650Q240 650 184 629T83 572L58 640Q107 678 169 699T303 720Z" horiz-adv-x="729" unicode="Э"/>
			<glyph d="M681 720Q785 720 869 673T1002 542T1050 356Q1050 252 1002 168T869 37T680 -10Q582 -10 501 32T370 150T312 321H178V0H103V710H178V390H312Q320 486 370 561T501 678T681 720ZM681 649Q597 649 530 611T425 505T387 355Q387 272 425 205T530 100T681 62Q764 62 831 100T936 205T974 355Q974 438 936 505T831 611T681 649Z" horiz-adv-x="1116" unicode="Ю"/>
			<glyph d="M325 710H528V0H453V297H319Q307 297 302 298L121 0H33L230 312Q169 335 135 387T101 507Q101 600 161 655T325 710ZM332 644Q265 644 221 610T177 505Q177 432 219 396T326 361H453V644Z" horiz-adv-x="632" unicode="Я"/>
			<glyph d="M289 512Q386 512 438 461T491 312V0H422V88Q398 44 348 17T234 -10Q154 -10 108 30T63 139Q63 196 98 230T212 281T421 299V312Q421 376 384 413T279 450Q190 450 114 389L94 452Q129 478 179 495T289 512ZM421 248Q312 247 250 235T162 201T136 141Q136 98 165 73T248 48Q290 48 329 63T395 113T421 198Z" horiz-adv-x="577" unicode="а"/>
			<glyph d="M528 764L538 700Q486 692 408 685Q363 680 352 678Q276 667 229 641T158 560T130 405Q164 451 217 479T338 508Q407 508 461 476T547 387T578 252Q578 176 546 116T456 23T320 -10Q58 -10 58 376Q58 492 84 565T170 680T332 739Q369 745 396 748Q472 755 528 764ZM329 444Q263 444 210 409T130 323Q138 176 188 115T320 55Q406 55 456 110T507 253Q507 340 457 392T329 444Z" horiz-adv-x="628" unicode="б"/>
			<glyph d="M93 502H276Q363 502 406 469T449 379Q449 335 425 305T365 266Q422 261 455 228T488 142Q488 72 437 36T308 0H93ZM163 446V288H276Q332 288 356 311T380 370Q380 446 272 446ZM163 234V55H299Q355 55 385 79T416 145Q416 189 382 211T282 234Z" horiz-adv-x="537" unicode="в"/>
			<glyph d="M93 502H390V441H163V0H93Z" horiz-adv-x="419" unicode="г"/>
			<glyph d="M174 502H492V61H570V-146H503V0H85V-146H18V61H48Q87 61 107 91T136 193ZM236 441L206 184Q201 137 190 107T162 61H422V441Z" horiz-adv-x="598" unicode="д"/>
			<glyph d="M296 512Q365 512 418 479T502 387T532 255V246H120Q122 158 174 106T313 54Q368 54 416 74T496 124L516 62Q481 31 426 10T309 -10Q231 -10 172 24T81 119T49 251Q49 325 81 384T170 478T296 512ZM296 450Q233 450 184 408T124 301H458Q450 367 406 408T296 450Z" horiz-adv-x="576" unicode="е"/>
			<glyph d="M21 502H106L314 290H342V502H411V290H439L647 502H732L494 265L741 0H654L436 234H411V0H342V234H316L99 0H11L259 265Z" horiz-adv-x="752" unicode="ж"/>
			<glyph d="M251 512Q333 512 382 477T431 384Q431 336 397 302T304 263Q373 257 415 224T457 134Q457 65 397 27T243 -10Q176 -10 121 6T38 45L54 111Q89 86 136 69T240 53Q305 53 342 75T380 141Q380 184 333 205T173 227V289Q271 289 314 311T358 375Q358 411 328 430T245 450Q165 450 92 404L72 465Q162 512 251 512Z" horiz-adv-x="519" unicode="з"/>
			<glyph d="M93 502H161V99L482 502H550V0H482V403L161 0H93Z" horiz-adv-x="642" unicode="и"/>
			<glyph d="M93 502H161V99L482 502H550V0H482V403L161 0H93ZM170 725H225Q226 683 252 661T321 640Q365 640 390 662T417 725H471Q469 663 428 626T320 590Q252 590 212 626T170 725Z" horiz-adv-x="642" unicode="й"/>
			<glyph d="M93 502H161V290H189L397 502H482L244 265L492 0H404L186 234H161V0H93Z" horiz-adv-x="502" unicode="к"/>
			<glyph d="M173 502H515V0H445V441H235L197 124Q189 60 158 26T75 -7Q38 -7 8 6L21 72Q28 68 41 63T65 59Q94 59 109 80T129 147Z" horiz-adv-x="607" unicode="л"/>
			<glyph d="M93 502H170L373 149L577 502H655V0H587V395L399 70H347L160 395V0H93Z" horiz-adv-x="747" unicode="м"/>
			<glyph d="M93 502H163V284H452V502H522V0H452V223H163V0H93Z" horiz-adv-x="614" unicode="н"/>
			<glyph d="M312 512Q389 512 448 478T541 386T575 251Q575 175 541 116T448 23T312 -10Q235 -10 175 23T82 116T49 251Q49 327 82 386T175 478T312 512ZM312 445Q256 445 212 420T145 352T121 252Q121 194 145 150T213 81T312 57Q368 57 412 81T480 150T504 251Q504 308 479 352T411 420T312 445Z" horiz-adv-x="624" unicode="о"/>
			<glyph d="M93 502H520V0H450V441H163V0H93Z" horiz-adv-x="612" unicode="п"/>
			<glyph d="M359 512Q428 512 483 478T568 385T599 252Q599 177 568 117T481 24T353 -10Q297 -10 244 18T163 101V-210H93V502H163V401Q194 455 247 483T359 512ZM349 446Q296 446 252 421T182 351T157 252Q157 197 182 152T250 82T347 56Q400 56 441 81T505 150T528 251Q528 306 506 350T443 420T349 446Z" horiz-adv-x="648" unicode="р"/>
			<glyph d="M303 512Q399 512 475 459L452 395Q386 446 306 446Q223 446 172 392T121 252Q121 194 144 149T207 80T300 56Q344 56 386 70T464 110L482 48Q447 22 399 6T297 -10Q226 -10 169 22T81 114T49 250Q49 327 81 386T171 479T303 512Z" horiz-adv-x="520" unicode="с"/>
			<glyph d="M29 502H424V441H261V0H191V441H29Z" horiz-adv-x="453" unicode="т"/>
			<glyph d="M4 502H81L256 108L410 502H485L250 -72Q220 -146 177 -180T72 -215Q39 -215 14 -207L24 -143Q42 -148 62 -148Q105 -148 134 -127T187 -49L219 25Z" horiz-adv-x="489" unicode="у"/>
			<glyph d="M451 752H521V403Q576 512 697 512Q764 512 815 479T894 386T922 251Q922 175 893 116T813 23T695 -10Q574 -10 521 102V-210H451V99Q399 -10 280 -10Q210 -10 158 23T77 116T49 251Q49 326 77 385T157 478T278 512Q398 512 451 402ZM286 445Q212 445 166 391T121 251Q121 165 166 111T286 57Q361 57 406 112T451 251Q451 335 406 390T286 445ZM689 445Q640 445 602 419T542 350T521 251Q521 197 542 152T602 82T688 57Q735 57 772 82T829 151T850 252Q850 308 829 352T772 420T689 445Z" horiz-adv-x="971" unicode="ф"/>
			<glyph d="M30 502H116L259 309L403 502H486L300 260L497 0H414L258 209L101 0H18L217 259Z" horiz-adv-x="515" unicode="х"/>
			<glyph d="M93 502H163V61H450V502H520V61H598V-146H532V0H93Z" horiz-adv-x="626" unicode="ц"/>
			<glyph d="M75 502H145V369Q145 217 286 217Q367 217 433 259V502H503V0H433V199Q400 180 362 168T271 156Q182 156 128 206T75 353Z" horiz-adv-x="594" unicode="ч"/>
			<glyph d="M93 502H163V61H407V502H477V61H721V502H791V0H93Z" horiz-adv-x="883" unicode="ш"/>
			<glyph d="M93 502H163V61H407V502H477V61H721V502H791V61H869V-146H803V0H93Z" horiz-adv-x="897" unicode="щ"/>
			<glyph d="M39 502H282V291H418Q504 291 551 255T599 149Q599 80 550 40T426 0H212V441H39ZM282 237V55H418Q473 55 500 79T528 148Q528 193 498 215T408 237Z" horiz-adv-x="647" unicode="ъ"/>
			<glyph d="M93 502H163V291H299Q385 291 432 255T480 149Q480 80 431 40T307 0H93ZM564 502H634V0H564ZM163 237V55H299Q354 55 381 79T409 148Q409 193 379 215T289 237Z" horiz-adv-x="726" unicode="ы"/>
			<glyph d="M93 502H163V291H299Q385 291 432 255T480 149Q480 80 431 40T307 0H93ZM163 237V55H299Q354 55 381 79T409 148Q409 193 379 215T289 237Z" horiz-adv-x="529" unicode="ь"/>
			<glyph d="M229 512Q301 512 356 478T442 385T473 250Q473 175 440 116T351 23T225 -10Q116 -10 38 42L55 104Q128 54 222 54Q295 54 344 100T402 223H108V281H401Q393 358 345 403T224 448Q137 448 71 399L50 461Q128 512 229 512Z" horiz-adv-x="521" unicode="э"/>
			<glyph d="M558 512Q635 512 694 478T787 386T821 251Q821 175 787 116T694 23T558 -10Q486 -10 429 19T337 102T296 223H163V0H93V502H163V284H297Q304 351 338 403T430 483T558 512ZM558 445Q502 445 458 420T391 352T367 252Q367 194 391 150T459 81T558 57Q614 57 658 81T726 150T750 251Q750 308 725 352T657 420T558 445Z" horiz-adv-x="870" unicode="ю"/>
			<glyph d="M235 503H439V1H369V212H246L112 0H33L177 218Q123 230 93 265T63 357Q63 428 110 465T235 503ZM245 448Q191 448 163 424T135 355Q135 312 162 289T243 266H369V448Z" horiz-adv-x="531" unicode="я"/>
			<glyph d="M296 512Q365 512 418 479T502 387T532 255V246H120Q122 158 174 106T313 54Q368 54 416 74T496 124L516 62Q481 31 426 10T309 -10Q231 -10 172 24T81 119T49 251Q49 325 81 384T170 478T296 512ZM296 450Q233 450 184 408T124 301H458Q450 367 406 408T296 450ZM180 725H254L366 573H300Z" horiz-adv-x="576" unicode="ѐ"/>
			<glyph d="M296 512Q365 512 418 479T502 387T532 255V246H120Q122 158 174 106T313 54Q368 54 416 74T496 124L516 62Q481 31 426 10T309 -10Q231 -10 172 24T81 119T49 251Q49 325 81 384T170 478T296 512ZM296 450Q233 450 184 408T124 301H458Q450 367 406 408T296 450ZM193 716Q213 716 227 701T242 666Q242 646 227 631T193 617Q172 617 157 631T143 666Q143 687 157 701T193 716ZM405 716Q426 716 440 701T455 666Q455 646 440 631T405 617Q384 617 370 631T356 666Q356 687 370 701T405 716Z" horiz-adv-x="576" unicode="ё"/>
			<glyph d="M93 752H163V653H332V596H163V406Q188 454 235 481T345 508Q432 508 480 456T528 303V-59Q528 -144 498 -181T407 -219Q370 -219 345 -209L356 -147Q374 -153 395 -153Q430 -153 444 -131T458 -49V285Q458 363 424 403T325 444Q279 444 242 423T184 366T163 283V0H93V596H20V653H93Z" unicode="ђ"/>
			<glyph d="M93 502H390V441H163V0H93ZM293 725H367L248 573H182Z" horiz-adv-x="419" unicode="ѓ"/>
			<glyph d="M300 512Q394 512 472 461L451 399Q385 448 302 448Q226 448 177 403T120 281H413V223H120Q128 148 180 101T307 54Q352 54 393 68T466 107L484 46Q451 21 405 5T304 -10Q231 -10 173 23T82 116T49 250Q49 327 80 386T168 479T300 512Z" horiz-adv-x="521" unicode="є"/>
			<glyph d="M252 512Q297 512 336 500T404 470L389 408Q320 453 250 453Q202 453 173 432T145 375Q145 339 173 320T261 286Q338 264 379 233T420 140Q420 72 370 31T235 -10Q183 -10 135 5T60 44L79 106Q107 82 149 65T239 49Q291 49 321 71T351 133Q351 158 337 173T299 199T227 225T147 255T95 297T75 368Q75 435 123 473T252 512Z" horiz-adv-x="480" unicode="ѕ"/>
			<glyph d="M93 502H163V0H93ZM129 718Q151 718 166 703T182 665Q182 643 166 627T129 612Q106 612 91 627T76 665Q76 688 91 703T129 718Z" horiz-adv-x="255" unicode="і"/>
			<glyph d="M93 502H163V0H93ZM44 717Q65 717 80 702T95 666Q95 645 80 630T44 615Q22 615 7 630T-7 666Q-7 688 7 702T44 717ZM212 717Q234 717 248 702T263 666Q263 645 248 630T212 615Q191 615 176 630T161 666Q161 688 176 702T212 717Z" horiz-adv-x="255" unicode="ї"/>
			<glyph d="M93 502H163V-59Q163 -143 132 -181T41 -219Q4 -219 -21 -209L-11 -147Q8 -153 28 -153Q64 -153 78 -131T93 -49ZM129 718Q151 718 166 703T182 665Q182 643 166 627T129 612Q106 612 91 627T76 665Q76 688 91 703T129 718Z" horiz-adv-x="257" unicode="ј"/>
			<glyph d="M173 502H489V291H625Q711 291 758 255T806 149Q806 80 757 40T633 0H419V441H235L197 124Q190 60 158 26T76 -7Q38 -7 8 6L21 72Q29 67 42 63T70 59Q92 59 108 81T129 147ZM489 237V55H625Q680 55 707 79T735 148Q735 193 705 215T615 237Z" horiz-adv-x="855" unicode="љ"/>
			<glyph d="M93 502H163V291H440V502H510V291H646Q732 291 779 255T827 149Q827 80 778 40T654 0H440V234H163V0H93ZM510 237V55H646Q701 55 728 79T756 148Q756 193 726 215T636 237Z" horiz-adv-x="876" unicode="њ"/>
			<glyph d="M93 752H163V653H332V596H163V406Q188 454 235 481T345 508Q432 508 480 456T528 303V0H458V285Q458 363 424 403T325 444Q279 444 242 423T184 366T163 283V0H93V596H20V653H93Z" unicode="ћ"/>
			<glyph d="M93 502H161V290H189L397 502H482L244 265L492 0H404L186 234H161V0H93ZM325 725H399L280 573H214Z" horiz-adv-x="502" unicode="ќ"/>
			<glyph d="M93 502H161V99L482 502H550V0H482V403L161 0H93ZM201 725H275L387 573H321Z" horiz-adv-x="642" unicode="ѝ"/>
			<glyph d="M4 502H81L256 108L410 502H485L250 -72Q220 -146 177 -180T72 -215Q39 -215 14 -207L24 -143Q42 -148 62 -148Q105 -148 134 -127T187 -49L219 25ZM95 725H150Q151 683 177 661T246 640Q290 640 315 662T342 725H396Q394 663 353 626T245 590Q177 590 137 626T95 725Z" horiz-adv-x="489" unicode="ў"/>
			<glyph d="M93 502H163V61H450V502H520V0H340V-146H274V0H93Z" horiz-adv-x="612" unicode="џ"/>
			<glyph d="M426 850H495V641H178V0H103V710H426Z" horiz-adv-x="520" unicode="Ґ"/>
			<glyph d="M324 624H390V441H163V0H93V502H324Z" horiz-adv-x="419" unicode="ґ"/>
			<glyph d="M103 710H495V641H178V370H386V305H178V0H103V305H14V370H103Z" horiz-adv-x="520" unicode="Ғ"/>
			<glyph d="M93 502H390V441H163V271H329V213H163V0H93V213H11V271H93Z" horiz-adv-x="419" unicode="ғ"/>
			<glyph d="M36 709H124L395 388H458V709H532V388H595L866 709H954L658 364L922 68H1018V-167H949V-1H894L601 324H532V-1H458V324H389L96 -1H6L333 364Z" horiz-adv-x="1042" unicode="Җ"/>
			<glyph d="M21 502H106L314 290H342V502H411V290H439L647 502H732L494 265L684 61H766V-146H700V0H654L436 234H411V0H342V234H316L99 0H11L259 265Z" horiz-adv-x="795" unicode="җ"/>
			<glyph d="M103 709H178V388H239L512 709H599L303 364L567 68H662V-167H593V-1H537L245 324H178V-1H103Z" horiz-adv-x="686" unicode="Қ"/>
			<glyph d="M93 502H161V290H189L397 502H482L244 265L435 61H515V-146H449V0H404L186 234H161V0H93Z" horiz-adv-x="538" unicode="қ"/>
			<glyph d="M103 709H178V388H254V584H312V399L547 709H632L365 364L662 -1H572L312 320V111H254V324H178V-1H103Z" horiz-adv-x="668" unicode="Ҝ"/>
			<glyph d="M93 502H161V290H224V407H276V290H289L438 502H514L343 265L524 0H445L288 234H276V105H224V234H161V0H93Z" horiz-adv-x="534" unicode="ҝ"/>
			<glyph d="M103 710H178V390H580V710H655V68H738V-167H670V0H580V321H178V0H103Z" horiz-adv-x="771" unicode="Ң"/>
			<glyph d="M93 502H163V284H452V502H522V61H601V-146H535V0H452V223H163V0H93Z" horiz-adv-x="630" unicode="ң"/>
			<glyph d="M2 710H86L295 358L503 710H582L329 284V0H255V284Z" horiz-adv-x="584" unicode="Ү"/>
			<glyph d="M4 502H81L244 92L409 502H484L279 10V-210H209V12Z" horiz-adv-x="488" unicode="ү"/>
			<glyph d="M59 710H146L340 420L536 710H617L380 362L580 68H676V-167H607V0H539L337 300L135 0H52L296 359Z" horiz-adv-x="700" unicode="Ҳ"/>
			<glyph d="M30 502H116L259 309L403 502H486L300 260L451 61H529V-146H463V0H414L258 209L101 0H18L217 259Z" horiz-adv-x="552" unicode="ҳ"/>
			<glyph d="M67 710H142V472Q142 399 177 361T290 323H305V559H363V331Q453 350 526 404V710H601V1H526V341Q456 286 363 266V87H305V258Q296 257 278 257Q171 257 119 310T67 458Z" horiz-adv-x="704" unicode="Ҹ"/>
			<glyph d="M75 502H145V369Q145 231 262 218V351H314V218Q380 225 433 259V502H503V0H433V199Q377 166 314 158V49H262V156Q177 158 126 208T75 353Z" horiz-adv-x="594" unicode="ҹ"/>
			<glyph d="M103 709H178V369Q227 407 290 430T426 453Q533 453 585 400T637 252V0H562V238Q562 311 527 349T414 387Q354 387 291 365T178 306V0H103Z" horiz-adv-x="704" unicode="Һ"/>
			<glyph d="M93 752H163V411Q188 459 235 486T345 513Q432 513 480 461T528 308V0H458V290Q458 368 424 408T325 449Q279 449 242 428T184 371T163 288V0H93Z" unicode="һ"/>
			<glyph d="M103 710H178V0H103Z" horiz-adv-x="282" unicode="Ӏ"/>
			<glyph d="M90 752H160V0H90Z" horiz-adv-x="250" unicode="ӏ"/>
			<glyph d="M346 720Q450 720 533 672T664 541T711 353Q711 248 667 164T547 34T375 -13Q273 -13 199 31T87 157T48 344V357H635Q633 442 595 508T491 611T343 648Q280 648 222 626T119 569L95 638Q205 720 346 720ZM134 289Q142 185 208 123T377 62Q439 62 492 89T582 168T630 289Z" horiz-adv-x="778" unicode="Ә"/>
			<glyph d="M267 512Q345 512 404 477T495 383T527 251Q527 177 494 117T406 24T280 -10Q211 -10 157 23T74 114T44 247V256H456Q454 344 401 396T263 448Q208 448 160 428T80 378L60 440Q95 471 149 491T267 512ZM118 201Q126 135 170 93T280 52Q343 52 391 93T452 201Z" horiz-adv-x="576" unicode="ә"/>
			<glyph d="M435 720Q538 720 622 672T756 541T805 356Q805 254 756 170T622 38T435 -10Q333 -10 248 38T115 169T66 355Q66 457 115 540T248 672T435 720ZM436 649Q360 649 296 615T192 521T145 387H727Q720 461 679 521T575 615T436 649ZM145 321Q153 247 193 188T296 95T436 61Q511 61 575 95T679 188T727 321Z" horiz-adv-x="871" unicode="Ө"/>
			<glyph d="M312 512Q389 512 448 478T541 386T575 251Q575 175 541 116T448 23T312 -10Q235 -10 175 23T82 116T49 251Q49 327 82 386T175 478T312 512ZM312 449Q233 449 181 403T121 280H503Q494 357 442 403T312 449ZM120 226Q128 147 180 100T312 53Q391 53 443 100T504 226Z" horiz-adv-x="624" unicode="ө"/>
			<glyph d="M24 710H104L271 109L451 710H526L704 112L871 710H947L743 0H666L486 602L304 0H228ZM349 917H429L543 774H477Z" horiz-adv-x="971" unicode="Ẁ"/>
			<glyph d="M14 502H91L224 84L359 502H423L558 87L689 502H764L598 0H525L391 413L256 0H183ZM270 725H344L456 573H390Z" horiz-adv-x="778" unicode="ẁ"/>
			<glyph d="M24 710H104L271 109L451 710H526L704 112L871 710H947L743 0H666L486 602L304 0H228ZM546 917H625L497 774H431Z" horiz-adv-x="971" unicode="Ẃ"/>
			<glyph d="M14 502H91L224 84L359 502H423L558 87L689 502H764L598 0H525L391 413L256 0H183ZM446 725H520L401 573H335Z" horiz-adv-x="778" unicode="ẃ"/>
			<glyph d="M24 710H104L271 109L451 710H526L704 112L871 710H947L743 0H666L486 602L304 0H228ZM384 894Q404 894 418 879T433 844Q433 824 418 809T384 795Q363 795 348 809T334 844Q334 865 348 879T384 894ZM596 894Q617 894 631 879T646 844Q646 824 631 809T596 795Q575 795 561 809T547 844Q547 865 561 879T596 894Z" horiz-adv-x="971" unicode="Ẅ"/>
			<glyph d="M14 502H91L224 84L359 502H423L558 87L689 502H764L598 0H525L391 413L256 0H183ZM283 716Q303 716 317 701T332 666Q332 646 317 631T283 617Q262 617 247 631T233 666Q233 687 247 701T283 716ZM495 716Q516 716 530 701T545 666Q545 646 530 631T495 617Q474 617 460 631T446 666Q446 687 460 701T495 716Z" horiz-adv-x="778" unicode="ẅ"/>
			<glyph d="M379 720Q531 720 618 612V559L412 428Q542 423 610 369T679 216Q679 150 649 99T565 19T436 -10Q328 -10 241 48L267 117Q346 56 438 56Q515 56 560 98T605 213Q605 271 574 306T482 357T322 378V442L546 584Q512 621 471 638T378 656Q275 656 223 592T172 407V0H98V419Q98 508 130 576T225 682T379 720Z" horiz-adv-x="748" unicode="ẞ"/>
			<glyph d="M294 710H372L645 0H567L480 230H184L97 0H21ZM332 624L207 293H457ZM333 -89Q355 -89 370 -104T386 -142Q386 -165 370 -180T333 -195Q310 -195 295 -180T280 -142Q280 -120 295 -104T333 -89Z" horiz-adv-x="666" unicode="Ạ"/>
			<glyph d="M289 512Q386 512 438 461T491 312V0H422V88Q398 44 348 17T234 -10Q154 -10 108 30T63 139Q63 196 98 230T212 281T421 299V312Q421 376 384 413T279 450Q190 450 114 389L94 452Q129 478 179 495T289 512ZM421 248Q312 247 250 235T162 201T136 141Q136 98 165 73T248 48Q290 48 329 63T395 113T421 198ZM289 -89Q311 -89 326 -104T342 -142Q342 -165 326 -180T289 -195Q266 -195 251 -180T236 -142Q236 -120 251 -104T289 -89Z" horiz-adv-x="577" unicode="ạ"/>
			<glyph d="M294 710H372L645 0H567L480 230H184L97 0H21ZM332 624L207 293H457ZM348 966Q388 966 416 945T445 888Q445 859 428 841T382 806Q368 799 364 793T360 771H301Q301 800 309 812T340 836Q366 849 376 858T387 883Q387 915 339 915Q306 915 278 901L266 948Q283 956 305 961T348 966Z" horiz-adv-x="666" unicode="Ả"/>
			<glyph d="M289 512Q386 512 438 461T491 312V0H422V88Q398 44 348 17T234 -10Q154 -10 108 30T63 139Q63 196 98 230T212 281T421 299V312Q421 376 384 413T279 450Q190 450 114 389L94 452Q129 478 179 495T289 512ZM421 248Q312 247 250 235T162 201T136 141Q136 98 165 73T248 48Q290 48 329 63T395 113T421 198ZM308 758Q348 758 376 737T405 680Q405 651 388 633T342 598Q328 591 324 585T320 563H261Q261 592 269 604T300 628Q326 641 336 650T347 675Q347 707 299 707Q266 707 238 693L226 740Q243 748 265 753T308 758Z" horiz-adv-x="577" unicode="ả"/>
			<glyph d="M294 710H372L645 0H567L480 230H184L97 0H21ZM332 624L207 293H457ZM508 965H576L501 865H444ZM299 904H367L475 774H416L333 858L250 774H191Z" horiz-adv-x="666" unicode="Ấ"/>
			<glyph d="M289 512Q386 512 438 461T491 312V0H422V88Q398 44 348 17T234 -10Q154 -10 108 30T63 139Q63 196 98 230T212 281T421 299V312Q421 376 384 413T279 450Q190 450 114 389L94 452Q129 478 179 495T289 512ZM421 248Q312 247 250 235T162 201T136 141Q136 98 165 73T248 48Q290 48 329 63T395 113T421 198ZM469 780H537L462 680H405ZM258 725H326L434 573H375L292 680L209 573H150Z" horiz-adv-x="577" unicode="ấ"/>
			<glyph d="M294 710H372L645 0H567L480 230H184L97 0H21ZM332 624L207 293H457ZM94 964H162L227 864H170ZM299 904H367L475 774H416L333 858L250 774H191Z" horiz-adv-x="666" unicode="Ầ"/>
			<glyph d="M289 512Q386 512 438 461T491 312V0H422V88Q398 44 348 17T234 -10Q154 -10 108 30T63 139Q63 196 98 230T212 281T421 299V312Q421 376 384 413T279 450Q190 450 114 389L94 452Q129 478 179 495T289 512ZM421 248Q312 247 250 235T162 201T136 141Q136 98 165 73T248 48Q290 48 329 63T395 113T421 198ZM52 780H120L185 680H128ZM263 725H331L439 573H380L297 680L214 573H155Z" horiz-adv-x="577" unicode="ầ"/>
			<glyph d="M294 710H372L645 0H567L480 230H184L97 0H21ZM332 624L207 293H457ZM494 1026Q530 1026 555 1007T581 956Q581 930 566 913T524 882Q511 875 508 870T505 851H451Q451 877 458 888T487 909Q510 922 519 930T529 951Q529 980 486 980Q455 980 431 968L420 1010Q454 1026 494 1026ZM299 904H367L475 774H416L333 858L250 774H191Z" horiz-adv-x="666" unicode="Ẩ"/>
			<glyph d="M289 512Q386 512 438 461T491 312V0H422V88Q398 44 348 17T234 -10Q154 -10 108 30T63 139Q63 196 98 230T212 281T421 299V312Q421 376 384 413T279 450Q190 450 114 389L94 452Q129 478 179 495T289 512ZM421 248Q312 247 250 235T162 201T136 141Q136 98 165 73T248 48Q290 48 329 63T395 113T421 198ZM463 836Q499 836 524 817T550 766Q550 740 535 723T493 692Q480 685 477 680T474 661H420Q420 687 427 698T456 719Q479 732 488 740T498 761Q498 790 455 790Q424 790 400 778L389 820Q423 836 463 836ZM259 725H327L435 573H376L293 680L210 573H151Z" horiz-adv-x="577" unicode="ẩ"/>
			<glyph d="M294 710H372L645 0H567L480 230H184L97 0H21ZM332 624L207 293H457ZM263 1033Q290 1033 341 1012Q380 995 394 995Q422 995 428 1033H473Q467 989 447 967T400 945Q385 945 368 950T325 967Q285 984 268 984Q256 984 248 975T236 945H190Q195 990 215 1011T263 1033ZM295 904H371L491 774H425L333 858L241 774H175Z" horiz-adv-x="666" unicode="Ẫ"/>
			<glyph d="M289 512Q386 512 438 461T491 312V0H422V88Q398 44 348 17T234 -10Q154 -10 108 30T63 139Q63 196 98 230T212 281T421 299V312Q421 376 384 413T279 450Q190 450 114 389L94 452Q129 478 179 495T289 512ZM421 248Q312 247 250 235T162 201T136 141Q136 98 165 73T248 48Q290 48 329 63T395 113T421 198ZM223 856Q250 856 301 835Q340 818 354 818Q382 818 388 856H433Q427 812 407 790T360 768Q345 768 328 773T285 790Q245 807 228 807Q216 807 208 798T196 768H150Q155 813 175 834T223 856ZM255 725H331L451 573H385L293 680L201 573H135Z" horiz-adv-x="577" unicode="ẫ"/>
			<glyph d="M294 710H372L645 0H567L480 230H184L97 0H21ZM332 624L207 293H457ZM295 904H371L491 774H425L333 858L241 774H175ZM333 -89Q355 -89 370 -104T386 -142Q386 -165 370 -180T333 -195Q310 -195 295 -180T280 -142Q280 -120 295 -104T333 -89Z" horiz-adv-x="666" unicode="Ậ"/>
			<glyph d="M289 512Q386 512 438 461T491 312V0H422V88Q398 44 348 17T234 -10Q154 -10 108 30T63 139Q63 196 98 230T212 281T421 299V312Q421 376 384 413T279 450Q190 450 114 389L94 452Q129 478 179 495T289 512ZM421 248Q312 247 250 235T162 201T136 141Q136 98 165 73T248 48Q290 48 329 63T395 113T421 198ZM255 725H331L451 573H385L293 680L201 573H135ZM289 -89Q311 -89 326 -104T342 -142Q342 -165 326 -180T289 -195Q266 -195 251 -180T236 -142Q236 -120 251 -104T289 -89Z" horiz-adv-x="577" unicode="ậ"/>
			<glyph d="M294 710H372L645 0H567L480 230H184L97 0H21ZM332 624L207 293H457ZM349 1025H417L342 925H285ZM191 892H246Q249 860 272 843T335 826Q372 826 394 843T421 892H475Q471 839 432 807T334 776Q268 776 231 807T191 892Z" horiz-adv-x="666" unicode="Ắ"/>
			<glyph d="M289 512Q386 512 438 461T491 312V0H422V88Q398 44 348 17T234 -10Q154 -10 108 30T63 139Q63 196 98 230T212 281T421 299V312Q421 376 384 413T279 450Q190 450 114 389L94 452Q129 478 179 495T289 512ZM421 248Q312 247 250 235T162 201T136 141Q136 98 165 73T248 48Q290 48 329 63T395 113T421 198ZM308 855H376L301 755H244ZM152 725H207Q208 680 231 657T293 634Q333 634 355 657T379 725H433Q432 660 393 622T292 584Q229 584 191 621T152 725Z" horiz-adv-x="577" unicode="ắ"/>
			<glyph d="M294 710H372L645 0H567L480 230H184L97 0H21ZM332 624L207 293H457ZM244 1025H312L377 925H320ZM191 892H246Q249 860 272 843T335 826Q372 826 394 843T421 892H475Q471 839 432 807T334 776Q268 776 231 807T191 892Z" horiz-adv-x="666" unicode="Ằ"/>
			<glyph d="M289 512Q386 512 438 461T491 312V0H422V88Q398 44 348 17T234 -10Q154 -10 108 30T63 139Q63 196 98 230T212 281T421 299V312Q421 376 384 413T279 450Q190 450 114 389L94 452Q129 478 179 495T289 512ZM421 248Q312 247 250 235T162 201T136 141Q136 98 165 73T248 48Q290 48 329 63T395 113T421 198ZM203 855H271L336 755H279ZM152 725H207Q208 680 231 657T293 634Q333 634 355 657T379 725H433Q432 660 393 622T292 584Q229 584 191 621T152 725Z" horiz-adv-x="577" unicode="ằ"/>
			<glyph d="M294 710H372L645 0H567L480 230H184L97 0H21ZM332 624L207 293H457ZM347 1096Q383 1096 408 1077T434 1026Q434 1000 419 983T377 952Q364 945 361 940T358 921H304Q304 947 311 958T340 979Q363 992 372 1000T382 1021Q382 1050 339 1050Q308 1050 284 1038L273 1080Q307 1096 347 1096ZM191 892H246Q249 860 272 843T335 826Q372 826 394 843T421 892H475Q471 839 432 807T334 776Q268 776 231 807T191 892Z" horiz-adv-x="666" unicode="Ẳ"/>
			<glyph d="M289 512Q386 512 438 461T491 312V0H422V88Q398 44 348 17T234 -10Q154 -10 108 30T63 139Q63 196 98 230T212 281T421 299V312Q421 376 384 413T279 450Q190 450 114 389L94 452Q129 478 179 495T289 512ZM421 248Q312 247 250 235T162 201T136 141Q136 98 165 73T248 48Q290 48 329 63T395 113T421 198ZM306 926Q342 926 367 907T393 856Q393 830 378 813T336 782Q323 775 320 770T317 751H263Q263 777 270 788T299 809Q322 822 331 830T341 851Q341 880 298 880Q267 880 243 868L232 910Q266 926 306 926ZM152 725H207Q208 680 231 657T293 634Q333 634 355 657T379 725H433Q432 660 393 622T292 584Q229 584 191 621T152 725Z" horiz-adv-x="577" unicode="ẳ"/>
			<glyph d="M294 710H372L645 0H567L480 230H184L97 0H21ZM332 624L207 293H457ZM264 1039Q291 1039 342 1018Q381 1001 395 1001Q423 1001 429 1039H474Q468 995 448 973T401 951Q386 951 369 956T326 973Q286 990 269 990Q257 990 249 981T237 951H191Q196 996 216 1017T264 1039ZM192 892H247Q250 860 273 843T336 826Q373 826 395 843T422 892H476Q472 839 433 807T335 776Q269 776 232 807T192 892Z" horiz-adv-x="666" unicode="Ẵ"/>
			<glyph d="M289 512Q386 512 438 461T491 312V0H422V88Q398 44 348 17T234 -10Q154 -10 108 30T63 139Q63 196 98 230T212 281T421 299V312Q421 376 384 413T279 450Q190 450 114 389L94 452Q129 478 179 495T289 512ZM421 248Q312 247 250 235T162 201T136 141Q136 98 165 73T248 48Q290 48 329 63T395 113T421 198ZM224 869Q251 869 302 848Q341 831 355 831Q383 831 389 869H434Q428 825 408 803T361 781Q346 781 329 786T286 803Q246 820 229 820Q217 820 209 811T197 781H151Q156 826 176 847T224 869ZM154 725H209Q210 680 233 657T295 634Q335 634 357 657T381 725H435Q434 660 395 622T294 584Q231 584 193 621T154 725Z" horiz-adv-x="577" unicode="ẵ"/>
			<glyph d="M294 710H372L645 0H567L480 230H184L97 0H21ZM332 624L207 293H457ZM191 892H246Q249 860 272 843T335 826Q372 826 394 843T421 892H475Q471 839 432 807T334 776Q268 776 231 807T191 892ZM333 -89Q355 -89 370 -104T386 -142Q386 -165 370 -180T333 -195Q310 -195 295 -180T280 -142Q280 -120 295 -104T333 -89Z" horiz-adv-x="666" unicode="Ặ"/>
			<glyph d="M289 512Q386 512 438 461T491 312V0H422V88Q398 44 348 17T234 -10Q154 -10 108 30T63 139Q63 196 98 230T212 281T421 299V312Q421 376 384 413T279 450Q190 450 114 389L94 452Q129 478 179 495T289 512ZM421 248Q312 247 250 235T162 201T136 141Q136 98 165 73T248 48Q290 48 329 63T395 113T421 198ZM152 725H207Q208 680 231 657T293 634Q333 634 355 657T379 725H433Q432 660 393 622T292 584Q229 584 191 621T152 725ZM289 -89Q311 -89 326 -104T342 -142Q342 -165 326 -180T289 -195Q266 -195 251 -180T236 -142Q236 -120 251 -104T289 -89Z" horiz-adv-x="577" unicode="ặ"/>
			<glyph d="M103 710H492V642H178V390H483V323H178V68H500V0H103ZM291 -89Q313 -89 328 -104T344 -142Q344 -165 328 -180T291 -195Q268 -195 253 -180T238 -142Q238 -120 253 -104T291 -89Z" horiz-adv-x="578" unicode="Ẹ"/>
			<glyph d="M296 512Q365 512 418 479T502 387T532 255V246H120Q122 158 174 106T313 54Q368 54 416 74T496 124L516 62Q481 31 426 10T309 -10Q231 -10 172 24T81 119T49 251Q49 325 81 384T170 478T296 512ZM296 450Q233 450 184 408T124 301H458Q450 367 406 408T296 450ZM301 -89Q323 -89 338 -104T354 -142Q354 -165 338 -180T301 -195Q278 -195 263 -180T248 -142Q248 -120 263 -104T301 -89Z" horiz-adv-x="576" unicode="ẹ"/>
			<glyph d="M103 710H492V642H178V390H483V323H178V68H500V0H103ZM317 966Q357 966 385 945T414 888Q414 859 397 841T351 806Q337 799 333 793T329 771H270Q270 800 278 812T309 836Q335 849 345 858T356 883Q356 915 308 915Q275 915 247 901L235 948Q252 956 274 961T317 966Z" horiz-adv-x="578" unicode="Ẻ"/>
			<glyph d="M296 512Q365 512 418 479T502 387T532 255V246H120Q122 158 174 106T313 54Q368 54 416 74T496 124L516 62Q481 31 426 10T309 -10Q231 -10 172 24T81 119T49 251Q49 325 81 384T170 478T296 512ZM296 450Q233 450 184 408T124 301H458Q450 367 406 408T296 450ZM315 758Q355 758 383 737T412 680Q412 651 395 633T349 598Q335 591 331 585T327 563H268Q268 592 276 604T307 628Q333 641 343 650T354 675Q354 707 306 707Q273 707 245 693L233 740Q250 748 272 753T315 758Z" horiz-adv-x="576" unicode="ẻ"/>
			<glyph d="M103 710H492V642H178V390H483V323H178V68H500V0H103ZM222 872Q250 872 311 848Q329 841 346 835T374 829Q389 829 396 839T407 872H458Q452 825 432 799T379 774Q362 774 342 780T293 798Q245 817 229 817Q214 817 207 807T194 774H143Q149 824 169 848T222 872Z" horiz-adv-x="578" unicode="Ẽ"/>
			<glyph d="M296 512Q365 512 418 479T502 387T532 255V246H120Q122 158 174 106T313 54Q368 54 416 74T496 124L516 62Q481 31 426 10T309 -10Q231 -10 172 24T81 119T49 251Q49 325 81 384T170 478T296 512ZM296 450Q233 450 184 408T124 301H458Q450 367 406 408T296 450ZM222 695Q250 695 309 671Q328 663 343 657T368 652Q399 652 405 695H456Q450 646 427 621T374 597Q358 597 338 603T291 621Q246 640 228 640Q215 640 206 631T192 597H141Q147 647 169 671T222 695Z" horiz-adv-x="576" unicode="ẽ"/>
			<glyph d="M103 710H492V642H178V390H483V323H178V68H500V0H103ZM477 965H545L470 865H413ZM268 904H336L444 774H385L302 858L219 774H160Z" horiz-adv-x="578" unicode="Ế"/>
			<glyph d="M296 512Q365 512 418 479T502 387T532 255V246H120Q122 158 174 106T313 54Q368 54 416 74T496 124L516 62Q481 31 426 10T309 -10Q231 -10 172 24T81 119T49 251Q49 325 81 384T170 478T296 512ZM296 450Q233 450 184 408T124 301H458Q450 367 406 408T296 450ZM474 780H542L467 680H410ZM263 725H331L439 573H380L297 680L214 573H155Z" horiz-adv-x="576" unicode="ế"/>
			<glyph d="M103 710H492V642H178V390H483V323H178V68H500V0H103ZM63 964H131L196 864H139ZM268 904H336L444 774H385L302 858L219 774H160Z" horiz-adv-x="578" unicode="Ề"/>
			<glyph d="M296 512Q365 512 418 479T502 387T532 255V246H120Q122 158 174 106T313 54Q368 54 416 74T496 124L516 62Q481 31 426 10T309 -10Q231 -10 172 24T81 119T49 251Q49 325 81 384T170 478T296 512ZM296 450Q233 450 184 408T124 301H458Q450 367 406 408T296 450ZM55 780H123L188 680H131ZM266 725H334L442 573H383L300 680L217 573H158Z" horiz-adv-x="576" unicode="ề"/>
			<glyph d="M103 710H492V642H178V390H483V323H178V68H500V0H103ZM463 1026Q499 1026 524 1007T550 956Q550 930 535 913T493 882Q480 875 477 870T474 851H420Q420 877 427 888T456 909Q479 922 488 930T498 951Q498 980 455 980Q424 980 400 968L389 1010Q423 1026 463 1026ZM268 904H336L444 774H385L302 858L219 774H160Z" horiz-adv-x="578" unicode="Ể"/>
			<glyph d="M296 512Q365 512 418 479T502 387T532 255V246H120Q122 158 174 106T313 54Q368 54 416 74T496 124L516 62Q481 31 426 10T309 -10Q231 -10 172 24T81 119T49 251Q49 325 81 384T170 478T296 512ZM296 450Q233 450 184 408T124 301H458Q450 367 406 408T296 450ZM470 836Q506 836 531 817T557 766Q557 740 542 723T500 692Q487 685 484 680T481 661H427Q427 687 434 698T463 719Q486 732 495 740T505 761Q505 790 462 790Q431 790 407 778L396 820Q430 836 470 836ZM266 725H334L442 573H383L300 680L217 573H158Z" horiz-adv-x="576" unicode="ể"/>
			<glyph d="M103 710H492V642H178V390H483V323H178V68H500V0H103ZM232 1033Q259 1033 310 1012Q349 995 363 995Q391 995 397 1033H442Q436 989 416 967T369 945Q354 945 337 950T294 967Q254 984 237 984Q225 984 217 975T205 945H159Q164 990 184 1011T232 1033ZM264 904H340L460 774H394L302 858L210 774H144Z" horiz-adv-x="578" unicode="Ễ"/>
			<glyph d="M296 512Q365 512 418 479T502 387T532 255V246H120Q122 158 174 106T313 54Q368 54 416 74T496 124L516 62Q481 31 426 10T309 -10Q231 -10 172 24T81 119T49 251Q49 325 81 384T170 478T296 512ZM296 450Q233 450 184 408T124 301H458Q450 367 406 408T296 450ZM230 856Q257 856 308 835Q347 818 361 818Q389 818 395 856H440Q434 812 414 790T367 768Q352 768 335 773T292 790Q252 807 235 807Q223 807 215 798T203 768H157Q162 813 182 834T230 856ZM262 725H338L458 573H392L300 680L208 573H142Z" horiz-adv-x="576" unicode="ễ"/>
			<glyph d="M103 710H492V642H178V390H483V323H178V68H500V0H103ZM264 904H340L460 774H394L302 858L210 774H144ZM291 -89Q313 -89 328 -104T344 -142Q344 -165 328 -180T291 -195Q268 -195 253 -180T238 -142Q238 -120 253 -104T291 -89Z" horiz-adv-x="578" unicode="Ệ"/>
			<glyph d="M296 512Q365 512 418 479T502 387T532 255V246H120Q122 158 174 106T313 54Q368 54 416 74T496 124L516 62Q481 31 426 10T309 -10Q231 -10 172 24T81 119T49 251Q49 325 81 384T170 478T296 512ZM296 450Q233 450 184 408T124 301H458Q450 367 406 408T296 450ZM262 725H338L458 573H392L300 680L208 573H142ZM301 -89Q323 -89 338 -104T354 -142Q354 -165 338 -180T301 -195Q278 -195 263 -180T248 -142Q248 -120 263 -104T301 -89Z" horiz-adv-x="576" unicode="ệ"/>
			<glyph d="M103 710H178V0H103ZM156 966Q196 966 224 945T253 888Q253 859 236 841T190 806Q176 799 172 793T168 771H109Q109 800 117 812T148 836Q174 849 184 858T195 883Q195 915 147 915Q114 915 86 901L74 948Q91 956 113 961T156 966Z" horiz-adv-x="282" unicode="Ỉ"/>
			<glyph d="M93 502H163V0H93ZM144 758Q184 758 212 737T241 680Q241 651 224 633T178 598Q164 591 160 585T156 563H97Q97 592 105 604T136 628Q162 641 172 650T183 675Q183 707 135 707Q102 707 74 693L62 740Q79 748 101 753T144 758Z" horiz-adv-x="255" unicode="ỉ"/>
			<glyph d="M103 710H178V0H103ZM141 -89Q163 -89 178 -104T194 -142Q194 -165 178 -180T141 -195Q118 -195 103 -180T88 -142Q88 -120 103 -104T141 -89Z" horiz-adv-x="282" unicode="Ị"/>
			<glyph d="M93 502H163V0H93ZM129 718Q151 718 166 703T182 665Q182 643 166 627T129 612Q106 612 91 627T76 665Q76 688 91 703T129 718ZM129 -89Q151 -89 166 -104T182 -142Q182 -165 166 -180T129 -195Q106 -195 91 -180T76 -142Q76 -120 91 -104T129 -89Z" horiz-adv-x="255" unicode="ị"/>
			<glyph d="M436 720Q540 720 624 673T757 542T805 356Q805 252 757 168T624 37T435 -10Q331 -10 246 37T114 167T66 355Q66 459 114 542T246 673T436 720ZM436 649Q352 649 285 611T180 505T142 355Q142 272 180 205T285 100T436 62Q519 62 586 100T691 205T729 355Q729 438 691 505T586 611T436 649ZM436 -89Q458 -89 473 -104T489 -142Q489 -165 473 -180T436 -195Q413 -195 398 -180T383 -142Q383 -120 398 -104T436 -89Z" horiz-adv-x="871" unicode="Ọ"/>
			<glyph d="M312 512Q389 512 448 478T541 386T575 251Q575 175 541 116T448 23T312 -10Q235 -10 175 23T82 116T49 251Q49 327 82 386T175 478T312 512ZM312 445Q256 445 212 420T145 352T121 252Q121 194 145 150T213 81T312 57Q368 57 412 81T480 150T504 251Q504 308 479 352T411 420T312 445ZM319 -89Q341 -89 356 -104T372 -142Q372 -165 356 -180T319 -195Q296 -195 281 -180T266 -142Q266 -120 281 -104T319 -89Z" horiz-adv-x="624" unicode="ọ"/>
			<glyph d="M436 720Q540 720 624 673T757 542T805 356Q805 252 757 168T624 37T435 -10Q331 -10 246 37T114 167T66 355Q66 459 114 542T246 673T436 720ZM436 649Q352 649 285 611T180 505T142 355Q142 272 180 205T285 100T436 62Q519 62 586 100T691 205T729 355Q729 438 691 505T586 611T436 649ZM450 966Q490 966 518 945T547 888Q547 859 530 841T484 806Q470 799 466 793T462 771H403Q403 800 411 812T442 836Q468 849 478 858T489 883Q489 915 441 915Q408 915 380 901L368 948Q385 956 407 961T450 966Z" horiz-adv-x="871" unicode="Ỏ"/>
			<glyph d="M312 512Q389 512 448 478T541 386T575 251Q575 175 541 116T448 23T312 -10Q235 -10 175 23T82 116T49 251Q49 327 82 386T175 478T312 512ZM312 445Q256 445 212 420T145 352T121 252Q121 194 145 150T213 81T312 57Q368 57 412 81T480 150T504 251Q504 308 479 352T411 420T312 445ZM327 758Q367 758 395 737T424 680Q424 651 407 633T361 598Q347 591 343 585T339 563H280Q280 592 288 604T319 628Q345 641 355 650T366 675Q366 707 318 707Q285 707 257 693L245 740Q262 748 284 753T327 758Z" horiz-adv-x="624" unicode="ỏ"/>
			<glyph d="M436 720Q540 720 624 673T757 542T805 356Q805 252 757 168T624 37T435 -10Q331 -10 246 37T114 167T66 355Q66 459 114 542T246 673T436 720ZM436 649Q352 649 285 611T180 505T142 355Q142 272 180 205T285 100T436 62Q519 62 586 100T691 205T729 355Q729 438 691 505T586 611T436 649ZM610 965H678L603 865H546ZM401 904H469L577 774H518L435 858L352 774H293Z" horiz-adv-x="871" unicode="Ố"/>
			<glyph d="M312 512Q389 512 448 478T541 386T575 251Q575 175 541 116T448 23T312 -10Q235 -10 175 23T82 116T49 251Q49 327 82 386T175 478T312 512ZM312 445Q256 445 212 420T145 352T121 252Q121 194 145 150T213 81T312 57Q368 57 412 81T480 150T504 251Q504 308 479 352T411 420T312 445ZM486 780H554L479 680H422ZM275 725H343L451 573H392L309 680L226 573H167Z" horiz-adv-x="624" unicode="ố"/>
			<glyph d="M436 720Q540 720 624 673T757 542T805 356Q805 252 757 168T624 37T435 -10Q331 -10 246 37T114 167T66 355Q66 459 114 542T246 673T436 720ZM436 649Q352 649 285 611T180 505T142 355Q142 272 180 205T285 100T436 62Q519 62 586 100T691 205T729 355Q729 438 691 505T586 611T436 649ZM196 964H264L329 864H272ZM401 904H469L577 774H518L435 858L352 774H293Z" horiz-adv-x="871" unicode="Ồ"/>
			<glyph d="M312 512Q389 512 448 478T541 386T575 251Q575 175 541 116T448 23T312 -10Q235 -10 175 23T82 116T49 251Q49 327 82 386T175 478T312 512ZM312 445Q256 445 212 420T145 352T121 252Q121 194 145 150T213 81T312 57Q368 57 412 81T480 150T504 251Q504 308 479 352T411 420T312 445ZM67 780H135L200 680H143ZM278 725H346L454 573H395L312 680L229 573H170Z" horiz-adv-x="624" unicode="ồ"/>
			<glyph d="M436 720Q540 720 624 673T757 542T805 356Q805 252 757 168T624 37T435 -10Q331 -10 246 37T114 167T66 355Q66 459 114 542T246 673T436 720ZM436 649Q352 649 285 611T180 505T142 355Q142 272 180 205T285 100T436 62Q519 62 586 100T691 205T729 355Q729 438 691 505T586 611T436 649ZM596 1026Q632 1026 657 1007T683 956Q683 930 668 913T626 882Q613 875 610 870T607 851H553Q553 877 560 888T589 909Q612 922 621 930T631 951Q631 980 588 980Q557 980 533 968L522 1010Q556 1026 596 1026ZM401 904H469L577 774H518L435 858L352 774H293Z" horiz-adv-x="871" unicode="Ổ"/>
			<glyph d="M312 512Q389 512 448 478T541 386T575 251Q575 175 541 116T448 23T312 -10Q235 -10 175 23T82 116T49 251Q49 327 82 386T175 478T312 512ZM312 445Q256 445 212 420T145 352T121 252Q121 194 145 150T213 81T312 57Q368 57 412 81T480 150T504 251Q504 308 479 352T411 420T312 445ZM482 836Q518 836 543 817T569 766Q569 740 554 723T512 692Q499 685 496 680T493 661H439Q439 687 446 698T475 719Q498 732 507 740T517 761Q517 790 474 790Q443 790 419 778L408 820Q442 836 482 836ZM278 725H346L454 573H395L312 680L229 573H170Z" horiz-adv-x="624" unicode="ổ"/>
			<glyph d="M436 720Q540 720 624 673T757 542T805 356Q805 252 757 168T624 37T435 -10Q331 -10 246 37T114 167T66 355Q66 459 114 542T246 673T436 720ZM436 649Q352 649 285 611T180 505T142 355Q142 272 180 205T285 100T436 62Q519 62 586 100T691 205T729 355Q729 438 691 505T586 611T436 649ZM365 1033Q392 1033 443 1012Q482 995 496 995Q524 995 530 1033H575Q569 989 549 967T502 945Q487 945 470 950T427 967Q387 984 370 984Q358 984 350 975T338 945H292Q297 990 317 1011T365 1033ZM397 904H473L593 774H527L435 858L343 774H277Z" horiz-adv-x="871" unicode="Ỗ"/>
			<glyph d="M312 512Q389 512 448 478T541 386T575 251Q575 175 541 116T448 23T312 -10Q235 -10 175 23T82 116T49 251Q49 327 82 386T175 478T312 512ZM312 445Q256 445 212 420T145 352T121 252Q121 194 145 150T213 81T312 57Q368 57 412 81T480 150T504 251Q504 308 479 352T411 420T312 445ZM242 856Q269 856 320 835Q359 818 373 818Q401 818 407 856H452Q446 812 426 790T379 768Q364 768 347 773T304 790Q264 807 247 807Q235 807 227 798T215 768H169Q174 813 194 834T242 856ZM274 725H350L470 573H404L312 680L220 573H154Z" horiz-adv-x="624" unicode="ỗ"/>
			<glyph d="M436 720Q540 720 624 673T757 542T805 356Q805 252 757 168T624 37T435 -10Q331 -10 246 37T114 167T66 355Q66 459 114 542T246 673T436 720ZM436 649Q352 649 285 611T180 505T142 355Q142 272 180 205T285 100T436 62Q519 62 586 100T691 205T729 355Q729 438 691 505T586 611T436 649ZM397 904H473L593 774H527L435 858L343 774H277ZM436 -89Q458 -89 473 -104T489 -142Q489 -165 473 -180T436 -195Q413 -195 398 -180T383 -142Q383 -120 398 -104T436 -89Z" horiz-adv-x="871" unicode="Ộ"/>
			<glyph d="M312 512Q389 512 448 478T541 386T575 251Q575 175 541 116T448 23T312 -10Q235 -10 175 23T82 116T49 251Q49 327 82 386T175 478T312 512ZM312 445Q256 445 212 420T145 352T121 252Q121 194 145 150T213 81T312 57Q368 57 412 81T480 150T504 251Q504 308 479 352T411 420T312 445ZM274 725H350L470 573H404L312 680L220 573H154ZM319 -89Q341 -89 356 -104T372 -142Q372 -165 356 -180T319 -195Q296 -195 281 -180T266 -142Q266 -120 281 -104T319 -89Z" horiz-adv-x="624" unicode="ộ"/>
			<glyph d="M803 855Q823 817 823 769Q823 715 789 677T689 625Q745 576 775 506T805 356Q805 252 757 168T624 37T435 -10Q331 -10 246 37T114 168T66 356Q66 460 114 543T247 673T440 720Q506 720 568 698Q624 678 655 678Q698 678 728 704T759 772Q759 789 754 807T742 839ZM436 649Q352 649 285 611T180 505T142 355Q142 272 180 205T285 100T436 62Q519 62 586 100T691 205T729 355Q729 438 691 505T586 611T436 649ZM492 917H571L443 774H377Z" horiz-adv-x="871" unicode="Ớ"/>
			<glyph d="M581 639Q601 602 601 558Q601 506 574 474T506 434Q539 400 557 353T575 251Q575 175 541 116T448 23T312 -10Q235 -10 175 23T82 116T49 251Q49 327 82 386T176 478T313 512Q338 512 359 508T410 495Q443 486 462 486Q499 486 518 502T537 558Q537 597 520 622ZM311 445Q255 445 212 420T145 352T121 252Q121 194 145 150T213 81T313 57Q369 57 412 81T480 150T504 251Q504 308 479 352T411 420T311 445ZM368 725H442L323 573H257Z" horiz-adv-x="624" unicode="ớ"/>
			<glyph d="M803 855Q823 817 823 769Q823 715 789 677T689 625Q745 576 775 506T805 356Q805 252 757 168T624 37T435 -10Q331 -10 246 37T114 168T66 356Q66 460 114 543T247 673T440 720Q506 720 568 698Q624 678 655 678Q698 678 728 704T759 772Q759 789 754 807T742 839ZM436 649Q352 649 285 611T180 505T142 355Q142 272 180 205T285 100T436 62Q519 62 586 100T691 205T729 355Q729 438 691 505T586 611T436 649ZM295 917H375L489 774H423Z" horiz-adv-x="871" unicode="Ờ"/>
			<glyph d="M581 639Q601 602 601 558Q601 506 574 474T506 434Q539 400 557 353T575 251Q575 175 541 116T448 23T312 -10Q235 -10 175 23T82 116T49 251Q49 327 82 386T176 478T313 512Q338 512 359 508T410 495Q443 486 462 486Q499 486 518 502T537 558Q537 597 520 622ZM311 445Q255 445 212 420T145 352T121 252Q121 194 145 150T213 81T313 57Q369 57 412 81T480 150T504 251Q504 308 479 352T411 420T311 445ZM192 725H266L378 573H312Z" horiz-adv-x="624" unicode="ờ"/>
			<glyph d="M803 855Q823 817 823 769Q823 715 789 677T689 625Q745 576 775 506T805 356Q805 252 757 168T624 37T435 -10Q331 -10 246 37T114 168T66 356Q66 460 114 543T247 673T440 720Q506 720 568 698Q624 678 655 678Q698 678 728 704T759 772Q759 789 754 807T742 839ZM436 649Q352 649 285 611T180 505T142 355Q142 272 180 205T285 100T436 62Q519 62 586 100T691 205T729 355Q729 438 691 505T586 611T436 649ZM450 966Q490 966 518 945T547 888Q547 859 530 841T484 806Q470 799 466 793T462 771H403Q403 800 411 812T442 836Q468 849 478 858T489 883Q489 915 441 915Q408 915 380 901L368 948Q385 956 407 961T450 966Z" horiz-adv-x="871" unicode="Ở"/>
			<glyph d="M581 639Q601 602 601 558Q601 506 574 474T506 434Q539 400 557 353T575 251Q575 175 541 116T448 23T312 -10Q235 -10 175 23T82 116T49 251Q49 327 82 386T176 478T313 512Q338 512 359 508T410 495Q443 486 462 486Q499 486 518 502T537 558Q537 597 520 622ZM311 445Q255 445 212 420T145 352T121 252Q121 194 145 150T213 81T313 57Q369 57 412 81T480 150T504 251Q504 308 479 352T411 420T311 445ZM327 758Q367 758 395 737T424 680Q424 651 407 633T361 598Q347 591 343 585T339 563H280Q280 592 288 604T319 628Q345 641 355 650T366 675Q366 707 318 707Q285 707 257 693L245 740Q262 748 284 753T327 758Z" horiz-adv-x="624" unicode="ở"/>
			<glyph d="M803 855Q823 817 823 769Q823 715 789 677T689 625Q745 576 775 506T805 356Q805 252 757 168T624 37T435 -10Q331 -10 246 37T114 168T66 356Q66 460 114 543T247 673T440 720Q506 720 568 698Q624 678 655 678Q698 678 728 704T759 772Q759 789 754 807T742 839ZM436 649Q352 649 285 611T180 505T142 355Q142 272 180 205T285 100T436 62Q519 62 586 100T691 205T729 355Q729 438 691 505T586 611T436 649ZM355 872Q383 872 444 848Q462 841 479 835T507 829Q522 829 529 839T540 872H591Q585 825 565 799T512 774Q495 774 475 780T426 798Q378 817 362 817Q347 817 340 807T327 774H276Q282 824 302 848T355 872Z" horiz-adv-x="871" unicode="Ỡ"/>
			<glyph d="M581 639Q601 602 601 558Q601 506 574 474T506 434Q539 400 557 353T575 251Q575 175 541 116T448 23T312 -10Q235 -10 175 23T82 116T49 251Q49 327 82 386T176 478T313 512Q338 512 359 508T410 495Q443 486 462 486Q499 486 518 502T537 558Q537 597 520 622ZM311 445Q255 445 212 420T145 352T121 252Q121 194 145 150T213 81T313 57Q369 57 412 81T480 150T504 251Q504 308 479 352T411 420T311 445ZM234 695Q262 695 321 671Q340 663 355 657T380 652Q411 652 417 695H468Q462 646 439 621T386 597Q370 597 350 603T303 621Q258 640 240 640Q227 640 218 631T204 597H153Q159 647 181 671T234 695Z" horiz-adv-x="624" unicode="ỡ"/>
			<glyph d="M803 855Q823 817 823 769Q823 715 789 677T689 625Q745 576 775 506T805 356Q805 252 757 168T624 37T435 -10Q331 -10 246 37T114 168T66 356Q66 460 114 543T247 673T440 720Q506 720 568 698Q624 678 655 678Q698 678 728 704T759 772Q759 789 754 807T742 839ZM436 649Q352 649 285 611T180 505T142 355Q142 272 180 205T285 100T436 62Q519 62 586 100T691 205T729 355Q729 438 691 505T586 611T436 649ZM436 -89Q458 -89 473 -104T489 -142Q489 -165 473 -180T436 -195Q413 -195 398 -180T383 -142Q383 -120 398 -104T436 -89Z" horiz-adv-x="871" unicode="Ợ"/>
			<glyph d="M581 639Q601 602 601 558Q601 506 574 474T506 434Q539 400 557 353T575 251Q575 175 541 116T448 23T312 -10Q235 -10 175 23T82 116T49 251Q49 327 82 386T176 478T313 512Q338 512 359 508T410 495Q443 486 462 486Q499 486 518 502T537 558Q537 597 520 622ZM311 445Q255 445 212 420T145 352T121 252Q121 194 145 150T213 81T313 57Q369 57 412 81T480 150T504 251Q504 308 479 352T411 420T311 445ZM319 -89Q341 -89 356 -104T372 -142Q372 -165 356 -180T319 -195Q296 -195 281 -180T266 -142Q266 -120 281 -104T319 -89Z" horiz-adv-x="624" unicode="ợ"/>
			<glyph d="M98 710H173V273Q173 169 227 115T371 62Q461 62 515 115T569 273V710H644V260Q644 179 611 118T517 23T371 -10Q286 -10 224 23T130 118T98 260ZM371 -89Q393 -89 408 -104T424 -142Q424 -165 408 -180T371 -195Q348 -195 333 -180T318 -142Q318 -120 333 -104T371 -89Z" horiz-adv-x="741" unicode="Ụ"/>
			<glyph d="M86 502H156V213Q156 134 190 93T290 53Q336 53 373 74T431 132T452 216V502H522V0H452V95Q428 45 380 17T267 -10Q182 -10 134 41T86 194ZM307 -89Q329 -89 344 -104T360 -142Q360 -165 344 -180T307 -195Q284 -195 269 -180T254 -142Q254 -120 269 -104T307 -89Z" unicode="ụ"/>
			<glyph d="M98 710H173V273Q173 169 227 115T371 62Q461 62 515 115T569 273V710H644V260Q644 179 611 118T517 23T371 -10Q286 -10 224 23T130 118T98 260ZM387 966Q427 966 455 945T484 888Q484 859 467 841T421 806Q407 799 403 793T399 771H340Q340 800 348 812T379 836Q405 849 415 858T426 883Q426 915 378 915Q345 915 317 901L305 948Q322 956 344 961T387 966Z" horiz-adv-x="741" unicode="Ủ"/>
			<glyph d="M86 502H156V213Q156 134 190 93T290 53Q336 53 373 74T431 132T452 216V502H522V0H452V95Q428 45 380 17T267 -10Q182 -10 134 41T86 194ZM325 758Q365 758 393 737T422 680Q422 651 405 633T359 598Q345 591 341 585T337 563H278Q278 592 286 604T317 628Q343 641 353 650T364 675Q364 707 316 707Q283 707 255 693L243 740Q260 748 282 753T325 758Z" unicode="ủ"/>
			<glyph d="M723 855Q743 820 743 775Q743 732 718 702T644 660V260Q644 179 611 118T517 23T371 -10Q286 -10 224 23T130 118T98 260V710H173V273Q173 169 227 115T371 62Q461 62 515 115T569 273V710H580Q630 710 654 725T679 776Q679 812 662 839ZM429 917H508L380 774H314Z" horiz-adv-x="741" unicode="Ứ"/>
			<glyph d="M601 647Q621 612 621 567Q621 524 596 494T522 452V0H452V95Q428 45 380 17T267 -10Q182 -10 134 41T86 194V502H156V213Q156 134 190 93T290 53Q336 53 373 74T431 132T452 216V502H458Q508 502 532 517T557 568Q557 604 540 631ZM366 725H440L321 573H255Z" unicode="ứ"/>
			<glyph d="M723 855Q743 820 743 775Q743 732 718 702T644 660V260Q644 179 611 118T517 23T371 -10Q286 -10 224 23T130 118T98 260V710H173V273Q173 169 227 115T371 62Q461 62 515 115T569 273V710H580Q630 710 654 725T679 776Q679 812 662 839ZM232 917H312L426 774H360Z" horiz-adv-x="741" unicode="Ừ"/>
			<glyph d="M601 647Q621 612 621 567Q621 524 596 494T522 452V0H452V95Q428 45 380 17T267 -10Q182 -10 134 41T86 194V502H156V213Q156 134 190 93T290 53Q336 53 373 74T431 132T452 216V502H458Q508 502 532 517T557 568Q557 604 540 631ZM190 725H264L376 573H310Z" unicode="ừ"/>
			<glyph d="M723 855Q743 820 743 775Q743 732 718 702T644 660V260Q644 179 611 118T517 23T371 -10Q286 -10 224 23T130 118T98 260V710H173V273Q173 169 227 115T371 62Q461 62 515 115T569 273V710H580Q630 710 654 725T679 776Q679 812 662 839ZM387 966Q427 966 455 945T484 888Q484 859 467 841T421 806Q407 799 403 793T399 771H340Q340 800 348 812T379 836Q405 849 415 858T426 883Q426 915 378 915Q345 915 317 901L305 948Q322 956 344 961T387 966Z" horiz-adv-x="741" unicode="Ử"/>
			<glyph d="M601 647Q621 612 621 567Q621 524 596 494T522 452V0H452V95Q428 45 380 17T267 -10Q182 -10 134 41T86 194V502H156V213Q156 134 190 93T290 53Q336 53 373 74T431 132T452 216V502H458Q508 502 532 517T557 568Q557 604 540 631ZM325 758Q365 758 393 737T422 680Q422 651 405 633T359 598Q345 591 341 585T337 563H278Q278 592 286 604T317 628Q343 641 353 650T364 675Q364 707 316 707Q283 707 255 693L243 740Q260 748 282 753T325 758Z" unicode="ử"/>
			<glyph d="M723 855Q743 820 743 775Q743 732 718 702T644 660V260Q644 179 611 118T517 23T371 -10Q286 -10 224 23T130 118T98 260V710H173V273Q173 169 227 115T371 62Q461 62 515 115T569 273V710H580Q630 710 654 725T679 776Q679 812 662 839ZM292 872Q320 872 381 848Q399 841 416 835T444 829Q459 829 466 839T477 872H528Q522 825 502 799T449 774Q432 774 412 780T363 798Q315 817 299 817Q284 817 277 807T264 774H213Q219 824 239 848T292 872Z" horiz-adv-x="741" unicode="Ữ"/>
			<glyph d="M601 647Q621 612 621 567Q621 524 596 494T522 452V0H452V95Q428 45 380 17T267 -10Q182 -10 134 41T86 194V502H156V213Q156 134 190 93T290 53Q336 53 373 74T431 132T452 216V502H458Q508 502 532 517T557 568Q557 604 540 631ZM232 695Q260 695 319 671Q338 663 353 657T378 652Q409 652 415 695H466Q460 646 437 621T384 597Q368 597 348 603T301 621Q256 640 238 640Q225 640 216 631T202 597H151Q157 647 179 671T232 695Z" unicode="ữ"/>
			<glyph d="M723 855Q743 820 743 775Q743 732 718 702T644 660V260Q644 179 611 118T517 23T371 -10Q286 -10 224 23T130 118T98 260V710H173V273Q173 169 227 115T371 62Q461 62 515 115T569 273V710H580Q630 710 654 725T679 776Q679 812 662 839ZM371 -89Q393 -89 408 -104T424 -142Q424 -165 408 -180T371 -195Q348 -195 333 -180T318 -142Q318 -120 333 -104T371 -89Z" horiz-adv-x="741" unicode="Ự"/>
			<glyph d="M601 647Q621 612 621 567Q621 524 596 494T522 452V0H452V95Q428 45 380 17T267 -10Q182 -10 134 41T86 194V502H156V213Q156 134 190 93T290 53Q336 53 373 74T431 132T452 216V502H458Q508 502 532 517T557 568Q557 604 540 631ZM307 -89Q329 -89 344 -104T360 -142Q360 -165 344 -180T307 -195Q284 -195 269 -180T254 -142Q254 -120 269 -104T307 -89Z" unicode="ự"/>
			<glyph d="M2 710H86L295 358L503 710H582L329 284V0H255V284ZM150 917H230L344 774H278Z" horiz-adv-x="584" unicode="Ỳ"/>
			<glyph d="M4 502H81L256 108L410 502H485L250 -72Q220 -146 177 -180T72 -215Q39 -215 14 -207L24 -143Q42 -148 62 -148Q105 -148 134 -127T187 -49L219 25ZM126 725H200L312 573H246Z" horiz-adv-x="489" unicode="ỳ"/>
			<glyph d="M2 710H86L295 358L503 710H582L329 284V0H255V284ZM292 -89Q314 -89 329 -104T345 -142Q345 -165 329 -180T292 -195Q269 -195 254 -180T239 -142Q239 -120 254 -104T292 -89Z" horiz-adv-x="584" unicode="Ỵ"/>
			<glyph d="M4 502H81L256 108L410 502H485L250 -72Q220 -146 177 -180T72 -215Q39 -215 14 -207L24 -143Q42 -148 62 -148Q105 -148 134 -127T187 -49L219 25ZM375 -97Q397 -97 412 -112T428 -150Q428 -173 412 -188T375 -203Q352 -203 337 -188T322 -150Q322 -128 337 -112T375 -97Z" horiz-adv-x="489" unicode="ỵ"/>
			<glyph d="M2 710H86L295 358L503 710H582L329 284V0H255V284ZM305 966Q345 966 373 945T402 888Q402 859 385 841T339 806Q325 799 321 793T317 771H258Q258 800 266 812T297 836Q323 849 333 858T344 883Q344 915 296 915Q263 915 235 901L223 948Q240 956 262 961T305 966Z" horiz-adv-x="584" unicode="Ỷ"/>
			<glyph d="M4 502H81L256 108L410 502H485L250 -72Q220 -146 177 -180T72 -215Q39 -215 14 -207L24 -143Q42 -148 62 -148Q105 -148 134 -127T187 -49L219 25ZM261 758Q301 758 329 737T358 680Q358 651 341 633T295 598Q281 591 277 585T273 563H214Q214 592 222 604T253 628Q279 641 289 650T300 675Q300 707 252 707Q219 707 191 693L179 740Q196 748 218 753T261 758Z" horiz-adv-x="489" unicode="ỷ"/>
			<glyph d="M2 710H86L295 358L503 710H582L329 284V0H255V284ZM210 872Q238 872 299 848Q317 841 334 835T362 829Q377 829 384 839T395 872H446Q440 825 420 799T367 774Q350 774 330 780T281 798Q233 817 217 817Q202 817 195 807T182 774H131Q137 824 157 848T210 872Z" horiz-adv-x="584" unicode="Ỹ"/>
			<glyph d="M4 502H81L256 108L410 502H485L250 -72Q220 -146 177 -180T72 -215Q39 -215 14 -207L24 -143Q42 -148 62 -148Q105 -148 134 -127T187 -49L219 25ZM168 695Q196 695 255 671Q274 663 289 657T314 652Q345 652 351 695H402Q396 646 373 621T320 597Q304 597 284 603T237 621Q192 640 174 640Q161 640 152 631T138 597H87Q93 647 115 671T168 695Z" horiz-adv-x="489" unicode="ỹ"/>
			<glyph d="M50 302H395V241H50Z" horiz-adv-x="445" unicode="‐"/>
			<glyph d="M50 302H510V241H50Z" horiz-adv-x="560" unicode="–"/>
			<glyph d="M50 302H1010V241H50Z" horiz-adv-x="1060" unicode="—"/>
			<glyph d="M50 302H1010V241H50Z" horiz-adv-x="1060" unicode="―"/>
			<glyph d="M-5 -187H455V-232H-5ZM-5 -92H455V-137H-5Z" horiz-adv-x="450" unicode="‗"/>
			<glyph d="M123 710H183L117 507H38Z" horiz-adv-x="221" unicode="‘"/>
			<glyph d="M105 710H183L100 507H38Z" horiz-adv-x="221" unicode="’"/>
			<glyph d="M105 101H183L100 -102H38Z" horiz-adv-x="221" unicode="‚"/>
			<glyph d="M38 710H116L183 507H121Z" horiz-adv-x="221" unicode="‛"/>
			<glyph d="M123 710H183L117 507H38ZM290 710H349L284 507H205Z" horiz-adv-x="388" unicode="“"/>
			<glyph d="M104 710H183L98 507H38ZM270 710H349L265 507H205Z" horiz-adv-x="388" unicode="”"/>
			<glyph d="M104 101H183L98 -102H38ZM270 101H349L265 -102H205Z" horiz-adv-x="388" unicode="„"/>
			<glyph d="M216 752H287L276 539L478 549V478L276 489L287 -114H216L227 489L25 478V549L227 538Z" horiz-adv-x="503" unicode="†"/>
			<glyph d="M216 752H287L276 539L478 549V478L275 489V230L478 240V169L276 179L287 -114H216L227 180L25 169V240L228 230V489L25 478V549L227 538Z" horiz-adv-x="503" unicode="‡"/>
			<glyph d="M195 428Q240 428 271 396T303 319Q303 274 271 242T195 211Q150 211 118 242T87 319Q87 365 118 396T195 428Z" horiz-adv-x="390" unicode="•"/>
			<glyph d="M439 94Q462 94 477 79T492 41Q492 19 476 4T439 -11Q417 -11 402 4T387 41Q387 63 402 78T439 94ZM726 94Q749 94 764 79T779 41Q779 19 763 4T726 -11Q704 -11 689 4T674 41Q674 63 689 78T726 94ZM145 94Q168 94 183 79T198 41Q198 19 182 4T145 -11Q123 -11 108 4T93 41Q93 63 108 78T145 94Z" horiz-adv-x="871" unicode="…"/>
			<glyph d="M176 716Q244 716 283 667T322 534Q322 448 283 399T176 351Q108 351 69 399T31 534Q31 620 69 668T176 716ZM537 710H599L179 0H118ZM176 664Q91 664 91 534Q91 403 176 403Q262 403 262 534Q262 664 176 664ZM541 359Q609 359 647 310T686 177Q686 91 647 42T541 -6Q472 -6 433 42T395 177Q395 263 433 311T541 359ZM873 359Q941 359 979 311T1018 177Q1018 91 979 42T873 -6Q805 -6 766 42T728 177Q728 263 766 311T873 359ZM541 307Q455 307 455 177Q455 46 541 46Q626 46 626 177Q626 307 541 307ZM873 307Q788 307 788 177Q788 46 873 46Q958 46 958 177Q958 307 873 307Z" horiz-adv-x="1049" unicode="‰"/>
			<glyph d="M195 460H277L107 260L277 60H195L30 260Z" horiz-adv-x="307" unicode="‹"/>
			<glyph d="M30 460H112L277 260L112 60H30L200 260Z" horiz-adv-x="307" unicode="›"/>
			<glyph d="M362 710H447L434 218H375ZM406 94Q429 94 444 79T459 41Q459 19 443 4T406 -11Q384 -11 369 4T354 41Q354 63 369 78T406 94ZM112 710H197L184 218H125ZM156 94Q179 94 194 79T209 41Q209 19 193 4T156 -11Q134 -11 119 4T104 41Q104 63 119 78T156 94Z" horiz-adv-x="563" unicode="‼"/>
			<glyph d="M250 718Q312 718 357 695T427 631T451 540Q451 481 427 437T357 348Q310 298 295 273T280 221H215L209 654Q163 645 136 616T98 546L45 574Q60 639 114 678T250 718ZM279 655L271 345Q299 379 304 384Q346 429 364 461T383 537Q383 584 356 615T279 655ZM250 94Q272 94 287 78T303 41Q303 19 287 4T250 -11Q228 -11 212 4T197 41Q197 63 212 78T250 94Z" horiz-adv-x="497" unicode="‽"/>
			<glyph d="M-5 828H455V783H-5Z" horiz-adv-x="450" unicode="‾"/>
			<glyph d="M331 710H397L-160 0H-226Z" horiz-adv-x="171" unicode="⁄"/>
			<glyph d="M207 869Q291 869 326 810T361 647Q361 543 325 485T207 427Q123 427 88 484T53 647Q53 752 88 810T207 869ZM207 816Q151 816 132 772T113 647Q113 566 132 523T207 480Q263 480 282 523T301 648Q301 729 282 772T207 816Z" horiz-adv-x="414" unicode="⁰"/>
			<glyph d="M248 864H297V575H361V526H297V435H237V526H31V565ZM237 771L95 575H237Z" horiz-adv-x="404" unicode="⁴"/>
			<glyph d="M109 861H339V807H154L140 685Q170 699 207 699Q273 699 314 662T355 566Q355 504 311 466T193 429Q148 429 111 444T52 484L82 532Q128 481 194 481Q240 481 268 504T296 566Q296 604 269 626T196 648Q154 648 118 626L83 638Z" horiz-adv-x="420" unicode="⁵"/>
			<glyph d="M323 869L336 818Q228 817 173 776T107 661Q126 682 155 695T221 708Q284 708 323 670T363 571Q363 531 343 498T289 446T210 427Q140 427 93 475T47 615Q47 727 114 798T323 869ZM212 660Q175 660 145 642T103 598Q106 538 135 507T210 477Q253 477 279 503T306 569Q306 611 280 635T212 660Z" horiz-adv-x="410" unicode="⁶"/>
			<glyph d="M51 861H356V825L168 435H104L291 807H51Z" horiz-adv-x="413" unicode="⁷"/>
			<glyph d="M207 872Q266 872 303 841T341 762Q341 730 323 705T271 667Q317 652 340 625T363 556Q363 497 321 461T207 425Q134 425 92 460T50 554Q50 637 142 667Q107 681 89 705T71 761Q71 809 109 840T207 872ZM208 824Q172 824 150 806T128 759Q128 729 150 710T208 691Q243 691 264 710T285 759Q285 788 264 806T208 824ZM206 639Q164 639 137 617T110 556Q110 520 135 497T207 474Q253 474 279 496T305 555Q305 593 277 616T206 639Z" horiz-adv-x="413" unicode="⁸"/>
			<glyph d="M201 871Q270 871 316 822T363 683Q363 569 297 498T96 427L84 478Q281 479 305 638Q285 616 255 602T189 588Q126 588 86 627T46 727Q46 767 66 800T121 852T201 871ZM203 821Q160 821 132 794T104 728Q104 688 130 662T198 637Q234 637 263 654T308 699Q304 758 274 789T203 821Z" horiz-adv-x="410" unicode="⁹"/>
			<glyph d="M170 784H223V663H344V610H223V489H170V610H48V663H170Z" horiz-adv-x="392" unicode="⁺"/>
			<glyph d="M48 663H344V610H48Z" horiz-adv-x="392" unicode="⁻"/>
			<glyph d="M48 729H344V676H48ZM48 598H344V545H48Z" horiz-adv-x="392" unicode="⁼"/>
			<glyph d="M218 927V876Q161 876 135 822T110 649Q110 530 135 476T218 423V372Q129 372 92 446T55 649Q55 790 95 858T218 927Z" horiz-adv-x="248" unicode="⁽"/>
			<glyph d="M30 927Q119 927 156 852T193 650Q193 509 152 440T30 372V423Q87 423 112 477T138 650Q138 769 112 822T30 876Z" horiz-adv-x="248" unicode="⁾"/>
			<glyph d="M213 726Q267 726 296 693T325 600V415H274V589Q274 633 254 655T197 678Q157 678 134 651T112 577V415H60V720H112V674Q144 726 213 726Z" horiz-adv-x="385" unicode="ⁿ"/>
			<glyph d="M207 289Q291 289 326 230T361 67Q361 -37 325 -95T207 -153Q123 -153 88 -95T53 67Q53 172 88 230T207 289ZM207 236Q151 236 132 192T113 67Q113 -14 132 -57T207 -100Q263 -100 282 -57T301 68Q301 149 282 192T207 236Z" horiz-adv-x="414" unicode="₀"/>
			<glyph d="M190 285H214V-145H155V206L54 144V202Z" horiz-adv-x="355" unicode="₁"/>
			<glyph d="M209 290Q271 290 308 257T345 172Q345 134 322 98T253 17L147 -91H360V-145H61V-109L212 47Q251 87 268 114T286 168Q286 199 265 217T206 236Q172 236 144 223T90 184L64 229Q90 258 127 274T209 290Z" horiz-adv-x="422" unicode="₂"/>
			<glyph d="M203 290Q263 290 299 261T335 185Q335 148 312 122T248 85Q303 72 329 43T355 -27Q355 -83 311 -119T195 -155Q150 -155 111 -139T50 -96L80 -48Q128 -101 196 -101Q242 -101 269 -79T296 -23Q296 16 261 36T165 56V104Q220 104 248 126T277 178Q277 204 256 220T200 236Q143 236 90 187L63 234Q123 290 203 290Z" horiz-adv-x="416" unicode="₃"/>
			<glyph d="M248 284H297V-5H361V-54H297V-145H237V-54H31V-15ZM237 191L95 -5H237Z" horiz-adv-x="404" unicode="₄"/>
			<glyph d="M109 281H339V227H154L140 105Q170 119 207 119Q273 119 314 82T355 -14Q355 -76 311 -113T193 -151Q148 -151 111 -136T52 -96L82 -48Q128 -99 194 -99Q240 -99 268 -75T296 -14Q296 24 269 46T196 68Q154 68 118 46L83 58Z" horiz-adv-x="420" unicode="₅"/>
			<glyph d="M323 289L336 238Q228 237 173 196T107 81Q126 102 155 115T221 128Q284 128 323 90T363 -9Q363 -49 343 -82T289 -134T210 -153Q140 -153 93 -104T47 35Q47 147 114 218T323 289ZM212 80Q175 80 145 62T103 18Q106 -42 135 -72T210 -103Q253 -103 279 -77T306 -11Q306 31 280 55T212 80Z" horiz-adv-x="410" unicode="₆"/>
			<glyph d="M51 281H356V245L168 -145H104L291 227H51Z" horiz-adv-x="413" unicode="₇"/>
			<glyph d="M207 292Q266 292 303 261T341 182Q341 150 323 125T271 87Q317 72 340 45T363 -24Q363 -83 321 -119T207 -155Q134 -155 92 -119T50 -26Q50 57 142 87Q107 101 89 125T71 181Q71 229 109 260T207 292ZM208 244Q172 244 150 226T128 179Q128 149 150 130T208 111Q243 111 264 130T285 179Q285 208 264 226T208 244ZM206 59Q164 59 137 37T110 -24Q110 -60 135 -83T207 -106Q253 -106 279 -83T305 -25Q305 13 277 36T206 59Z" horiz-adv-x="413" unicode="₈"/>
			<glyph d="M201 291Q270 291 316 242T363 103Q363 -11 297 -82T96 -153L84 -102Q281 -101 305 58Q285 36 255 22T189 8Q126 8 86 47T46 147Q46 187 66 220T121 272T201 291ZM203 241Q160 241 132 214T104 148Q104 108 130 82T198 57Q234 57 263 74T308 119Q304 178 274 209T203 241Z" horiz-adv-x="410" unicode="₉"/>
			<glyph d="M170 202H223V81H344V28H223V-93H170V28H48V81H170Z" horiz-adv-x="392" unicode="₊"/>
			<glyph d="M48 81H344V28H48Z" horiz-adv-x="392" unicode="₋"/>
			<glyph d="M48 147H344V94H48ZM48 16H344V-37H48Z" horiz-adv-x="392" unicode="₌"/>
			<glyph d="M218 345V294Q161 294 135 240T110 67Q110 -52 135 -105T218 -159V-210Q129 -210 92 -135T55 67Q55 208 95 276T218 345Z" horiz-adv-x="248" unicode="₍"/>
			<glyph d="M30 345Q119 345 156 270T193 68Q193 -73 152 -141T30 -210V-159Q87 -159 112 -105T138 68Q138 187 112 240T30 294Z" horiz-adv-x="248" unicode="₎"/>
			<glyph d="M125 710H483V642H200V392H469V323H200V210H363V148H200V0H125V148H13V210H125Z" horiz-adv-x="534" unicode="₣"/>
			<glyph d="M343 725Q397 725 438 706T517 654L488 587Q426 656 344 656Q282 656 248 615T215 490V457H405V399H215V297H405V239H215V182Q215 102 159 67H529V0H49V67Q93 75 116 103T139 179V239H49V297H139V399H49V457H139V484Q139 603 193 664T343 725Z" horiz-adv-x="549" unicode="₤"/>
			<glyph d="M103 710H226Q357 710 426 654T504 489H572V430H504Q495 326 423 264T226 202H178V0H103V430H19V489H103ZM178 645V489H428Q420 575 367 610T222 645ZM178 430V266H222Q310 266 364 307T427 430Z" horiz-adv-x="585" unicode="₧"/>
			<glyph d="M442 746H498V666H556V621H498V139H442V222Q416 176 375 154T285 133Q228 133 183 159T114 233T89 341Q89 402 114 449T184 524T285 551Q336 551 377 528T442 461V621H304V666H442ZM294 499Q229 499 187 455T146 341Q146 271 186 227T292 184Q336 184 371 205T427 262T447 342Q447 386 427 422T372 478T294 499ZM94 57H524V-2H94Z" horiz-adv-x="647" unicode="₫"/>
			<glyph d="M368 722Q462 722 536 665L517 596Q488 623 449 638T369 653Q292 653 244 600T183 449H428V396H178Q177 383 177 357Q177 335 178 324H428V271H182Q196 168 245 112T375 57Q426 57 462 76T531 127L555 63Q519 29 475 8T370 -12Q259 -12 190 62T105 271H31V324H101Q100 335 100 357Q100 383 101 396H31V449H106Q123 579 191 650T368 722Z" horiz-adv-x="582" unicode="€"/>
			<glyph d="M85 710H549V651H411Q458 606 467 533H549V474H466Q456 406 407 358T282 300L550 0H456L193 297H85V356H232Q292 356 337 385T392 474H86V533H392Q383 593 339 621T235 650H85Z" horiz-adv-x="586" unicode="₹"/>
			<glyph d="M114 710H189V455L390 526V473L189 401V330L390 401V348L189 276V69H313Q461 69 461 224V267H531V220Q531 109 472 54T313 0H114V250L42 224V278L114 303V375L42 349V403L114 428Z" horiz-adv-x="551" unicode="₺"/>
			<glyph d="M320 710H382V604Q496 596 559 523T623 336V0H551V322Q551 419 505 472T382 535V127H320V534Q244 524 200 470T156 322V0H84V336Q84 450 146 521T320 603Z" horiz-adv-x="708" unicode="₼"/>
			<glyph d="M124 710H312Q427 710 489 653T551 495Q551 434 523 382T441 300T312 270H197V201H374V138H197V0H124V138H38V201H124V270H38V336H124ZM197 644V336H308Q380 336 428 378T476 495Q476 574 430 609T308 644Z" horiz-adv-x="597" unicode="₽"/>
			<glyph d="M243 722Q313 722 373 682L356 633Q303 672 245 672Q181 672 142 631T104 524Q104 457 142 416T241 375Q274 375 306 386T365 416L379 369Q352 349 315 337T238 325Q183 325 140 349T73 419T49 522Q49 580 73 625T142 696T243 722ZM691 710H758L201 0H134ZM670 388Q728 388 773 362T844 291T870 189Q870 132 844 86T773 15T670 -10Q612 -10 566 15T494 86T469 189Q469 246 494 291T566 362T670 388ZM670 337Q605 337 564 296T524 190Q524 124 565 82T670 41Q735 41 775 82T816 189Q816 255 775 296T670 337Z" horiz-adv-x="920" unicode="℅"/>
			<glyph d="M335 721Q390 721 415 677T441 535Q441 406 397 306T271 161Q279 97 297 70T352 43Q377 43 397 48T427 63V-2Q389 -17 342 -17Q283 -17 252 19T210 135Q169 121 134 120V176Q174 179 205 193Q202 243 202 308Q202 475 216 564T259 687T335 721ZM331 662Q299 662 282 584T266 304Q266 249 267 227Q322 266 350 352T378 537Q378 607 366 634T331 662Z" horiz-adv-x="600" unicode="ℓ"/>
			<glyph d="M88 710H148L494 125V710H556V0H497L151 583V0H88ZM869 709Q934 709 984 681T1063 602T1092 488Q1092 424 1063 373T984 294T869 266Q804 266 753 294T674 373T646 488Q646 552 674 602T753 681T869 709ZM869 653Q797 653 752 607T707 488Q707 414 752 368T869 322Q941 322 986 368T1031 488Q1031 562 986 607T869 653ZM652 148H1080V89H652Z" horiz-adv-x="1160" unicode="№"/>
			<glyph d="M405 720Q504 720 588 671T721 538T770 355Q770 256 721 172T588 39T405 -10Q306 -10 222 39T89 172T40 355Q40 454 89 538T222 671T405 720ZM405 672Q319 672 246 629T130 514T88 355Q88 269 130 196T246 80T405 38Q491 38 564 80T679 196T722 355Q722 441 679 514T564 629T405 672ZM295 574H420Q490 574 529 537T569 437Q569 375 527 335T420 295H352V136H295ZM352 523V346H416Q458 346 484 371T511 437Q511 479 486 501T416 523Z" horiz-adv-x="810" unicode="℗"/>
			<glyph d="M25 710H312V659H196V326H141V659H25ZM369 710H424L571 490L717 710H772V326H717V620L585 421H556L424 620V326H369Z" horiz-adv-x="875" unicode="™"/>
			<glyph d="M426 720Q529 720 609 679T735 568T781 407Q781 296 720 221T559 119V67H784V0H493V158Q591 176 648 240T705 402Q705 472 669 528T570 616T426 648Q345 648 281 616T181 528T146 402Q146 305 204 240T359 158V0H68V67H292V119Q193 146 131 220T70 407Q70 497 115 568T242 679T426 720Z" horiz-adv-x="852" unicode="Ω"/>
			<glyph d="M420 621Q529 621 606 574T723 452T762 297V293H210L203 284V77Q286 3 404 3Q478 3 535 30T634 104H695Q640 42 571 6T398 -29Q308 -29 231 10T107 121T61 292Q61 385 110 460T241 578T420 621ZM420 588Q286 588 203 510V333L210 326H613L621 333V518Q578 559 528 573T420 588Z" horiz-adv-x="823" unicode="℮"/>
			<glyph d="M190 715H214V285H155V636L54 574V632ZM686 710H752L195 0H129ZM733 437Q792 437 829 406T867 327Q867 295 849 270T797 232Q843 217 866 190T889 121Q889 62 847 26T733 -10Q660 -10 618 25T576 119Q576 202 668 232Q633 246 615 270T597 326Q597 374 635 405T733 437ZM734 389Q698 389 676 371T654 324Q654 294 676 275T734 256Q769 256 790 275T811 324Q811 353 790 371T734 389ZM732 204Q690 204 663 182T636 121Q636 85 661 62T733 39Q779 39 805 61T831 120Q831 158 803 181T732 204Z" horiz-adv-x="939" unicode="⅛"/>
			<glyph d="M203 720Q263 720 299 691T335 615Q335 578 312 552T248 515Q303 502 329 473T355 403Q355 347 311 311T195 275Q150 275 111 290T50 334L80 382Q128 329 196 329Q242 329 269 350T296 407Q296 446 261 466T165 486V534Q220 534 248 556T277 608Q277 634 256 650T200 666Q143 666 90 617L63 664Q123 720 203 720ZM747 710H813L256 0H190ZM794 437Q853 437 890 406T928 327Q928 295 910 270T858 232Q904 217 927 190T950 121Q950 62 908 26T794 -10Q721 -10 679 25T637 119Q637 202 729 232Q694 246 676 270T658 326Q658 374 696 405T794 437ZM795 389Q759 389 737 371T715 324Q715 294 737 275T795 256Q830 256 851 275T872 324Q872 353 851 371T795 389ZM793 204Q751 204 724 182T697 121Q697 85 722 62T794 39Q840 39 866 61T892 120Q892 158 864 181T793 204Z" horiz-adv-x="1000" unicode="⅜"/>
			<glyph d="M109 711H339V657H154L140 535Q170 549 207 549Q273 549 314 512T355 416Q355 354 311 316T193 279Q148 279 111 294T52 334L82 382Q128 331 194 331Q240 331 268 354T296 416Q296 454 269 476T196 498Q154 498 118 476L83 488ZM751 710H817L260 0H194ZM798 437Q857 437 894 406T932 327Q932 295 914 270T862 232Q908 217 931 190T954 121Q954 62 912 26T798 -10Q725 -10 683 25T641 119Q641 202 733 232Q698 246 680 270T662 326Q662 374 700 405T798 437ZM799 389Q763 389 741 371T719 324Q719 294 741 275T799 256Q834 256 855 275T876 324Q876 353 855 371T799 389ZM797 204Q755 204 728 182T701 121Q701 85 726 62T798 39Q844 39 870 61T896 120Q896 158 868 181T797 204Z" horiz-adv-x="1004" unicode="⅝"/>
			<glyph d="M51 711H356V675L168 285H104L291 657H51ZM666 710H732L175 0H109ZM713 437Q772 437 809 406T847 327Q847 295 829 270T777 232Q823 217 846 190T869 121Q869 62 827 26T713 -10Q640 -10 598 25T556 119Q556 202 648 232Q613 246 595 270T577 326Q577 374 615 405T713 437ZM714 389Q678 389 656 371T634 324Q634 294 656 275T714 256Q749 256 770 275T791 324Q791 353 770 371T714 389ZM712 204Q670 204 643 182T616 121Q616 85 641 62T713 39Q759 39 785 61T811 120Q811 158 783 181T712 204Z" horiz-adv-x="919" unicode="⅞"/>
			<glyph d="M3 710H83L312 92L540 710H618L350 0H271ZM724 710H799V0H724ZM1006 710H1081V0H1006Z" horiz-adv-x="1185" unicode="Ⅶ"/>
			<glyph d="M193 746Q299 717 377 651T498 488T541 267Q541 177 511 111T426 11T300 -23Q230 -23 176 9T92 100T63 237Q63 318 92 378T174 471T299 504Q389 504 444 437H445Q413 532 338 599T161 692ZM306 449Q226 449 179 391T132 234Q132 145 178 91T301 38Q380 38 425 95T471 257Q471 344 425 396T306 449Z" horiz-adv-x="600" unicode="∂"/>
			<glyph d="M292 710H370L619 66V0H43V66ZM330 624L118 66H543Z" horiz-adv-x="662" unicode="∆"/>
			<glyph d="M103 710H645V-210H570V642H178V-210H103Z" horiz-adv-x="749" unicode="∏"/>
			<glyph d="M49 710H512V642H144L357 276V238L135 -142H552V-210H39V-161L283 258L49 662Z" horiz-adv-x="586" unicode="∑"/>
			<glyph d="M66 380H516V321H66Z" horiz-adv-x="582" unicode="−"/>
			<glyph d="M529 710H599L189 0H119Z" horiz-adv-x="718" unicode="∕"/>
			<glyph d="M250 350Q272 350 287 334T303 297Q303 275 287 260T250 245Q228 245 212 260T197 297Q197 319 212 334T250 350Z" horiz-adv-x="500" unicode="∙"/>
			<glyph d="M475 710H544L367 -60H278L164 278H49V343H215L284 127Q305 62 319 8L322 9Q326 25 328 39T333 66L347 137Z" horiz-adv-x="600" unicode="√"/>
			<glyph d="M204 473Q265 473 312 443T396 353Q426 411 474 442T583 473Q634 473 674 450T738 387T761 297Q761 247 738 207T675 145T585 123Q525 123 478 152T394 244Q329 123 205 123Q154 123 113 145T50 208T28 298Q28 348 50 388T113 450T204 473ZM208 415Q158 415 125 381T93 296Q93 245 126 212T213 180Q262 180 301 210T363 297Q335 355 296 385T208 415ZM576 415Q528 415 490 384T426 296Q482 180 582 180Q631 180 663 213T696 298Q696 350 663 382T576 415Z" horiz-adv-x="789" unicode="∞"/>
			<glyph d="M393 720Q428 720 451 709L445 650Q426 663 398 663Q367 663 350 638T333 570V-23Q333 -170 208 -170Q181 -170 149 -161L156 -104Q182 -112 203 -112Q270 -112 270 -20V577Q270 645 302 682T393 720Z" horiz-adv-x="600" unicode="∫"/>
			<glyph d="M191 487Q221 487 289 468Q296 467 310 463Q305 464 337 456Q382 444 405 444Q422 444 435 455T453 487H506Q500 440 473 413T413 386Q391 386 368 391T323 402T293 410Q227 429 199 429Q161 429 148 386H95Q101 437 128 462T191 487ZM191 267Q221 267 289 248Q296 247 310 243Q305 244 337 236Q382 224 405 224Q422 224 435 235T453 267H506Q500 220 473 193T413 166Q391 166 368 171T323 182T293 190Q227 209 199 209Q161 209 148 166H95Q101 217 128 242T191 267Z" horiz-adv-x="600" unicode="≈"/>
			<glyph d="M424 630H487L397 477H516V418H362L283 283H516V224H248L158 71H95L185 224H66V283H220L299 418H66V477H334Z" horiz-adv-x="582" unicode="≠"/>
			<glyph d="M516 560V501L106 392L516 284V225L66 350V434ZM66 195H516V141H66Z" horiz-adv-x="582" unicode="≤"/>
			<glyph d="M66 560L516 434V350L66 225V284L476 392L66 501ZM66 195H516V141H66Z" horiz-adv-x="582" unicode="≥"/>
			<glyph d="M165 710H240L395 338L240 0H165L10 338ZM203 669L69 338L203 37L336 338Z" horiz-adv-x="405" unicode="◊"/>
			<glyph d="M608 710Q762 710 888 663T1086 536T1159 355Q1159 259 1085 177T886 48T614 0Q463 0 335 48T134 180T60 361Q60 458 133 538T332 664T608 710ZM611 667Q525 667 451 651T335 610T293 554Q293 520 346 492T485 450Q499 543 533 601T611 660Q654 660 688 601T736 450Q822 464 875 492T928 554Q928 585 885 610T770 651T611 667ZM1978 617Q2049 617 2110 580T2207 483T2243 352Q2243 279 2207 217T2110 120T1975 85Q1902 85 1842 119T1747 214T1713 349Q1713 421 1748 482T1845 580T1978 617ZM3025 617Q3095 617 3156 580T3253 483T3289 352Q3289 279 3253 217T3157 120T3025 85Q2952 85 2891 119T2795 214T2760 349Q2760 421 2796 482T2893 580T3025 617ZM1264 601H1688V507H1530V102H1417V507H1264ZM2246 601H2380L2502 393L2632 601H2760L2560 286V102H2445V289ZM3314 601H3741V507H3582V102H3470V507H3314ZM3906 601H4046L4245 102H4124L4080 215H3869L3828 102H3704ZM611 577Q585 577 563 540T532 445Q565 441 611 441Q652 441 689 444Q679 503 658 540T611 577ZM199 535Q137 459 137 372Q137 287 194 214T350 96T568 44Q528 76 502 158T477 344V362Q350 381 274 427T199 535ZM1020 533Q1020 494 985 459T888 399T744 362V344Q744 241 719 158T654 44Q773 52 870 97T1024 215T1081 372Q1081 459 1020 533ZM1978 517Q1914 517 1874 471T1831 352Q1831 276 1871 230T1978 184Q2041 184 2081 231T2122 352Q2122 425 2081 471T1978 517ZM3028 517Q2962 517 2921 471T2881 352Q2881 275 2920 229T3025 184Q3090 184 3129 230T3168 352Q3168 425 3129 471T3028 517ZM3974 495L3903 302H4046ZM526 356Q527 300 538 253T569 179T611 152Q633 152 652 179T682 253T695 356Q659 352 610 352Q562 352 526 356Z" horiz-adv-x="4305" unicode=""/>
			<glyph d="M551 710Q655 710 740 678T874 592T923 472Q923 407 873 351T738 263T555 231Q453 231 368 264T233 353T183 475Q183 540 232 594T365 679T551 710ZM553 680Q495 680 446 670T368 643T339 605Q339 582 374 563T469 535Q477 597 501 636T553 676Q582 676 605 636T637 535Q696 545 731 563T767 605Q767 626 738 643T660 670T553 680ZM553 620Q536 620 521 596T499 532Q526 529 553 529Q572 529 606 531Q599 571 584 595T553 620ZM277 592Q235 542 235 483Q235 426 273 376T378 296T525 262Q498 283 480 339T462 464V476Q377 489 327 520T277 592ZM828 590Q828 551 777 520T643 476V464Q643 395 626 339T583 262Q663 267 728 298T832 377T870 483Q870 544 828 590ZM496 473Q497 416 513 375T553 335Q576 335 592 375T610 473Q592 470 553 470Q515 470 496 473ZM299 171Q334 171 360 144T387 83Q387 46 361 19T297 -7Q261 -7 235 18T210 81Q210 118 236 144T299 171ZM648 171Q683 171 709 144T735 83Q735 46 709 19T648 -7Q610 -7 584 18T559 81Q559 118 585 144T648 171ZM60 165H202V134H149V-1H112V134H60ZM388 165H431L472 96L516 165H559L493 61V-1H453V62ZM744 165H886V134H833V-1H796V134H744ZM941 165H987L1054 -1H1013L999 37H929L915 -1H873ZM299 137Q277 137 263 122T249 83Q249 57 263 41T299 26Q319 26 332 42T346 83Q346 107 332 122T299 137ZM648 137Q626 137 613 122T600 83Q600 57 613 41T648 26Q669 26 681 41T694 83Q694 107 681 122T648 137ZM963 130L939 66H987Z" horiz-adv-x="1114" unicode=""/>
			<glyph d="M608 710Q762 710 888 663T1086 536T1159 355Q1159 259 1085 177T886 48T614 0Q463 0 335 48T134 180T60 361Q60 458 133 538T332 664T608 710ZM611 667Q525 667 451 651T335 610T293 554Q293 520 346 492T485 450Q499 543 533 601T611 660Q654 660 688 601T736 450Q822 464 875 492T928 554Q928 585 885 610T770 651T611 667ZM611 577Q585 577 563 540T532 445Q565 441 611 441Q652 441 689 444Q679 503 658 540T611 577ZM199 535Q137 459 137 372Q137 287 194 214T350 96T568 44Q528 76 502 158T477 344V362Q350 381 274 427T199 535ZM1020 533Q1020 494 985 459T888 399T744 362V344Q744 241 719 158T654 44Q773 52 870 97T1024 215T1081 372Q1081 459 1020 533ZM526 356Q527 300 538 253T569 179T611 152Q633 152 652 179T682 253T695 356Q659 352 610 352Q562 352 526 356Z" horiz-adv-x="1219" unicode=""/>
			<glyph d="M1099 733Q1200 733 1286 681T1424 543T1476 357Q1476 252 1425 164T1287 26T1095 -24Q992 -24 907 25T772 161T723 352Q723 454 773 541T910 681T1099 733ZM2588 733Q2688 733 2774 681T2912 543T2964 357Q2964 252 2913 165T2776 27T2588 -24Q2485 -24 2398 25T2261 161T2211 352Q2211 454 2262 541T2401 681T2588 733ZM84 710H687V576H462V0H302V576H84ZM1480 710H1671L1844 414L2030 710H2211L1927 263V0H1763V267ZM2999 710H3607V576H3381V0H3222V576H2999ZM3841 710H4040L4324 0H4151L4088 160H3788L3730 0H3554ZM1099 591Q1038 591 992 561T919 478T890 357Q890 285 916 231T990 147T1099 117Q1158 117 1205 147T1278 232T1304 357Q1304 424 1278 477T1205 561T1099 591ZM2592 591Q2531 591 2483 561T2410 477T2384 357Q2384 285 2409 230T2480 146T2588 117Q2649 117 2695 147T2767 232T2792 357Q2792 425 2767 478T2696 561T2592 591ZM3938 559L3837 285H4040Z" horiz-adv-x="4379" unicode=""/>
			<glyph d="M252 754Q300 754 344 733L328 670Q315 678 296 683T260 689Q224 689 205 665T186 587V502H309V441H186V0H116V441H28V502H116V592Q116 672 152 713T252 754ZM424 502H494V0H424ZM460 718Q482 718 497 703T513 665Q513 643 497 627T460 612Q437 612 422 627T407 665Q407 688 422 703T460 718Z" horiz-adv-x="586" unicode=""/>
			<glyph d="M252 754Q300 754 344 733L328 670Q315 678 296 683T260 689Q224 689 205 665T186 587V502H309V441H186V0H116V441H28V502H116V592Q116 672 152 713T252 754ZM429 752H499V120Q499 54 548 54Q562 54 576 58T600 67L611 8Q579 -10 532 -10Q483 -10 456 19T429 110Z" horiz-adv-x="625" unicode=""/>
			<glyph d="M195 428Q240 428 271 396T303 319Q303 274 271 242T195 211Q150 211 118 242T87 319Q87 365 118 396T195 428Z" horiz-adv-x="390" unicode=""/>
			<glyph d="M252 754Q300 754 344 733L328 670Q315 678 296 683T260 689Q224 689 205 665T186 587V502H309V441H186V0H116V441H28V502H116V592Q116 672 152 713T252 754ZM581 754Q629 754 673 733L657 670Q644 678 625 683T589 689Q553 689 534 665T515 587V502H638V441H515V0H445V441H357V502H445V592Q445 672 481 713T581 754Z" horiz-adv-x="658" unicode="ﬀ"/>
			<glyph d="M252 754Q300 754 344 733L328 670Q315 678 296 683T260 689Q224 689 205 665T186 587V502H309V441H186V0H116V441H28V502H116V592Q116 672 152 713T252 754ZM424 502H494V0H424ZM460 718Q482 718 497 703T513 665Q513 643 497 627T460 612Q437 612 422 627T407 665Q407 688 422 703T460 718Z" horiz-adv-x="586" unicode="ﬁ"/>
			<glyph d="M252 754Q300 754 344 733L328 670Q315 678 296 683T260 689Q224 689 205 665T186 587V502H309V441H186V0H116V441H28V502H116V592Q116 672 152 713T252 754ZM429 752H499V120Q499 54 548 54Q562 54 576 58T600 67L611 8Q579 -10 532 -10Q483 -10 456 19T429 110Z" horiz-adv-x="625" unicode="ﬂ"/>
			<glyph d="M252 754Q300 754 344 733L328 670Q315 678 296 683T260 689Q224 689 205 665T186 587V502H309V441H186V0H116V441H28V502H116V592Q116 672 152 713T252 754ZM581 754Q629 754 673 733L657 670Q644 678 625 683T589 689Q553 689 534 665T515 587V502H638V441H515V0H445V441H357V502H445V592Q445 672 481 713T581 754ZM753 502H823V0H753ZM789 718Q811 718 826 703T842 665Q842 643 826 627T789 612Q766 612 751 627T736 665Q736 688 751 703T789 718Z" horiz-adv-x="915" unicode="ﬃ"/>
			<glyph d="M252 754Q300 754 344 733L328 670Q315 678 296 683T260 689Q224 689 205 665T186 587V502H309V441H186V0H116V441H28V502H116V592Q116 672 152 713T252 754ZM581 754Q629 754 673 733L657 670Q644 678 625 683T589 689Q553 689 534 665T515 587V502H638V441H515V0H445V441H357V502H445V592Q445 672 481 713T581 754ZM758 752H828V120Q828 54 877 54Q891 54 905 58T929 67L940 8Q908 -10 861 -10Q812 -10 785 19T758 110Z" horiz-adv-x="954" unicode="ﬄ"/>
			<glyph d="" horiz-adv-x="0" unicode="﻿"/>
		</font>
</defs>
</svg>
