<?xml version="1.0" encoding="UTF-8"?>
<svg height="100%" width="100%" xmlns="http://www.w3.org/2000/svg">
	<defs>
		<font horiz-adv-x="629" id="web">
			<font-face alphabetic="0" ascent="1167" descent="-259" font-family="" panose-1="2 11 7 2 2 2 2 2 2 4"/>
			<missing-glyph d="M30 752H570V-210H30ZM100 682V-140H500V682Z" horiz-adv-x="600"/>
			<glyph d="" horiz-adv-x="224" unicode=" "/>
			<glyph d="M90 710H236L214 248H112ZM164 141Q197 141 219 118T242 63Q242 31 219 8T164 -15Q132 -15 109 8T86 63Q86 95 109 118T164 141Z" horiz-adv-x="328" unicode="!"/>
			<glyph d="M245 710H364L346 474H263ZM52 710H171L153 474H70Z" horiz-adv-x="417" unicode="&quot;"/>
			<glyph d="M252 710H346L315 533H446L477 710H571L540 533H667V440H523L494 271H618V178H477L446 0H351L383 178H252L220 0H127L158 178H30V271H175L204 440H79V533H221ZM298 440L268 271H399L429 440Z" horiz-adv-x="697" unicode="#"/>
			<glyph d="M256 774H343V701Q393 697 439 684T521 653L485 545Q411 581 343 591V414Q408 396 450 375T519 317T546 218Q546 130 493 75T343 9V-69H256V7Q196 11 139 29T41 76L77 187Q109 161 156 144T256 121V306Q167 331 111 373T56 501Q56 584 109 636T256 699ZM256 591Q182 577 182 516Q182 488 200 470T256 440ZM343 281V122Q421 134 421 201Q421 231 402 249T343 281Z" horiz-adv-x="592" unicode="$"/>
			<glyph d="M202 716Q279 716 325 663T371 520Q371 429 325 376T202 323Q125 323 79 376T33 520Q33 610 79 663T202 716ZM599 710H702L256 0H153ZM202 630Q135 630 135 520Q135 409 202 409Q269 409 269 520Q269 630 202 630ZM652 387Q729 387 775 334T821 191Q821 100 775 47T652 -6Q574 -6 528 47T482 191Q482 281 528 334T652 387ZM652 301Q584 301 584 191Q584 80 652 80Q719 80 719 191Q719 301 652 301Z" horiz-adv-x="854" unicode="%"/>
			<glyph d="M304 721Q362 721 407 698T478 638T504 559Q504 505 472 459T362 368L495 233Q550 309 579 412L695 356Q653 234 579 146L722 0H560L496 67Q393 -10 268 -10Q198 -10 143 14T57 81T27 181Q27 248 63 294T187 390Q147 434 126 472T105 555Q105 598 128 636T197 697T304 721ZM305 621Q268 621 247 600T227 551Q227 525 240 502T288 444Q345 477 364 501T383 554Q383 580 361 600T305 621ZM261 312Q205 277 185 250T165 190Q165 150 196 127T277 104Q351 104 415 151Z" horiz-adv-x="732" unicode="&amp;"/>
			<glyph d="M52 710H171L153 474H70Z" horiz-adv-x="223" unicode="'"/>
			<glyph d="M349 752V656Q174 656 174 310Q174 -32 349 -32V-128Q197 -128 129 -7T62 310Q62 506 130 629T349 752Z" horiz-adv-x="391" unicode="("/>
			<glyph d="M42 752Q192 752 260 629T329 310Q329 114 261 -7T42 -128V-32Q217 -32 217 310Q217 656 42 656Z" horiz-adv-x="391" unicode=")"/>
			<glyph d="M172 710H277L265 579L385 631L417 532L289 503L376 405L292 344L225 457L158 344L73 405L160 503L32 532L64 631L185 579Z" horiz-adv-x="449" unicode="*"/>
			<glyph d="M245 575H346V401H521V299H346V125H245V299H71V401H245Z" horiz-adv-x="591" unicode="+"/>
			<glyph d="M112 126H242L135 -143H21Z" horiz-adv-x="302" unicode=","/>
			<glyph d="M45 326H394V221H45Z" horiz-adv-x="439" unicode="-"/>
			<glyph d="M151 141Q183 141 206 118T229 63Q229 31 206 8T151 -15Q119 -15 96 8T73 63Q73 95 96 118T151 141Z" horiz-adv-x="302" unicode="."/>
			<glyph d="M345 751H457L122 -169H10Z" horiz-adv-x="467" unicode="/"/>
			<glyph d="M296 720Q426 720 483 624T541 354Q541 179 483 84T296 -10Q165 -10 107 84T50 354Q50 529 108 624T296 720ZM296 603Q248 603 223 572T190 488T182 354Q182 273 190 220T223 137T296 107Q344 107 369 138T402 221T411 355Q411 477 388 540T296 603Z" horiz-adv-x="591" unicode="0"/>
			<glyph d="M278 717H328V0H199V546L54 459V582Z" horiz-adv-x="448" unicode="1"/>
			<glyph d="M290 720Q358 720 409 694T489 623T517 522Q517 455 482 397T375 262L244 115H540V0H56V76L282 324Q337 384 361 425T385 506Q385 549 357 575T280 601Q191 601 109 513L52 616Q96 665 156 692T290 720Z" horiz-adv-x="591" unicode="2"/>
			<glyph d="M296 720Q356 720 404 697T479 635T506 545Q506 424 376 379Q454 359 494 313T535 200Q535 139 504 91T416 17T284 -10Q129 -10 42 82L105 187Q144 147 186 126T282 106Q339 106 373 135T407 210Q407 262 360 289T219 316V421Q302 422 339 451T377 523Q377 560 351 582T281 604Q237 604 195 582T118 526L62 628Q164 720 296 720Z" horiz-adv-x="591" unicode="3"/>
			<glyph d="M339 710H463V247H550V140H463V0H334V140H27V228ZM334 529L154 247H334Z" horiz-adv-x="591" unicode="4"/>
			<glyph d="M128 710H510V595H226L208 428Q246 447 301 447Q368 447 421 420T504 343T534 223Q534 152 502 99T411 18T274 -10Q130 -10 40 80L103 186Q176 106 268 106Q331 106 368 138T406 224Q406 276 371 305T277 335Q218 335 170 303L88 335Z" horiz-adv-x="591" unicode="5"/>
			<glyph d="M482 718L508 610Q357 610 276 555T172 394Q242 453 335 453Q397 453 446 425T522 346T550 229Q550 162 519 107T432 21T306 -10Q231 -10 171 25T77 131T42 304Q42 425 88 518T233 664T482 718ZM303 352Q260 352 222 333T163 287Q165 192 203 147T301 102Q356 102 390 137T425 227Q425 282 391 317T303 352Z" horiz-adv-x="591" unicode="6"/>
			<glyph d="M50 710H536V634L261 0H122L392 595H50Z" horiz-adv-x="591" unicode="7"/>
			<glyph d="M296 720Q360 720 409 695T486 629T514 536Q514 484 486 444T409 383Q477 357 511 309T545 201Q545 142 513 94T424 18T296 -10Q225 -10 167 18T78 93T46 199Q46 262 80 309T182 383Q133 405 105 445T77 536Q77 587 104 629T182 695T296 720ZM298 614Q258 614 232 589T206 527Q206 490 231 465T298 440Q338 440 364 465T390 527Q390 564 364 589T298 614ZM297 321Q248 321 213 288T179 208Q179 161 213 129T297 97Q347 97 381 129T416 208Q416 256 381 288T297 321Z" horiz-adv-x="591" unicode="8"/>
			<glyph d="M286 720Q358 720 418 685T513 579T549 406Q549 286 503 192T362 45T123 -8L97 100Q244 100 321 156T419 316Q390 288 349 271T261 255Q197 255 147 283T69 363T41 481Q41 548 72 602T160 688T286 720ZM291 608Q234 608 200 573T166 484Q166 428 199 394T288 360Q332 360 369 379T428 431Q424 521 386 564T291 608Z" horiz-adv-x="591" unicode="9"/>
			<glyph d="M151 487Q183 487 206 464T229 409Q229 376 206 353T151 331Q119 331 96 353T73 409Q73 441 96 464T151 487ZM151 141Q183 141 206 118T229 63Q229 31 206 8T151 -15Q119 -15 96 8T73 63Q73 95 96 118T151 141ZZ" horiz-adv-x="302" unicode=":"/>
			<glyph d="M151 486Q183 486 206 463T229 408Q229 376 206 353T151 330Q119 330 96 353T73 408Q73 440 96 463T151 486ZM104 126H234L127 -143H13ZZ" horiz-adv-x="302" unicode=";"/>
			<glyph d="M520 567V466L158 350L520 234V133L70 286V414Z" horiz-adv-x="592" unicode="&lt;"/>
			<glyph d="M71 510H521V408H71ZM71 292H521V191H71Z" horiz-adv-x="591" unicode="="/>
			<glyph d="M71 567L521 414V286L71 133V234L434 350L71 466Z" horiz-adv-x="591" unicode="&gt;"/>
			<glyph d="M263 724Q326 724 373 700T446 635T472 542Q472 486 450 445T386 365Q344 324 324 297T305 249H197Q197 289 210 320T269 402Q312 448 329 474T346 531Q346 568 322 589T255 611Q211 611 181 586T136 521L40 584Q61 645 118 684T263 724ZM255 141Q288 141 310 118T333 63Q333 31 310 8T255 -15Q223 -15 200 8T177 63Q177 95 200 118T255 141Z" horiz-adv-x="512" unicode="?"/>
			<glyph d="M486 740Q606 740 706 686T865 540T923 335Q923 263 901 196T847 82H601V153Q557 75 457 75Q397 75 347 105T270 188T242 304Q242 367 270 419T347 502T456 533Q555 533 601 452V523H708V175H790Q809 207 819 248T830 334Q830 422 784 495T660 610T486 652Q390 652 310 605T185 480T140 306Q140 211 185 132T310 6T486 -40Q544 -40 598 -26T692 12L707 -77Q671 -99 611 -114T486 -129Q364 -129 263 -71T105 86T47 306Q47 426 105 525T263 682T486 740ZM476 435Q424 435 388 397T352 306Q352 252 388 214T476 177Q528 177 564 214T600 306Q600 360 564 397T476 435Z" horiz-adv-x="970" unicode="@"/>
			<glyph d="M278 710H424L688 0H545L475 200H221L151 0H14ZM348 562L259 307H437Z" horiz-adv-x="702" unicode="A"/>
			<glyph d="M86 710H335Q436 710 494 661T552 529Q552 479 528 438T456 372Q517 357 553 311T590 197Q590 139 563 94T487 25T371 0H86ZM221 598V409H322Q370 409 397 436T424 505Q424 549 395 573T316 598ZM221 303V111H346Q396 111 425 137T454 210Q454 254 427 278T352 303Z" horiz-adv-x="635" unicode="B"/>
			<glyph d="M419 720Q549 720 653 651L609 529Q519 593 424 593Q354 593 300 563T217 479T187 356Q187 288 216 233T299 148T424 117Q481 117 532 136T626 185L664 66Q611 29 550 9T414 -10Q307 -10 223 36T93 165T46 354Q46 461 94 544T227 674T419 720Z" horiz-adv-x="689" unicode="C"/>
			<glyph d="M86 710H349Q456 710 537 666T664 543T709 359Q709 253 664 171T537 45T349 0H86ZM221 592V118H330Q440 118 504 182T568 358Q568 467 504 529T331 592Z" horiz-adv-x="755" unicode="D"/>
			<glyph d="M86 710H511V591H221V413H502V298H221V119H519V0H86Z" horiz-adv-x="584" unicode="E"/>
			<glyph d="M86 710H508V591H221V410H494V291H221V0H86Z" horiz-adv-x="544" unicode="F"/>
			<glyph d="M418 720Q495 720 559 697T683 635L635 513Q584 552 531 572T418 593Q353 593 300 564T217 482T187 353Q187 280 215 227T292 146T405 118Q461 118 504 138T572 192T604 262H405V371H734V-1H611V94Q580 50 521 19T384 -11Q288 -11 211 35T90 164T46 352Q46 461 95 544T229 674T418 720Z" horiz-adv-x="798" unicode="G"/>
			<glyph d="M86 710H221V414H542V710H677V0H542V296H221V0H86Z" horiz-adv-x="763" unicode="H"/>
			<glyph d="M86 710H221V0H86Z" horiz-adv-x="307" unicode="I"/>
			<glyph d="M218 710H354V249Q354 125 294 57T127 -10Q61 -10 2 12L24 129Q65 111 106 111Q159 111 188 149T218 265Z" horiz-adv-x="428" unicode="J"/>
			<glyph d="M86 710H221V363L490 710H648L378 371L674 0H505L221 361V0H86Z" horiz-adv-x="677" unicode="K"/>
			<glyph d="M86 710H221V121H507V0H86Z" horiz-adv-x="527" unicode="L"/>
			<glyph d="M86 710H260L449 374L648 710H817V0H684V536L501 217H396L217 536V0H86Z" horiz-adv-x="902" unicode="M"/>
			<glyph d="M86 710H216L566 208V710H695V0H566L215 503V0H86Z" horiz-adv-x="781" unicode="N"/>
			<glyph d="M418 720Q524 720 609 674T742 545T791 357Q791 251 742 167T609 36T417 -10Q312 -10 227 36T94 165T46 355Q46 462 94 545T227 674T418 720ZM418 592Q351 592 298 561T216 477T187 355Q187 287 216 233T298 148T418 118Q485 118 538 148T620 233T650 355Q650 423 620 477T538 561T418 592Z" horiz-adv-x="837" unicode="O"/>
			<glyph d="M86 710H328Q406 710 461 680T544 599T572 484Q572 423 543 369T460 282T328 249H221V0H86ZM221 598V361H300Q359 361 395 393T431 484Q431 543 396 570T300 598Z" horiz-adv-x="605" unicode="P"/>
			<glyph d="M418 720Q524 720 609 674T742 545T791 357Q791 281 765 215T693 101L799 -11H642L601 33Q518 -10 417 -10Q312 -10 227 36T94 165T46 355Q46 462 94 545T227 674T418 720ZM418 592Q351 592 298 561T216 477T187 355Q187 287 216 233T298 148T418 118Q466 118 505 133L387 258H544L599 200Q650 265 650 355Q650 423 620 477T538 561T418 592Z" horiz-adv-x="842" unicode="Q"/>
			<glyph d="M86 710H334Q408 710 461 683T542 609T570 502Q570 436 535 382T437 301L633 0H474L307 277H221V0H86ZM221 598V384H313Q363 384 396 411T429 493Q429 546 397 572T314 598Z" horiz-adv-x="649" unicode="R"/>
			<glyph d="M310 720Q366 720 422 706T516 671L478 555Q442 575 396 588T310 601Q261 601 231 580T202 524Q202 497 218 478T263 447T343 415Q411 390 450 368T514 308T538 211Q538 107 469 48T285 -10Q220 -10 158 8T49 60L84 185Q128 152 183 131T292 110Q345 110 373 132T401 195Q401 222 386 239T345 268T262 302Q197 326 155 352T89 416T65 511Q65 608 132 664T310 720Z" horiz-adv-x="589" unicode="S"/>
			<glyph d="M20 710H530V592H344V0H208V592H20Z" horiz-adv-x="549" unicode="T"/>
			<glyph d="M80 710H216V281Q216 201 257 159T370 118Q441 118 482 159T524 281V710H658V264Q658 180 623 118T522 23T369 -10Q281 -10 215 23T115 118T80 264Z" horiz-adv-x="738" unicode="U"/>
			<glyph d="M-2 710H144L330 158L515 710H659L402 0H255Z" horiz-adv-x="657" unicode="V"/>
			<glyph d="M10 710H157L300 182L452 710H587L738 186L880 710H1014L806 0H665L513 519L358 0H218Z" horiz-adv-x="1025" unicode="W"/>
			<glyph d="M31 710H189L333 465L486 710H628L405 363L637 0H480L326 256L173 0H24L252 360Z" horiz-adv-x="656" unicode="X"/>
			<glyph d="M-5 710H144L309 404L475 710H609L368 276V0H235V278Z" horiz-adv-x="604" unicode="Y"/>
			<glyph d="M63 710H559V636L230 118H563V0H46V74L376 592H63Z" horiz-adv-x="609" unicode="Z"/>
			<glyph d="M86 752H340V656H196V-34H340V-130H86Z" horiz-adv-x="382" unicode="["/>
			<glyph d="M10 751H122L457 -169H345Z" horiz-adv-x="467" unicode="\"/>
			<glyph d="M42 752H296V-130H42V-34H186V656H42Z" horiz-adv-x="382" unicode="]"/>
			<glyph d="M164 710H291L445 260H343L228 623L112 260H10Z" horiz-adv-x="455" unicode="^"/>
			<glyph d="M-5 -92H455V-137H-5Z" horiz-adv-x="450" unicode="_"/>
			<glyph d="M286 739H405L523 576H418Z" horiz-adv-x="400" unicode="`"/>
			<glyph d="M291 516Q392 516 449 467T506 319V0H382V70Q357 34 312 11T211 -11Q136 -11 91 29T47 140Q47 199 82 234T191 286T381 305V315Q381 361 353 387T269 413Q189 413 111 360L82 459Q122 484 176 500T291 516ZM381 228Q268 226 222 207T177 147Q177 117 197 99T256 82Q307 82 344 110T381 194Z" horiz-adv-x="575" unicode="a"/>
			<glyph d="M73 752H198V431Q224 472 268 494T368 516Q438 516 493 482T579 388T611 253Q611 178 579 118T492 24T365 -10Q312 -10 267 12T198 77V0H73ZM341 402Q300 402 266 383T213 331T194 253Q194 210 213 176T266 123T340 104Q403 104 442 145T482 253Q482 319 443 360T341 402Z" horiz-adv-x="651" unicode="b"/>
			<glyph d="M306 516Q404 516 477 467L440 361Q382 403 315 403Q251 403 211 361T171 253Q171 186 210 144T314 103Q348 103 384 115T452 147L483 43Q448 19 402 4T303 -10Q227 -10 167 23T73 115T40 251Q40 329 74 389T169 482T306 516Z" horiz-adv-x="507" unicode="c"/>
			<glyph d="M453 752H578V-1H453V79Q427 34 384 12T284 -10Q214 -10 158 24T71 118T40 253Q40 328 71 388T158 482T284 516Q340 516 384 494T453 431ZM311 402Q248 402 208 361T169 253Q169 186 208 145T310 104Q374 104 415 146T457 253Q457 318 416 360T311 402Z" horiz-adv-x="648" unicode="d"/>
			<glyph d="M295 516Q367 516 422 482T507 387T538 245V226H167Q173 163 213 129T321 95Q368 95 410 109T484 148L515 50Q478 23 425 6T308 -10Q229 -10 168 24T73 117T40 252Q40 329 73 389T165 482T295 516ZM295 419Q249 419 215 389T171 311H411Q404 359 372 389T295 419Z" horiz-adv-x="572" unicode="e"/>
			<glyph d="M269 759Q327 759 381 734L358 629Q322 647 293 647Q263 647 247 628T231 567V506H350V401H231V0H106V401H21V506H106V572Q106 669 150 714T269 759Z" horiz-adv-x="364" unicode="f"/>
			<glyph d="M282 516Q392 516 453 430V506H578V22Q578 -96 501 -158T301 -220Q228 -220 174 -204T77 -159L110 -44Q190 -108 297 -108Q370 -108 411 -74T453 24V91Q427 48 383 26T282 4Q213 4 158 36T71 125T40 258Q40 331 71 390T158 482T282 516ZM312 408Q248 408 208 366T168 260Q168 195 208 153T312 112Q375 112 415 154T455 261Q455 300 436 334T385 388T312 408Z" horiz-adv-x="648" unicode="g"/>
			<glyph d="M73 752H198V426Q224 470 269 493T374 517Q462 517 507 467T553 322V0H428V274Q428 341 402 373T325 405Q267 405 232 368T198 270V0H73Z" horiz-adv-x="622" unicode="h"/>
			<glyph d="M73 506H198V0H73ZM138 744Q170 744 192 722T214 668Q214 636 192 613T138 591Q105 591 83 613T61 668Q61 700 83 722T138 744Z" horiz-adv-x="271" unicode="i"/>
			<glyph d="M73 506H198V-37Q198 -130 161 -173T52 -217Q-1 -217 -35 -205L-18 -98Q3 -104 20 -104Q48 -104 60 -87T73 -27ZM137 744Q169 744 191 722T213 668Q213 636 191 613T137 591Q104 591 82 613T60 668Q60 700 82 722T137 744Z" horiz-adv-x="272" unicode="j"/>
			<glyph d="M73 752H198V268L396 506H549L344 267L557 0H400L198 260V0H73Z" horiz-adv-x="562" unicode="k"/>
			<glyph d="M72 752H197V159Q197 100 244 100Q261 100 291 110L305 11Q261 -10 209 -10Q143 -10 107 26T72 139Z" horiz-adv-x="317" unicode="l"/>
			<glyph d="M357 517Q419 517 459 489T516 409Q540 462 585 489T687 517Q772 517 815 467T859 322V0H734V274Q734 341 711 373T640 405Q589 405 558 369T528 274V0H403V274Q403 341 380 373T310 405Q258 405 228 369T198 270V0H73V506H198V428Q223 471 264 494T357 517Z" horiz-adv-x="928" unicode="m"/>
			<glyph d="M374 517Q462 517 507 466T553 321V0H428V273Q428 340 403 372T324 404Q266 404 232 368T198 270V0H73V506H198V423Q225 468 271 492T374 517Z" horiz-adv-x="622" unicode="n"/>
			<glyph d="M315 516Q395 516 457 482T554 388T589 253Q589 178 554 118T457 24T315 -10Q235 -10 172 24T75 118T40 253Q40 328 75 388T172 482T315 516ZM315 401Q250 401 209 360T169 253Q169 187 209 146T315 105Q380 105 420 146T460 254Q460 319 419 360T315 401Z" unicode="o"/>
			<glyph d="M368 516Q438 516 493 482T579 388T611 253Q611 178 579 118T492 24T365 -10Q312 -10 267 12T198 77V-210H73V506H198V431Q224 472 268 494T368 516ZM341 402Q300 402 266 383T213 331T194 253Q194 210 213 176T266 123T340 104Q403 104 442 145T482 253Q482 319 443 360T341 402Z" horiz-adv-x="651" unicode="p"/>
			<glyph d="M284 516Q340 516 384 494T453 431V506H578V-210H453V79Q427 34 384 12T284 -10Q214 -10 158 24T71 118T40 253Q40 328 71 388T158 482T284 516ZM311 402Q248 402 208 361T169 253Q169 186 208 145T310 104Q374 104 415 146T457 253Q457 318 416 360T311 402Z" horiz-adv-x="648" unicode="q"/>
			<glyph d="M321 517Q353 517 386 505L366 385Q336 395 313 395Q197 395 197 239V0H73V506H197V425Q237 517 321 517Z" horiz-adv-x="389" unicode="r"/>
			<glyph d="M256 517Q301 517 344 505T421 474L398 378Q367 397 328 410T254 423Q222 423 202 410T182 375Q182 351 205 338T276 312Q359 291 399 256T440 158Q440 81 386 35T236 -10Q183 -10 131 4T46 42L76 142Q109 116 154 100T242 84Q277 84 297 97T318 136Q318 161 295 174T209 207Q160 223 129 239T79 284T60 356Q60 431 113 474T256 517Z" horiz-adv-x="486" unicode="s"/>
			<glyph d="M227 664V506H364V401H227V173Q227 103 287 103Q327 103 374 130L394 29Q369 12 333 1T257 -10Q183 -10 142 31T102 156V401H24V506H102V648Z" horiz-adv-x="400" unicode="t"/>
			<glyph d="M69 506H194V233Q194 165 218 133T296 101Q354 101 388 137T423 236V506H548V0H423V81Q396 36 349 12T244 -11Q159 -11 114 39T69 185Z" horiz-adv-x="621" unicode="u"/>
			<glyph d="M2 506H139L266 148L393 506H521L325 0H200Z" horiz-adv-x="523" unicode="v"/>
			<glyph d="M12 506H149L255 153L363 506H467L578 156L680 506H809L648 0H520L413 332L309 0H181Z" horiz-adv-x="821" unicode="w"/>
			<glyph d="M20 506H174L283 352L395 506H540L356 262L547 0H397L282 167L165 0H12L206 259Z" horiz-adv-x="559" unicode="x"/>
			<glyph d="M2 506H139L272 162L392 506H522L301 -63Q272 -139 226 -175T107 -212Q59 -212 23 -198L38 -91Q60 -99 84 -99Q120 -99 145 -82T188 -26L207 20Z" horiz-adv-x="524" unicode="y"/>
			<glyph d="M48 506H460V453L223 105H464V0H33V52L278 401H48Z" horiz-adv-x="499" unicode="z"/>
			<glyph d="M258 752H337V656H283Q218 656 218 606Q218 586 224 556T239 499Q258 433 258 403Q258 364 234 342T160 311Q210 302 234 280T258 219Q258 190 239 123Q231 95 224 65T218 16Q218 -34 283 -34H337V-130H258Q110 -130 110 -18Q110 8 115 36T132 103Q139 129 144 154T150 198Q150 228 126 245T58 263H29V359H58Q150 359 150 424Q150 442 144 467T132 519Q121 558 115 586T110 640Q110 752 258 752Z" horiz-adv-x="376" unicode="{"/>
			<glyph d="M84 752H192V-210H84Z" horiz-adv-x="276" unicode="|"/>
			<glyph d="M34 752H113Q261 752 261 640Q261 614 255 586T239 519Q232 493 226 467T221 424Q221 393 244 376T313 359H342V263H313Q268 263 244 246T221 198Q221 180 226 154T239 103Q250 64 255 36T261 -18Q261 -130 113 -130H34V-34H88Q153 -34 153 16Q153 36 146 65T132 123Q113 190 113 219Q113 258 137 280T211 311Q161 320 137 342T113 403Q113 433 132 499Q140 527 146 556T153 606Q153 656 88 656H34Z" horiz-adv-x="376" unicode="}"/>
			<glyph d="M187 412Q207 412 241 404T308 388L337 380Q341 379 360 374T398 369Q414 369 425 380T440 412H519Q517 369 501 338T463 292T417 276Q376 276 294 300Q266 308 242 313T205 319Q173 319 161 276H82Q85 344 115 378T187 412Z" horiz-adv-x="591" unicode="~"/>
			<glyph d="" horiz-adv-x="224" unicode=" "/>
			<glyph d="M164 515Q196 515 219 492T242 437Q242 405 219 382T164 359Q131 359 108 382T86 437Q86 469 108 492T164 515ZM114 252H216L238 -210H92Z" horiz-adv-x="328" unicode="¡"/>
			<glyph d="M267 710H345V637Q386 633 422 621T486 591L448 484Q402 515 345 522V226Q409 230 467 266L498 162Q431 120 345 113V0H267V116Q201 126 149 161T69 252T40 374Q40 442 69 498T149 589T267 635ZM267 517Q222 503 196 465T171 374Q171 324 196 287T267 235Z" horiz-adv-x="524" unicode="¢"/>
			<glyph d="M363 728Q471 728 543 659L494 545Q440 607 369 607Q318 607 292 575T266 475V401H453V298H266V227Q266 191 252 161T211 115H552V0H45V115Q87 121 109 150T132 225V298H45V401H132V481Q132 601 193 664T363 728Z" horiz-adv-x="572" unicode="£"/>
			<glyph d="M137 611L200 548Q253 577 311 577Q369 577 422 548L485 611L571 524L509 462Q538 409 538 350Q538 291 509 238L571 176L485 89L422 152Q369 123 311 123Q253 123 200 152L137 89L50 176L113 239Q83 291 83 350Q83 409 113 461L50 524ZM311 455Q268 455 237 424T206 350Q206 307 237 276T311 245Q354 245 384 276T415 350Q415 393 384 424T311 455Z" horiz-adv-x="621" unicode="¤"/>
			<glyph d="M8 710H157L296 410L436 710H570L382 330H530V264H355V196H530V130H355V0H223V130H48V196H223V264H48V330H196Z" horiz-adv-x="578" unicode="¥"/>
			<glyph d="M84 752H192V368H84ZM84 174H192V-210H84Z" horiz-adv-x="276" unicode="¦"/>
			<glyph d="M254 762Q299 762 344 750T423 719L397 623Q366 642 326 655T253 668Q219 668 200 654T181 619Q181 602 190 591T221 571T288 549Q373 525 408 491T443 399Q443 359 425 326T376 271Q409 251 423 222T438 154Q438 107 413 69T343 11T243 -10Q178 -10 128 4T44 42L74 142Q108 116 152 100T238 84Q274 84 295 98T316 137Q316 154 306 165T274 187T207 212Q125 237 89 270T54 362Q54 403 73 434T126 487Q91 507 75 536T59 607Q59 677 113 719T254 762ZM246 442Q212 442 194 425T176 383Q176 359 193 344T258 316Q287 316 304 333T321 377Q321 400 305 414T248 442Z" horiz-adv-x="486" unicode="§"/>
			<glyph d="M317 736Q345 736 364 717T384 670Q384 642 364 622T317 603Q289 603 269 622T250 670Q250 698 269 717T317 736ZM536 736Q564 736 583 717T603 670Q603 642 583 622T536 603Q508 603 488 622T469 670Q469 698 488 717T536 736Z" horiz-adv-x="400" unicode="¨"/>
			<glyph d="M405 720Q504 720 588 671T721 538T770 355Q770 256 721 172T588 39T405 -10Q306 -10 222 39T89 172T40 355Q40 454 89 538T222 671T405 720ZM405 652Q324 652 256 612T148 504T108 355Q108 274 148 206T256 98T405 58Q486 58 554 98T662 206T702 355Q702 436 662 504T554 612T405 652ZM415 580Q505 580 572 527L541 441Q513 465 480 478T416 491Q358 491 320 452T282 355Q282 297 320 258T418 219Q454 219 488 232T548 265L576 180Q505 130 418 130Q351 130 297 159T214 239T184 355Q184 419 214 470T297 550T415 580Z" horiz-adv-x="810" unicode="©"/>
			<glyph d="M186 722Q246 722 280 692T315 603V412H235V452Q218 431 192 418T135 405Q92 405 64 429T37 497Q37 549 84 572T235 595V601Q235 626 219 640T171 655Q120 655 77 625L58 687Q81 702 113 712T186 722ZM235 547Q171 547 146 535T121 501Q121 484 132 474T163 464Q191 464 213 480T235 527Z" horiz-adv-x="364" unicode="ª"/>
			<glyph d="M192 460H333L160 260L333 60H192L30 260ZM455 460H596L423 260L596 60H455L293 260Z" horiz-adv-x="627" unicode="«"/>
			<glyph d="M71 508H521V193H419V406H71Z" horiz-adv-x="591" unicode="¬"/>
			<glyph d="M45 326H394V221H45Z" horiz-adv-x="439" unicode="­"/>
			<glyph d="M227 710Q284 710 329 684T401 612T427 510Q427 453 401 407T329 336T227 310Q170 310 124 336T53 407T27 510Q27 567 53 612T124 684T227 710ZM227 664Q159 664 116 621T73 510Q73 442 116 399T227 356Q295 356 338 399T381 510Q381 578 338 621T227 664ZM152 622H231Q265 622 286 603T307 554Q307 534 297 517T270 492L330 398H270L220 481H204V398H152ZM204 576V524H225Q238 524 245 531T253 551Q253 576 225 576Z" horiz-adv-x="454" unicode="®"/>
			<glyph d="M251 696H599V613H251Z" horiz-adv-x="400" unicode="¯"/>
			<glyph d="M191 710Q236 710 273 688T333 630T355 549Q355 505 333 468T273 409T191 387Q147 387 109 409T50 468T28 549Q28 593 50 630T109 688T191 710ZM191 620Q162 620 141 599T120 549Q120 519 141 498T191 477Q221 477 242 498T263 549Q263 578 242 599T191 620Z" horiz-adv-x="383" unicode="°"/>
			<glyph d="M245 584H346V460H521V369H346V246H245V369H71V460H245ZM71 217H521V125H71Z" horiz-adv-x="591" unicode="±"/>
			<glyph d="M204 871Q272 871 313 836T355 745Q355 703 331 667T264 591L186 517H371V435H49V489L197 634Q232 669 246 691T261 734Q261 759 244 773T197 788Q139 788 86 737L46 806Q75 837 115 854T204 871Z" horiz-adv-x="417" unicode="²"/>
			<glyph d="M204 870Q267 870 305 839T344 759Q344 723 322 698T262 661Q313 647 338 621T363 553Q363 496 318 460T194 425Q146 425 105 439T38 479L82 554Q132 509 194 509Q231 509 251 523T271 561Q271 592 243 605T153 618V690Q205 690 228 705T252 744Q252 763 236 774T195 786Q143 786 91 741L51 813Q117 870 204 870Z" horiz-adv-x="414" unicode="³"/>
			<glyph d="M321 739H440L309 576H204Z" horiz-adv-x="400" unicode="´"/>
			<glyph d="M73 506H198V233Q198 101 307 101Q361 101 394 138T427 236V506H552V0H427V70Q405 30 369 9T289 -11Q237 -11 198 23V-209H73Z" horiz-adv-x="625" unicode="µ"/>
			<glyph d="M284 710H662V636H582V-210H505V636H401V-210H324V151H284Q208 151 150 185T61 283T30 431Q30 514 61 577T150 675T284 710Z" horiz-adv-x="692" unicode="¶"/>
			<glyph d="M151 425Q183 425 206 402T229 347Q229 315 206 292T151 269Q119 269 96 292T73 347Q73 379 96 402T151 425Z" horiz-adv-x="302" unicode="·"/>
			<glyph d="M260 0H326V-36Q392 -57 392 -120Q392 -170 352 -197T230 -224V-155Q272 -155 289 -146T306 -118Q306 -84 260 -84Z" horiz-adv-x="400" unicode="¸"/>
			<glyph d="M198 866H233V435H140V747L48 699V786Z" horiz-adv-x="341" unicode="¹"/>
			<glyph d="M194 720Q240 720 278 699T338 642T360 562Q360 518 338 481T278 424T194 404Q147 404 109 424T49 481T28 562Q28 606 49 642T109 699T194 720ZM194 645Q158 645 135 620T112 561Q112 525 136 502T194 479Q229 479 252 503T275 562Q275 599 251 622T194 645Z" horiz-adv-x="389" unicode="º"/>
			<glyph d="M31 460H172L334 260L172 60H31L204 260ZM294 460H435L597 260L435 60H294L467 260Z" horiz-adv-x="627" unicode="»"/>
			<glyph d="M198 716H233V285H140V597L48 549V636ZM648 710H752L219 0H115ZM702 428H793V154H847V79H793V0H700V79H503V144ZM700 306L593 154H700Z" horiz-adv-x="884" unicode="¼"/>
			<glyph d="M198 716H233V285H140V597L48 549V636ZM646 710H750L217 0H113ZM747 436Q815 436 856 401T898 310Q898 268 874 232T807 156L729 82H914V0H592V54L740 199Q775 234 789 256T804 299Q804 324 787 338T740 353Q682 353 629 302L589 371Q618 402 658 419T747 436Z" horiz-adv-x="960" unicode="½"/>
			<glyph d="M204 720Q267 720 305 689T344 609Q344 573 322 548T262 511Q313 497 338 471T363 403Q363 346 318 310T194 275Q146 275 105 289T38 329L82 404Q132 359 194 359Q231 359 251 373T271 411Q271 442 243 455T153 468V540Q205 540 228 555T252 594Q252 613 236 624T195 636Q143 636 91 591L51 663Q117 720 204 720ZM702 710H806L273 0H169ZM745 428H836V154H890V79H836V0H743V79H546V144ZM743 306L636 154H743Z" horiz-adv-x="927" unicode="¾"/>
			<glyph d="M257 516Q289 516 312 493T335 438Q335 406 312 383T257 360Q225 360 202 383T179 438Q179 470 202 493T257 516ZM207 252H315Q315 212 302 180T243 99Q200 53 183 27T166 -30Q166 -67 189 -88T257 -110Q301 -110 331 -85T376 -20L472 -83Q451 -143 393 -183T249 -223Q186 -223 138 -199T65 -134T40 -41Q40 16 62 55T126 136Q169 179 188 205T207 252Z" horiz-adv-x="512" unicode="¿"/>
			<glyph d="M278 710H424L688 0H545L475 200H221L151 0H14ZM348 562L259 307H437ZM178 921H305L426 769H320Z" horiz-adv-x="702" unicode="À"/>
			<glyph d="M278 710H424L688 0H545L475 200H221L151 0H14ZM348 562L259 307H437ZM396 921H523L380 769H275Z" horiz-adv-x="702" unicode="Á"/>
			<glyph d="M278 710H424L688 0H545L475 200H221L151 0H14ZM348 562L259 307H437ZM291 914H412L541 769H436L351 842L267 769H162Z" horiz-adv-x="702" unicode="Â"/>
			<glyph d="M278 710H424L688 0H545L475 200H221L151 0H14ZM348 562L259 307H437ZM272 893Q300 893 360 868Q367 865 386 857T419 850Q433 850 440 860T452 893H525Q519 834 493 801T428 769Q397 769 343 793Q323 801 307 806T283 812Q269 812 261 802T248 769H175Q181 831 207 862T272 893Z" horiz-adv-x="702" unicode="Ã"/>
			<glyph d="M278 710H424L688 0H545L475 200H221L151 0H14ZM348 562L259 307H437ZM243 916Q271 916 290 897T310 850Q310 822 290 802T243 783Q215 783 195 802T176 850Q176 878 195 897T243 916ZM462 916Q490 916 509 897T529 850Q529 822 509 802T462 783Q434 783 414 802T395 850Q395 878 414 897T462 916Z" horiz-adv-x="702" unicode="Ä"/>
			<glyph d="M278 710H424L688 0H545L475 200H221L151 0H14ZM348 562L259 307H437ZM351 954Q397 954 429 922T461 847Q461 801 429 770T350 739Q303 739 271 770T240 847Q240 892 272 923T351 954ZM351 887Q333 887 321 875T310 847Q310 830 321 818T351 806Q369 806 380 818T392 847Q392 864 380 875T351 887Z" horiz-adv-x="702" unicode="Å"/>
			<glyph d="M278 710H855V591H565V413H846V298H565V119H863V0H430V200H223L151 0H14ZM364 591L262 307H430V591Z" horiz-adv-x="928" unicode="Æ"/>
			<glyph d="M419 720Q549 720 653 651L609 529Q519 593 424 593Q354 593 300 563T217 479T187 356Q187 288 216 233T299 148T424 117Q481 117 532 136T626 185L664 66Q614 31 557 11T431 -10V-36Q497 -57 497 -120Q497 -170 457 -197T335 -224V-155Q377 -155 394 -146T411 -118Q411 -84 365 -84V-7Q271 3 198 51T86 177T46 354Q46 461 94 544T227 674T419 720Z" horiz-adv-x="689" unicode="Ç"/>
			<glyph d="M86 710H511V591H221V413H502V298H221V119H519V0H86ZM128 921H255L376 769H270Z" horiz-adv-x="584" unicode="È"/>
			<glyph d="M86 710H511V591H221V413H502V298H221V119H519V0H86ZM346 921H473L330 769H225Z" horiz-adv-x="584" unicode="É"/>
			<glyph d="M86 710H511V591H221V413H502V298H221V119H519V0H86ZM241 914H362L491 769H386L301 842L217 769H112Z" horiz-adv-x="584" unicode="Ê"/>
			<glyph d="M86 710H511V591H221V413H502V298H221V119H519V0H86ZM193 916Q221 916 240 897T260 850Q260 822 240 802T193 783Q165 783 145 802T126 850Q126 878 145 897T193 916ZM412 916Q440 916 459 897T479 850Q479 822 459 802T412 783Q384 783 364 802T345 850Q345 878 364 897T412 916Z" horiz-adv-x="584" unicode="Ë"/>
			<glyph d="M86 710H221V0H86ZM-20 921H107L228 769H122Z" horiz-adv-x="307" unicode="Ì"/>
			<glyph d="M86 710H221V0H86ZM198 921H325L182 769H77Z" horiz-adv-x="307" unicode="Í"/>
			<glyph d="M86 710H221V0H86ZM93 914H214L343 769H238L153 842L69 769H-36Z" horiz-adv-x="307" unicode="Î"/>
			<glyph d="M86 710H221V0H86ZM45 916Q73 916 92 897T112 850Q112 822 92 802T45 783Q17 783 -2 802T-22 850Q-22 878 -2 897T45 916ZM264 916Q292 916 311 897T331 850Q331 822 311 802T264 783Q236 783 216 802T197 850Q197 878 216 897T264 916Z" horiz-adv-x="307" unicode="Ï"/>
			<glyph d="M86 710H349Q456 710 537 666T664 543T709 359Q709 253 664 171T537 45T349 0H86V302H8V408H86ZM221 592V408H385V302H221V118H330Q440 118 504 182T568 358Q568 467 504 529T331 592Z" horiz-adv-x="755" unicode="Ð"/>
			<glyph d="M86 710H216L566 208V710H695V0H566L215 503V0H86ZM316 893Q344 893 404 868Q411 865 430 857T463 850Q477 850 484 860T496 893H569Q563 834 537 801T472 769Q441 769 387 793Q367 801 351 806T327 812Q313 812 305 802T292 769H219Q225 831 251 862T316 893Z" horiz-adv-x="781" unicode="Ñ"/>
			<glyph d="M418 720Q524 720 609 674T742 545T791 357Q791 251 742 167T609 36T417 -10Q312 -10 227 36T94 165T46 355Q46 462 94 545T227 674T418 720ZM418 592Q351 592 298 561T216 477T187 355Q187 287 216 233T298 148T418 118Q485 118 538 148T620 233T650 355Q650 423 620 477T538 561T418 592ZM244 921H371L492 769H386Z" horiz-adv-x="837" unicode="Ò"/>
			<glyph d="M418 720Q524 720 609 674T742 545T791 357Q791 251 742 167T609 36T417 -10Q312 -10 227 36T94 165T46 355Q46 462 94 545T227 674T418 720ZM418 592Q351 592 298 561T216 477T187 355Q187 287 216 233T298 148T418 118Q485 118 538 148T620 233T650 355Q650 423 620 477T538 561T418 592ZM462 921H589L446 769H341Z" horiz-adv-x="837" unicode="Ó"/>
			<glyph d="M418 720Q524 720 609 674T742 545T791 357Q791 251 742 167T609 36T417 -10Q312 -10 227 36T94 165T46 355Q46 462 94 545T227 674T418 720ZM418 592Q351 592 298 561T216 477T187 355Q187 287 216 233T298 148T418 118Q485 118 538 148T620 233T650 355Q650 423 620 477T538 561T418 592ZM357 914H478L607 769H502L417 842L333 769H228Z" horiz-adv-x="837" unicode="Ô"/>
			<glyph d="M418 720Q524 720 609 674T742 545T791 357Q791 251 742 167T609 36T417 -10Q312 -10 227 36T94 165T46 355Q46 462 94 545T227 674T418 720ZM418 592Q351 592 298 561T216 477T187 355Q187 287 216 233T298 148T418 118Q485 118 538 148T620 233T650 355Q650 423 620 477T538 561T418 592ZM338 893Q366 893 426 868Q433 865 452 857T485 850Q499 850 506 860T518 893H591Q585 834 559 801T494 769Q463 769 409 793Q389 801 373 806T349 812Q335 812 327 802T314 769H241Q247 831 273 862T338 893Z" horiz-adv-x="837" unicode="Õ"/>
			<glyph d="M418 720Q524 720 609 674T742 545T791 357Q791 251 742 167T609 36T417 -10Q312 -10 227 36T94 165T46 355Q46 462 94 545T227 674T418 720ZM418 592Q351 592 298 561T216 477T187 355Q187 287 216 233T298 148T418 118Q485 118 538 148T620 233T650 355Q650 423 620 477T538 561T418 592ZM309 916Q337 916 356 897T376 850Q376 822 356 802T309 783Q281 783 261 802T242 850Q242 878 261 897T309 916ZM528 916Q556 916 575 897T595 850Q595 822 575 802T528 783Q500 783 480 802T461 850Q461 878 480 897T528 916Z" horiz-adv-x="837" unicode="Ö"/>
			<glyph d="M431 558L503 486L367 350L503 214L432 143L296 278L161 143L89 215L224 350L89 485L161 557L296 422Z" horiz-adv-x="591" unicode="×"/>
			<glyph d="M623 761H737L660 641Q722 592 756 518T791 357Q791 251 742 167T609 36T417 -10Q334 -10 262 19L218 -50H104L179 67Q116 117 81 191T46 355Q46 462 94 545T227 674T418 720Q503 720 577 689ZM418 592Q351 592 298 561T216 477T187 355Q187 303 204 259T253 183L505 577Q466 592 418 592ZM586 525L334 132Q374 118 418 118Q485 118 538 148T620 233T650 355Q650 406 633 449T586 525Z" horiz-adv-x="837" unicode="Ø"/>
			<glyph d="M80 710H216V281Q216 201 257 159T370 118Q441 118 482 159T524 281V710H658V264Q658 180 623 118T522 23T369 -10Q281 -10 215 23T115 118T80 264ZM197 921H324L445 769H339Z" horiz-adv-x="738" unicode="Ù"/>
			<glyph d="M80 710H216V281Q216 201 257 159T370 118Q441 118 482 159T524 281V710H658V264Q658 180 623 118T522 23T369 -10Q281 -10 215 23T115 118T80 264ZM415 921H542L399 769H294Z" horiz-adv-x="738" unicode="Ú"/>
			<glyph d="M80 710H216V281Q216 201 257 159T370 118Q441 118 482 159T524 281V710H658V264Q658 180 623 118T522 23T369 -10Q281 -10 215 23T115 118T80 264ZM310 914H431L560 769H455L370 842L286 769H181Z" horiz-adv-x="738" unicode="Û"/>
			<glyph d="M80 710H216V281Q216 201 257 159T370 118Q441 118 482 159T524 281V710H658V264Q658 180 623 118T522 23T369 -10Q281 -10 215 23T115 118T80 264ZM262 916Q290 916 309 897T329 850Q329 822 309 802T262 783Q234 783 214 802T195 850Q195 878 214 897T262 916ZM481 916Q509 916 528 897T548 850Q548 822 528 802T481 783Q453 783 433 802T414 850Q414 878 433 897T481 916Z" horiz-adv-x="738" unicode="Ü"/>
			<glyph d="M-5 710H144L309 404L475 710H609L368 276V0H235V278ZM346 921H473L330 769H225Z" horiz-adv-x="604" unicode="Ý"/>
			<glyph d="M86 710H221V587H328Q406 587 461 557T544 476T572 361Q572 300 543 246T460 159T328 126H221V0H86ZM221 475V237H300Q359 237 395 269T431 361Q431 420 396 447T300 475Z" horiz-adv-x="605" unicode="Þ"/>
			<glyph d="M306 756Q407 756 465 706T523 572Q523 518 496 477T422 414Q491 396 534 345T578 215Q578 146 548 95T467 18T348 -9Q317 -9 287 -3T240 9L256 119Q284 102 322 102Q381 102 414 134T447 223Q447 283 405 316T286 349H272V451L292 452Q335 454 367 481T400 558Q400 598 374 621T304 645Q257 645 226 615T196 518V0H73V523Q73 638 138 697T306 756Z" horiz-adv-x="618" unicode="ß"/>
			<glyph d="M291 516Q392 516 449 467T506 319V0H382V70Q357 34 312 11T211 -11Q136 -11 91 29T47 140Q47 199 82 234T191 286T381 305V315Q381 361 353 387T269 413Q189 413 111 360L82 459Q122 484 176 500T291 516ZM381 228Q268 226 222 207T177 147Q177 117 197 99T256 82Q307 82 344 110T381 194ZM145 739H264L382 576H277Z" horiz-adv-x="575" unicode="à"/>
			<glyph d="M291 516Q392 516 449 467T506 319V0H382V70Q357 34 312 11T211 -11Q136 -11 91 29T47 140Q47 199 82 234T191 286T381 305V315Q381 361 353 387T269 413Q189 413 111 360L82 459Q122 484 176 500T291 516ZM381 228Q268 226 222 207T177 147Q177 117 197 99T256 82Q307 82 344 110T381 194ZM333 739H452L321 576H216Z" horiz-adv-x="575" unicode="á"/>
			<glyph d="M291 516Q392 516 449 467T506 319V0H382V70Q357 34 312 11T211 -11Q136 -11 91 29T47 140Q47 199 82 234T191 286T381 305V315Q381 361 353 387T269 413Q189 413 111 360L82 459Q122 484 176 500T291 516ZM381 228Q268 226 222 207T177 147Q177 117 197 99T256 82Q307 82 344 110T381 194ZM234 739H355L484 576H379L294 670L210 576H105Z" horiz-adv-x="575" unicode="â"/>
			<glyph d="M291 516Q392 516 449 467T506 319V0H382V70Q357 34 312 11T211 -11Q136 -11 91 29T47 140Q47 199 82 234T191 286T381 305V315Q381 361 353 387T269 413Q189 413 111 360L82 459Q122 484 176 500T291 516ZM381 228Q268 226 222 207T177 147Q177 117 197 99T256 82Q307 82 344 110T381 194ZM216 721Q248 721 303 697Q321 689 335 683T359 678Q389 678 395 721H468Q462 660 434 628T369 597Q351 597 332 603T286 621Q267 629 251 634T227 640Q214 640 205 630T191 597H118Q124 660 151 690T216 721Z" horiz-adv-x="575" unicode="ã"/>
			<glyph d="M291 516Q392 516 449 467T506 319V0H382V70Q357 34 312 11T211 -11Q136 -11 91 29T47 140Q47 199 82 234T191 286T381 305V315Q381 361 353 387T269 413Q189 413 111 360L82 459Q122 484 176 500T291 516ZM381 228Q268 226 222 207T177 147Q177 117 197 99T256 82Q307 82 344 110T381 194ZM184 736Q212 736 231 717T251 670Q251 642 231 622T184 603Q156 603 136 622T117 670Q117 698 136 717T184 736ZM403 736Q431 736 450 717T470 670Q470 642 450 622T403 603Q375 603 355 622T336 670Q336 698 355 717T403 736Z" horiz-adv-x="575" unicode="ä"/>
			<glyph d="M291 516Q392 516 449 467T506 319V0H382V70Q357 34 312 11T211 -11Q136 -11 91 29T47 140Q47 199 82 234T191 286T381 305V315Q381 361 353 387T269 413Q189 413 111 360L82 459Q122 484 176 500T291 516ZM381 228Q268 226 222 207T177 147Q177 117 197 99T256 82Q307 82 344 110T381 194ZM296 779Q343 779 374 748T406 671Q406 624 374 593T295 563Q247 563 216 594T185 671Q185 717 217 748T296 779ZM296 711Q277 711 266 700T255 671Q255 653 266 641T296 630Q315 630 326 641T337 671Q337 689 326 700T296 711Z" horiz-adv-x="575" unicode="å"/>
			<glyph d="M296 516Q409 516 465 451Q499 482 543 499T638 516Q710 516 765 482T850 387T881 245V226H510Q516 163 556 129T664 95Q711 95 753 109T827 148L858 50Q821 23 768 6T651 -10Q581 -10 525 16T434 91Q356 -11 219 -11Q141 -11 94 28T47 142Q47 227 126 265T381 305V315Q381 361 353 387T269 413Q189 413 111 360L82 459Q172 516 296 516ZM638 419Q592 419 558 389T514 311H754Q747 359 715 389T638 419ZM381 228Q304 226 259 217T196 192T177 148Q177 116 198 99T257 82Q306 82 343 111T381 198Z" horiz-adv-x="915" unicode="æ"/>
			<glyph d="M306 516Q404 516 477 467L440 361Q382 403 315 403Q251 403 211 361T171 253Q171 186 210 144T314 103Q348 103 384 115T452 147L483 43Q450 21 408 6T318 -10V-36Q384 -57 384 -120Q384 -170 344 -197T222 -224V-155Q264 -155 281 -146T298 -118Q298 -84 252 -84V-6Q156 10 98 79T40 251Q40 329 74 389T169 482T306 516Z" horiz-adv-x="507" unicode="ç"/>
			<glyph d="M295 516Q367 516 422 482T507 387T538 245V226H167Q173 163 213 129T321 95Q368 95 410 109T484 148L515 50Q478 23 425 6T308 -10Q229 -10 168 24T73 117T40 252Q40 329 73 389T165 482T295 516ZM295 419Q249 419 215 389T171 311H411Q404 359 372 389T295 419ZM149 739H268L386 576H281Z" horiz-adv-x="572" unicode="è"/>
			<glyph d="M295 516Q367 516 422 482T507 387T538 245V226H167Q173 163 213 129T321 95Q368 95 410 109T484 148L515 50Q478 23 425 6T308 -10Q229 -10 168 24T73 117T40 252Q40 329 73 389T165 482T295 516ZM295 419Q249 419 215 389T171 311H411Q404 359 372 389T295 419ZM337 739H456L325 576H220Z" horiz-adv-x="572" unicode="é"/>
			<glyph d="M295 516Q367 516 422 482T507 387T538 245V226H167Q173 163 213 129T321 95Q368 95 410 109T484 148L515 50Q478 23 425 6T308 -10Q229 -10 168 24T73 117T40 252Q40 329 73 389T165 482T295 516ZM295 419Q249 419 215 389T171 311H411Q404 359 372 389T295 419ZM238 739H359L488 576H383L298 670L214 576H109Z" horiz-adv-x="572" unicode="ê"/>
			<glyph d="M295 516Q367 516 422 482T507 387T538 245V226H167Q173 163 213 129T321 95Q368 95 410 109T484 148L515 50Q478 23 425 6T308 -10Q229 -10 168 24T73 117T40 252Q40 329 73 389T165 482T295 516ZM295 419Q249 419 215 389T171 311H411Q404 359 372 389T295 419ZM188 736Q216 736 235 717T255 670Q255 642 235 622T188 603Q160 603 140 622T121 670Q121 698 140 717T188 736ZM407 736Q435 736 454 717T474 670Q474 642 454 622T407 603Q379 603 359 622T340 670Q340 698 359 717T407 736Z" horiz-adv-x="572" unicode="ë"/>
			<glyph d="M73 506H198V0H73ZM-12 739H107L225 576H120Z" horiz-adv-x="271" unicode="ì"/>
			<glyph d="M73 506H198V0H73ZM177 739H296L165 576H60Z" horiz-adv-x="271" unicode="í"/>
			<glyph d="M73 506H198V0H73ZM77 739H198L307 576H202L137 667L73 576H-32Z" horiz-adv-x="271" unicode="î"/>
			<glyph d="M73 506H198V0H73ZM42 741Q73 741 93 720T114 670Q114 640 93 619T42 598Q12 598 -8 619T-29 670Q-29 700 -8 720T42 741ZM233 741Q263 741 283 720T304 670Q304 640 283 619T233 598Q202 598 181 619T161 670Q161 700 181 720T233 741Z" horiz-adv-x="271" unicode="ï"/>
			<glyph d="M203 764Q282 734 341 696L477 751L513 678L418 639Q500 568 544 474T589 273Q589 188 554 124T458 25T316 -10Q237 -10 174 21T76 112T40 249Q40 325 75 383T172 472T308 504Q371 504 420 470Q377 540 307 594L158 534L123 608L223 649Q178 673 124 693ZM316 399Q251 399 208 358T165 251Q165 185 207 143T314 101Q379 101 422 143T465 250Q465 315 422 357T316 399Z" unicode="ð"/>
			<glyph d="M374 517Q462 517 507 466T553 321V0H428V273Q428 340 403 372T324 404Q266 404 232 368T198 270V0H73V506H198V423Q225 468 271 492T374 517ZM246 721Q278 721 333 697Q351 689 365 683T389 678Q419 678 425 721H498Q492 660 464 628T399 597Q381 597 362 603T316 621Q297 629 281 634T257 640Q244 640 235 630T221 597H148Q154 660 181 690T246 721Z" horiz-adv-x="622" unicode="ñ"/>
			<glyph d="M315 516Q395 516 457 482T554 388T589 253Q589 178 554 118T457 24T315 -10Q235 -10 172 24T75 118T40 253Q40 328 75 388T172 482T315 516ZM315 401Q250 401 209 360T169 253Q169 187 209 146T315 105Q380 105 420 146T460 254Q460 319 419 360T315 401ZM166 739H285L403 576H298Z" unicode="ò"/>
			<glyph d="M315 516Q395 516 457 482T554 388T589 253Q589 178 554 118T457 24T315 -10Q235 -10 172 24T75 118T40 253Q40 328 75 388T172 482T315 516ZM315 401Q250 401 209 360T169 253Q169 187 209 146T315 105Q380 105 420 146T460 254Q460 319 419 360T315 401ZM354 739H473L342 576H237Z" unicode="ó"/>
			<glyph d="M315 516Q395 516 457 482T554 388T589 253Q589 178 554 118T457 24T315 -10Q235 -10 172 24T75 118T40 253Q40 328 75 388T172 482T315 516ZM315 401Q250 401 209 360T169 253Q169 187 209 146T315 105Q380 105 420 146T460 254Q460 319 419 360T315 401ZM255 739H376L505 576H400L315 670L231 576H126Z" unicode="ô"/>
			<glyph d="M315 516Q395 516 457 482T554 388T589 253Q589 178 554 118T457 24T315 -10Q235 -10 172 24T75 118T40 253Q40 328 75 388T172 482T315 516ZM315 401Q250 401 209 360T169 253Q169 187 209 146T315 105Q380 105 420 146T460 254Q460 319 419 360T315 401ZM237 721Q269 721 324 697Q342 689 356 683T380 678Q410 678 416 721H489Q483 660 455 628T390 597Q372 597 353 603T307 621Q288 629 272 634T248 640Q235 640 226 630T212 597H139Q145 660 172 690T237 721Z" unicode="õ"/>
			<glyph d="M315 516Q395 516 457 482T554 388T589 253Q589 178 554 118T457 24T315 -10Q235 -10 172 24T75 118T40 253Q40 328 75 388T172 482T315 516ZM315 401Q250 401 209 360T169 253Q169 187 209 146T315 105Q380 105 420 146T460 254Q460 319 419 360T315 401ZM205 736Q233 736 252 717T272 670Q272 642 252 622T205 603Q177 603 157 622T138 670Q138 698 157 717T205 736ZM424 736Q452 736 471 717T491 670Q491 642 471 622T424 603Q396 603 376 622T357 670Q357 698 376 717T424 736Z" unicode="ö"/>
			<glyph d="M296 590Q325 590 344 571T363 523Q363 494 343 474T296 455Q268 455 248 475T228 523Q228 551 247 570T296 590ZM71 401H521V299H71ZM296 245Q325 245 344 226T363 178Q363 149 343 129T296 110Q268 110 248 130T228 178Q228 206 247 225T296 245Z" horiz-adv-x="591" unicode="÷"/>
			<glyph d="M475 554H570L499 451Q542 415 565 364T589 253Q589 179 553 119T454 24T315 -10Q252 -10 197 13L151 -54H57L131 54Q88 90 64 141T40 253Q40 327 76 387T175 481T315 516Q379 516 433 492ZM315 407Q272 407 237 387T183 333T163 253Q163 194 198 151L368 398Q344 407 315 407ZM432 354L262 108Q288 99 315 99Q358 99 392 119T446 174T466 253Q466 310 432 354Z" unicode="ø"/>
			<glyph d="M69 506H194V233Q194 165 218 133T296 101Q354 101 388 137T423 236V506H548V0H423V81Q396 36 349 12T244 -11Q159 -11 114 39T69 185ZM163 739H282L400 576H295Z" horiz-adv-x="621" unicode="ù"/>
			<glyph d="M69 506H194V233Q194 165 218 133T296 101Q354 101 388 137T423 236V506H548V0H423V81Q396 36 349 12T244 -11Q159 -11 114 39T69 185ZM351 739H470L339 576H234Z" horiz-adv-x="621" unicode="ú"/>
			<glyph d="M69 506H194V233Q194 165 218 133T296 101Q354 101 388 137T423 236V506H548V0H423V81Q396 36 349 12T244 -11Q159 -11 114 39T69 185ZM252 739H373L502 576H397L312 670L228 576H123Z" horiz-adv-x="621" unicode="û"/>
			<glyph d="M69 506H194V233Q194 165 218 133T296 101Q354 101 388 137T423 236V506H548V0H423V81Q396 36 349 12T244 -11Q159 -11 114 39T69 185ZM202 736Q230 736 249 717T269 670Q269 642 249 622T202 603Q174 603 154 622T135 670Q135 698 154 717T202 736ZM421 736Q449 736 468 717T488 670Q488 642 468 622T421 603Q393 603 373 622T354 670Q354 698 373 717T421 736Z" horiz-adv-x="621" unicode="ü"/>
			<glyph d="M2 506H139L272 162L392 506H522L301 -63Q272 -139 226 -175T107 -212Q59 -212 23 -198L38 -91Q60 -99 84 -99Q120 -99 145 -82T188 -26L207 20ZM305 739H424L293 576H188Z" horiz-adv-x="524" unicode="ý"/>
			<glyph d="M73 752H198V431Q224 472 268 494T368 516Q438 516 493 482T579 388T611 253Q611 178 579 118T492 24T365 -10Q312 -10 267 12T198 77V-210H73ZM341 402Q300 402 266 383T213 331T194 253Q194 210 213 176T266 123T340 104Q403 104 442 145T482 253Q482 319 443 360T341 402Z" horiz-adv-x="651" unicode="þ"/>
			<glyph d="M2 506H139L272 162L392 506H522L301 -63Q272 -139 226 -175T107 -212Q59 -212 23 -198L38 -91Q60 -99 84 -99Q120 -99 145 -82T188 -26L207 20ZM156 736Q184 736 203 717T223 670Q223 642 203 622T156 603Q128 603 108 622T89 670Q89 698 108 717T156 736ZM375 736Q403 736 422 717T442 670Q442 642 422 622T375 603Q347 603 327 622T308 670Q308 698 327 717T375 736Z" horiz-adv-x="524" unicode="ÿ"/>
			<glyph d="M278 710H424L688 0H545L475 200H221L151 0H14ZM348 562L259 307H437ZM176 878H524V799H176Z" horiz-adv-x="702" unicode="Ā"/>
			<glyph d="M291 516Q392 516 449 467T506 319V0H382V70Q357 34 312 11T211 -11Q136 -11 91 29T47 140Q47 199 82 234T191 286T381 305V315Q381 361 353 387T269 413Q189 413 111 360L82 459Q122 484 176 500T291 516ZM381 228Q268 226 222 207T177 147Q177 117 197 99T256 82Q307 82 344 110T381 194ZM119 696H467V613H119Z" horiz-adv-x="575" unicode="ā"/>
			<glyph d="M278 710H424L688 0H545L475 200H221L151 0H14ZM348 562L259 307H437ZM190 909H277Q279 881 298 864T352 848Q384 848 403 864T425 909H512Q510 848 467 810T350 772Q273 772 232 809T190 909Z" horiz-adv-x="702" unicode="Ă"/>
			<glyph d="M291 516Q392 516 449 467T506 319V0H382V70Q357 34 312 11T211 -11Q136 -11 91 29T47 140Q47 199 82 234T191 286T381 305V315Q381 361 353 387T269 413Q189 413 111 360L82 459Q122 484 176 500T291 516ZM381 228Q268 226 222 207T177 147Q177 117 197 99T256 82Q307 82 344 110T381 194ZM133 739H220Q221 696 241 675T294 654Q327 654 346 675T367 739H454Q453 665 412 621T293 578Q216 578 175 621T133 739Z" horiz-adv-x="575" unicode="ă"/>
			<glyph d="M278 710H424L688 0H545L475 200H221L151 0H14ZM348 562L259 307H437ZM596 0H684Q610 -27 610 -84Q610 -108 622 -119T654 -131Q672 -131 693 -123L710 -190Q677 -204 637 -204Q584 -204 553 -177T523 -107Q523 -71 542 -43T596 0Z" horiz-adv-x="702" unicode="Ą"/>
			<glyph d="M291 516Q392 516 449 467T506 319V0H502Q428 -27 428 -84Q428 -108 440 -119T472 -131Q490 -131 511 -123L528 -190Q495 -204 455 -204Q402 -204 371 -177T341 -107Q341 -71 360 -43T414 0H382V70Q357 34 312 11T211 -11Q136 -11 91 29T47 140Q47 199 82 234T191 286T381 305V315Q381 361 353 387T269 413Q189 413 111 360L82 459Q122 484 176 500T291 516ZM381 228Q268 226 222 207T177 147Q177 117 197 99T256 82Q307 82 344 110T381 194Z" horiz-adv-x="575" unicode="ą"/>
			<glyph d="M419 720Q549 720 653 651L609 529Q519 593 424 593Q354 593 300 563T217 479T187 356Q187 288 216 233T299 148T424 117Q481 117 532 136T626 185L664 66Q611 29 550 9T414 -10Q307 -10 223 36T93 165T46 354Q46 461 94 544T227 674T419 720ZM457 921H584L441 769H336Z" horiz-adv-x="689" unicode="Ć"/>
			<glyph d="M306 516Q404 516 477 467L440 361Q382 403 315 403Q251 403 211 361T171 253Q171 186 210 144T314 103Q348 103 384 115T452 147L483 43Q448 19 402 4T303 -10Q227 -10 167 23T73 115T40 251Q40 329 74 389T169 482T306 516ZM337 739H456L325 576H220Z" horiz-adv-x="507" unicode="ć"/>
			<glyph d="M419 720Q549 720 653 651L609 529Q519 593 424 593Q354 593 300 563T217 479T187 356Q187 288 216 233T299 148T424 117Q481 117 532 136T626 185L664 66Q611 29 550 9T414 -10Q307 -10 223 36T93 165T46 354Q46 461 94 544T227 674T419 720ZM352 914H473L602 769H497L412 842L328 769H223Z" horiz-adv-x="689" unicode="Ĉ"/>
			<glyph d="M306 516Q404 516 477 467L440 361Q382 403 315 403Q251 403 211 361T171 253Q171 186 210 144T314 103Q348 103 384 115T452 147L483 43Q448 19 402 4T303 -10Q227 -10 167 23T73 115T40 251Q40 329 74 389T169 482T306 516ZM238 739H359L488 576H383L298 670L214 576H109Z" horiz-adv-x="507" unicode="ĉ"/>
			<glyph d="M419 720Q549 720 653 651L609 529Q519 593 424 593Q354 593 300 563T217 479T187 356Q187 288 216 233T299 148T424 117Q481 117 532 136T626 185L664 66Q611 29 550 9T414 -10Q307 -10 223 36T93 165T46 354Q46 461 94 544T227 674T419 720ZM412 926Q444 926 466 904T488 849Q488 817 466 795T412 773Q379 773 357 795T335 849Q335 882 357 904T412 926Z" horiz-adv-x="689" unicode="Ċ"/>
			<glyph d="M306 516Q404 516 477 467L440 361Q382 403 315 403Q251 403 211 361T171 253Q171 186 210 144T314 103Q348 103 384 115T452 147L483 43Q448 19 402 4T303 -10Q227 -10 167 23T73 115T40 251Q40 329 74 389T169 482T306 516ZM298 744Q330 744 352 722T374 668Q374 636 352 613T298 591Q265 591 243 613T221 668Q221 700 243 722T298 744Z" horiz-adv-x="507" unicode="ċ"/>
			<glyph d="M419 720Q549 720 653 651L609 529Q519 593 424 593Q354 593 300 563T217 479T187 356Q187 288 216 233T299 148T424 117Q481 117 532 136T626 185L664 66Q611 29 550 9T414 -10Q307 -10 223 36T93 165T46 354Q46 461 94 544T227 674T419 720ZM222 914H327L412 841L496 914H601L472 769H351Z" horiz-adv-x="689" unicode="Č"/>
			<glyph d="M306 516Q404 516 477 467L440 361Q382 403 315 403Q251 403 211 361T171 253Q171 186 210 144T314 103Q348 103 384 115T452 147L483 43Q448 19 402 4T303 -10Q227 -10 167 23T73 115T40 251Q40 329 74 389T169 482T306 516ZM112 739H217L298 648L378 739H483L359 576H238Z" horiz-adv-x="507" unicode="č"/>
			<glyph d="M86 710H349Q456 710 537 666T664 543T709 359Q709 253 664 171T537 45T349 0H86ZM221 592V118H330Q440 118 504 182T568 358Q568 467 504 529T331 592ZM176 914H281L366 841L450 914H555L426 769H305Z" horiz-adv-x="755" unicode="Ď"/>
			<glyph d="M453 752H578V-1H453V79Q427 34 384 12T284 -10Q214 -10 158 24T71 118T40 253Q40 328 71 388T158 482T284 516Q340 516 384 494T453 431ZM311 402Q248 402 208 361T169 253Q169 186 208 145T310 104Q374 104 415 146T457 253Q457 318 416 360T311 402ZM709 752H838L760 539H658Z" horiz-adv-x="798" unicode="ď"/>
			<glyph d="M86 710H349Q456 710 537 666T664 543T709 359Q709 253 664 171T537 45T349 0H86V302H8V408H86ZM221 592V408H385V302H221V118H330Q440 118 504 182T568 358Q568 467 504 529T331 592Z" horiz-adv-x="755" unicode="Đ"/>
			<glyph d="M453 752H578V662H639V572H578V-1H453V76Q427 33 384 11T284 -10Q214 -10 158 22T71 113T40 244Q40 317 71 374T158 464T284 497Q340 497 384 475T453 414V572H280V662H453ZM311 388Q248 388 208 348T169 244Q169 180 208 140T310 100Q374 100 415 141T457 244Q457 306 416 347T311 388Z" horiz-adv-x="645" unicode="đ"/>
			<glyph d="M86 710H511V591H221V413H502V298H221V119H519V0H86ZM126 878H474V799H126Z" horiz-adv-x="584" unicode="Ē"/>
			<glyph d="M295 516Q367 516 422 482T507 387T538 245V226H167Q173 163 213 129T321 95Q368 95 410 109T484 148L515 50Q478 23 425 6T308 -10Q229 -10 168 24T73 117T40 252Q40 329 73 389T165 482T295 516ZM295 419Q249 419 215 389T171 311H411Q404 359 372 389T295 419ZM123 696H471V613H123Z" horiz-adv-x="572" unicode="ē"/>
			<glyph d="M86 710H511V591H221V413H502V298H221V119H519V0H86ZM140 909H227Q229 881 248 864T302 848Q334 848 353 864T375 909H462Q460 848 417 810T300 772Q223 772 182 809T140 909Z" horiz-adv-x="584" unicode="Ĕ"/>
			<glyph d="M295 516Q367 516 422 482T507 387T538 245V226H167Q173 163 213 129T321 95Q368 95 410 109T484 148L515 50Q478 23 425 6T308 -10Q229 -10 168 24T73 117T40 252Q40 329 73 389T165 482T295 516ZM295 419Q249 419 215 389T171 311H411Q404 359 372 389T295 419ZM137 739H224Q225 696 245 675T298 654Q331 654 350 675T371 739H458Q457 665 416 621T297 578Q220 578 179 621T137 739Z" horiz-adv-x="572" unicode="ĕ"/>
			<glyph d="M86 710H511V591H221V413H502V298H221V119H519V0H86ZM301 926Q333 926 355 904T377 849Q377 817 355 795T301 773Q268 773 246 795T224 849Q224 882 246 904T301 926Z" horiz-adv-x="584" unicode="Ė"/>
			<glyph d="M295 516Q367 516 422 482T507 387T538 245V226H167Q173 163 213 129T321 95Q368 95 410 109T484 148L515 50Q478 23 425 6T308 -10Q229 -10 168 24T73 117T40 252Q40 329 73 389T165 482T295 516ZM295 419Q249 419 215 389T171 311H411Q404 359 372 389T295 419ZM298 744Q330 744 352 722T374 668Q374 636 352 613T298 591Q265 591 243 613T221 668Q221 700 243 722T298 744Z" horiz-adv-x="572" unicode="ė"/>
			<glyph d="M86 710H511V591H221V413H502V298H221V119H519V0H86ZM410 0H498Q424 -27 424 -84Q424 -108 436 -119T468 -131Q486 -131 507 -123L524 -190Q491 -204 451 -204Q398 -204 367 -177T337 -107Q337 -71 356 -43T410 0Z" horiz-adv-x="584" unicode="Ę"/>
			<glyph d="M295 516Q367 516 422 482T507 387T538 245V226H167Q173 167 213 131T323 95Q368 95 410 109T486 145L515 47Q499 35 467 17Q421 -9 396 -31T372 -86Q372 -108 384 -119T415 -131Q434 -131 455 -123L471 -190Q440 -204 398 -204Q346 -204 315 -177T285 -107Q285 -45 343 -9Q332 -10 311 -10Q230 -10 168 23T73 116T40 252Q40 329 73 389T165 482T295 516ZM295 419Q249 419 215 389T171 311H411Q404 359 372 389T295 419Z" horiz-adv-x="572" unicode="ę"/>
			<glyph d="M86 710H511V591H221V413H502V298H221V119H519V0H86ZM111 914H216L301 841L385 914H490L361 769H240Z" horiz-adv-x="584" unicode="Ě"/>
			<glyph d="M295 516Q367 516 422 482T507 387T538 245V226H167Q173 163 213 129T321 95Q368 95 410 109T484 148L515 50Q478 23 425 6T308 -10Q229 -10 168 24T73 117T40 252Q40 329 73 389T165 482T295 516ZM295 419Q249 419 215 389T171 311H411Q404 359 372 389T295 419ZM112 739H217L298 648L378 739H483L359 576H238Z" horiz-adv-x="572" unicode="ě"/>
			<glyph d="M418 720Q495 720 559 697T683 635L635 513Q584 552 531 572T418 593Q353 593 300 564T217 482T187 353Q187 280 215 227T292 146T405 118Q461 118 504 138T572 192T604 262H405V371H734V-1H611V94Q580 50 521 19T384 -11Q288 -11 211 35T90 164T46 352Q46 461 95 544T229 674T418 720ZM346 914H467L596 769H491L406 842L322 769H217Z" horiz-adv-x="798" unicode="Ĝ"/>
			<glyph d="M282 516Q392 516 453 430V506H578V22Q578 -96 501 -158T301 -220Q228 -220 174 -204T77 -159L110 -44Q190 -108 297 -108Q370 -108 411 -74T453 24V91Q427 48 383 26T282 4Q213 4 158 36T71 125T40 258Q40 331 71 390T158 482T282 516ZM312 408Q248 408 208 366T168 260Q168 195 208 153T312 112Q375 112 415 154T455 261Q455 300 436 334T385 388T312 408ZM256 739H377L506 576H401L316 670L232 576H127Z" horiz-adv-x="648" unicode="ĝ"/>
			<glyph d="M418 720Q495 720 559 697T683 635L635 513Q584 552 531 572T418 593Q353 593 300 564T217 482T187 353Q187 280 215 227T292 146T405 118Q461 118 504 138T572 192T604 262H405V371H734V-1H611V94Q580 50 521 19T384 -11Q288 -11 211 35T90 164T46 352Q46 461 95 544T229 674T418 720ZM245 909H332Q334 881 353 864T407 848Q439 848 458 864T480 909H567Q565 848 522 810T405 772Q328 772 287 809T245 909Z" horiz-adv-x="798" unicode="Ğ"/>
			<glyph d="M282 516Q392 516 453 430V506H578V22Q578 -96 501 -158T301 -220Q228 -220 174 -204T77 -159L110 -44Q190 -108 297 -108Q370 -108 411 -74T453 24V91Q427 48 383 26T282 4Q213 4 158 36T71 125T40 258Q40 331 71 390T158 482T282 516ZM312 408Q248 408 208 366T168 260Q168 195 208 153T312 112Q375 112 415 154T455 261Q455 300 436 334T385 388T312 408ZM155 739H242Q243 696 263 675T316 654Q349 654 368 675T389 739H476Q475 665 434 621T315 578Q238 578 197 621T155 739Z" horiz-adv-x="648" unicode="ğ"/>
			<glyph d="M418 720Q495 720 559 697T683 635L635 513Q584 552 531 572T418 593Q353 593 300 564T217 482T187 353Q187 280 215 227T292 146T405 118Q461 118 504 138T572 192T604 262H405V371H734V-1H611V94Q580 50 521 19T384 -11Q288 -11 211 35T90 164T46 352Q46 461 95 544T229 674T418 720ZM406 926Q438 926 460 904T482 849Q482 817 460 795T406 773Q373 773 351 795T329 849Q329 882 351 904T406 926Z" horiz-adv-x="798" unicode="Ġ"/>
			<glyph d="M282 516Q392 516 453 430V506H578V22Q578 -96 501 -158T301 -220Q228 -220 174 -204T77 -159L110 -44Q190 -108 297 -108Q370 -108 411 -74T453 24V91Q427 48 383 26T282 4Q213 4 158 36T71 125T40 258Q40 331 71 390T158 482T282 516ZM312 408Q248 408 208 366T168 260Q168 195 208 153T312 112Q375 112 415 154T455 261Q455 300 436 334T385 388T312 408ZM316 744Q348 744 370 722T392 668Q392 636 370 613T316 591Q283 591 261 613T239 668Q239 700 261 722T316 744Z" horiz-adv-x="648" unicode="ġ"/>
			<glyph d="M418 720Q495 720 559 697T683 635L635 513Q584 552 531 572T418 593Q353 593 300 564T217 482T187 353Q187 280 215 227T292 146T405 118Q461 118 504 138T572 192T604 262H405V371H734V-1H611V94Q580 50 521 19T384 -11Q288 -11 211 35T90 164T46 352Q46 461 95 544T229 674T418 720ZM340 -49H459L377 -220H275Z" horiz-adv-x="798" unicode="Ģ"/>
			<glyph d="M282 516Q392 516 453 430V506H578V22Q578 -96 501 -158T301 -220Q228 -220 174 -204T77 -159L110 -44Q190 -108 297 -108Q370 -108 411 -74T453 24V91Q427 48 383 26T282 4Q213 4 158 36T71 125T40 258Q40 331 71 390T158 482T282 516ZM312 408Q248 408 208 366T168 260Q168 195 208 153T312 112Q375 112 415 154T455 261Q455 300 436 334T385 388T312 408ZM327 754H429L353 576H234Z" horiz-adv-x="648" unicode="ģ"/>
			<glyph d="M86 710H221V414H542V710H677V0H542V296H221V0H86ZM322 914H443L572 769H467L382 842L298 769H193Z" horiz-adv-x="763" unicode="Ĥ"/>
			<glyph d="M73 752H198V426Q224 470 269 493T374 517Q462 517 507 467T553 322V0H428V274Q428 341 402 373T325 405Q267 405 232 368T198 270V0H73ZM76 936H197L326 791H221L136 864L52 791H-53Z" horiz-adv-x="622" unicode="ĥ"/>
			<glyph d="M86 710H221V619H542V710H677V0H542V296H221V0H86ZM221 513V414H542V513Z" horiz-adv-x="763" unicode="Ħ"/>
			<glyph d="M73 752H198V662H367V569H198V408Q224 452 269 475T374 499Q462 499 507 449T553 304V0H428V256Q428 323 402 355T325 387Q267 387 232 350T198 252V0H73V569H15V662H73Z" horiz-adv-x="622" unicode="ħ"/>
			<glyph d="M86 710H221V0H86ZM74 893Q102 893 162 868Q169 865 188 857T221 850Q235 850 242 860T254 893H327Q321 834 295 801T230 769Q199 769 145 793Q125 801 109 806T85 812Q71 812 63 802T50 769H-23Q-17 831 9 862T74 893Z" horiz-adv-x="307" unicode="Ĩ"/>
			<glyph d="M73 506H198V0H73ZM69 721Q88 721 103 715T142 697Q160 687 170 682T190 678Q216 678 222 721H293Q283 597 202 597Q187 597 172 602T132 621Q116 629 103 634T82 640Q69 640 62 630T51 597H-21Q-16 660 5 690T69 721Z" horiz-adv-x="271" unicode="ĩ"/>
			<glyph d="M86 710H221V0H86ZM-22 878H326V799H-22Z" horiz-adv-x="307" unicode="Ī"/>
			<glyph d="M73 506H198V0H73ZM-8 696H280V613H-8Z" horiz-adv-x="271" unicode="ī"/>
			<glyph d="M86 710H221V0H86ZM-8 909H79Q81 881 100 864T154 848Q186 848 205 864T227 909H314Q312 848 269 810T152 772Q75 772 34 809T-8 909Z" horiz-adv-x="307" unicode="Ĭ"/>
			<glyph d="M73 506H198V0H73ZM-13 739H74Q77 654 138 654Q198 654 201 739H288Q287 664 249 621T137 578Q64 578 26 621T-13 739Z" horiz-adv-x="271" unicode="ĭ"/>
			<glyph d="M86 710H221V0H86ZM129 0H217Q143 -27 143 -84Q143 -108 155 -119T187 -131Q205 -131 226 -123L243 -190Q210 -204 170 -204Q117 -204 86 -177T56 -107Q56 -71 75 -43T129 0Z" horiz-adv-x="307" unicode="Į"/>
			<glyph d="M73 506H198V0H73ZM138 744Q170 744 192 722T214 668Q214 636 192 613T138 591Q105 591 83 613T61 668Q61 700 83 722T138 744ZM106 0H194Q120 -27 120 -84Q120 -108 132 -119T164 -131Q182 -131 203 -123L220 -190Q187 -204 147 -204Q94 -204 63 -177T33 -107Q33 -71 52 -43T106 0Z" horiz-adv-x="271" unicode="į"/>
			<glyph d="M86 710H221V0H86ZM153 926Q185 926 207 904T229 849Q229 817 207 795T153 773Q120 773 98 795T76 849Q76 882 98 904T153 926Z" horiz-adv-x="307" unicode="İ"/>
			<glyph d="M73 506H198V0H73Z" horiz-adv-x="271" unicode="ı"/>
			<glyph d="M86 710H221V0H86ZM525 710H661V249Q661 125 601 57T434 -10Q368 -10 309 12L331 129Q372 111 413 111Q466 111 495 149T525 265Z" horiz-adv-x="735" unicode="Ĳ"/>
			<glyph d="M73 506H198V0H73ZM138 744Q170 744 192 722T214 668Q214 636 192 613T138 591Q105 591 83 613T61 668Q61 700 83 722T138 744ZM344 506H469V-37Q469 -130 432 -173T323 -217Q270 -217 236 -205L253 -98Q274 -104 291 -104Q319 -104 331 -87T344 -27ZM408 744Q440 744 462 722T484 668Q484 636 462 613T408 591Q375 591 353 613T331 668Q331 700 353 722T408 744Z" horiz-adv-x="543" unicode="ĳ"/>
			<glyph d="M218 710H354V249Q354 125 294 57T127 -10Q61 -10 2 12L24 129Q65 111 106 111Q159 111 188 149T218 265ZM227 914H348L477 769H372L287 842L203 769H98Z" horiz-adv-x="428" unicode="Ĵ"/>
			<glyph d="M73 506H198V-37Q198 -130 161 -173T52 -217Q-1 -217 -35 -205L-18 -98Q3 -104 20 -104Q48 -104 60 -87T73 -27ZM76 739H197L306 576H201L136 667L72 576H-33Z" horiz-adv-x="272" unicode="ĵ"/>
			<glyph d="M86 710H221V363L490 710H648L378 371L674 0H505L221 361V0H86ZM292 -49H411L329 -220H227Z" horiz-adv-x="677" unicode="Ķ"/>
			<glyph d="M73 752H198V268L396 506H549L344 267L557 0H400L198 260V0H73ZM233 -49H352L270 -220H168Z" horiz-adv-x="562" unicode="ķ"/>
			<glyph d="M73 506H198V268L396 506H549L344 267L557 0H400L198 260V0H73Z" horiz-adv-x="562" unicode="ĸ"/>
			<glyph d="M86 710H221V121H507V0H86ZM212 921H339L196 769H91Z" horiz-adv-x="527" unicode="Ĺ"/>
			<glyph d="M72 752H197V159Q197 100 244 100Q261 100 291 110L305 11Q261 -10 209 -10Q143 -10 107 26T72 139ZM198 943H325L182 791H77Z" horiz-adv-x="317" unicode="ĺ"/>
			<glyph d="M86 710H221V121H507V0H86ZM247 -49H366L284 -220H182Z" horiz-adv-x="527" unicode="Ļ"/>
			<glyph d="M72 752H197V159Q197 100 244 100Q261 100 291 110L305 11Q261 -10 209 -10Q143 -10 107 26T72 139ZM125 -49H244L162 -220H60Z" horiz-adv-x="317" unicode="ļ"/>
			<glyph d="M86 710H221V121H507V0H86ZM383 710H512L434 497H332Z" horiz-adv-x="527" unicode="Ľ"/>
			<glyph d="M72 752H197V159Q197 100 244 100Q261 100 291 110L305 11Q261 -10 209 -10Q143 -10 107 26T72 139ZM327 752H456L378 539H276Z" horiz-adv-x="416" unicode="ľ"/>
			<glyph d="M86 710H221V121H507V0H86ZM419 479Q451 479 473 457T495 403Q495 371 473 348T419 326Q386 326 364 348T342 403Q342 435 364 457T419 479Z" horiz-adv-x="527" unicode="Ŀ"/>
			<glyph d="M72 752H197V159Q197 100 244 100Q261 100 291 110L305 11Q261 -10 209 -10Q143 -10 107 26T72 139ZM321 482Q353 482 375 460T397 406Q397 374 375 351T321 329Q288 329 266 351T244 406Q244 438 266 460T321 482Z" horiz-adv-x="371" unicode="ŀ"/>
			<glyph d="M86 710H221V433L359 513V396L221 317V121H507V0H86V239L25 204V320L86 355Z" horiz-adv-x="527" unicode="Ł"/>
			<glyph d="M79 752H204V484L293 536V428L204 376V159Q204 100 251 100Q268 100 298 110L312 11Q268 -10 216 -10Q150 -10 114 26T79 139V302L20 267V375L79 410Z" horiz-adv-x="329" unicode="ł"/>
			<glyph d="M86 710H216L566 208V710H695V0H566L215 503V0H86ZM440 921H567L424 769H319Z" horiz-adv-x="781" unicode="Ń"/>
			<glyph d="M374 517Q462 517 507 466T553 321V0H428V273Q428 340 403 372T324 404Q266 404 232 368T198 270V0H73V506H198V423Q225 468 271 492T374 517ZM363 739H482L351 576H246Z" horiz-adv-x="622" unicode="ń"/>
			<glyph d="M86 710H216L566 208V710H695V0H566L215 503V0H86ZM332 -49H451L369 -220H267Z" horiz-adv-x="781" unicode="Ņ"/>
			<glyph d="M374 517Q462 517 507 466T553 321V0H428V273Q428 340 403 372T324 404Q266 404 232 368T198 270V0H73V506H198V423Q225 468 271 492T374 517ZM259 -49H378L296 -220H194Z" horiz-adv-x="622" unicode="ņ"/>
			<glyph d="M86 710H216L566 208V710H695V0H566L215 503V0H86ZM205 914H310L395 841L479 914H584L455 769H334Z" horiz-adv-x="781" unicode="Ň"/>
			<glyph d="M374 517Q462 517 507 466T553 321V0H428V273Q428 340 403 372T324 404Q266 404 232 368T198 270V0H73V506H198V423Q225 468 271 492T374 517ZM138 739H243L324 648L404 739H509L385 576H264Z" horiz-adv-x="622" unicode="ň"/>
			<glyph d="M19 710H149L64 490H-40ZM441 517Q529 517 574 466T620 321V0H495V273Q495 340 470 372T391 404Q333 404 299 368T265 270V0H140V506H265V423Q292 468 338 492T441 517Z" horiz-adv-x="689" unicode="ŉ"/>
			<glyph d="M86 710H216L566 237V710H695V28Q695 -89 635 -155T471 -222Q406 -222 350 -201L372 -93Q411 -110 448 -110Q506 -110 536 -79T566 12V32L215 507V0H86Z" horiz-adv-x="781" unicode="Ŋ"/>
			<glyph d="M376 517Q462 517 507 466T553 321V-37Q553 -131 517 -174T405 -217Q383 -217 359 -213T320 -205L337 -98Q357 -104 375 -104Q403 -104 415 -87T428 -27V273Q428 340 403 372T324 404Q266 404 232 368T198 270V0H73V506H198V423Q224 468 270 492T376 517Z" horiz-adv-x="622" unicode="ŋ"/>
			<glyph d="M418 720Q524 720 609 674T742 545T791 357Q791 251 742 167T609 36T417 -10Q312 -10 227 36T94 165T46 355Q46 462 94 545T227 674T418 720ZM418 592Q351 592 298 561T216 477T187 355Q187 287 216 233T298 148T418 118Q485 118 538 148T620 233T650 355Q650 423 620 477T538 561T418 592ZM242 878H590V799H242Z" horiz-adv-x="837" unicode="Ō"/>
			<glyph d="M315 516Q395 516 457 482T554 388T589 253Q589 178 554 118T457 24T315 -10Q235 -10 172 24T75 118T40 253Q40 328 75 388T172 482T315 516ZM315 401Q250 401 209 360T169 253Q169 187 209 146T315 105Q380 105 420 146T460 254Q460 319 419 360T315 401ZM140 696H488V613H140Z" unicode="ō"/>
			<glyph d="M418 720Q524 720 609 674T742 545T791 357Q791 251 742 167T609 36T417 -10Q312 -10 227 36T94 165T46 355Q46 462 94 545T227 674T418 720ZM418 592Q351 592 298 561T216 477T187 355Q187 287 216 233T298 148T418 118Q485 118 538 148T620 233T650 355Q650 423 620 477T538 561T418 592ZM256 909H343Q345 881 364 864T418 848Q450 848 469 864T491 909H578Q576 848 533 810T416 772Q339 772 298 809T256 909Z" horiz-adv-x="837" unicode="Ŏ"/>
			<glyph d="M315 516Q395 516 457 482T554 388T589 253Q589 178 554 118T457 24T315 -10Q235 -10 172 24T75 118T40 253Q40 328 75 388T172 482T315 516ZM315 401Q250 401 209 360T169 253Q169 187 209 146T315 105Q380 105 420 146T460 254Q460 319 419 360T315 401ZM154 739H241Q242 696 262 675T315 654Q348 654 367 675T388 739H475Q474 665 433 621T314 578Q237 578 196 621T154 739Z" unicode="ŏ"/>
			<glyph d="M418 720Q524 720 609 674T742 545T791 357Q791 251 742 167T609 36T417 -10Q312 -10 227 36T94 165T46 355Q46 462 94 545T227 674T418 720ZM418 592Q351 592 298 561T216 477T187 355Q187 287 216 233T298 148T418 118Q485 118 538 148T620 233T650 355Q650 423 620 477T538 561T418 592ZM392 921H511L372 769H267ZM575 921H693L555 769H450Z" horiz-adv-x="837" unicode="Ő"/>
			<glyph d="M315 516Q395 516 457 482T554 388T589 253Q589 178 554 118T457 24T315 -10Q235 -10 172 24T75 118T40 253Q40 328 75 388T172 482T315 516ZM315 401Q250 401 209 360T169 253Q169 187 209 146T315 105Q380 105 420 146T460 254Q460 319 419 360T315 401ZM274 739H392L257 576H152ZM457 739H575L440 576H335Z" unicode="ő"/>
			<glyph d="M412 720Q551 720 650 634V710H1075V591H785V413H1066V298H785V119H1083V0H650V79Q603 37 542 13T409 -10Q309 -10 226 35T94 164T46 354Q46 462 95 545T227 674T412 720ZM419 590Q353 590 300 560T218 477T188 354Q188 286 217 232T299 149T417 120Q483 120 536 150T619 234T649 356Q649 423 620 476T538 560T419 590Z" horiz-adv-x="1148" unicode="Œ"/>
			<glyph d="M315 516Q379 516 432 493T523 431Q558 471 608 493T716 516Q788 516 843 482T928 387T959 245V226H588Q594 163 634 129T742 95Q789 95 831 109T905 148L936 50Q899 23 846 6T729 -10Q665 -10 612 12T524 76Q487 35 433 12T315 -10Q235 -10 172 24T75 118T40 253Q40 328 75 388T172 482T315 516ZM716 419Q670 419 636 389T592 311H832Q825 359 793 389T716 419ZM315 401Q250 401 209 360T169 253Q169 187 209 146T315 105Q380 105 420 146T460 254Q460 319 419 360T315 401Z" horiz-adv-x="993" unicode="œ"/>
			<glyph d="M86 710H334Q408 710 461 683T542 609T570 502Q570 436 535 382T437 301L633 0H474L307 277H221V0H86ZM221 598V384H313Q363 384 396 411T429 493Q429 546 397 572T314 598ZM363 921H490L347 769H242Z" horiz-adv-x="649" unicode="Ŕ"/>
			<glyph d="M321 517Q353 517 386 505L366 385Q336 395 313 395Q197 395 197 239V0H73V506H197V425Q237 517 321 517ZM266 739H385L254 576H149Z" horiz-adv-x="389" unicode="ŕ"/>
			<glyph d="M86 710H334Q408 710 461 683T542 609T570 502Q570 436 535 382T437 301L633 0H474L307 277H221V0H86ZM221 598V384H313Q363 384 396 411T429 493Q429 546 397 572T314 598ZM283 -49H402L320 -220H218Z" horiz-adv-x="649" unicode="Ŗ"/>
			<glyph d="M321 517Q353 517 386 505L366 385Q336 395 313 395Q197 395 197 239V0H73V506H197V425Q237 517 321 517ZM70 -49H189L107 -220H5Z" horiz-adv-x="389" unicode="ŗ"/>
			<glyph d="M86 710H334Q408 710 461 683T542 609T570 502Q570 436 535 382T437 301L633 0H474L307 277H221V0H86ZM221 598V384H313Q363 384 396 411T429 493Q429 546 397 572T314 598ZM128 914H233L318 841L402 914H507L378 769H257Z" horiz-adv-x="649" unicode="Ř"/>
			<glyph d="M321 517Q353 517 386 505L366 385Q336 395 313 395Q197 395 197 239V0H73V506H197V425Q237 517 321 517ZM58 740H163L228 649L292 740H397L288 577H167Z" horiz-adv-x="389" unicode="ř"/>
			<glyph d="M310 720Q366 720 422 706T516 671L478 555Q442 575 396 588T310 601Q261 601 231 580T202 524Q202 497 218 478T263 447T343 415Q411 390 450 368T514 308T538 211Q538 107 469 48T285 -10Q220 -10 158 8T49 60L84 185Q128 152 183 131T292 110Q345 110 373 132T401 195Q401 222 386 239T345 268T262 302Q197 326 155 352T89 416T65 511Q65 608 132 664T310 720ZM346 921H473L330 769H225Z" horiz-adv-x="589" unicode="Ś"/>
			<glyph d="M256 517Q301 517 344 505T421 474L398 378Q367 397 328 410T254 423Q222 423 202 410T182 375Q182 351 205 338T276 312Q359 291 399 256T440 158Q440 81 386 35T236 -10Q183 -10 131 4T46 42L76 142Q109 116 154 100T242 84Q277 84 297 97T318 136Q318 161 295 174T209 207Q160 223 129 239T79 284T60 356Q60 431 113 474T256 517ZM290 739H409L278 576H173Z" horiz-adv-x="486" unicode="ś"/>
			<glyph d="M310 720Q366 720 422 706T516 671L478 555Q442 575 396 588T310 601Q261 601 231 580T202 524Q202 497 218 478T263 447T343 415Q411 390 450 368T514 308T538 211Q538 107 469 48T285 -10Q220 -10 158 8T49 60L84 185Q128 152 183 131T292 110Q345 110 373 132T401 195Q401 222 386 239T345 268T262 302Q197 326 155 352T89 416T65 511Q65 608 132 664T310 720ZM241 914H362L491 769H386L301 842L217 769H112Z" horiz-adv-x="589" unicode="Ŝ"/>
			<glyph d="M256 517Q301 517 344 505T421 474L398 378Q367 397 328 410T254 423Q222 423 202 410T182 375Q182 351 205 338T276 312Q359 291 399 256T440 158Q440 81 386 35T236 -10Q183 -10 131 4T46 42L76 142Q109 116 154 100T242 84Q277 84 297 97T318 136Q318 161 295 174T209 207Q160 223 129 239T79 284T60 356Q60 431 113 474T256 517ZM191 739H312L441 576H336L251 670L167 576H62Z" horiz-adv-x="486" unicode="ŝ"/>
			<glyph d="M310 720Q366 720 422 706T516 671L478 555Q442 575 396 588T310 601Q261 601 231 580T202 524Q202 497 218 478T263 447T343 415Q411 390 450 368T514 308T538 211Q538 112 477 54T310 -9V-36Q376 -57 376 -120Q376 -170 336 -197T214 -224V-155Q256 -155 273 -146T290 -118Q290 -84 244 -84V-8Q189 -3 139 14T49 60L84 185Q128 152 183 131T292 110Q345 110 373 132T401 195Q401 222 386 239T345 268T262 302Q197 326 155 352T89 416T65 511Q65 608 132 664T310 720Z" horiz-adv-x="589" unicode="Ş"/>
			<glyph d="M256 517Q301 517 344 505T421 474L398 378Q367 397 328 410T254 423Q222 423 202 410T182 375Q182 351 205 338T276 312Q359 291 399 256T440 158Q440 88 394 43T265 -9V-36Q331 -57 331 -120Q331 -170 291 -197T169 -224V-155Q211 -155 228 -146T245 -118Q245 -84 199 -84V-8Q155 -4 114 9T46 42L76 142Q109 116 154 100T242 84Q277 84 297 97T318 136Q318 161 295 174T209 207Q160 223 129 239T79 284T60 356Q60 431 113 474T256 517Z" horiz-adv-x="486" unicode="ş"/>
			<glyph d="M310 720Q366 720 422 706T516 671L478 555Q442 575 396 588T310 601Q261 601 231 580T202 524Q202 497 218 478T263 447T343 415Q411 390 450 368T514 308T538 211Q538 107 469 48T285 -10Q220 -10 158 8T49 60L84 185Q128 152 183 131T292 110Q345 110 373 132T401 195Q401 222 386 239T345 268T262 302Q197 326 155 352T89 416T65 511Q65 608 132 664T310 720ZM111 914H216L301 841L385 914H490L361 769H240Z" horiz-adv-x="589" unicode="Š"/>
			<glyph d="M256 517Q301 517 344 505T421 474L398 378Q367 397 328 410T254 423Q222 423 202 410T182 375Q182 351 205 338T276 312Q359 291 399 256T440 158Q440 81 386 35T236 -10Q183 -10 131 4T46 42L76 142Q109 116 154 100T242 84Q277 84 297 97T318 136Q318 161 295 174T209 207Q160 223 129 239T79 284T60 356Q60 431 113 474T256 517ZM65 739H170L251 648L331 739H436L312 576H191Z" horiz-adv-x="486" unicode="š"/>
			<glyph d="M20 710H530V592H344V0H208V592H20ZM239 0H305V-36Q371 -57 371 -120Q371 -170 331 -197T209 -224V-155Q251 -155 268 -146T285 -118Q285 -84 239 -84Z" horiz-adv-x="549" unicode="Ţ"/>
			<glyph d="M227 664V506H364V401H227V173Q227 103 287 103Q327 103 374 130L394 29Q369 13 335 2T263 -10V-36Q329 -57 329 -120Q329 -170 289 -197T167 -224V-155Q209 -155 226 -146T243 -118Q243 -84 197 -84V-2Q151 13 126 53T102 156V401H24V506H102V648Z" horiz-adv-x="400" unicode="ţ"/>
			<glyph d="M20 710H530V592H344V0H208V592H20ZM85 914H190L275 841L359 914H464L335 769H214Z" horiz-adv-x="549" unicode="Ť"/>
			<glyph d="M227 664V506H364V401H227V173Q227 103 287 103Q327 103 374 130L394 29Q369 12 333 1T257 -10Q183 -10 142 31T102 156V401H24V506H102V648ZM373 778H502L424 565H322Z" horiz-adv-x="427" unicode="ť"/>
			<glyph d="M20 710H530V592H344V424H494V305H344V0H208V305H62V424H208V592H20Z" horiz-adv-x="549" unicode="Ŧ"/>
			<glyph d="M227 664V506H364V401H227V320H364V233H227V173Q227 103 287 103Q327 103 374 130L394 29Q369 12 333 1T257 -10Q183 -10 142 31T102 156V233H24V320H102V401H24V506H102V648Z" horiz-adv-x="400" unicode="ŧ"/>
			<glyph d="M80 710H216V281Q216 201 257 159T370 118Q441 118 482 159T524 281V710H658V264Q658 180 623 118T522 23T369 -10Q281 -10 215 23T115 118T80 264ZM291 893Q319 893 379 868Q386 865 405 857T438 850Q452 850 459 860T471 893H544Q538 834 512 801T447 769Q416 769 362 793Q342 801 326 806T302 812Q288 812 280 802T267 769H194Q200 831 226 862T291 893Z" horiz-adv-x="738" unicode="Ũ"/>
			<glyph d="M69 506H194V233Q194 165 218 133T296 101Q354 101 388 137T423 236V506H548V0H423V81Q396 36 349 12T244 -11Q159 -11 114 39T69 185ZM234 721Q266 721 321 697Q339 689 353 683T377 678Q407 678 413 721H486Q480 660 452 628T387 597Q369 597 350 603T304 621Q285 629 269 634T245 640Q232 640 223 630T209 597H136Q142 660 169 690T234 721Z" horiz-adv-x="621" unicode="ũ"/>
			<glyph d="M80 710H216V281Q216 201 257 159T370 118Q441 118 482 159T524 281V710H658V264Q658 180 623 118T522 23T369 -10Q281 -10 215 23T115 118T80 264ZM195 878H543V799H195Z" horiz-adv-x="738" unicode="Ū"/>
			<glyph d="M69 506H194V233Q194 165 218 133T296 101Q354 101 388 137T423 236V506H548V0H423V81Q396 36 349 12T244 -11Q159 -11 114 39T69 185ZM137 696H485V613H137Z" horiz-adv-x="621" unicode="ū"/>
			<glyph d="M80 710H216V281Q216 201 257 159T370 118Q441 118 482 159T524 281V710H658V264Q658 180 623 118T522 23T369 -10Q281 -10 215 23T115 118T80 264ZM209 909H296Q298 881 317 864T371 848Q403 848 422 864T444 909H531Q529 848 486 810T369 772Q292 772 251 809T209 909Z" horiz-adv-x="738" unicode="Ŭ"/>
			<glyph d="M69 506H194V233Q194 165 218 133T296 101Q354 101 388 137T423 236V506H548V0H423V81Q396 36 349 12T244 -11Q159 -11 114 39T69 185ZM151 739H238Q239 696 259 675T312 654Q345 654 364 675T385 739H472Q471 665 430 621T311 578Q234 578 193 621T151 739Z" horiz-adv-x="621" unicode="ŭ"/>
			<glyph d="M80 710H216V281Q216 201 257 159T370 118Q441 118 482 159T524 281V710H658V264Q658 180 623 118T522 23T369 -10Q281 -10 215 23T115 118T80 264ZM370 954Q416 954 448 922T480 847Q480 801 448 770T369 739Q322 739 290 770T259 847Q259 892 291 923T370 954ZM370 887Q352 887 340 875T329 847Q329 830 340 818T370 806Q388 806 399 818T411 847Q411 864 399 875T370 887Z" horiz-adv-x="738" unicode="Ů"/>
			<glyph d="M69 506H194V233Q194 165 218 133T296 101Q354 101 388 137T423 236V506H548V0H423V81Q396 36 349 12T244 -11Q159 -11 114 39T69 185ZM314 779Q361 779 392 748T424 671Q424 624 392 593T313 563Q265 563 234 594T203 671Q203 717 235 748T314 779ZM314 711Q295 711 284 700T273 671Q273 653 284 641T314 630Q333 630 344 641T355 671Q355 689 344 700T314 711Z" horiz-adv-x="621" unicode="ů"/>
			<glyph d="M80 710H216V281Q216 201 257 159T370 118Q441 118 482 159T524 281V710H658V264Q658 180 623 118T522 23T369 -10Q281 -10 215 23T115 118T80 264ZM345 921H464L325 769H220ZM528 921H646L508 769H403Z" horiz-adv-x="738" unicode="Ű"/>
			<glyph d="M69 506H194V233Q194 165 218 133T296 101Q354 101 388 137T423 236V506H548V0H423V81Q396 36 349 12T244 -11Q159 -11 114 39T69 185ZM271 739H389L254 576H149ZM454 739H572L437 576H332Z" horiz-adv-x="621" unicode="ű"/>
			<glyph d="M80 710H216V279Q216 204 258 161T370 118Q439 118 481 161T524 279V710H658V269Q658 185 626 132T545 41Q504 9 482 -17T461 -82Q461 -131 505 -131Q523 -131 544 -123L560 -190Q527 -204 487 -204Q434 -204 404 -177T374 -105Q374 -75 386 -49T419 -7Q394 -10 367 -10Q281 -10 216 26T115 126T80 269Z" horiz-adv-x="738" unicode="Ų"/>
			<glyph d="M69 506H194V233Q194 165 218 133T296 101Q354 101 388 137T423 236V506H548V0H547Q473 -27 473 -84Q473 -108 485 -119T517 -131Q535 -131 556 -123L573 -190Q540 -204 500 -204Q447 -204 416 -177T386 -107Q386 -71 405 -43T459 0H423V81Q396 36 349 12T244 -11Q159 -11 114 39T69 185Z" horiz-adv-x="621" unicode="ų"/>
			<glyph d="M10 710H157L300 182L452 710H587L738 186L880 710H1014L806 0H665L513 519L358 0H218ZM459 914H580L709 769H604L519 842L435 769H330Z" horiz-adv-x="1025" unicode="Ŵ"/>
			<glyph d="M12 506H149L255 153L363 506H467L578 156L680 506H809L648 0H520L413 332L309 0H181ZM354 739H475L604 576H499L414 670L330 576H225Z" horiz-adv-x="821" unicode="ŵ"/>
			<glyph d="M-5 710H144L309 404L475 710H609L368 276V0H235V278ZM241 914H362L491 769H386L301 842L217 769H112Z" horiz-adv-x="604" unicode="Ŷ"/>
			<glyph d="M2 506H139L272 162L392 506H522L301 -63Q272 -139 226 -175T107 -212Q59 -212 23 -198L38 -91Q60 -99 84 -99Q120 -99 145 -82T188 -26L207 20ZM206 739H327L456 576H351L266 670L182 576H77Z" horiz-adv-x="524" unicode="ŷ"/>
			<glyph d="M-5 710H144L309 404L475 710H609L368 276V0H235V278ZM193 916Q221 916 240 897T260 850Q260 822 240 802T193 783Q165 783 145 802T126 850Q126 878 145 897T193 916ZM412 916Q440 916 459 897T479 850Q479 822 459 802T412 783Q384 783 364 802T345 850Q345 878 364 897T412 916Z" horiz-adv-x="604" unicode="Ÿ"/>
			<glyph d="M63 710H559V636L230 118H563V0H46V74L376 592H63ZM351 921H478L335 769H230Z" horiz-adv-x="609" unicode="Ź"/>
			<glyph d="M48 506H460V453L223 105H464V0H33V52L278 401H48ZM291 739H410L279 576H174Z" horiz-adv-x="499" unicode="ź"/>
			<glyph d="M63 710H559V636L230 118H563V0H46V74L376 592H63ZM306 926Q338 926 360 904T382 849Q382 817 360 795T306 773Q273 773 251 795T229 849Q229 882 251 904T306 926Z" horiz-adv-x="609" unicode="Ż"/>
			<glyph d="M48 506H460V453L223 105H464V0H33V52L278 401H48ZM252 744Q284 744 306 722T328 668Q328 636 306 613T252 591Q219 591 197 613T175 668Q175 700 197 722T252 744Z" horiz-adv-x="499" unicode="ż"/>
			<glyph d="M63 710H559V636L230 118H563V0H46V74L376 592H63ZM116 914H221L306 841L390 914H495L366 769H245Z" horiz-adv-x="609" unicode="Ž"/>
			<glyph d="M48 506H460V453L223 105H464V0H33V52L278 401H48ZM66 739H171L252 648L332 739H437L313 576H192Z" horiz-adv-x="499" unicode="ž"/>
			<glyph d="M333 720Q440 720 523 674T654 545T701 356Q701 247 657 163T535 34T362 -11Q206 -11 121 84T36 357V386H558Q546 479 482 536T323 593Q266 593 215 574T122 525L83 644Q191 720 333 720ZM186 277Q192 202 239 157T363 113Q433 113 484 156T553 277Z" horiz-adv-x="747" unicode="Ə"/>
			<glyph d="M473 759Q504 759 532 751T583 732L543 629Q507 647 477 647Q448 647 429 626T405 568L394 506H513L494 401H375L304 -3Q287 -100 236 -145T112 -190Q50 -190 0 -165L42 -60Q74 -78 107 -78Q137 -78 155 -56T182 10L250 401H166L184 506H269L281 572Q297 668 348 713T473 759Z" horiz-adv-x="591" unicode="ƒ"/>
			<glyph d="M778 861Q801 814 801 762Q801 709 773 671T684 619Q736 571 763 503T791 357Q791 251 742 167T609 36T417 -10Q312 -10 227 36T94 165T46 356Q46 463 94 545T228 674T423 720Q488 720 553 699Q593 685 618 685Q657 685 680 708T703 767Q703 804 684 836ZM418 592Q351 592 298 561T216 477T187 355Q187 287 216 233T298 148T418 118Q485 118 538 148T620 233T650 355Q650 423 620 477T538 561T418 592Z" horiz-adv-x="837" unicode="Ơ"/>
			<glyph d="M595 654Q618 607 618 555Q618 450 532 422Q559 389 574 345T589 253Q589 178 554 118T457 24T315 -10Q235 -10 172 24T75 118T40 253Q40 328 75 388T172 482T315 516Q346 516 400 504Q432 496 455 496Q488 496 504 511T520 560Q520 595 502 628ZM315 401Q250 401 209 360T169 253Q169 187 209 146T315 105Q380 105 420 146T460 254Q460 319 419 360T315 401Z" unicode="ơ"/>
			<glyph d="M735 861Q758 815 758 763Q758 721 733 689T658 643V264Q658 180 623 118T522 23T369 -10Q281 -10 215 23T115 118T80 264V710H216V281Q216 201 257 159T370 118Q441 118 482 159T524 281V710H564Q613 710 636 722T660 769Q660 803 642 836Z" horiz-adv-x="738" unicode="Ư"/>
			<glyph d="M615 657Q638 611 638 559Q638 519 616 488T548 442V0H423V81Q396 36 349 12T244 -11Q159 -11 114 39T69 185V506H194V233Q194 165 218 133T296 101Q354 101 388 137T423 236V506H444Q493 506 516 518T540 565Q540 599 522 632Z" horiz-adv-x="621" unicode="ư"/>
			<glyph d="M397 1035H524L381 883H276ZM351 866Q397 866 429 834T461 759Q461 717 433 686L688 0H545L475 200H221L151 0H14L269 685Q240 717 240 759Q240 804 272 835T351 866ZM351 799Q333 799 321 787T310 759Q310 742 321 730T351 718Q369 718 380 730T392 759Q392 776 380 787T351 799ZM348 562L259 307H437Z" horiz-adv-x="702" unicode="Ǻ"/>
			<glyph d="M291 516Q392 516 449 467T506 319V0H382V70Q357 34 312 11T211 -11Q136 -11 91 29T47 140Q47 199 82 234T191 286T381 305V315Q381 361 353 387T269 413Q189 413 111 360L82 459Q122 484 176 500T291 516ZM381 228Q268 226 222 207T177 147Q177 117 197 99T256 82Q307 82 344 110T381 194ZM296 779Q343 779 374 748T406 671Q406 624 374 593T295 563Q247 563 216 594T185 671Q185 717 217 748T296 779ZM296 711Q277 711 266 700T255 671Q255 653 266 641T296 630Q315 630 326 641T337 671Q337 689 326 700T296 711ZM333 1012H452L321 849H216Z" horiz-adv-x="575" unicode="ǻ"/>
			<glyph d="M278 710H855V591H565V413H846V298H565V119H863V0H430V200H223L151 0H14ZM364 591L262 307H430V591ZM519 921H646L503 769H398Z" horiz-adv-x="928" unicode="Ǽ"/>
			<glyph d="M296 516Q409 516 465 451Q499 482 543 499T638 516Q710 516 765 482T850 387T881 245V226H510Q516 163 556 129T664 95Q711 95 753 109T827 148L858 50Q821 23 768 6T651 -10Q581 -10 525 16T434 91Q356 -11 219 -11Q141 -11 94 28T47 142Q47 227 126 265T381 305V315Q381 361 353 387T269 413Q189 413 111 360L82 459Q172 516 296 516ZM638 419Q592 419 558 389T514 311H754Q747 359 715 389T638 419ZM381 228Q304 226 259 217T196 192T177 148Q177 116 198 99T257 82Q306 82 343 111T381 198ZM499 739H618L487 576H382Z" horiz-adv-x="915" unicode="ǽ"/>
			<glyph d="M623 761H737L660 641Q722 592 756 518T791 357Q791 251 742 167T609 36T417 -10Q334 -10 262 19L218 -50H104L179 67Q116 117 81 191T46 355Q46 462 94 545T227 674T418 720Q503 720 577 689ZM418 592Q351 592 298 561T216 477T187 355Q187 303 204 259T253 183L505 577Q466 592 418 592ZM586 525L334 132Q374 118 418 118Q485 118 538 148T620 233T650 355Q650 406 633 449T586 525ZM463 921H590L447 769H342Z" horiz-adv-x="837" unicode="Ǿ"/>
			<glyph d="M475 554H570L499 451Q542 415 565 364T589 253Q589 179 553 119T454 24T315 -10Q252 -10 197 13L151 -54H57L131 54Q88 90 64 141T40 253Q40 327 76 387T175 481T315 516Q379 516 433 492ZM315 407Q272 407 237 387T183 333T163 253Q163 194 198 151L368 398Q344 407 315 407ZM432 354L262 108Q288 99 315 99Q358 99 392 119T446 174T466 253Q466 310 432 354ZM354 739H473L342 576H237Z" unicode="ǿ"/>
			<glyph d="M310 720Q366 720 422 706T516 671L478 555Q442 575 396 588T310 601Q261 601 231 580T202 524Q202 497 218 478T263 447T343 415Q411 390 450 368T514 308T538 211Q538 107 469 48T285 -10Q220 -10 158 8T49 60L84 185Q128 152 183 131T292 110Q345 110 373 132T401 195Q401 222 386 239T345 268T262 302Q197 326 155 352T89 416T65 511Q65 608 132 664T310 720ZM215 -49H334L252 -220H150Z" horiz-adv-x="589" unicode="Ș"/>
			<glyph d="M256 517Q301 517 344 505T421 474L398 378Q367 397 328 410T254 423Q222 423 202 410T182 375Q182 351 205 338T276 312Q359 291 399 256T440 158Q440 81 386 35T236 -10Q183 -10 131 4T46 42L76 142Q109 116 154 100T242 84Q277 84 297 97T318 136Q318 161 295 174T209 207Q160 223 129 239T79 284T60 356Q60 431 113 474T256 517ZM170 -49H289L207 -220H105Z" horiz-adv-x="486" unicode="ș"/>
			<glyph d="M20 710H530V592H344V0H208V592H20ZM210 -49H329L247 -220H145Z" horiz-adv-x="549" unicode="Ț"/>
			<glyph d="M227 664V506H364V401H227V173Q227 103 287 103Q327 103 374 130L394 29Q369 12 333 1T257 -10Q183 -10 142 31T102 156V401H24V506H102V648ZM168 -49H287L205 -220H103Z" horiz-adv-x="400" unicode="ț"/>
			<glyph d="M73 506H198V-37Q198 -130 161 -173T52 -217Q-1 -217 -35 -205L-18 -98Q3 -104 20 -104Q48 -104 60 -87T73 -27Z" horiz-adv-x="272" unicode="ȷ"/>
			<glyph d="M264 516Q343 516 404 482T498 388T532 254Q532 177 498 117T407 23T277 -10Q205 -10 150 23T64 118T34 261V280H405Q399 343 358 377T251 411Q204 411 161 396T88 358L57 456Q94 483 147 499T264 516ZM161 195Q168 147 199 117T277 87Q323 87 356 116T401 195Z" horiz-adv-x="572" unicode="ə"/>
			<glyph d="M93 710H223L138 490H34Z" horiz-adv-x="257" unicode="ʼ"/>
			<glyph d="M379 739H500L629 576H524L439 670L355 576H250Z" horiz-adv-x="400" unicode="ˆ"/>
			<glyph d="M250 739H355L436 648L516 739H621L497 576H376Z" horiz-adv-x="400" unicode="ˇ"/>
			<glyph d="M251 696H599V613H251Z" horiz-adv-x="400" unicode="ˉ"/>
			<glyph d="M250 739H337Q338 696 358 675T411 654Q444 654 463 675T484 739H571Q570 665 529 621T410 578Q333 578 292 621T250 739Z" horiz-adv-x="400" unicode="˘"/>
			<glyph d="M327 744Q359 744 381 722T403 668Q403 636 381 613T327 591Q294 591 272 613T250 668Q250 700 272 722T327 744Z" horiz-adv-x="400" unicode="˙"/>
			<glyph d="M361 779Q408 779 439 748T471 671Q471 624 439 593T360 563Q312 563 281 594T250 671Q250 717 282 748T361 779ZM361 711Q342 711 331 700T320 671Q320 653 331 641T361 630Q380 630 391 641T402 671Q402 689 391 700T361 711Z" horiz-adv-x="400" unicode="˚"/>
			<glyph d="M338 0H426Q352 -27 352 -84Q352 -108 364 -119T396 -131Q414 -131 435 -123L452 -190Q419 -204 379 -204Q326 -204 295 -177T265 -107Q265 -71 284 -43T338 0Z" horiz-adv-x="400" unicode="˛"/>
			<glyph d="M349 721Q381 721 436 697Q454 689 468 683T492 678Q522 678 528 721H601Q595 660 567 628T502 597Q484 597 465 603T419 621Q400 629 384 634T360 640Q347 640 338 630T324 597H251Q257 660 284 690T349 721Z" horiz-adv-x="400" unicode="˜"/>
			<glyph d="M340 739H458L323 576H218ZM523 739H641L506 576H401Z" horiz-adv-x="400" unicode="˝"/>
			<glyph d="M-287 739H-168L-50 576H-155Z" horiz-adv-x="0" unicode="̀"/>
			<glyph d="M-169 739H-50L-181 576H-286Z" horiz-adv-x="0" unicode="́"/>
			<glyph d="M-300 739H-179L-50 576H-155L-240 670L-324 576H-429Z" horiz-adv-x="0" unicode="̂"/>
			<glyph d="M-302 721Q-270 721 -215 697Q-197 689 -182 683T-159 678Q-129 678 -123 721H-50Q-56 660 -83 628T-149 597Q-167 597 -185 603T-232 621Q-251 629 -266 634T-291 640Q-304 640 -313 630T-327 597H-400Q-394 660 -366 690T-302 721Z" horiz-adv-x="0" unicode="̃"/>
			<glyph d="M-398 696H-50V613H-398Z" horiz-adv-x="0" unicode="̄"/>
			<glyph d="M-371 739H-284Q-283 696 -263 675T-210 654Q-177 654 -157 675T-137 739H-50Q-51 665 -92 621T-211 578Q-288 578 -329 621T-371 739Z" horiz-adv-x="0" unicode="̆"/>
			<glyph d="M-126 744Q-94 744 -72 722T-50 668Q-50 636 -72 613T-126 591Q-159 591 -181 613T-203 668Q-203 700 -181 722T-126 744Z" horiz-adv-x="0" unicode="̇"/>
			<glyph d="M-336 736Q-308 736 -288 717T-269 670Q-269 642 -288 622T-336 603Q-364 603 -383 622T-403 670Q-403 698 -383 717T-336 736ZM-117 736Q-89 736 -69 717T-50 670Q-50 642 -69 622T-117 603Q-145 603 -164 622T-184 670Q-184 698 -164 717T-117 736Z" horiz-adv-x="0" unicode="̈"/>
			<glyph d="M-162 769Q-115 769 -82 747T-50 682Q-50 654 -64 636T-106 601Q-121 592 -125 586T-133 568H-220Q-220 595 -211 607T-181 630Q-159 641 -148 650T-137 674Q-137 700 -179 700Q-207 700 -236 688L-251 752Q-233 760 -208 764T-162 769Z" horiz-adv-x="0" unicode="̉"/>
			<glyph d="M-160 779Q-113 779 -81 748T-50 671Q-50 624 -81 593T-161 563Q-209 563 -240 594T-271 671Q-271 717 -239 748T-160 779ZM-160 711Q-179 711 -190 700T-201 671Q-201 653 -190 641T-160 630Q-141 630 -130 641T-119 671Q-119 689 -130 700T-160 711Z" horiz-adv-x="0" unicode="̊"/>
			<glyph d="M-351 739H-233L-368 576H-473ZM-168 739H-50L-185 576H-290Z" horiz-adv-x="0" unicode="̋"/>
			<glyph d="M-421 739H-316L-235 648L-155 739H-50L-174 576H-295Z" horiz-adv-x="0" unicode="̌"/>
			<glyph d="M-152 754H-50L-126 576H-245Z" horiz-adv-x="0" unicode="̒"/>
			<glyph d="M-73 657Q-50 611 -50 559Q-50 500 -98 463T-244 427V506Q-195 506 -171 518T-148 565Q-148 599 -166 632Z" horiz-adv-x="0" unicode="̛"/>
			<glyph d="M-126 -75Q-94 -75 -72 -97T-50 -151Q-50 -183 -72 -205T-126 -228Q-159 -228 -181 -205T-203 -151Q-203 -119 -181 -97T-126 -75Z" horiz-adv-x="0" unicode="̣"/>
			<glyph d="M-169 -49H-50L-132 -220H-234Z" horiz-adv-x="0" unicode="̦"/>
			<glyph d="M-182 0H-116V-36Q-50 -57 -50 -120Q-50 -170 -89 -197T-212 -224V-155Q-170 -155 -153 -146T-136 -118Q-136 -84 -182 -84Z" horiz-adv-x="0" unicode="̧"/>
			<glyph d="M-164 0H-76Q-150 -27 -150 -84Q-150 -108 -138 -119T-106 -131Q-88 -131 -67 -123L-50 -190Q-83 -204 -123 -204Q-176 -204 -206 -177T-237 -107Q-237 -71 -217 -43T-164 0Z" horiz-adv-x="0" unicode="̨"/>
			<glyph d="M-394 326H-45V221H-394Z" horiz-adv-x="0" unicode="̵"/>
			<glyph d="M148 746H279L170 432H67Z" horiz-adv-x="330" unicode="ʹ"/>
			<glyph d="M148 173H279L170 -141H67Z" horiz-adv-x="330" unicode="͵"/>
			<glyph d="M151 486Q183 486 206 463T229 408Q229 376 206 353T151 330Q119 330 96 353T73 408Q73 440 96 463T151 486ZM104 126H234L127 -143H13ZZ" horiz-adv-x="302" unicode=";"/>
			<glyph d="M-3 746H127L44 576H-60Z" horiz-adv-x="0" unicode="΄"/>
			<glyph d="M-24 806H87L26 642H-49ZM-132 721Q-107 721 -89 703T-71 660Q-71 634 -88 616T-132 599Q-158 599 -175 616T-193 660Q-193 686 -175 703T-132 721ZM125 721Q150 721 167 703T185 660Q185 634 168 616T125 599Q99 599 81 616T63 660Q63 686 81 703T125 721Z" horiz-adv-x="0" unicode="΅"/>
			<glyph d="M278 710H424L688 0H545L475 200H221L151 0H14ZM348 562L259 307H437ZM49 746H179L96 576H-8Z" horiz-adv-x="702" unicode="Ά"/>
			<glyph d="M151 425Q183 425 206 402T229 347Q229 315 206 292T151 269Q119 269 96 292T73 347Q73 379 96 402T151 425Z" horiz-adv-x="302" unicode="·"/>
			<glyph d="M171 710H596V591H306V413H587V298H306V119H604V0H171ZM0 746H130L47 576H-57Z" horiz-adv-x="669" unicode="Έ"/>
			<glyph d="M172 710H307V414H628V710H763V0H628V296H307V0H172ZM0 746H130L47 576H-57Z" horiz-adv-x="849" unicode="Ή"/>
			<glyph d="M172 710H307V0H172ZM0 746H130L47 576H-57Z" horiz-adv-x="393" unicode="Ί"/>
			<glyph d="M456 720Q562 720 647 674T780 545T829 357Q829 251 780 167T647 36T455 -10Q350 -10 265 36T132 165T84 355Q84 462 132 545T265 674T456 720ZM456 592Q389 592 336 561T254 477T225 355Q225 287 254 233T336 148T456 118Q523 118 576 148T658 233T688 355Q688 423 658 477T576 561T456 592ZM30 746H160L77 576H-27Z" horiz-adv-x="875" unicode="Ό"/>
			<glyph d="M153 710H302L467 404L633 710H767L526 276V0H393V278ZM18 746H148L65 576H-39Z" horiz-adv-x="762" unicode="Ύ"/>
			<glyph d="M465 720Q571 720 654 681T783 572T830 411Q830 320 781 252T650 149V118H837V0H528V201Q601 218 644 268T688 393Q688 449 659 494T580 564T465 590Q400 590 349 564T269 494T241 393Q241 319 285 267T403 201V0H93V118H281V149Q198 182 148 249T99 411Q99 502 145 572T275 681T465 720ZM30 746H160L77 576H-27Z" horiz-adv-x="888" unicode="Ώ"/>
			<glyph d="M73 506H198V164Q198 128 209 114T247 100Q273 100 304 112L321 14Q301 4 271 -3T210 -10Q144 -10 108 26T73 139ZM130 806H241L180 642H105ZM22 721Q47 721 65 703T83 660Q83 634 65 616T22 599Q-4 599 -21 616T-39 660Q-39 686 -21 703T22 721ZM279 721Q304 721 321 703T339 660Q339 634 322 616T279 599Q253 599 235 616T217 660Q217 686 235 703T279 721Z" horiz-adv-x="332" unicode="ΐ"/>
			<glyph d="M278 710H424L688 0H545L475 200H221L151 0H14ZM348 562L259 307H437Z" horiz-adv-x="702" unicode="Α"/>
			<glyph d="M86 710H335Q436 710 494 661T552 529Q552 479 528 438T456 372Q517 357 553 311T590 197Q590 139 563 94T487 25T371 0H86ZM221 598V409H322Q370 409 397 436T424 505Q424 549 395 573T316 598ZM221 303V111H346Q396 111 425 137T454 210Q454 254 427 278T352 303Z" horiz-adv-x="635" unicode="Β"/>
			<glyph d="M86 710H507V589H221V0H86Z" horiz-adv-x="527" unicode="Γ"/>
			<glyph d="M271 710H418L642 118V0H47V118ZM341 562L181 118H501Z" horiz-adv-x="689" unicode="Δ"/>
			<glyph d="M86 710H511V591H221V413H502V298H221V119H519V0H86Z" horiz-adv-x="584" unicode="Ε"/>
			<glyph d="M63 710H559V636L230 118H563V0H46V74L376 592H63Z" horiz-adv-x="609" unicode="Ζ"/>
			<glyph d="M86 710H221V414H542V710H677V0H542V296H221V0H86Z" horiz-adv-x="763" unicode="Η"/>
			<glyph d="M418 720Q524 720 609 674T742 546T791 357Q791 250 742 166T608 36T417 -10Q312 -10 227 35T94 164T46 356Q46 463 94 546T227 674T418 720ZM418 590Q353 590 300 560T218 476T188 355Q188 287 218 233T300 150T418 120Q484 120 536 150T619 233T649 355Q649 423 619 476T536 560T418 590ZM280 414H557V299H280Z" horiz-adv-x="837" unicode="Θ"/>
			<glyph d="M86 710H221V0H86Z" horiz-adv-x="307" unicode="Ι"/>
			<glyph d="M86 710H221V363L490 710H648L378 371L674 0H505L221 361V0H86Z" horiz-adv-x="677" unicode="Κ"/>
			<glyph d="M267 710H414L671 0H525L340 552L154 0H10Z" horiz-adv-x="681" unicode="Λ"/>
			<glyph d="M86 710H260L449 374L648 710H817V0H684V536L501 217H396L217 536V0H86Z" horiz-adv-x="902" unicode="Μ"/>
			<glyph d="M86 710H216L566 208V710H695V0H566L215 503V0H86Z" horiz-adv-x="781" unicode="Ν"/>
			<glyph d="M84 710H556V590H84ZM119 416H521V298H119ZM65 118H575V0H65Z" horiz-adv-x="640" unicode="Ξ"/>
			<glyph d="M418 720Q524 720 609 674T742 545T791 357Q791 251 742 167T609 36T417 -10Q312 -10 227 36T94 165T46 355Q46 462 94 545T227 674T418 720ZM418 592Q351 592 298 561T216 477T187 355Q187 287 216 233T298 148T418 118Q485 118 538 148T620 233T650 355Q650 423 620 477T538 561T418 592Z" horiz-adv-x="837" unicode="Ο"/>
			<glyph d="M86 710H667V0H532V592H221V0H86Z" horiz-adv-x="753" unicode="Π"/>
			<glyph d="M86 710H328Q406 710 461 680T544 599T572 484Q572 423 543 369T460 282T328 249H221V0H86ZM221 598V361H300Q359 361 395 393T431 484Q431 543 396 570T300 598Z" horiz-adv-x="605" unicode="Ρ"/>
			<glyph d="M63 710H523V591H244L427 399V327L228 119H551V0H46V97L296 363L63 616Z" horiz-adv-x="583" unicode="Σ"/>
			<glyph d="M20 710H530V592H344V0H208V592H20Z" horiz-adv-x="549" unicode="Τ"/>
			<glyph d="M-5 710H144L309 404L475 710H609L368 276V0H235V278Z" horiz-adv-x="604" unicode="Υ"/>
			<glyph d="M372 726H501V647Q657 633 745 556T833 355Q833 274 793 211T678 110T501 63V-16H372V63Q217 77 128 154T40 355Q40 479 128 556T372 647ZM372 536Q277 524 226 476T176 355Q176 281 226 233T372 174ZM501 536V174Q596 186 646 233T697 355Q697 429 646 476T501 536Z" horiz-adv-x="873" unicode="Φ"/>
			<glyph d="M31 710H189L333 465L486 710H628L405 363L637 0H480L326 256L173 0H24L252 360Z" horiz-adv-x="656" unicode="Χ"/>
			<glyph d="M64 710H193V490Q193 407 238 358T372 302V710H501V302Q589 309 634 358T680 490V710H808V484Q808 356 726 278T501 191V0H372V190Q228 200 146 276T64 484Z" horiz-adv-x="873" unicode="Ψ"/>
			<glyph d="M422 720Q528 720 611 681T740 572T787 411Q787 320 738 252T607 149V118H794V0H485V201Q558 218 601 268T645 393Q645 449 616 494T537 564T422 590Q357 590 306 564T226 494T198 393Q198 319 242 267T360 201V0H50V118H238V149Q155 182 105 249T56 411Q56 502 102 572T232 681T422 720Z" horiz-adv-x="845" unicode="Ω"/>
			<glyph d="M86 710H221V0H86ZM45 916Q73 916 92 897T112 850Q112 822 92 802T45 783Q17 783 -2 802T-22 850Q-22 878 -2 897T45 916ZM264 916Q292 916 311 897T331 850Q331 822 311 802T264 783Q236 783 216 802T197 850Q197 878 216 897T264 916Z" horiz-adv-x="307" unicode="Ϊ"/>
			<glyph d="M-5 710H144L309 404L475 710H609L368 276V0H235V278ZM193 916Q221 916 240 897T260 850Q260 822 240 802T193 783Q165 783 145 802T126 850Q126 878 145 897T193 916ZM412 916Q440 916 459 897T479 850Q479 822 459 802T412 783Q384 783 364 802T345 850Q345 878 364 897T412 916Z" horiz-adv-x="604" unicode="Ϋ"/>
			<glyph d="M284 516Q346 516 391 491T460 415Q464 453 479 506H601Q589 457 583 413T578 316V179Q578 134 588 117T622 100Q636 100 658 108L680 14Q662 3 635 -3T581 -10Q481 -10 465 90Q437 41 390 15T284 -10Q213 -10 157 23T71 117T40 254Q40 330 71 389T157 482T284 516ZM310 400Q248 400 209 359T171 253Q171 187 210 146T311 106Q374 106 414 147T454 252Q454 316 413 358T310 400ZM335 746H465L382 576H278Z" horiz-adv-x="677" unicode="ά"/>
			<glyph d="M286 516Q383 516 473 476L449 380Q376 418 296 418Q245 418 220 403T196 363Q196 335 230 319T350 304V214Q251 213 214 198T178 155Q178 124 208 108T293 93Q385 93 473 137L496 39Q459 20 400 5T272 -10Q168 -10 104 26T40 136Q40 191 77 222T178 263Q126 271 97 302T69 377Q69 438 125 477T286 516ZM266 746H396L313 576H209Z" horiz-adv-x="528" unicode="έ"/>
			<glyph d="M374 517Q462 517 507 466T553 321V-210H428V273Q428 340 403 372T324 404Q266 404 232 368T198 270V0H73V506H198V423Q225 468 271 492T374 517ZM307 746H437L354 576H250Z" horiz-adv-x="622" unicode="ή"/>
			<glyph d="M73 506H198V164Q198 128 209 114T247 100Q273 100 304 112L321 14Q301 4 271 -3T210 -10Q144 -10 108 26T73 139ZM149 746H279L196 576H92Z" horiz-adv-x="332" unicode="ί"/>
			<glyph d="M69 506H194V233Q194 168 223 134T310 101Q423 101 423 236V506H548V217Q548 103 479 46T306 -10Q202 -10 135 46T69 220ZM286 806H397L336 642H261ZM178 721Q203 721 221 703T239 660Q239 634 221 616T178 599Q152 599 134 616T117 660Q117 686 134 703T178 721ZM435 721Q460 721 477 703T495 660Q495 634 478 616T435 599Q409 599 391 616T373 660Q373 686 391 703T435 721Z" horiz-adv-x="617" unicode="ΰ"/>
			<glyph d="M284 516Q346 516 391 491T460 415Q464 453 479 506H601Q589 457 583 413T578 316V179Q578 134 588 117T622 100Q636 100 658 108L680 14Q662 3 635 -3T581 -10Q481 -10 465 90Q437 41 390 15T284 -10Q213 -10 157 23T71 117T40 254Q40 330 71 389T157 482T284 516ZM310 400Q248 400 209 359T171 253Q171 187 210 146T311 106Q374 106 414 147T454 252Q454 316 413 358T310 400Z" horiz-adv-x="677" unicode="α"/>
			<glyph d="M308 760Q408 760 466 708T524 573Q524 515 497 474T423 411Q488 393 529 344T570 216Q570 148 540 97T456 18T333 -9Q255 -9 196 23V-210H73V523Q73 638 137 699T308 760ZM305 649Q255 649 225 619T196 530V136Q248 101 311 101Q370 101 405 134T441 226Q441 284 401 315T286 347H272V451L292 452Q342 454 373 479T404 556Q404 597 378 623T305 649Z" horiz-adv-x="610" unicode="β"/>
			<glyph d="M2 506H139L275 122Q393 307 393 506H521Q520 383 469 261T325 0V-210H202V0Z" horiz-adv-x="551" unicode="γ"/>
			<glyph d="M96 752H548V646H288L493 458Q538 416 563 363T589 252Q589 175 554 115T457 23T315 -10Q235 -10 172 23T75 115T40 249Q40 320 70 375T154 463T274 506L96 673ZM315 399Q252 399 211 359T171 253Q171 187 211 147T315 107Q378 107 418 147T458 253Q458 319 418 359T315 399Z" unicode="δ"/>
			<glyph d="M286 516Q383 516 473 476L449 380Q376 418 296 418Q245 418 220 403T196 363Q196 335 230 319T350 304V214Q251 213 214 198T178 155Q178 124 208 108T293 93Q385 93 473 137L496 39Q459 20 400 5T272 -10Q168 -10 104 26T40 136Q40 191 77 222T178 263Q126 271 97 302T69 377Q69 438 125 477T286 516Z" horiz-adv-x="528" unicode="ε"/>
			<glyph d="M77 752H503V673L259 414Q210 361 190 325T171 250Q171 206 191 179T243 138T336 106Q389 90 420 75T470 33T489 -39Q489 -84 472 -129T431 -210L328 -180Q347 -151 358 -125T369 -73Q369 -50 357 -37T323 -15T249 8Q183 26 138 50T67 120T40 239Q40 313 69 365T166 483L331 646H77Z" horiz-adv-x="503" unicode="ζ"/>
			<glyph d="M374 517Q462 517 507 466T553 321V-210H428V273Q428 340 403 372T324 404Q266 404 232 368T198 270V0H73V506H198V423Q225 468 271 492T374 517Z" horiz-adv-x="622" unicode="η"/>
			<glyph d="M318 760Q454 760 514 659T575 374Q575 189 514 89T318 -10Q180 -10 119 89T59 374Q59 559 120 659T318 760ZM318 644Q248 644 221 588T191 424H444Q441 531 413 587T318 644ZM191 322Q194 216 221 161T318 106Q386 106 413 161T444 322Z" horiz-adv-x="634" unicode="θ"/>
			<glyph d="M73 506H198V164Q198 128 209 114T247 100Q273 100 304 112L321 14Q301 4 271 -3T210 -10Q144 -10 108 26T73 139Z" horiz-adv-x="332" unicode="ι"/>
			<glyph d="M73 506H198V272L400 506H546L342 279L555 0H407L257 199L198 147V0H73Z" horiz-adv-x="560" unicode="κ"/>
			<glyph d="M120 754Q192 754 238 717T312 605L536 0H404L287 352L134 0H0L229 490L202 559Q185 605 159 623T99 642Q71 642 46 633L32 739Q70 754 120 754Z" horiz-adv-x="538" unicode="λ"/>
			<glyph d="M73 506H198V233Q198 101 307 101Q361 101 394 138T427 236V506H552V0H427V70Q405 30 369 9T289 -11Q237 -11 198 23V-209H73Z" horiz-adv-x="625" unicode="μ"/>
			<glyph d="M2 506H139L275 121Q393 306 393 506H521Q520 383 470 261T328 0H200Z" horiz-adv-x="551" unicode="ν"/>
			<glyph d="M325 762Q379 762 424 748T502 714L464 609Q438 627 404 638T336 650Q284 650 255 624T227 558Q227 510 266 485T372 456V361Q171 361 171 237Q171 196 191 172T242 135T327 108Q381 94 414 78T468 34T489 -40Q489 -84 472 -128T431 -210L328 -180Q349 -149 359 -124T370 -75Q370 -49 357 -34T320 -11T249 8Q200 20 156 39T76 102T40 220Q40 296 84 351T221 419Q163 437 129 477T96 578Q96 632 123 673T203 738T325 762Z" horiz-adv-x="502" unicode="ξ"/>
			<glyph d="M315 516Q395 516 457 482T554 388T589 253Q589 178 554 118T457 24T315 -10Q235 -10 172 24T75 118T40 253Q40 328 75 388T172 482T315 516ZM315 401Q250 401 209 360T169 253Q169 187 209 146T315 105Q380 105 420 146T460 254Q460 319 419 360T315 401Z" unicode="ο"/>
			<glyph d="M50 506H700V401H566V162Q566 130 579 114T615 99Q640 99 674 113L690 16Q648 -10 578 -10Q515 -10 478 26T441 135V401H269V0H144V401H24Z" horiz-adv-x="724" unicode="π"/>
			<glyph d="M340 516Q423 516 483 482T575 388T607 253Q607 178 576 118T489 24T362 -10Q305 -10 261 12T194 77V-210H69V222Q69 317 103 383T198 482T340 516ZM334 400Q271 400 232 359T194 252Q194 184 234 145T335 106Q397 106 436 147T476 253Q476 318 436 359T334 400Z" horiz-adv-x="647" unicode="ρ"/>
			<glyph d="M307 516Q357 516 402 503T479 470L442 363Q415 380 381 391T312 403Q247 403 209 363T171 256Q171 211 189 184T236 142T323 108Q375 90 405 73T452 30T470 -38Q470 -119 407 -210L305 -180Q327 -148 338 -123T350 -74Q350 -52 340 -39T312 -18T251 3Q191 23 147 47T72 122T40 252Q40 333 74 392T169 484T307 516Z" horiz-adv-x="503" unicode="ς"/>
			<glyph d="M344 506H658V401H514Q589 340 589 237Q589 166 555 109T459 21T317 -10Q236 -10 173 22T75 114T40 248Q40 324 76 382T181 473T344 506ZM347 399Q262 399 216 358T171 250Q171 185 210 146T315 107Q381 107 419 146T458 250Q458 301 434 338T373 399Z" horiz-adv-x="655" unicode="σ"/>
			<glyph d="M50 506H449V401H281V165Q281 103 335 103Q363 103 402 116L421 16Q401 4 371 -3T308 -10Q156 -10 156 150V401H24Z" horiz-adv-x="473" unicode="τ"/>
			<glyph d="M69 506H194V233Q194 168 223 134T310 101Q423 101 423 236V506H548V217Q548 103 479 46T306 -10Q202 -10 135 46T69 220Z" horiz-adv-x="617" unicode="υ"/>
			<glyph d="M307 710H423V517Q509 507 569 470T659 377T690 253Q690 185 659 129T569 36T423 -11V-210H307V-11Q221 -1 161 36T70 129T40 253Q40 321 70 377T161 470T307 517ZM307 413Q240 399 205 356T171 253Q171 191 206 148T307 93ZM423 413V94Q489 107 524 150T559 254Q559 316 524 358T423 413Z" horiz-adv-x="730" unicode="φ"/>
			<glyph d="M92 514Q145 514 177 490T233 412L285 300L375 506H515L348 164L523 -210H387L270 64L135 -210H4L208 188L134 348Q120 378 105 389T70 401Q49 401 28 393L13 499Q51 514 92 514Z" horiz-adv-x="523" unicode="χ"/>
			<glyph d="M332 710H448V100Q524 112 558 158T593 290V506H712V271Q712 148 641 77T448 -7V-210H332V-7Q206 6 137 77T69 274V506H188V287Q188 204 222 158T332 100Z" horiz-adv-x="781" unicode="ψ"/>
			<glyph d="M95 506H229Q202 456 187 390T173 252Q173 182 190 145T240 109Q277 109 296 166T315 356H437Q437 223 454 167T513 111Q578 111 578 249Q578 323 560 394T519 506H653Q675 469 691 395T708 238Q708 121 662 55T530 -10Q464 -10 425 29T378 138Q369 69 326 30T222 -9Q137 -9 90 58T44 242Q44 320 58 391T95 506Z" horiz-adv-x="752" unicode="ω"/>
			<glyph d="M73 506H198V164Q198 128 209 114T247 100Q273 100 304 112L321 14Q301 4 271 -3T210 -10Q144 -10 108 26T73 139ZM57 741Q88 741 108 720T129 670Q129 640 108 619T57 598Q27 598 6 619T-14 670Q-14 700 6 720T57 741ZM248 741Q278 741 298 720T319 670Q319 640 298 619T248 598Q217 598 196 619T176 670Q176 700 196 720T248 741Z" horiz-adv-x="332" unicode="ϊ"/>
			<glyph d="M69 506H194V233Q194 168 223 134T310 101Q423 101 423 236V506H548V217Q548 103 479 46T306 -10Q202 -10 135 46T69 220ZM199 736Q227 736 246 717T266 670Q266 642 246 622T199 603Q171 603 151 622T132 670Q132 698 151 717T199 736ZM418 736Q446 736 465 717T485 670Q485 642 465 622T418 603Q390 603 370 622T351 670Q351 698 370 717T418 736Z" horiz-adv-x="617" unicode="ϋ"/>
			<glyph d="M315 516Q395 516 457 482T554 388T589 253Q589 178 554 118T457 24T315 -10Q235 -10 172 24T75 118T40 253Q40 328 75 388T172 482T315 516ZM315 401Q250 401 209 360T169 253Q169 187 209 146T315 105Q380 105 420 146T460 254Q460 319 419 360T315 401ZM311 746H441L358 576H254Z" unicode="ό"/>
			<glyph d="M69 506H194V233Q194 168 223 134T310 101Q423 101 423 236V506H548V217Q548 103 479 46T306 -10Q202 -10 135 46T69 220ZM305 746H435L352 576H248Z" horiz-adv-x="617" unicode="ύ"/>
			<glyph d="M95 506H229Q202 456 187 390T173 252Q173 182 190 145T240 109Q277 109 296 166T315 356H437Q437 223 454 167T513 111Q578 111 578 249Q578 323 560 394T519 506H653Q675 469 691 395T708 238Q708 121 662 55T530 -10Q464 -10 425 29T378 138Q369 69 326 30T222 -9Q137 -9 90 58T44 242Q44 320 58 391T95 506ZM372 746H502L419 576H315Z" horiz-adv-x="752" unicode="ώ"/>
			<glyph d="M219 710H344V506H542V311H439V406H344V0H219V406H121V311H18V506H219Z" horiz-adv-x="560" unicode="ϯ"/>
			<glyph d="M86 710H511V591H221V413H502V298H221V119H519V0H86ZM128 921H255L376 769H270Z" horiz-adv-x="584" unicode="Ѐ"/>
			<glyph d="M86 710H511V591H221V413H502V298H221V119H519V0H86ZM193 916Q221 916 240 897T260 850Q260 822 240 802T193 783Q165 783 145 802T126 850Q126 878 145 897T193 916ZM412 916Q440 916 459 897T479 850Q479 822 459 802T412 783Q384 783 364 802T345 850Q345 878 364 897T412 916Z" horiz-adv-x="584" unicode="Ё"/>
			<glyph d="M20 710H530V592H344V394Q390 424 438 442T548 460Q660 460 725 399T791 232Q791 160 761 105T677 20T554 -10Q494 -10 435 12L457 129Q498 111 542 111Q594 111 625 142T656 226Q656 282 620 313T523 345Q480 345 433 330T344 289V0H208V592H20Z" horiz-adv-x="825" unicode="Ђ"/>
			<glyph d="M86 710H507V589H221V0H86ZM344 921H471L328 769H223Z" horiz-adv-x="527" unicode="Ѓ"/>
			<glyph d="M419 720Q553 720 653 647L609 531Q523 599 423 599Q331 599 267 547T186 411H512V296H187Q205 212 268 161T424 111Q481 111 532 130T626 179L664 66Q556 -10 420 -10Q310 -10 225 35T93 163T46 353Q46 461 94 544T227 674T419 720Z" horiz-adv-x="689" unicode="Є"/>
			<glyph d="M310 720Q366 720 422 706T516 671L478 555Q442 575 396 588T310 601Q261 601 231 580T202 524Q202 497 218 478T263 447T343 415Q411 390 450 368T514 308T538 211Q538 107 469 48T285 -10Q220 -10 158 8T49 60L84 185Q128 152 183 131T292 110Q345 110 373 132T401 195Q401 222 386 239T345 268T262 302Q197 326 155 352T89 416T65 511Q65 608 132 664T310 720Z" horiz-adv-x="589" unicode="Ѕ"/>
			<glyph d="M86 710H221V0H86Z" horiz-adv-x="307" unicode="І"/>
			<glyph d="M86 710H221V0H86ZM45 916Q73 916 92 897T112 850Q112 822 92 802T45 783Q17 783 -2 802T-22 850Q-22 878 -2 897T45 916ZM264 916Q292 916 311 897T331 850Q331 822 311 802T264 783Q236 783 216 802T197 850Q197 878 216 897T264 916Z" horiz-adv-x="307" unicode="Ї"/>
			<glyph d="M218 710H354V249Q354 125 294 57T127 -10Q61 -10 2 12L24 129Q65 111 106 111Q159 111 188 149T218 265Z" horiz-adv-x="428" unicode="Ј"/>
			<glyph d="M178 710H607V426H746Q862 426 923 369T984 219Q984 157 957 107T877 29T746 0H472V592H296L255 167Q247 76 206 33T88 -9Q40 -9 0 7L23 120Q30 116 43 112T70 108Q97 108 110 129T128 199ZM607 315V112H721Q780 112 811 138T843 216Q843 266 811 290T721 315Z" horiz-adv-x="1018" unicode="Љ"/>
			<glyph d="M86 710H221V428H510V710H645V426H784Q900 426 961 369T1022 219Q1022 157 995 107T915 29T784 0H510V312H221V0H86ZM645 315V112H759Q818 112 849 138T881 216Q881 266 849 290T759 315Z" horiz-adv-x="1056" unicode="Њ"/>
			<glyph d="M20 710H530V592H344V389Q444 454 571 454Q674 454 729 402T785 252V1H650V229Q650 336 537 336Q489 336 437 322T344 284V0H208V592H20Z" horiz-adv-x="859" unicode="Ћ"/>
			<glyph d="M86 710H221V406H278L506 710H660L398 371L687 0H525L290 304H221V0H86ZM408 921H535L392 769H287Z" horiz-adv-x="690" unicode="Ќ"/>
			<glyph d="M86 710H215V202L565 710H695V0H566V508L215 0H86ZM218 921H345L466 769H360Z" horiz-adv-x="781" unicode="Ѝ"/>
			<glyph d="M10 710H156L347 308L513 710H657L426 184Q395 115 370 76T301 14T189 -10Q121 -10 61 12L89 123Q130 105 175 105Q211 105 234 119T278 172H277ZM156 909H244Q248 849 332 849Q411 849 418 909H505Q503 847 456 810T329 773Q246 773 202 809T156 909Z" horiz-adv-x="655" unicode="Ў"/>
			<glyph d="M86 710H221V118H532V710H667V0H433V-176H320V0H86Z" horiz-adv-x="753" unicode="Џ"/>
			<glyph d="M278 710H424L688 0H545L475 200H221L151 0H14ZM348 562L259 307H437Z" horiz-adv-x="702" unicode="А"/>
			<glyph d="M86 710H508V589H221V426H360Q476 426 537 369T598 219Q598 157 571 107T491 29T360 0H86ZM221 315V112H335Q394 112 425 138T457 216Q457 266 425 290T335 315Z" horiz-adv-x="632" unicode="Б"/>
			<glyph d="M86 710H335Q436 710 494 661T552 529Q552 479 528 438T456 372Q517 357 553 311T590 197Q590 139 563 94T487 25T371 0H86ZM221 598V409H322Q370 409 397 436T424 505Q424 549 395 573T316 598ZM221 303V111H346Q396 111 425 137T454 210Q454 254 427 278T352 303Z" horiz-adv-x="635" unicode="В"/>
			<glyph d="M86 710H507V589H221V0H86Z" horiz-adv-x="527" unicode="Г"/>
			<glyph d="M193 710H634V118H734V-176H621V0H122V-176H10V118H61Q94 118 115 159T144 270ZM310 592L274 261Q268 206 255 168T225 118H498V592Z" horiz-adv-x="760" unicode="Д"/>
			<glyph d="M86 710H511V591H221V413H502V298H221V119H519V0H86Z" horiz-adv-x="584" unicode="Е"/>
			<glyph d="M30 710H180L407 407H475V710H604V407H672L899 710H1049L787 371L1076 0H919L683 304H604V0H475V304H396L160 0H3L292 371Z" horiz-adv-x="1079" unicode="Ж"/>
			<glyph d="M291 720Q401 720 464 672T527 541Q527 478 490 435T393 376Q470 360 512 316T554 200Q554 138 522 90T428 16T279 -10Q125 -10 21 74L83 183Q165 108 273 108Q341 108 379 135T418 211Q418 263 367 287T201 312V418Q306 419 348 447T390 519Q390 559 359 581T277 604Q229 604 185 586T107 538L51 641Q154 720 291 720Z" horiz-adv-x="593" unicode="З"/>
			<glyph d="M86 710H215V202L565 710H695V0H566V508L215 0H86Z" horiz-adv-x="781" unicode="И"/>
			<glyph d="M86 710H215V202L565 710H695V0H566V508L215 0H86ZM216 909H304Q308 849 392 849Q471 849 478 909H565Q563 847 516 810T389 773Q306 773 262 809T216 909Z" horiz-adv-x="781" unicode="Й"/>
			<glyph d="M86 710H221V406H278L506 710H660L398 371L687 0H525L290 304H221V0H86Z" horiz-adv-x="690" unicode="К"/>
			<glyph d="M178 710H627V0H492V592H296L255 167Q247 76 206 33T88 -9Q40 -9 0 7L23 120Q30 116 43 112T69 108Q96 108 110 129T128 200Z" horiz-adv-x="713" unicode="Л"/>
			<glyph d="M86 710H260L449 374L648 710H817V0H684V536L501 217H396L217 536V0H86Z" horiz-adv-x="902" unicode="М"/>
			<glyph d="M86 710H221V414H542V710H677V0H542V296H221V0H86Z" horiz-adv-x="763" unicode="Н"/>
			<glyph d="M418 720Q524 720 609 674T742 545T791 357Q791 251 742 167T609 36T417 -10Q312 -10 227 36T94 165T46 355Q46 462 94 545T227 674T418 720ZM418 592Q351 592 298 561T216 477T187 355Q187 287 216 233T298 148T418 118Q485 118 538 148T620 233T650 355Q650 423 620 477T538 561T418 592Z" horiz-adv-x="837" unicode="О"/>
			<glyph d="M86 710H667V0H532V592H221V0H86Z" horiz-adv-x="753" unicode="П"/>
			<glyph d="M86 710H328Q406 710 461 680T544 599T572 484Q572 423 543 369T460 282T328 249H221V0H86ZM221 598V361H300Q359 361 395 393T431 484Q431 543 396 570T300 598Z" horiz-adv-x="605" unicode="Р"/>
			<glyph d="M419 720Q549 720 653 651L609 529Q519 593 424 593Q354 593 300 563T217 479T187 356Q187 288 216 233T299 148T424 117Q481 117 532 136T626 185L664 66Q611 29 550 9T414 -10Q307 -10 223 36T93 165T46 354Q46 461 94 544T227 674T419 720Z" horiz-adv-x="689" unicode="С"/>
			<glyph d="M20 710H530V592H344V0H208V592H20Z" horiz-adv-x="549" unicode="Т"/>
			<glyph d="M10 710H156L347 308L513 710H657L426 184Q395 115 370 76T301 14T189 -10Q121 -10 61 12L89 123Q130 105 175 105Q211 105 234 119T278 172H277Z" horiz-adv-x="655" unicode="У"/>
			<glyph d="M372 726H501V647Q657 633 745 556T833 355Q833 274 793 211T678 110T501 63V-16H372V63Q217 77 128 154T40 355Q40 479 128 556T372 647ZM372 536Q277 524 226 476T176 355Q176 281 226 233T372 174ZM501 536V174Q596 186 646 233T697 355Q697 429 646 476T501 536Z" horiz-adv-x="873" unicode="Ф"/>
			<glyph d="M31 710H189L333 465L486 710H628L405 363L637 0H480L326 256L173 0H24L252 360Z" horiz-adv-x="656" unicode="Х"/>
			<glyph d="M86 710H221V118H532V710H668V118H768V-176H655V0H86Z" horiz-adv-x="794" unicode="Ц"/>
			<glyph d="M58 710H193V490Q193 356 321 356Q370 356 416 370T499 411V710H634V0H499V306Q460 279 406 261T287 243Q173 243 115 302T58 469Z" horiz-adv-x="720" unicode="Ч"/>
			<glyph d="M86 710H221V118H500V710H635V118H914V710H1049V0H86Z" horiz-adv-x="1135" unicode="Ш"/>
			<glyph d="M86 710H221V118H500V710H635V118H914V710H1049V118H1150V-176H1037V0H86Z" horiz-adv-x="1175" unicode="Щ"/>
			<glyph d="M20 710H347V426H486Q602 426 663 369T724 219Q724 157 697 107T617 29T486 0H212V589H20ZM347 315V112H461Q520 112 551 138T583 216Q583 266 551 290T461 315Z" horiz-adv-x="758" unicode="Ъ"/>
			<glyph d="M86 710H221V426H360Q476 426 537 369T598 219Q598 157 571 107T491 29T360 0H86ZM221 315V112H335Q394 112 425 138T457 216Q457 266 425 290T335 315ZM718 710H853V0H718Z" horiz-adv-x="939" unicode="Ы"/>
			<glyph d="M86 710H221V426H360Q476 426 537 369T598 219Q598 157 571 107T491 29T360 0H86ZM221 315V112H335Q394 112 425 138T457 216Q457 266 425 290T335 315Z" horiz-adv-x="632" unicode="Ь"/>
			<glyph d="M279 720Q383 720 466 674T596 544T643 353Q643 247 596 164T468 36T285 -10Q203 -10 140 9T25 66L63 179Q157 111 277 111Q364 111 424 160T502 296H177V411H504Q490 498 429 548T274 599Q167 599 79 534L36 647Q83 681 145 700T279 720Z" horiz-adv-x="689" unicode="Э"/>
			<glyph d="M696 720Q802 720 887 674T1020 545T1069 357Q1069 251 1020 167T887 36T695 -10Q600 -10 521 28T391 135T328 296H221V0H86V710H221V414H328Q341 505 391 574T521 682T696 720ZM696 592Q629 592 576 561T494 477T465 355Q465 287 494 233T576 148T696 118Q763 118 816 148T898 233T928 355Q928 423 898 477T816 561T696 592Z" horiz-adv-x="1115" unicode="Ю"/>
			<glyph d="M315 710H563V0H428V277H329H323L169 0H16L198 305Q141 334 110 386T79 502Q79 562 106 609T187 683T315 710ZM335 598Q284 598 252 572T220 493Q220 439 251 411T332 384H428V598Z" horiz-adv-x="649" unicode="Я"/>
			<glyph d="M291 516Q392 516 449 467T506 319V0H382V70Q357 34 312 11T211 -11Q136 -11 91 29T47 140Q47 199 82 234T191 286T381 305V315Q381 361 353 387T269 413Q189 413 111 360L82 459Q122 484 176 500T291 516ZM381 228Q268 226 222 207T177 147Q177 117 197 99T256 82Q307 82 344 110T381 194Z" horiz-adv-x="575" unicode="а"/>
			<glyph d="M520 762L539 653Q479 643 413 636Q353 630 337 627Q261 614 221 572T172 435Q246 504 348 504Q415 504 468 473T551 387T582 256Q582 178 549 117T455 23T316 -10Q195 -10 121 77T47 365Q47 525 103 613T290 729Q334 739 397 746Q457 752 520 762ZM321 397Q274 397 234 374T170 318Q176 200 214 151T315 102Q380 102 418 144T457 254Q457 321 419 359T321 397Z" horiz-adv-x="616" unicode="б"/>
			<glyph d="M73 506H293Q386 506 432 472T478 383Q478 337 453 306T387 267Q444 262 478 229T513 144Q513 72 459 36T319 0H73ZM198 419V303H275Q320 303 339 321T358 365Q358 392 339 405T278 419ZM198 216V86H298Q340 86 361 104T383 152Q383 184 357 200T279 216Z" horiz-adv-x="553" unicode="в"/>
			<glyph d="M73 506H403V401H198V0H73Z" horiz-adv-x="427" unicode="г"/>
			<glyph d="M169 506H546V104H644V-150H533V0H125V-150H14V104H55Q90 104 106 129T131 217ZM276 401L254 210Q246 135 214 104H421V401Z" horiz-adv-x="668" unicode="д"/>
			<glyph d="M295 516Q367 516 422 482T507 387T538 245V226H167Q173 163 213 129T321 95Q368 95 410 109T484 148L515 50Q478 23 425 6T308 -10Q229 -10 168 24T73 117T40 252Q40 329 73 389T165 482T295 516ZM295 419Q249 419 215 389T171 311H411Q404 359 372 389T295 419Z" horiz-adv-x="572" unicode="е"/>
			<glyph d="M14 506H153L314 310H351V506H470V310H506L669 506H807L602 267L816 0H672L502 220H470V0H351V220H318L149 0H5L219 267Z" horiz-adv-x="821" unicode="ж"/>
			<glyph d="M252 516Q348 516 400 480T453 385Q453 339 422 306T341 266Q404 256 441 225T479 140Q479 67 413 28T246 -10Q173 -10 119 4T31 39L55 143Q139 93 230 93Q282 93 310 109T339 155Q339 175 324 187T274 206T173 212V305Q257 305 291 319T325 365Q325 390 302 404T235 418Q158 418 85 376L63 472Q100 492 148 504T252 516Z" horiz-adv-x="528" unicode="з"/>
			<glyph d="M73 506H192V165L455 506H574V0H455V341L192 0H73Z" horiz-adv-x="644" unicode="и"/>
			<glyph d="M73 506H192V165L455 506H574V0H455V341L192 0H73ZM151 739H238Q239 699 261 679T322 659Q360 659 382 679T405 739H492Q491 668 447 625T321 583Q239 583 195 625T151 739Z" horiz-adv-x="644" unicode="й"/>
			<glyph d="M73 506H192V311H229L390 506H529L324 267L537 0H394L224 220H192V0H73Z" horiz-adv-x="542" unicode="к"/>
			<glyph d="M174 506H568V0H443V401H286L254 147Q244 71 205 31T103 -9Q42 -9 4 7L26 114Q33 110 46 106T72 102Q99 102 113 120T132 178Z" horiz-adv-x="638" unicode="л"/>
			<glyph d="M73 506H218L383 205L550 506H698V0H575V341L434 83H331L191 341V0H73Z" horiz-adv-x="767" unicode="м"/>
			<glyph d="M73 506H198V310H425V506H550V0H425V205H198V0H73Z" horiz-adv-x="620" unicode="н"/>
			<glyph d="M315 516Q395 516 457 482T554 388T589 253Q589 178 554 118T457 24T315 -10Q235 -10 172 24T75 118T40 253Q40 328 75 388T172 482T315 516ZM315 401Q250 401 209 360T169 253Q169 187 209 146T315 105Q380 105 420 146T460 254Q460 319 419 360T315 401Z" unicode="о"/>
			<glyph d="M73 506H544V0H419V401H198V0H73Z" horiz-adv-x="614" unicode="п"/>
			<glyph d="M368 516Q438 516 493 482T579 388T611 253Q611 178 579 118T492 24T365 -10Q312 -10 267 12T198 77V-210H73V506H198V431Q224 472 268 494T368 516ZM341 402Q300 402 266 383T213 331T194 253Q194 210 213 176T266 123T340 104Q403 104 442 145T482 253Q482 319 443 360T341 402Z" horiz-adv-x="651" unicode="р"/>
			<glyph d="M306 516Q404 516 477 467L440 361Q382 403 315 403Q251 403 211 361T171 253Q171 186 210 144T314 103Q348 103 384 115T452 147L483 43Q448 19 402 4T303 -10Q227 -10 167 23T73 115T40 251Q40 329 74 389T169 482T306 516Z" horiz-adv-x="507" unicode="с"/>
			<glyph d="M24 506H454V401H301V0H176V401H24Z" horiz-adv-x="478" unicode="т"/>
			<glyph d="M2 506H139L272 162L392 506H522L301 -63Q272 -139 226 -175T107 -212Q59 -212 23 -198L38 -91Q60 -99 84 -99Q120 -99 145 -82T188 -26L207 20Z" horiz-adv-x="524" unicode="у"/>
			<glyph d="M431 752H556V430Q580 473 621 494T714 516Q784 516 836 483T918 390T947 254Q947 176 918 116T837 23T713 -10Q661 -10 620 12T556 79V-210H431V76Q384 -10 275 -10Q204 -10 151 23T69 116T40 254Q40 331 68 390T150 483T273 516Q325 516 366 495T431 432ZM298 400Q240 400 205 359T171 252Q171 186 206 146T298 106Q358 106 394 148T431 254Q431 319 394 359T298 400ZM690 400Q633 400 594 359T556 254Q556 191 594 148T689 106Q746 106 781 146T816 253Q816 318 781 359T690 400Z" horiz-adv-x="987" unicode="ф"/>
			<glyph d="M20 506H174L283 352L395 506H540L356 262L547 0H397L282 167L165 0H12L206 259Z" horiz-adv-x="559" unicode="х"/>
			<glyph d="M73 506H198V104H419V506H544V104H643V-150H531V0H73Z" horiz-adv-x="666" unicode="ц"/>
			<glyph d="M62 506H187V364Q187 307 215 278T295 249Q357 249 408 284V506H533V0H408V183Q346 145 260 145Q167 145 114 195T62 340Z" horiz-adv-x="603" unicode="ч"/>
			<glyph d="M73 506H198V104H393V506H518V104H714V506H839V0H73Z" horiz-adv-x="909" unicode="ш"/>
			<glyph d="M73 506H198V104H393V506H518V104H714V506H839V104H937V-150H826V0H73Z" horiz-adv-x="961" unicode="щ"/>
			<glyph d="M24 506H311V315H426Q521 315 570 274T619 161Q619 87 567 43T425 0H186V401H24ZM311 229V86H408Q451 86 472 105T493 159Q493 229 403 229Z" horiz-adv-x="659" unicode="ъ"/>
			<glyph d="M73 506H198V315H313Q408 315 457 274T506 161Q506 87 454 43T312 0H73ZM569 506H694V0H569ZM198 229V86H295Q338 86 359 105T380 159Q380 229 290 229Z" horiz-adv-x="763" unicode="ы"/>
			<glyph d="M73 506H198V315H313Q408 315 457 274T506 161Q506 87 454 43T312 0H73ZM198 229V86H295Q338 86 359 105T380 159Q380 229 290 229Z" horiz-adv-x="546" unicode="ь"/>
			<glyph d="M215 516Q292 516 350 482T440 389T472 252Q472 174 438 114T343 22T205 -10Q98 -10 24 35L50 134Q116 94 195 94Q255 94 294 122T346 205H109V298H346Q335 352 296 382T198 412Q125 412 67 374L36 473Q112 516 215 516Z" horiz-adv-x="512" unicode="э"/>
			<glyph d="M569 516Q649 516 711 482T808 388T843 253Q843 178 808 118T711 24T569 -10Q498 -10 440 17T345 93T298 205H198V0H73V506H198V310H300Q318 403 391 459T569 516ZM569 401Q504 401 463 360T423 253Q423 187 463 146T569 105Q634 105 674 146T714 254Q714 319 673 360T569 401Z" horiz-adv-x="884" unicode="ю"/>
			<glyph d="M238 507H471V1H346V192H270L152 0H16L155 205Q104 223 77 260T51 349Q51 424 99 465T238 507ZM263 421Q220 421 199 402T178 349Q178 314 200 296T265 278H346V421Z" horiz-adv-x="541" unicode="я"/>
			<glyph d="M295 516Q367 516 422 482T507 387T538 245V226H167Q173 163 213 129T321 95Q368 95 410 109T484 148L515 50Q478 23 425 6T308 -10Q229 -10 168 24T73 117T40 252Q40 329 73 389T165 482T295 516ZM295 419Q249 419 215 389T171 311H411Q404 359 372 389T295 419ZM149 739H268L386 576H281Z" horiz-adv-x="572" unicode="ѐ"/>
			<glyph d="M295 516Q367 516 422 482T507 387T538 245V226H167Q173 163 213 129T321 95Q368 95 410 109T484 148L515 50Q478 23 425 6T308 -10Q229 -10 168 24T73 117T40 252Q40 329 73 389T165 482T295 516ZM295 419Q249 419 215 389T171 311H411Q404 359 372 389T295 419ZM188 736Q216 736 235 717T255 670Q255 642 235 622T188 603Q160 603 140 622T121 670Q121 698 140 717T188 736ZM407 736Q435 736 454 717T474 670Q474 642 454 622T407 603Q379 603 359 622T340 670Q340 698 359 717T407 736Z" horiz-adv-x="572" unicode="ё"/>
			<glyph d="M73 752H198V662H367V569H198V408Q224 452 269 475T374 499Q462 499 507 449T553 304V-37Q553 -131 516 -174T405 -217Q383 -217 359 -213T320 -205L337 -98Q358 -104 377 -104Q404 -104 416 -87T428 -27V256Q428 323 402 355T325 387Q267 387 232 350T198 252V0H73V569H15V662H73Z" horiz-adv-x="622" unicode="ђ"/>
			<glyph d="M73 506H403V401H198V0H73ZM277 739H396L265 576H160Z" horiz-adv-x="427" unicode="ѓ"/>
			<glyph d="M308 516Q402 516 478 473L445 374Q387 412 316 412Q255 412 216 382T166 298H403V205H166Q179 152 219 123T321 94Q398 94 461 135L487 37Q456 16 411 3T310 -10Q230 -10 169 22T74 114T40 252Q40 329 72 389T165 482T308 516Z" horiz-adv-x="512" unicode="є"/>
			<glyph d="M256 517Q301 517 344 505T421 474L398 378Q367 397 328 410T254 423Q222 423 202 410T182 375Q182 351 205 338T276 312Q359 291 399 256T440 158Q440 81 386 35T236 -10Q183 -10 131 4T46 42L76 142Q109 116 154 100T242 84Q277 84 297 97T318 136Q318 161 295 174T209 207Q160 223 129 239T79 284T60 356Q60 431 113 474T256 517Z" horiz-adv-x="486" unicode="ѕ"/>
			<glyph d="M73 506H198V0H73ZM138 744Q170 744 192 722T214 668Q214 636 192 613T138 591Q105 591 83 613T61 668Q61 700 83 722T138 744Z" horiz-adv-x="271" unicode="і"/>
			<glyph d="M73 506H198V0H73ZM42 741Q73 741 93 720T114 670Q114 640 93 619T42 598Q12 598 -8 619T-29 670Q-29 700 -8 720T42 741ZM233 741Q263 741 283 720T304 670Q304 640 283 619T233 598Q202 598 181 619T161 670Q161 700 181 720T233 741Z" horiz-adv-x="271" unicode="ї"/>
			<glyph d="M73 506H198V-37Q198 -130 161 -173T52 -217Q-1 -217 -35 -205L-18 -98Q3 -104 20 -104Q48 -104 60 -87T73 -27ZM137 744Q169 744 191 722T213 668Q213 636 191 613T137 591Q104 591 82 613T60 668Q60 700 82 722T137 744Z" horiz-adv-x="272" unicode="ј"/>
			<glyph d="M174 506H554V315H669Q764 315 813 274T862 161Q862 87 810 43T668 0H429V401H286L254 147Q244 71 205 31T103 -9Q42 -9 4 7L26 114Q33 109 46 105T75 102Q122 102 132 178ZM554 229V86H651Q694 86 715 105T736 159Q736 229 646 229Z" horiz-adv-x="902" unicode="љ"/>
			<glyph d="M73 506H198V314H419V506H544V315H659Q754 315 803 274T852 161Q852 87 800 43T658 0H419V216H198V0H73ZM544 229V86H641Q684 86 705 105T726 159Q726 229 636 229Z" horiz-adv-x="893" unicode="њ"/>
			<glyph d="M73 752H198V662H367V569H198V408Q224 452 269 475T374 499Q462 499 507 449T553 304V0H428V256Q428 323 402 355T325 387Q267 387 232 350T198 252V0H73V569H15V662H73Z" horiz-adv-x="622" unicode="ћ"/>
			<glyph d="M73 506H192V311H229L390 506H529L324 267L537 0H394L224 220H192V0H73ZM330 739H449L318 576H213Z" horiz-adv-x="542" unicode="ќ"/>
			<glyph d="M73 506H192V165L455 506H574V0H455V341L192 0H73ZM173 739H292L410 576H305Z" horiz-adv-x="644" unicode="ѝ"/>
			<glyph d="M2 506H139L272 162L392 506H522L301 -63Q272 -139 226 -175T107 -212Q59 -212 23 -198L38 -91Q60 -99 84 -99Q120 -99 145 -82T188 -26L207 20ZM95 739H182Q183 699 205 679T266 659Q304 659 326 679T349 739H436Q435 668 391 625T265 583Q183 583 139 625T95 739Z" horiz-adv-x="524" unicode="ў"/>
			<glyph d="M73 506H198V105H419V506H544V0H365V-150H254V0H73Z" horiz-adv-x="614" unicode="џ"/>
			<glyph d="M395 850H507V589H221V0H86V710H395Z" horiz-adv-x="527" unicode="Ґ"/>
			<glyph d="M292 629H403V401H198V0H73V506H292Z" horiz-adv-x="427" unicode="ґ"/>
			<glyph d="M86 710H507V589H221V383H395V275H221V0H86V275H12V383H86Z" horiz-adv-x="527" unicode="Ғ"/>
			<glyph d="M73 506H403V401H198V274H346V182H198V0H73V182H8V274H73Z" horiz-adv-x="427" unicode="ғ"/>
			<glyph d="M30 710H180L407 407H475V710H604V407H672L899 710H1049L787 371L984 118H1111V-176H999V0H919L683 304H604V0H475V304H396L160 0H3L292 371Z" horiz-adv-x="1135" unicode="Җ"/>
			<glyph d="M14 506H153L314 310H351V506H470V310H506L669 506H807L602 267L733 104H835V-150H724V0H672L502 220H470V0H351V220H318L149 0H5L219 267Z" horiz-adv-x="859" unicode="җ"/>
			<glyph d="M86 710H221V406H278L506 710H660L398 371L595 118H721V-176H609V0H525L290 304H221V0H86Z" horiz-adv-x="745" unicode="Қ"/>
			<glyph d="M73 506H192V311H229L390 506H529L324 267L454 104H556V-150H445V0H394L224 220H192V0H73Z" horiz-adv-x="578" unicode="қ"/>
			<glyph d="M86 710H221V406H277V582H366V418L554 710H702L475 371L729 0H573L369 304H366V112H277V304H221V0H86Z" horiz-adv-x="732" unicode="Ҝ"/>
			<glyph d="M73 506H192V311H241V413H311V311H324L438 506H566L419 267L575 0H441L321 220H311V104H241V220H192V0H73Z" horiz-adv-x="580" unicode="ҝ"/>
			<glyph d="M86 710H221V414H542V710H677V118H778V-176H666V0H542V296H221V0H86Z" horiz-adv-x="804" unicode="Ң"/>
			<glyph d="M73 506H198V310H425V506H550V104H646V-150H535V0H425V205H198V0H73Z" horiz-adv-x="670" unicode="ң"/>
			<glyph d="M-5 710H144L309 404L475 710H609L368 276V0H235V278Z" horiz-adv-x="604" unicode="Ү"/>
			<glyph d="M2 506H139L266 159L393 506H521L325 10V-210H200V10Z" horiz-adv-x="523" unicode="ү"/>
			<glyph d="M31 710H189L333 465L486 710H628L405 363L562 118H686V-176H574V0H480L326 256L173 0H24L252 360Z" horiz-adv-x="710" unicode="Ҳ"/>
			<glyph d="M20 506H174L283 352L395 506H540L356 262L471 104H570V-150H459V0H397L282 167L165 0H12L206 259Z" horiz-adv-x="591" unicode="ҳ"/>
			<glyph d="M58 710H193V490Q193 366 303 357V555H392V364Q448 377 499 411V710H634V0H499V306Q452 273 392 257V85H303V243H287Q173 243 115 302T58 469Z" horiz-adv-x="720" unicode="Ҹ"/>
			<glyph d="M62 506H187V364Q187 270 261 253V363H331V252Q373 260 408 284V506H533V0H408V183Q376 163 331 152V54H261V145H260Q167 145 114 195T62 340Z" horiz-adv-x="603" unicode="ҹ"/>
			<glyph d="M86 710H221V404Q260 431 314 449T433 467Q547 467 604 407T662 241V0H527V220Q527 354 399 354Q350 354 304 339T221 299V0H86Z" horiz-adv-x="720" unicode="Һ"/>
			<glyph d="M73 752H198V426Q224 470 269 493T374 517Q462 517 507 467T553 322V0H428V274Q428 341 402 373T325 405Q267 405 232 368T198 270V0H73Z" horiz-adv-x="622" unicode="һ"/>
			<glyph d="M86 710H221V0H86Z" horiz-adv-x="307" unicode="Ӏ"/>
			<glyph d="M72 752H197V0H72Z" horiz-adv-x="268" unicode="ӏ"/>
			<glyph d="M333 720Q440 720 523 674T654 545T701 356Q701 247 657 163T535 34T362 -11Q206 -11 121 84T36 357V386H558Q546 479 482 536T323 593Q266 593 215 574T122 525L83 644Q191 720 333 720ZM186 277Q192 202 239 157T363 113Q433 113 484 156T553 277Z" horiz-adv-x="747" unicode="Ә"/>
			<glyph d="M264 516Q343 516 404 482T498 388T532 254Q532 177 498 117T407 23T277 -10Q205 -10 150 23T64 118T34 261V280H405Q399 343 358 377T251 411Q204 411 161 396T88 358L57 456Q94 483 147 499T264 516ZM161 195Q168 147 199 117T277 87Q323 87 356 116T401 195Z" horiz-adv-x="572" unicode="ә"/>
			<glyph d="M418 720Q524 720 609 674T742 546T791 357Q791 250 742 166T608 36T417 -10Q312 -10 227 35T94 164T46 356Q46 463 94 546T227 674T418 720ZM418 595Q332 595 270 544T193 409H644Q628 494 566 544T418 595ZM193 299Q209 215 270 165T418 115Q504 115 566 165T644 299Z" horiz-adv-x="837" unicode="Ө"/>
			<glyph d="M315 516Q395 516 457 482T554 388T589 253Q589 178 554 118T457 24T315 -10Q235 -10 172 24T75 118T40 253Q40 328 75 388T172 482T315 516ZM315 414Q258 414 219 383T169 296H460Q449 352 410 383T315 414ZM169 212Q179 155 218 123T314 92Q372 92 411 123T460 212Z" unicode="ө"/>
			<glyph d="M10 710H157L300 182L452 710H587L738 186L880 710H1014L806 0H665L513 519L358 0H218ZM346 921H473L594 769H488Z" horiz-adv-x="1025" unicode="Ẁ"/>
			<glyph d="M12 506H149L255 153L363 506H467L578 156L680 506H809L648 0H520L413 332L309 0H181ZM265 739H384L502 576H397Z" horiz-adv-x="821" unicode="ẁ"/>
			<glyph d="M10 710H157L300 182L452 710H587L738 186L880 710H1014L806 0H665L513 519L358 0H218ZM564 921H691L548 769H443Z" horiz-adv-x="1025" unicode="Ẃ"/>
			<glyph d="M12 506H149L255 153L363 506H467L578 156L680 506H809L648 0H520L413 332L309 0H181ZM453 739H572L441 576H336Z" horiz-adv-x="821" unicode="ẃ"/>
			<glyph d="M10 710H157L300 182L452 710H587L738 186L880 710H1014L806 0H665L513 519L358 0H218ZM411 916Q439 916 458 897T478 850Q478 822 458 802T411 783Q383 783 363 802T344 850Q344 878 363 897T411 916ZM630 916Q658 916 677 897T697 850Q697 822 677 802T630 783Q602 783 582 802T563 850Q563 878 582 897T630 916Z" horiz-adv-x="1025" unicode="Ẅ"/>
			<glyph d="M12 506H149L255 153L363 506H467L578 156L680 506H809L648 0H520L413 332L309 0H181ZM304 736Q332 736 351 717T371 670Q371 642 351 622T304 603Q276 603 256 622T237 670Q237 698 256 717T304 736ZM523 736Q551 736 570 717T590 670Q590 642 570 622T523 603Q495 603 475 622T456 670Q456 698 475 717T523 736Z" horiz-adv-x="821" unicode="ẅ"/>
			<glyph d="M393 720Q488 720 551 692T661 618V524L491 427Q606 422 668 369T730 222Q730 156 700 103T611 20T472 -10Q359 -10 265 41L304 152Q343 128 380 114T463 101Q524 101 558 134T593 219Q593 265 567 292T487 331T344 345V447L536 564Q507 588 473 600T395 613Q300 613 257 556T215 393V0H80V406Q80 552 162 636T393 720Z" horiz-adv-x="781" unicode="ẞ"/>
			<glyph d="M278 710H424L688 0H545L475 200H221L151 0H14ZM348 562L259 307H437ZM351 -75Q383 -75 405 -97T427 -151Q427 -183 405 -205T351 -228Q318 -228 296 -205T274 -151Q274 -119 296 -97T351 -75Z" horiz-adv-x="702" unicode="Ạ"/>
			<glyph d="M291 516Q392 516 449 467T506 319V0H382V70Q357 34 312 11T211 -11Q136 -11 91 29T47 140Q47 199 82 234T191 286T381 305V315Q381 361 353 387T269 413Q189 413 111 360L82 459Q122 484 176 500T291 516ZM381 228Q268 226 222 207T177 147Q177 117 197 99T256 82Q307 82 344 110T381 194ZM288 -75Q320 -75 342 -97T364 -151Q364 -183 342 -205T288 -228Q255 -228 233 -205T211 -151Q211 -119 233 -97T288 -75Z" horiz-adv-x="575" unicode="ạ"/>
			<glyph d="M278 710H424L688 0H545L475 200H221L151 0H14ZM348 562L259 307H437ZM362 973Q409 973 441 951T474 886Q474 858 459 840T418 805Q403 796 398 790T391 772H304Q304 799 313 811T343 834Q365 845 376 854T387 878Q387 904 345 904Q317 904 288 892L273 956Q291 964 315 968T362 973Z" horiz-adv-x="702" unicode="Ả"/>
			<glyph d="M291 516Q392 516 449 467T506 319V0H382V70Q357 34 312 11T211 -11Q136 -11 91 29T47 140Q47 199 82 234T191 286T381 305V315Q381 361 353 387T269 413Q189 413 111 360L82 459Q122 484 176 500T291 516ZM381 228Q268 226 222 207T177 147Q177 117 197 99T256 82Q307 82 344 110T381 194ZM305 769Q352 769 384 747T417 682Q417 654 402 636T361 601Q346 592 341 586T334 568H247Q247 595 256 607T286 630Q308 641 319 650T330 674Q330 700 288 700Q260 700 231 688L216 752Q234 760 258 764T305 769Z" horiz-adv-x="575" unicode="ả"/>
			<glyph d="M278 710H424L688 0H545L475 200H221L151 0H14ZM348 562L259 307H437ZM550 969H651L569 867H485ZM297 914H406L522 769H428L351 842L275 769H181Z" horiz-adv-x="702" unicode="Ấ"/>
			<glyph d="M291 516Q392 516 449 467T506 319V0H382V70Q357 34 312 11T211 -11Q136 -11 91 29T47 140Q47 199 82 234T191 286T381 305V315Q381 361 353 387T269 413Q189 413 111 360L82 459Q122 484 176 500T291 516ZM381 228Q268 226 222 207T177 147Q177 117 197 99T256 82Q307 82 344 110T381 194ZM494 791H595L513 689H429ZM239 739H348L464 576H370L293 670L217 576H123Z" horiz-adv-x="575" unicode="ấ"/>
			<glyph d="M278 710H424L688 0H545L475 200H221L151 0H14ZM348 562L259 307H437ZM54 968H155L220 866H136ZM297 914H406L522 769H428L351 842L275 769H181Z" horiz-adv-x="702" unicode="Ầ"/>
			<glyph d="M291 516Q392 516 449 467T506 319V0H382V70Q357 34 312 11T211 -11Q136 -11 91 29T47 140Q47 199 82 234T191 286T381 305V315Q381 361 353 387T269 413Q189 413 111 360L82 459Q122 484 176 500T291 516ZM381 228Q268 226 222 207T177 147Q177 117 197 99T256 82Q307 82 344 110T381 194ZM-4 791H97L162 689H78ZM241 739H350L466 576H372L295 670L219 576H125Z" horiz-adv-x="575" unicode="ầ"/>
			<glyph d="M278 710H424L688 0H545L475 200H221L151 0H14ZM348 562L259 307H437ZM544 1029Q586 1029 615 1009T645 951Q645 925 631 908T594 878Q581 870 577 864T570 848H492Q492 872 500 883T527 904Q547 914 557 922T567 944Q567 967 529 967Q505 967 477 956L464 1014Q480 1021 502 1025T544 1029ZM297 914H406L522 769H428L351 842L275 769H181Z" horiz-adv-x="702" unicode="Ẩ"/>
			<glyph d="M291 516Q392 516 449 467T506 319V0H382V70Q357 34 312 11T211 -11Q136 -11 91 29T47 140Q47 199 82 234T191 286T381 305V315Q381 361 353 387T269 413Q189 413 111 360L82 459Q122 484 176 500T291 516ZM381 228Q268 226 222 207T177 147Q177 117 197 99T256 82Q307 82 344 110T381 194ZM493 852Q535 852 564 832T594 774Q594 748 580 731T543 701Q530 693 526 687T519 671H441Q441 695 449 706T476 727Q496 737 506 745T516 767Q516 790 478 790Q454 790 426 779L413 837Q429 844 451 848T493 852ZM239 739H348L464 576H370L293 670L217 576H123Z" horiz-adv-x="575" unicode="ẩ"/>
			<glyph d="M278 710H424L688 0H545L475 200H221L151 0H14ZM348 562L259 307H437ZM281 1063Q312 1063 359 1041Q376 1033 388 1028T410 1024Q438 1024 442 1063H508Q502 1008 477 979T419 951Q403 951 386 956T344 973Q327 981 313 985T291 990Q267 990 259 951H193Q199 1008 223 1035T281 1063ZM291 914H412L541 769H436L351 842L267 769H162Z" horiz-adv-x="702" unicode="Ẫ"/>
			<glyph d="M291 516Q392 516 449 467T506 319V0H382V70Q357 34 312 11T211 -11Q136 -11 91 29T47 140Q47 199 82 234T191 286T381 305V315Q381 361 353 387T269 413Q189 413 111 360L82 459Q122 484 176 500T291 516ZM381 228Q268 226 222 207T177 147Q177 117 197 99T256 82Q307 82 344 110T381 194ZM224 894Q255 894 302 872Q319 864 331 859T353 855Q381 855 385 894H451Q445 839 420 810T362 782Q346 782 329 787T287 804Q270 812 256 816T234 821Q210 821 202 782H136Q142 839 166 866T224 894ZM234 739H355L484 576H379L294 670L210 576H105Z" horiz-adv-x="575" unicode="ẫ"/>
			<glyph d="M278 710H424L688 0H545L475 200H221L151 0H14ZM348 562L259 307H437ZM291 914H412L541 769H436L351 842L267 769H162ZM351 -75Q383 -75 405 -97T427 -151Q427 -183 405 -205T351 -228Q318 -228 296 -205T274 -151Q274 -119 296 -97T351 -75Z" horiz-adv-x="702" unicode="Ậ"/>
			<glyph d="M291 516Q392 516 449 467T506 319V0H382V70Q357 34 312 11T211 -11Q136 -11 91 29T47 140Q47 199 82 234T191 286T381 305V315Q381 361 353 387T269 413Q189 413 111 360L82 459Q122 484 176 500T291 516ZM381 228Q268 226 222 207T177 147Q177 117 197 99T256 82Q307 82 344 110T381 194ZM234 739H355L484 576H379L294 670L210 576H105ZM288 -75Q320 -75 342 -97T364 -151Q364 -183 342 -205T288 -228Q255 -228 233 -205T211 -151Q211 -119 233 -97T288 -75Z" horiz-adv-x="575" unicode="ậ"/>
			<glyph d="M278 710H424L688 0H545L475 200H221L151 0H14ZM348 562L259 307H437ZM364 1050H465L383 948H299ZM190 909H277Q279 881 298 864T352 848Q384 848 403 864T425 909H512Q510 848 467 810T350 772Q273 772 232 809T190 909Z" horiz-adv-x="702" unicode="Ắ"/>
			<glyph d="M291 516Q392 516 449 467T506 319V0H382V70Q357 34 312 11T211 -11Q136 -11 91 29T47 140Q47 199 82 234T191 286T381 305V315Q381 361 353 387T269 413Q189 413 111 360L82 459Q122 484 176 500T291 516ZM381 228Q268 226 222 207T177 147Q177 117 197 99T256 82Q307 82 344 110T381 194ZM306 880H407L325 778H241ZM133 739H220Q221 696 241 675T294 654Q327 654 346 675T367 739H454Q453 665 412 621T293 578Q216 578 175 621T133 739Z" horiz-adv-x="575" unicode="ắ"/>
			<glyph d="M278 710H424L688 0H545L475 200H221L151 0H14ZM348 562L259 307H437ZM236 1050H337L402 948H318ZM190 909H277Q279 881 298 864T352 848Q384 848 403 864T425 909H512Q510 848 467 810T350 772Q273 772 232 809T190 909Z" horiz-adv-x="702" unicode="Ằ"/>
			<glyph d="M291 516Q392 516 449 467T506 319V0H382V70Q357 34 312 11T211 -11Q136 -11 91 29T47 140Q47 199 82 234T191 286T381 305V315Q381 361 353 387T269 413Q189 413 111 360L82 459Q122 484 176 500T291 516ZM381 228Q268 226 222 207T177 147Q177 117 197 99T256 82Q307 82 344 110T381 194ZM178 880H279L344 778H260ZM133 739H220Q221 696 241 675T294 654Q327 654 346 675T367 739H454Q453 665 412 621T293 578Q216 578 175 621T133 739Z" horiz-adv-x="575" unicode="ằ"/>
			<glyph d="M278 710H424L688 0H545L475 200H221L151 0H14ZM348 562L259 307H437ZM361 1125Q403 1125 432 1105T462 1047Q462 1021 448 1004T411 974Q398 966 394 960T387 944H309Q309 968 317 979T344 1000Q364 1010 374 1018T384 1040Q384 1063 346 1063Q322 1063 294 1052L281 1110Q297 1117 319 1121T361 1125ZM190 909H277Q279 881 298 864T352 848Q384 848 403 864T425 909H512Q510 848 467 810T350 772Q273 772 232 809T190 909Z" horiz-adv-x="702" unicode="Ẳ"/>
			<glyph d="M291 516Q392 516 449 467T506 319V0H382V70Q357 34 312 11T211 -11Q136 -11 91 29T47 140Q47 199 82 234T191 286T381 305V315Q381 361 353 387T269 413Q189 413 111 360L82 459Q122 484 176 500T291 516ZM381 228Q268 226 222 207T177 147Q177 117 197 99T256 82Q307 82 344 110T381 194ZM303 955Q345 955 374 935T404 877Q404 851 390 834T353 804Q340 796 336 790T329 774H251Q251 798 259 809T286 830Q306 840 316 848T326 870Q326 893 288 893Q264 893 236 882L223 940Q239 947 261 951T303 955ZM133 739H220Q221 696 241 675T294 654Q327 654 346 675T367 739H454Q453 665 412 621T293 578Q216 578 175 621T133 739Z" horiz-adv-x="575" unicode="ẳ"/>
			<glyph d="M278 710H424L688 0H545L475 200H221L151 0H14ZM348 562L259 307H437ZM282 1082Q313 1082 360 1060Q377 1052 389 1047T411 1043Q438 1043 443 1082H509Q503 1027 478 998T420 970Q404 970 387 975T345 992Q328 1000 314 1004T292 1009Q268 1009 260 970H194Q200 1027 224 1054T282 1082ZM191 909H278Q280 881 299 864T353 848Q385 848 404 864T426 909H513Q511 848 468 810T351 772Q274 772 233 809T191 909Z" horiz-adv-x="702" unicode="Ẵ"/>
			<glyph d="M291 516Q392 516 449 467T506 319V0H382V70Q357 34 312 11T211 -11Q136 -11 91 29T47 140Q47 199 82 234T191 286T381 305V315Q381 361 353 387T269 413Q189 413 111 360L82 459Q122 484 176 500T291 516ZM381 228Q268 226 222 207T177 147Q177 117 197 99T256 82Q307 82 344 110T381 194ZM224 912Q255 912 302 890Q319 882 331 877T353 873Q381 873 385 912H451Q445 857 420 828T362 800Q346 800 329 805T287 822Q270 830 256 834T234 839Q210 839 202 800H136Q142 857 166 884T224 912ZM134 739H221Q222 696 242 675T295 654Q328 654 347 675T368 739H455Q454 665 413 621T294 578Q217 578 176 621T134 739Z" horiz-adv-x="575" unicode="ẵ"/>
			<glyph d="M278 710H424L688 0H545L475 200H221L151 0H14ZM348 562L259 307H437ZM190 909H277Q279 881 298 864T352 848Q384 848 403 864T425 909H512Q510 848 467 810T350 772Q273 772 232 809T190 909ZM351 -75Q383 -75 405 -97T427 -151Q427 -183 405 -205T351 -228Q318 -228 296 -205T274 -151Q274 -119 296 -97T351 -75Z" horiz-adv-x="702" unicode="Ặ"/>
			<glyph d="M291 516Q392 516 449 467T506 319V0H382V70Q357 34 312 11T211 -11Q136 -11 91 29T47 140Q47 199 82 234T191 286T381 305V315Q381 361 353 387T269 413Q189 413 111 360L82 459Q122 484 176 500T291 516ZM381 228Q268 226 222 207T177 147Q177 117 197 99T256 82Q307 82 344 110T381 194ZM133 739H220Q221 696 241 675T294 654Q327 654 346 675T367 739H454Q453 665 412 621T293 578Q216 578 175 621T133 739ZM288 -75Q320 -75 342 -97T364 -151Q364 -183 342 -205T288 -228Q255 -228 233 -205T211 -151Q211 -119 233 -97T288 -75Z" horiz-adv-x="575" unicode="ặ"/>
			<glyph d="M86 710H511V591H221V413H502V298H221V119H519V0H86ZM299 -75Q331 -75 353 -97T375 -151Q375 -183 353 -205T299 -228Q266 -228 244 -205T222 -151Q222 -119 244 -97T299 -75Z" horiz-adv-x="584" unicode="Ẹ"/>
			<glyph d="M295 516Q367 516 422 482T507 387T538 245V226H167Q173 163 213 129T321 95Q368 95 410 109T484 148L515 50Q478 23 425 6T308 -10Q229 -10 168 24T73 117T40 252Q40 329 73 389T165 482T295 516ZM295 419Q249 419 215 389T171 311H411Q404 359 372 389T295 419ZM299 -75Q331 -75 353 -97T375 -151Q375 -183 353 -205T299 -228Q266 -228 244 -205T222 -151Q222 -119 244 -97T299 -75Z" horiz-adv-x="572" unicode="ẹ"/>
			<glyph d="M86 710H511V591H221V413H502V298H221V119H519V0H86ZM312 973Q359 973 391 951T424 886Q424 858 409 840T368 805Q353 796 348 790T341 772H254Q254 799 263 811T293 834Q315 845 326 854T337 878Q337 904 295 904Q267 904 238 892L223 956Q241 964 265 968T312 973Z" horiz-adv-x="584" unicode="Ẻ"/>
			<glyph d="M295 516Q367 516 422 482T507 387T538 245V226H167Q173 163 213 129T321 95Q368 95 410 109T484 148L515 50Q478 23 425 6T308 -10Q229 -10 168 24T73 117T40 252Q40 329 73 389T165 482T295 516ZM295 419Q249 419 215 389T171 311H411Q404 359 372 389T295 419ZM309 769Q356 769 388 747T421 682Q421 654 406 636T365 601Q350 592 345 586T338 568H251Q251 595 260 607T290 630Q312 641 323 650T334 674Q334 700 292 700Q264 700 235 688L220 752Q238 760 262 764T309 769Z" horiz-adv-x="572" unicode="ẻ"/>
			<glyph d="M86 710H511V591H221V413H502V298H221V119H519V0H86ZM222 893Q250 893 310 868Q317 865 336 857T369 850Q383 850 390 860T402 893H475Q469 834 443 801T378 769Q347 769 293 793Q273 801 257 806T233 812Q219 812 211 802T198 769H125Q131 831 157 862T222 893Z" horiz-adv-x="584" unicode="Ẽ"/>
			<glyph d="M295 516Q367 516 422 482T507 387T538 245V226H167Q173 163 213 129T321 95Q368 95 410 109T484 148L515 50Q478 23 425 6T308 -10Q229 -10 168 24T73 117T40 252Q40 329 73 389T165 482T295 516ZM295 419Q249 419 215 389T171 311H411Q404 359 372 389T295 419ZM220 721Q252 721 307 697Q325 689 339 683T363 678Q393 678 399 721H472Q466 660 438 628T373 597Q355 597 336 603T290 621Q271 629 255 634T231 640Q218 640 209 630T195 597H122Q128 660 155 690T220 721Z" horiz-adv-x="572" unicode="ẽ"/>
			<glyph d="M86 710H511V591H221V413H502V298H221V119H519V0H86ZM500 969H601L519 867H435ZM247 914H356L472 769H378L301 842L225 769H131Z" horiz-adv-x="584" unicode="Ế"/>
			<glyph d="M295 516Q367 516 422 482T507 387T538 245V226H167Q173 163 213 129T321 95Q368 95 410 109T484 148L515 50Q478 23 425 6T308 -10Q229 -10 168 24T73 117T40 252Q40 329 73 389T165 482T295 516ZM295 419Q249 419 215 389T171 311H411Q404 359 372 389T295 419ZM497 791H598L516 689H432ZM242 739H351L467 576H373L296 670L220 576H126Z" horiz-adv-x="572" unicode="ế"/>
			<glyph d="M86 710H511V591H221V413H502V298H221V119H519V0H86ZM4 968H105L170 866H86ZM247 914H356L472 769H378L301 842L225 769H131Z" horiz-adv-x="584" unicode="Ề"/>
			<glyph d="M295 516Q367 516 422 482T507 387T538 245V226H167Q173 163 213 129T321 95Q368 95 410 109T484 148L515 50Q478 23 425 6T308 -10Q229 -10 168 24T73 117T40 252Q40 329 73 389T165 482T295 516ZM295 419Q249 419 215 389T171 311H411Q404 359 372 389T295 419ZM-1 791H100L165 689H81ZM244 739H353L469 576H375L298 670L222 576H128Z" horiz-adv-x="572" unicode="ề"/>
			<glyph d="M86 710H511V591H221V413H502V298H221V119H519V0H86ZM494 1029Q536 1029 565 1009T595 951Q595 925 581 908T544 878Q531 870 527 864T520 848H442Q442 872 450 883T477 904Q497 914 507 922T517 944Q517 967 479 967Q455 967 427 956L414 1014Q430 1021 452 1025T494 1029ZM247 914H356L472 769H378L301 842L225 769H131Z" horiz-adv-x="584" unicode="Ể"/>
			<glyph d="M295 516Q367 516 422 482T507 387T538 245V226H167Q173 163 213 129T321 95Q368 95 410 109T484 148L515 50Q478 23 425 6T308 -10Q229 -10 168 24T73 117T40 252Q40 329 73 389T165 482T295 516ZM295 419Q249 419 215 389T171 311H411Q404 359 372 389T295 419ZM497 852Q539 852 568 832T598 774Q598 748 584 731T547 701Q534 693 530 687T523 671H445Q445 695 453 706T480 727Q500 737 510 745T520 767Q520 790 482 790Q458 790 430 779L417 837Q433 844 455 848T497 852ZM243 739H352L468 576H374L297 670L221 576H127Z" horiz-adv-x="572" unicode="ể"/>
			<glyph d="M86 710H511V591H221V413H502V298H221V119H519V0H86ZM231 1063Q262 1063 309 1041Q326 1033 338 1028T360 1024Q388 1024 392 1063H458Q452 1008 427 979T369 951Q353 951 336 956T294 973Q277 981 263 985T241 990Q217 990 209 951H143Q149 1008 173 1035T231 1063ZM241 914H362L491 769H386L301 842L217 769H112Z" horiz-adv-x="584" unicode="Ễ"/>
			<glyph d="M295 516Q367 516 422 482T507 387T538 245V226H167Q173 163 213 129T321 95Q368 95 410 109T484 148L515 50Q478 23 425 6T308 -10Q229 -10 168 24T73 117T40 252Q40 329 73 389T165 482T295 516ZM295 419Q249 419 215 389T171 311H411Q404 359 372 389T295 419ZM228 894Q259 894 306 872Q323 864 335 859T357 855Q385 855 389 894H455Q449 839 424 810T366 782Q350 782 333 787T291 804Q274 812 260 816T238 821Q214 821 206 782H140Q146 839 170 866T228 894ZM238 739H359L488 576H383L298 670L214 576H109Z" horiz-adv-x="572" unicode="ễ"/>
			<glyph d="M86 710H511V591H221V413H502V298H221V119H519V0H86ZM241 914H362L491 769H386L301 842L217 769H112ZM299 -75Q331 -75 353 -97T375 -151Q375 -183 353 -205T299 -228Q266 -228 244 -205T222 -151Q222 -119 244 -97T299 -75Z" horiz-adv-x="584" unicode="Ệ"/>
			<glyph d="M295 516Q367 516 422 482T507 387T538 245V226H167Q173 163 213 129T321 95Q368 95 410 109T484 148L515 50Q478 23 425 6T308 -10Q229 -10 168 24T73 117T40 252Q40 329 73 389T165 482T295 516ZM295 419Q249 419 215 389T171 311H411Q404 359 372 389T295 419ZM238 739H359L488 576H383L298 670L214 576H109ZM299 -75Q331 -75 353 -97T375 -151Q375 -183 353 -205T299 -228Q266 -228 244 -205T222 -151Q222 -119 244 -97T299 -75Z" horiz-adv-x="572" unicode="ệ"/>
			<glyph d="M86 710H221V0H86ZM164 973Q211 973 243 951T276 886Q276 858 261 840T220 805Q205 796 200 790T193 772H106Q106 799 115 811T145 834Q167 845 178 854T189 878Q189 904 147 904Q119 904 90 892L75 956Q93 964 117 968T164 973Z" horiz-adv-x="307" unicode="Ỉ"/>
			<glyph d="M73 506H198V0H73ZM148 769Q195 769 227 747T260 682Q260 654 245 636T204 601Q189 592 184 586T177 568H90Q90 595 99 607T129 630Q151 641 162 650T173 674Q173 700 131 700Q103 700 74 688L59 752Q77 760 101 764T148 769Z" horiz-adv-x="271" unicode="ỉ"/>
			<glyph d="M86 710H221V0H86ZM153 -75Q185 -75 207 -97T229 -151Q229 -183 207 -205T153 -228Q120 -228 98 -205T76 -151Q76 -119 98 -97T153 -75Z" horiz-adv-x="307" unicode="Ị"/>
			<glyph d="M73 506H198V0H73ZM138 744Q170 744 192 722T214 668Q214 636 192 613T138 591Q105 591 83 613T61 668Q61 700 83 722T138 744ZM136 -75Q168 -75 190 -97T212 -151Q212 -183 190 -205T136 -228Q103 -228 81 -205T59 -151Q59 -119 81 -97T136 -75Z" horiz-adv-x="271" unicode="ị"/>
			<glyph d="M418 720Q524 720 609 674T742 545T791 357Q791 251 742 167T609 36T417 -10Q312 -10 227 36T94 165T46 355Q46 462 94 545T227 674T418 720ZM418 592Q351 592 298 561T216 477T187 355Q187 287 216 233T298 148T418 118Q485 118 538 148T620 233T650 355Q650 423 620 477T538 561T418 592ZM418 -75Q450 -75 472 -97T494 -151Q494 -183 472 -205T418 -228Q385 -228 363 -205T341 -151Q341 -119 363 -97T418 -75Z" horiz-adv-x="837" unicode="Ọ"/>
			<glyph d="M315 516Q395 516 457 482T554 388T589 253Q589 178 554 118T457 24T315 -10Q235 -10 172 24T75 118T40 253Q40 328 75 388T172 482T315 516ZM315 401Q250 401 209 360T169 253Q169 187 209 146T315 105Q380 105 420 146T460 254Q460 319 419 360T315 401ZM320 -75Q352 -75 374 -97T396 -151Q396 -183 374 -205T320 -228Q287 -228 265 -205T243 -151Q243 -119 265 -97T320 -75Z" unicode="ọ"/>
			<glyph d="M418 720Q524 720 609 674T742 545T791 357Q791 251 742 167T609 36T417 -10Q312 -10 227 36T94 165T46 355Q46 462 94 545T227 674T418 720ZM418 592Q351 592 298 561T216 477T187 355Q187 287 216 233T298 148T418 118Q485 118 538 148T620 233T650 355Q650 423 620 477T538 561T418 592ZM428 973Q475 973 507 951T540 886Q540 858 525 840T484 805Q469 796 464 790T457 772H370Q370 799 379 811T409 834Q431 845 442 854T453 878Q453 904 411 904Q383 904 354 892L339 956Q357 964 381 968T428 973Z" horiz-adv-x="837" unicode="Ỏ"/>
			<glyph d="M315 516Q395 516 457 482T554 388T589 253Q589 178 554 118T457 24T315 -10Q235 -10 172 24T75 118T40 253Q40 328 75 388T172 482T315 516ZM315 401Q250 401 209 360T169 253Q169 187 209 146T315 105Q380 105 420 146T460 254Q460 319 419 360T315 401ZM326 769Q373 769 405 747T438 682Q438 654 423 636T382 601Q367 592 362 586T355 568H268Q268 595 277 607T307 630Q329 641 340 650T351 674Q351 700 309 700Q281 700 252 688L237 752Q255 760 279 764T326 769Z" unicode="ỏ"/>
			<glyph d="M418 720Q524 720 609 674T742 545T791 357Q791 251 742 167T609 36T417 -10Q312 -10 227 36T94 165T46 355Q46 462 94 545T227 674T418 720ZM418 592Q351 592 298 561T216 477T187 355Q187 287 216 233T298 148T418 118Q485 118 538 148T620 233T650 355Q650 423 620 477T538 561T418 592ZM616 969H717L635 867H551ZM363 914H472L588 769H494L417 842L341 769H247Z" horiz-adv-x="837" unicode="Ố"/>
			<glyph d="M315 516Q395 516 457 482T554 388T589 253Q589 178 554 118T457 24T315 -10Q235 -10 172 24T75 118T40 253Q40 328 75 388T172 482T315 516ZM315 401Q250 401 209 360T169 253Q169 187 209 146T315 105Q380 105 420 146T460 254Q460 319 419 360T315 401ZM514 791H615L533 689H449ZM259 739H368L484 576H390L313 670L237 576H143Z" unicode="ố"/>
			<glyph d="M418 720Q524 720 609 674T742 545T791 357Q791 251 742 167T609 36T417 -10Q312 -10 227 36T94 165T46 355Q46 462 94 545T227 674T418 720ZM418 592Q351 592 298 561T216 477T187 355Q187 287 216 233T298 148T418 118Q485 118 538 148T620 233T650 355Q650 423 620 477T538 561T418 592ZM120 968H221L286 866H202ZM363 914H472L588 769H494L417 842L341 769H247Z" horiz-adv-x="837" unicode="Ồ"/>
			<glyph d="M315 516Q395 516 457 482T554 388T589 253Q589 178 554 118T457 24T315 -10Q235 -10 172 24T75 118T40 253Q40 328 75 388T172 482T315 516ZM315 401Q250 401 209 360T169 253Q169 187 209 146T315 105Q380 105 420 146T460 254Q460 319 419 360T315 401ZM16 791H117L182 689H98ZM261 739H370L486 576H392L315 670L239 576H145Z" unicode="ồ"/>
			<glyph d="M418 720Q524 720 609 674T742 545T791 357Q791 251 742 167T609 36T417 -10Q312 -10 227 36T94 165T46 355Q46 462 94 545T227 674T418 720ZM418 592Q351 592 298 561T216 477T187 355Q187 287 216 233T298 148T418 118Q485 118 538 148T620 233T650 355Q650 423 620 477T538 561T418 592ZM610 1029Q652 1029 681 1009T711 951Q711 925 697 908T660 878Q647 870 643 864T636 848H558Q558 872 566 883T593 904Q613 914 623 922T633 944Q633 967 595 967Q571 967 543 956L530 1014Q546 1021 568 1025T610 1029ZM363 914H472L588 769H494L417 842L341 769H247Z" horiz-adv-x="837" unicode="Ổ"/>
			<glyph d="M315 516Q395 516 457 482T554 388T589 253Q589 178 554 118T457 24T315 -10Q235 -10 172 24T75 118T40 253Q40 328 75 388T172 482T315 516ZM315 401Q250 401 209 360T169 253Q169 187 209 146T315 105Q380 105 420 146T460 254Q460 319 419 360T315 401ZM514 852Q556 852 585 832T615 774Q615 748 601 731T564 701Q551 693 547 687T540 671H462Q462 695 470 706T497 727Q517 737 527 745T537 767Q537 790 499 790Q475 790 447 779L434 837Q450 844 472 848T514 852ZM260 739H369L485 576H391L314 670L238 576H144Z" unicode="ổ"/>
			<glyph d="M418 720Q524 720 609 674T742 545T791 357Q791 251 742 167T609 36T417 -10Q312 -10 227 36T94 165T46 355Q46 462 94 545T227 674T418 720ZM418 592Q351 592 298 561T216 477T187 355Q187 287 216 233T298 148T418 118Q485 118 538 148T620 233T650 355Q650 423 620 477T538 561T418 592ZM347 1063Q378 1063 425 1041Q442 1033 454 1028T476 1024Q504 1024 508 1063H574Q568 1008 543 979T485 951Q469 951 452 956T410 973Q393 981 379 985T357 990Q333 990 325 951H259Q265 1008 289 1035T347 1063ZM357 914H478L607 769H502L417 842L333 769H228Z" horiz-adv-x="837" unicode="Ỗ"/>
			<glyph d="M315 516Q395 516 457 482T554 388T589 253Q589 178 554 118T457 24T315 -10Q235 -10 172 24T75 118T40 253Q40 328 75 388T172 482T315 516ZM315 401Q250 401 209 360T169 253Q169 187 209 146T315 105Q380 105 420 146T460 254Q460 319 419 360T315 401ZM245 894Q276 894 323 872Q340 864 352 859T374 855Q402 855 406 894H472Q466 839 441 810T383 782Q367 782 350 787T308 804Q291 812 277 816T255 821Q231 821 223 782H157Q163 839 187 866T245 894ZM255 739H376L505 576H400L315 670L231 576H126Z" unicode="ỗ"/>
			<glyph d="M418 720Q524 720 609 674T742 545T791 357Q791 251 742 167T609 36T417 -10Q312 -10 227 36T94 165T46 355Q46 462 94 545T227 674T418 720ZM418 592Q351 592 298 561T216 477T187 355Q187 287 216 233T298 148T418 118Q485 118 538 148T620 233T650 355Q650 423 620 477T538 561T418 592ZM357 914H478L607 769H502L417 842L333 769H228ZM418 -75Q450 -75 472 -97T494 -151Q494 -183 472 -205T418 -228Q385 -228 363 -205T341 -151Q341 -119 363 -97T418 -75Z" horiz-adv-x="837" unicode="Ộ"/>
			<glyph d="M315 516Q395 516 457 482T554 388T589 253Q589 178 554 118T457 24T315 -10Q235 -10 172 24T75 118T40 253Q40 328 75 388T172 482T315 516ZM315 401Q250 401 209 360T169 253Q169 187 209 146T315 105Q380 105 420 146T460 254Q460 319 419 360T315 401ZM255 739H376L505 576H400L315 670L231 576H126ZM320 -75Q352 -75 374 -97T396 -151Q396 -183 374 -205T320 -228Q287 -228 265 -205T243 -151Q243 -119 265 -97T320 -75Z" unicode="ộ"/>
			<glyph d="M778 861Q801 814 801 762Q801 709 773 671T684 619Q736 571 763 503T791 357Q791 251 742 167T609 36T417 -10Q312 -10 227 36T94 165T46 356Q46 463 94 545T228 674T423 720Q488 720 553 699Q593 685 618 685Q657 685 680 708T703 767Q703 804 684 836ZM418 592Q351 592 298 561T216 477T187 355Q187 287 216 233T298 148T418 118Q485 118 538 148T620 233T650 355Q650 423 620 477T538 561T418 592ZM462 921H589L446 769H341Z" horiz-adv-x="837" unicode="Ớ"/>
			<glyph d="M595 654Q618 607 618 555Q618 450 532 422Q559 389 574 345T589 253Q589 178 554 118T457 24T315 -10Q235 -10 172 24T75 118T40 253Q40 328 75 388T172 482T315 516Q346 516 400 504Q432 496 455 496Q488 496 504 511T520 560Q520 595 502 628ZM315 401Q250 401 209 360T169 253Q169 187 209 146T315 105Q380 105 420 146T460 254Q460 319 419 360T315 401ZM354 739H473L342 576H237Z" unicode="ớ"/>
			<glyph d="M778 861Q801 814 801 762Q801 709 773 671T684 619Q736 571 763 503T791 357Q791 251 742 167T609 36T417 -10Q312 -10 227 36T94 165T46 356Q46 463 94 545T228 674T423 720Q488 720 553 699Q593 685 618 685Q657 685 680 708T703 767Q703 804 684 836ZM418 592Q351 592 298 561T216 477T187 355Q187 287 216 233T298 148T418 118Q485 118 538 148T620 233T650 355Q650 423 620 477T538 561T418 592ZM244 921H371L492 769H386Z" horiz-adv-x="837" unicode="Ờ"/>
			<glyph d="M595 654Q618 607 618 555Q618 450 532 422Q559 389 574 345T589 253Q589 178 554 118T457 24T315 -10Q235 -10 172 24T75 118T40 253Q40 328 75 388T172 482T315 516Q346 516 400 504Q432 496 455 496Q488 496 504 511T520 560Q520 595 502 628ZM315 401Q250 401 209 360T169 253Q169 187 209 146T315 105Q380 105 420 146T460 254Q460 319 419 360T315 401ZM166 739H285L403 576H298Z" unicode="ờ"/>
			<glyph d="M778 861Q801 814 801 762Q801 709 773 671T684 619Q736 571 763 503T791 357Q791 251 742 167T609 36T417 -10Q312 -10 227 36T94 165T46 356Q46 463 94 545T228 674T423 720Q488 720 553 699Q593 685 618 685Q657 685 680 708T703 767Q703 804 684 836ZM418 592Q351 592 298 561T216 477T187 355Q187 287 216 233T298 148T418 118Q485 118 538 148T620 233T650 355Q650 423 620 477T538 561T418 592ZM428 973Q475 973 507 951T540 886Q540 858 525 840T484 805Q469 796 464 790T457 772H370Q370 799 379 811T409 834Q431 845 442 854T453 878Q453 904 411 904Q383 904 354 892L339 956Q357 964 381 968T428 973Z" horiz-adv-x="837" unicode="Ở"/>
			<glyph d="M595 654Q618 607 618 555Q618 450 532 422Q559 389 574 345T589 253Q589 178 554 118T457 24T315 -10Q235 -10 172 24T75 118T40 253Q40 328 75 388T172 482T315 516Q346 516 400 504Q432 496 455 496Q488 496 504 511T520 560Q520 595 502 628ZM315 401Q250 401 209 360T169 253Q169 187 209 146T315 105Q380 105 420 146T460 254Q460 319 419 360T315 401ZM326 769Q373 769 405 747T438 682Q438 654 423 636T382 601Q367 592 362 586T355 568H268Q268 595 277 607T307 630Q329 641 340 650T351 674Q351 700 309 700Q281 700 252 688L237 752Q255 760 279 764T326 769Z" unicode="ở"/>
			<glyph d="M778 861Q801 814 801 762Q801 709 773 671T684 619Q736 571 763 503T791 357Q791 251 742 167T609 36T417 -10Q312 -10 227 36T94 165T46 356Q46 463 94 545T228 674T423 720Q488 720 553 699Q593 685 618 685Q657 685 680 708T703 767Q703 804 684 836ZM418 592Q351 592 298 561T216 477T187 355Q187 287 216 233T298 148T418 118Q485 118 538 148T620 233T650 355Q650 423 620 477T538 561T418 592ZM338 893Q366 893 426 868Q433 865 452 857T485 850Q499 850 506 860T518 893H591Q585 834 559 801T494 769Q463 769 409 793Q389 801 373 806T349 812Q335 812 327 802T314 769H241Q247 831 273 862T338 893Z" horiz-adv-x="837" unicode="Ỡ"/>
			<glyph d="M595 654Q618 607 618 555Q618 450 532 422Q559 389 574 345T589 253Q589 178 554 118T457 24T315 -10Q235 -10 172 24T75 118T40 253Q40 328 75 388T172 482T315 516Q346 516 400 504Q432 496 455 496Q488 496 504 511T520 560Q520 595 502 628ZM315 401Q250 401 209 360T169 253Q169 187 209 146T315 105Q380 105 420 146T460 254Q460 319 419 360T315 401ZM237 721Q269 721 324 697Q342 689 356 683T380 678Q410 678 416 721H489Q483 660 455 628T390 597Q372 597 353 603T307 621Q288 629 272 634T248 640Q235 640 226 630T212 597H139Q145 660 172 690T237 721Z" unicode="ỡ"/>
			<glyph d="M778 861Q801 814 801 762Q801 709 773 671T684 619Q736 571 763 503T791 357Q791 251 742 167T609 36T417 -10Q312 -10 227 36T94 165T46 356Q46 463 94 545T228 674T423 720Q488 720 553 699Q593 685 618 685Q657 685 680 708T703 767Q703 804 684 836ZM418 592Q351 592 298 561T216 477T187 355Q187 287 216 233T298 148T418 118Q485 118 538 148T620 233T650 355Q650 423 620 477T538 561T418 592ZM418 -75Q450 -75 472 -97T494 -151Q494 -183 472 -205T418 -228Q385 -228 363 -205T341 -151Q341 -119 363 -97T418 -75Z" horiz-adv-x="837" unicode="Ợ"/>
			<glyph d="M595 654Q618 607 618 555Q618 450 532 422Q559 389 574 345T589 253Q589 178 554 118T457 24T315 -10Q235 -10 172 24T75 118T40 253Q40 328 75 388T172 482T315 516Q346 516 400 504Q432 496 455 496Q488 496 504 511T520 560Q520 595 502 628ZM315 401Q250 401 209 360T169 253Q169 187 209 146T315 105Q380 105 420 146T460 254Q460 319 419 360T315 401ZM320 -75Q352 -75 374 -97T396 -151Q396 -183 374 -205T320 -228Q287 -228 265 -205T243 -151Q243 -119 265 -97T320 -75Z" unicode="ợ"/>
			<glyph d="M80 710H216V281Q216 201 257 159T370 118Q441 118 482 159T524 281V710H658V264Q658 180 623 118T522 23T369 -10Q281 -10 215 23T115 118T80 264ZM369 -75Q401 -75 423 -97T445 -151Q445 -183 423 -205T369 -228Q336 -228 314 -205T292 -151Q292 -119 314 -97T369 -75Z" horiz-adv-x="738" unicode="Ụ"/>
			<glyph d="M69 506H194V233Q194 165 218 133T296 101Q354 101 388 137T423 236V506H548V0H423V81Q396 36 349 12T244 -11Q159 -11 114 39T69 185ZM311 -75Q343 -75 365 -97T387 -151Q387 -183 365 -205T311 -228Q278 -228 256 -205T234 -151Q234 -119 256 -97T311 -75Z" horiz-adv-x="621" unicode="ụ"/>
			<glyph d="M80 710H216V281Q216 201 257 159T370 118Q441 118 482 159T524 281V710H658V264Q658 180 623 118T522 23T369 -10Q281 -10 215 23T115 118T80 264ZM381 973Q428 973 460 951T493 886Q493 858 478 840T437 805Q422 796 417 790T410 772H323Q323 799 332 811T362 834Q384 845 395 854T406 878Q406 904 364 904Q336 904 307 892L292 956Q310 964 334 968T381 973Z" horiz-adv-x="738" unicode="Ủ"/>
			<glyph d="M69 506H194V233Q194 165 218 133T296 101Q354 101 388 137T423 236V506H548V0H423V81Q396 36 349 12T244 -11Q159 -11 114 39T69 185ZM323 769Q370 769 402 747T435 682Q435 654 420 636T379 601Q364 592 359 586T352 568H265Q265 595 274 607T304 630Q326 641 337 650T348 674Q348 700 306 700Q278 700 249 688L234 752Q252 760 276 764T323 769Z" horiz-adv-x="621" unicode="ủ"/>
			<glyph d="M735 861Q758 815 758 763Q758 721 733 689T658 643V264Q658 180 623 118T522 23T369 -10Q281 -10 215 23T115 118T80 264V710H216V281Q216 201 257 159T370 118Q441 118 482 159T524 281V710H564Q613 710 636 722T660 769Q660 803 642 836ZM415 921H542L399 769H294Z" horiz-adv-x="738" unicode="Ứ"/>
			<glyph d="M615 657Q638 611 638 559Q638 519 616 488T548 442V0H423V81Q396 36 349 12T244 -11Q159 -11 114 39T69 185V506H194V233Q194 165 218 133T296 101Q354 101 388 137T423 236V506H444Q493 506 516 518T540 565Q540 599 522 632ZM351 739H470L339 576H234Z" horiz-adv-x="621" unicode="ứ"/>
			<glyph d="M735 861Q758 815 758 763Q758 721 733 689T658 643V264Q658 180 623 118T522 23T369 -10Q281 -10 215 23T115 118T80 264V710H216V281Q216 201 257 159T370 118Q441 118 482 159T524 281V710H564Q613 710 636 722T660 769Q660 803 642 836ZM197 921H324L445 769H339Z" horiz-adv-x="738" unicode="Ừ"/>
			<glyph d="M615 657Q638 611 638 559Q638 519 616 488T548 442V0H423V81Q396 36 349 12T244 -11Q159 -11 114 39T69 185V506H194V233Q194 165 218 133T296 101Q354 101 388 137T423 236V506H444Q493 506 516 518T540 565Q540 599 522 632ZM163 739H282L400 576H295Z" horiz-adv-x="621" unicode="ừ"/>
			<glyph d="M735 861Q758 815 758 763Q758 721 733 689T658 643V264Q658 180 623 118T522 23T369 -10Q281 -10 215 23T115 118T80 264V710H216V281Q216 201 257 159T370 118Q441 118 482 159T524 281V710H564Q613 710 636 722T660 769Q660 803 642 836ZM381 973Q428 973 460 951T493 886Q493 858 478 840T437 805Q422 796 417 790T410 772H323Q323 799 332 811T362 834Q384 845 395 854T406 878Q406 904 364 904Q336 904 307 892L292 956Q310 964 334 968T381 973Z" horiz-adv-x="738" unicode="Ử"/>
			<glyph d="M615 657Q638 611 638 559Q638 519 616 488T548 442V0H423V81Q396 36 349 12T244 -11Q159 -11 114 39T69 185V506H194V233Q194 165 218 133T296 101Q354 101 388 137T423 236V506H444Q493 506 516 518T540 565Q540 599 522 632ZM323 769Q370 769 402 747T435 682Q435 654 420 636T379 601Q364 592 359 586T352 568H265Q265 595 274 607T304 630Q326 641 337 650T348 674Q348 700 306 700Q278 700 249 688L234 752Q252 760 276 764T323 769Z" horiz-adv-x="621" unicode="ử"/>
			<glyph d="M735 861Q758 815 758 763Q758 721 733 689T658 643V264Q658 180 623 118T522 23T369 -10Q281 -10 215 23T115 118T80 264V710H216V281Q216 201 257 159T370 118Q441 118 482 159T524 281V710H564Q613 710 636 722T660 769Q660 803 642 836ZM291 893Q319 893 379 868Q386 865 405 857T438 850Q452 850 459 860T471 893H544Q538 834 512 801T447 769Q416 769 362 793Q342 801 326 806T302 812Q288 812 280 802T267 769H194Q200 831 226 862T291 893Z" horiz-adv-x="738" unicode="Ữ"/>
			<glyph d="M615 657Q638 611 638 559Q638 519 616 488T548 442V0H423V81Q396 36 349 12T244 -11Q159 -11 114 39T69 185V506H194V233Q194 165 218 133T296 101Q354 101 388 137T423 236V506H444Q493 506 516 518T540 565Q540 599 522 632ZM234 721Q266 721 321 697Q339 689 353 683T377 678Q407 678 413 721H486Q480 660 452 628T387 597Q369 597 350 603T304 621Q285 629 269 634T245 640Q232 640 223 630T209 597H136Q142 660 169 690T234 721Z" horiz-adv-x="621" unicode="ữ"/>
			<glyph d="M735 861Q758 815 758 763Q758 721 733 689T658 643V264Q658 180 623 118T522 23T369 -10Q281 -10 215 23T115 118T80 264V710H216V281Q216 201 257 159T370 118Q441 118 482 159T524 281V710H564Q613 710 636 722T660 769Q660 803 642 836ZM369 -75Q401 -75 423 -97T445 -151Q445 -183 423 -205T369 -228Q336 -228 314 -205T292 -151Q292 -119 314 -97T369 -75Z" horiz-adv-x="738" unicode="Ự"/>
			<glyph d="M615 657Q638 611 638 559Q638 519 616 488T548 442V0H423V81Q396 36 349 12T244 -11Q159 -11 114 39T69 185V506H194V233Q194 165 218 133T296 101Q354 101 388 137T423 236V506H444Q493 506 516 518T540 565Q540 599 522 632ZM311 -75Q343 -75 365 -97T387 -151Q387 -183 365 -205T311 -228Q278 -228 256 -205T234 -151Q234 -119 256 -97T311 -75Z" horiz-adv-x="621" unicode="ự"/>
			<glyph d="M-5 710H144L309 404L475 710H609L368 276V0H235V278ZM128 921H255L376 769H270Z" horiz-adv-x="604" unicode="Ỳ"/>
			<glyph d="M2 506H139L272 162L392 506H522L301 -63Q272 -139 226 -175T107 -212Q59 -212 23 -198L38 -91Q60 -99 84 -99Q120 -99 145 -82T188 -26L207 20ZM117 739H236L354 576H249Z" horiz-adv-x="524" unicode="ỳ"/>
			<glyph d="M-5 710H144L309 404L475 710H609L368 276V0H235V278ZM302 -75Q334 -75 356 -97T378 -151Q378 -183 356 -205T302 -228Q269 -228 247 -205T225 -151Q225 -119 247 -97T302 -75Z" horiz-adv-x="604" unicode="Ỵ"/>
			<glyph d="M2 506H139L272 162L392 506H522L301 -63Q272 -139 226 -175T107 -212Q59 -212 23 -198L38 -91Q60 -99 84 -99Q120 -99 145 -82T188 -26L207 20ZM432 -50Q464 -50 486 -72T508 -126Q508 -158 486 -180T432 -203Q399 -203 377 -180T355 -126Q355 -94 377 -72T432 -50Z" horiz-adv-x="524" unicode="ỵ"/>
			<glyph d="M-5 710H144L309 404L475 710H609L368 276V0H235V278ZM312 973Q359 973 391 951T424 886Q424 858 409 840T368 805Q353 796 348 790T341 772H254Q254 799 263 811T293 834Q315 845 326 854T337 878Q337 904 295 904Q267 904 238 892L223 956Q241 964 265 968T312 973Z" horiz-adv-x="604" unicode="Ỷ"/>
			<glyph d="M2 506H139L272 162L392 506H522L301 -63Q272 -139 226 -175T107 -212Q59 -212 23 -198L38 -91Q60 -99 84 -99Q120 -99 145 -82T188 -26L207 20ZM277 769Q324 769 356 747T389 682Q389 654 374 636T333 601Q318 592 313 586T306 568H219Q219 595 228 607T258 630Q280 641 291 650T302 674Q302 700 260 700Q232 700 203 688L188 752Q206 760 230 764T277 769Z" horiz-adv-x="524" unicode="ỷ"/>
			<glyph d="M-5 710H144L309 404L475 710H609L368 276V0H235V278ZM222 893Q250 893 310 868Q317 865 336 857T369 850Q383 850 390 860T402 893H475Q469 834 443 801T378 769Q347 769 293 793Q273 801 257 806T233 812Q219 812 211 802T198 769H125Q131 831 157 862T222 893Z" horiz-adv-x="604" unicode="Ỹ"/>
			<glyph d="M2 506H139L272 162L392 506H522L301 -63Q272 -139 226 -175T107 -212Q59 -212 23 -198L38 -91Q60 -99 84 -99Q120 -99 145 -82T188 -26L207 20ZM188 721Q220 721 275 697Q293 689 307 683T331 678Q361 678 367 721H440Q434 660 406 628T341 597Q323 597 304 603T258 621Q239 629 223 634T199 640Q186 640 177 630T163 597H90Q96 660 123 690T188 721Z" horiz-adv-x="524" unicode="ỹ"/>
			<glyph d="M45 326H394V221H45Z" horiz-adv-x="439" unicode="‐"/>
			<glyph d="M45 326H505V221H45Z" horiz-adv-x="550" unicode="–"/>
			<glyph d="M45 326H1005V221H45Z" horiz-adv-x="1050" unicode="—"/>
			<glyph d="M45 326H1005V221H45Z" horiz-adv-x="1050" unicode="―"/>
			<glyph d="M-5 -92H455V-137H-5ZM-4 -187H456V-232H-4Z" horiz-adv-x="450" unicode="‗"/>
			<glyph d="M120 710H223L165 490H34Z" horiz-adv-x="257" unicode="‘"/>
			<glyph d="M93 710H223L138 490H34Z" horiz-adv-x="257" unicode="’"/>
			<glyph d="M93 110H223L138 -110H34Z" horiz-adv-x="257" unicode="‚"/>
			<glyph d="M34 710H165L223 490H119Z" horiz-adv-x="257" unicode="‛"/>
			<glyph d="M120 710H223L165 490H34ZM331 710H434L376 490H245Z" horiz-adv-x="468" unicode="“"/>
			<glyph d="M92 710H223L137 490H34ZM303 710H434L348 490H245Z" horiz-adv-x="468" unicode="”"/>
			<glyph d="M92 110H223L137 -110H34ZM303 110H434L348 -110H245Z" horiz-adv-x="468" unicode="„"/>
			<glyph d="M197 752H315L302 536L487 548V430L300 442L315 -115H197L212 443L25 430V548L211 535Z" horiz-adv-x="512" unicode="†"/>
			<glyph d="M197 752H315L302 536L487 548V430L299 443V239L487 251V134L302 146L315 -115H197L210 147L25 134V251L213 237V443L25 430V548L211 535Z" horiz-adv-x="512" unicode="‡"/>
			<glyph d="M195 443Q248 443 285 405T323 315Q323 262 285 224T195 187Q142 187 104 224T67 315Q67 368 104 405T195 443Z" horiz-adv-x="390" unicode="•"/>
			<glyph d="M454 141Q486 141 509 118T532 63Q532 31 509 8T454 -15Q422 -15 399 8T376 63Q376 95 399 118T454 141ZM754 141Q786 141 809 118T832 63Q832 31 809 8T754 -15Q722 -15 699 8T676 63Q676 95 699 118T754 141ZM151 141Q183 141 206 118T229 63Q229 31 206 8T151 -15Q119 -15 96 8T73 63Q73 95 96 118T151 141Z" horiz-adv-x="905" unicode="…"/>
			<glyph d="M202 716Q279 716 325 663T371 520Q371 429 325 376T202 323Q125 323 79 376T33 520Q33 610 79 663T202 716ZM599 710H702L256 0H153ZM202 630Q135 630 135 520Q135 409 202 409Q269 409 269 520Q269 630 202 630ZM652 387Q729 387 775 334T821 191Q821 100 775 47T652 -6Q574 -6 528 47T482 191Q482 281 528 334T652 387ZM1032 387Q1109 387 1155 334T1201 191Q1201 100 1155 47T1032 -6Q955 -6 909 47T864 191Q864 281 909 334T1032 387ZM652 301Q584 301 584 191Q584 80 652 80Q719 80 719 191Q719 301 652 301ZM1032 301Q965 301 965 191Q965 80 1032 80Q1099 80 1099 191Q1099 301 1032 301Z" horiz-adv-x="1234" unicode="‰"/>
			<glyph d="M192 460H333L160 260L333 60H192L30 260Z" horiz-adv-x="363" unicode="‹"/>
			<glyph d="M30 460H171L333 260L171 60H30L203 260Z" horiz-adv-x="363" unicode="›"/>
			<glyph d="M344 710H490L468 248H366ZM418 141Q451 141 473 118T496 63Q496 31 473 8T418 -15Q386 -15 363 8T340 63Q340 95 363 118T418 141ZM90 710H236L214 248H112ZM164 141Q197 141 219 118T242 63Q242 31 219 8T164 -15Q132 -15 109 8T86 63Q86 95 109 118T164 141Z" horiz-adv-x="582" unicode="‼"/>
			<glyph d="M257 724Q328 724 379 700T456 635T483 542Q483 479 457 437T385 357Q338 317 321 294T305 249H203L196 621Q161 611 140 588T107 531L27 584Q50 649 108 686T257 724ZM299 624L290 410Q335 446 353 472T371 534Q371 566 352 590T299 624ZM255 141Q288 141 310 118T333 63Q333 31 310 8T255 -15Q223 -15 200 8T177 63Q177 95 200 118T255 141Z" horiz-adv-x="512" unicode="‽"/>
			<glyph d="M-5 828H455V783H-5Z" horiz-adv-x="450" unicode="‾"/>
			<glyph d="M296 710H400L-133 0H-237Z" horiz-adv-x="163" unicode="⁄"/>
			<glyph d="M208 869Q293 869 331 812T369 648Q369 540 331 483T208 427Q122 427 83 483T45 648Q45 756 83 812T208 869ZM208 786Q166 786 153 752T140 648Q140 577 153 543T208 510Q249 510 262 543T275 649Q275 719 261 752T208 786Z" horiz-adv-x="415" unicode="⁰"/>
			<glyph d="M223 863H314V589H368V514H314V435H221V514H24V579ZM221 741L114 589H221Z" horiz-adv-x="405" unicode="⁴"/>
			<glyph d="M95 861H348V779H164L154 697Q183 708 215 708Q280 708 322 672T364 571Q364 504 317 466T190 429Q97 429 37 482L82 556Q129 509 193 509Q230 509 251 526T272 572Q272 602 251 618T194 634Q156 634 127 616L68 634Z" horiz-adv-x="416" unicode="⁵"/>
			<glyph d="M323 870L342 793Q247 792 195 762T130 672Q172 707 229 707Q293 707 333 670T373 574Q373 510 327 468T211 426Q135 426 86 475T37 620Q37 732 108 801T323 870ZM209 638Q182 638 159 626T126 599Q130 548 152 523T209 499Q242 499 262 518T283 569Q283 601 263 619T209 638Z" horiz-adv-x="410" unicode="⁶"/>
			<glyph d="M45 861H365V807L190 435H89L262 779H45Z" horiz-adv-x="414" unicode="⁷"/>
			<glyph d="M208 872Q276 872 316 840T357 758Q357 693 288 662Q332 645 353 619T375 555Q375 496 330 461T208 426Q131 426 86 460T42 553Q42 592 63 619T129 662Q61 690 61 757Q61 807 101 839T208 872ZM209 805Q181 805 164 790T148 751Q148 726 164 711T209 697Q236 697 253 711T270 751Q270 776 253 790T209 805ZM209 621Q177 621 156 605T136 559Q136 530 156 513T210 496Q244 496 263 512T283 558Q283 588 262 604T209 621Z" horiz-adv-x="416" unicode="⁸"/>
			<glyph d="M199 871Q275 871 323 822T372 678Q372 565 302 495T91 426L72 504Q167 505 217 535T280 625Q262 609 237 599T181 589Q117 589 77 626T37 724Q37 766 57 799T115 852T199 871ZM202 798Q169 798 147 778T126 728Q126 697 146 678T201 659Q227 659 249 670T284 697Q279 748 257 773T202 798Z" horiz-adv-x="410" unicode="⁹"/>
			<glyph d="M154 790H238V677H350V593H238V481H154V593H41V677H154Z" horiz-adv-x="391" unicode="⁺"/>
			<glyph d="M41 677H350V593H41Z" horiz-adv-x="391" unicode="⁻"/>
			<glyph d="M41 757H350V673H41ZM41 600H350V516H41Z" horiz-adv-x="391" unicode="⁼"/>
			<glyph d="M253 936V859Q194 859 168 805T142 648Q142 544 168 492T253 440V362Q153 363 103 438T54 648Q54 789 105 862T253 936Z" horiz-adv-x="282" unicode="⁽"/>
			<glyph d="M29 936Q129 936 178 860T228 650Q228 509 177 436T29 362V440Q88 440 114 493T140 650Q140 754 114 806T29 859Z" horiz-adv-x="282" unicode="⁾"/>
			<glyph d="M235 722Q288 722 316 691T345 603V411H266V575Q266 651 205 651Q173 651 156 629T139 568V411H60V716H139V676Q171 722 235 722Z" horiz-adv-x="405" unicode="ⁿ"/>
			<glyph d="M208 289Q293 289 331 232T369 68Q369 -40 331 -96T208 -153Q122 -153 83 -97T45 68Q45 176 83 232T208 289ZM208 206Q166 206 153 172T140 68Q140 -3 153 -36T208 -70Q249 -70 262 -36T275 69Q275 139 261 172T208 206Z" horiz-adv-x="415" unicode="₀"/>
			<glyph d="M198 286H233V-145H140V167L48 119V206Z" horiz-adv-x="341" unicode="₁"/>
			<glyph d="M204 291Q272 291 313 256T355 165Q355 123 331 87T264 11L186 -63H371V-145H49V-91L197 54Q232 89 246 111T261 154Q261 179 244 193T197 208Q139 208 86 157L46 226Q75 257 115 274T204 291Z" horiz-adv-x="417" unicode="₂"/>
			<glyph d="M204 290Q267 290 305 259T344 179Q344 143 322 118T262 81Q313 67 338 41T363 -27Q363 -84 318 -119T194 -155Q146 -155 105 -141T38 -101L82 -26Q132 -71 194 -71Q231 -71 251 -57T271 -19Q271 12 243 25T153 38V110Q205 110 228 125T252 164Q252 183 236 194T195 206Q143 206 91 161L51 233Q117 290 204 290Z" horiz-adv-x="414" unicode="₃"/>
			<glyph d="M223 283H314V9H368V-66H314V-145H221V-66H24V-1ZM221 161L114 9H221Z" horiz-adv-x="405" unicode="₄"/>
			<glyph d="M95 281H348V199H164L154 117Q183 128 215 128Q280 128 322 92T364 -9Q364 -76 317 -113T190 -151Q97 -151 37 -98L82 -24Q129 -71 193 -71Q230 -71 251 -54T272 -8Q272 22 251 38T194 54Q156 54 127 36L68 54Z" horiz-adv-x="416" unicode="₅"/>
			<glyph d="M323 290L342 213Q247 212 195 182T130 92Q172 127 229 127Q293 127 333 90T373 -6Q373 -70 327 -112T211 -154Q135 -154 86 -104T37 40Q37 152 108 221T323 290ZM209 58Q182 58 159 46T126 19Q130 -32 152 -56T209 -81Q242 -81 262 -61T283 -11Q283 21 263 39T209 58Z" horiz-adv-x="410" unicode="₆"/>
			<glyph d="M45 281H365V227L190 -145H89L262 199H45Z" horiz-adv-x="414" unicode="₇"/>
			<glyph d="M208 292Q276 292 316 260T357 178Q357 113 288 82Q332 65 353 39T375 -25Q375 -84 330 -119T208 -154Q131 -154 86 -119T42 -27Q42 12 63 39T129 82Q61 110 61 177Q61 227 101 259T208 292ZM209 225Q181 225 164 210T148 171Q148 146 164 131T209 117Q236 117 253 131T270 171Q270 196 253 210T209 225ZM209 41Q177 41 156 25T136 -21Q136 -50 156 -67T210 -84Q244 -84 263 -67T283 -22Q283 8 262 24T209 41Z" horiz-adv-x="416" unicode="₈"/>
			<glyph d="M199 291Q275 291 323 242T372 98Q372 -15 302 -84T91 -154L72 -76Q167 -75 217 -45T280 45Q262 29 237 19T181 9Q117 9 77 46T37 144Q37 186 57 219T115 272T199 291ZM202 218Q169 218 147 198T126 148Q126 117 146 98T201 79Q227 79 249 90T284 117Q279 168 257 193T202 218Z" horiz-adv-x="410" unicode="₉"/>
			<glyph d="M154 208H238V95H350V11H238V-101H154V11H41V95H154Z" horiz-adv-x="391" unicode="₊"/>
			<glyph d="M41 95H350V11H41Z" horiz-adv-x="391" unicode="₋"/>
			<glyph d="M41 175H350V91H41ZM41 18H350V-66H41Z" horiz-adv-x="391" unicode="₌"/>
			<glyph d="M253 354V277Q194 277 168 223T142 66Q142 -38 168 -90T253 -142V-220Q153 -219 103 -143T54 66Q54 207 105 280T253 354Z" horiz-adv-x="282" unicode="₍"/>
			<glyph d="M29 354Q129 354 178 278T228 68Q228 -73 177 -146T29 -220V-142Q88 -142 114 -89T140 68Q140 172 114 224T29 277Z" horiz-adv-x="282" unicode="₎"/>
			<glyph d="M103 710H502V591H239V422H488V303H239V211H378V107H239V0H103V107H10V211H103Z" horiz-adv-x="544" unicode="₣"/>
			<glyph d="M365 728Q423 728 465 712T544 668L494 557Q467 581 438 594T372 607Q266 607 266 475V473H453V387H266V313H453V227H266Q266 191 252 161T211 115H552V0H45V115Q87 121 109 150T132 225V227H45V313H132V387H45V473H132V481Q132 601 193 664T365 728Z" horiz-adv-x="572" unicode="₤"/>
			<glyph d="M86 710H255Q381 710 452 653T537 494H596V397H536Q521 296 449 236T255 177H221V0H86V397H11V494H86ZM221 604V494H395Q385 554 346 579T240 604ZM221 397V283H240Q373 283 394 397Z" horiz-adv-x="605" unicode="₧"/>
			<glyph d="M401 729H496V662H544V593H496V157H401V217Q362 151 269 151Q215 151 172 176T105 246T81 347Q81 404 105 449T172 519T269 544Q313 544 347 527T401 479V593H268V662H401ZM290 461Q240 461 209 429T178 347Q178 296 208 264T289 233Q339 233 371 265T404 348Q404 397 371 429T290 461ZM91 94H515V-1H91Z" horiz-adv-x="645" unicode="₫"/>
			<glyph d="M388 726Q480 726 552 680L521 561Q494 582 461 593T393 604Q269 604 240 460H437V393H232Q231 381 231 356V332H437V265H238Q252 187 292 146T395 105Q435 105 467 119T532 160L570 48Q532 17 486 0T377 -17Q260 -17 186 56T94 265H22V332H88V356Q88 381 89 393H22V460H96Q117 588 191 657T388 726Z" horiz-adv-x="591" unicode="€"/>
			<glyph d="M73 710H550V622H434Q462 584 469 536H550V452H467Q455 395 415 352T314 291L563 0H398L167 277H73V366H208Q254 366 287 388T332 452H74V536H332Q320 579 288 600T210 621H73Z" horiz-adv-x="580" unicode="₹"/>
			<glyph d="M96 710H232V519L402 580V513L232 452V392L402 453V385L232 324V121H313Q428 121 428 240V298H553V221Q553 146 520 96T432 23T313 0H96V276L32 253V321L96 344V404L32 381V448L96 471Z" horiz-adv-x="573" unicode="₺"/>
			<glyph d="M292 710H394V616Q501 602 561 530T622 345V0H497V328Q497 397 470 438T394 492V117H292V491Q244 478 217 437T191 328V0H68V345Q68 459 127 530T292 615Z" horiz-adv-x="690" unicode="₼"/>
			<glyph d="M110 710H322Q440 710 503 650T566 493Q566 431 538 379T455 297T322 267H240V206H400V103H240V0H110V103H34V206H110V267H34V379H110ZM240 598V379H307Q362 379 396 409T431 493Q431 547 397 572T307 598Z" horiz-adv-x="600" unicode="₽"/>
			<glyph d="M245 720Q320 720 375 683L346 602Q303 634 252 634Q203 634 172 602T142 520Q142 469 171 437T251 406Q276 406 304 415T356 440L379 360Q353 342 317 331T242 320Q184 320 138 345T67 415T42 518Q42 577 68 623T141 694T245 720ZM673 710H777L244 0H140ZM699 391Q760 391 807 365T881 294T908 191Q908 133 881 87T807 16T699 -10Q638 -10 590 16T516 87T490 191Q490 248 516 294T590 365T699 391ZM700 304Q650 304 619 272T588 191Q588 140 619 109T699 78Q749 78 779 109T810 191Q810 241 779 272T700 304Z" horiz-adv-x="950" unicode="℅"/>
			<glyph d="M331 715Q397 715 428 667T460 518Q460 396 417 303T288 164Q296 115 315 94T369 74Q412 74 441 90V-8Q398 -24 340 -24Q269 -24 232 13T182 127Q144 117 122 116V201Q151 203 174 212Q172 246 172 325Q172 470 187 554T237 677T331 715ZM326 614Q303 614 291 551T280 322Q280 282 281 266Q321 302 339 370T358 525Q358 575 350 594T326 614Z" horiz-adv-x="600" unicode="ℓ"/>
			<glyph d="M82 710H191L477 215V710H586V0H477L191 493V0H82ZM886 710Q954 710 1006 681T1088 601T1118 486Q1118 422 1088 371T1006 291T886 262Q819 262 766 291T684 371T655 486Q655 550 684 601T766 681T886 710ZM887 612Q832 612 797 577T763 487Q763 430 797 395T886 360Q941 360 975 395T1009 487Q1009 543 975 577T887 612ZM671 174H1094V71H671Z" horiz-adv-x="1179" unicode="№"/>
			<glyph d="M405 720Q504 720 588 671T721 538T770 355Q770 256 721 172T588 39T405 -10Q306 -10 222 39T89 172T40 355Q40 454 89 538T222 671T405 720ZM405 652Q324 652 256 612T148 504T108 355Q108 274 148 206T256 98T405 58Q486 58 554 98T662 206T702 355Q702 436 662 504T554 612T405 652ZM280 574H432Q501 574 542 535T584 432Q584 368 541 327T432 286H373V136H280ZM373 495V364H419Q449 364 468 383T487 432Q487 462 469 478T419 495Z" horiz-adv-x="810" unicode="℗"/>
			<glyph d="M20 710H333V633H217V326H136V633H20ZM381 710H462L596 503L729 710H810V326H729V577L619 404H573L462 577V326H381Z" horiz-adv-x="896" unicode="™"/>
			<glyph d="M422 720Q528 720 611 681T740 572T787 411Q787 320 738 252T607 149V118H794V0H485V201Q558 218 601 268T645 393Q645 449 616 494T537 564T422 590Q357 590 306 564T226 494T198 393Q198 319 242 267T360 201V0H50V118H238V149Q155 182 105 249T56 411Q56 502 102 572T232 681T422 720Z" horiz-adv-x="845" unicode="Ω"/>
			<glyph d="M420 621Q529 621 606 574T723 452T762 297V293H210L203 284V77Q286 3 404 3Q478 3 535 30T634 104H695Q640 42 571 6T398 -29Q308 -29 231 10T107 121T61 292Q61 385 110 460T241 578T420 621ZM420 588Q286 588 203 510V333L210 326H613L621 333V518Q578 559 528 573T420 588Z" horiz-adv-x="823" unicode="℮"/>
			<glyph d="M198 716H233V285H140V597L48 549V636ZM637 710H741L208 0H104ZM712 437Q780 437 820 405T861 323Q861 258 792 227Q836 210 857 184T879 120Q879 61 834 26T712 -9Q635 -9 590 25T546 118Q546 157 567 184T633 227Q565 255 565 322Q565 372 605 404T712 437ZM713 370Q685 370 668 355T652 316Q652 291 668 276T713 262Q740 262 757 276T774 316Q774 341 757 355T713 370ZM713 186Q681 186 660 170T640 124Q640 95 660 78T714 61Q748 61 767 77T787 123Q787 153 766 169T713 186Z" horiz-adv-x="920" unicode="⅛"/>
			<glyph d="M204 720Q267 720 305 689T344 609Q344 573 322 548T262 511Q313 497 338 471T363 403Q363 346 318 310T194 275Q146 275 105 289T38 329L82 404Q132 359 194 359Q231 359 251 373T271 411Q271 442 243 455T153 468V540Q205 540 228 555T252 594Q252 613 236 624T195 636Q143 636 91 591L51 663Q117 720 204 720ZM710 710H814L281 0H177ZM785 437Q853 437 893 405T934 323Q934 258 865 227Q909 210 930 184T952 120Q952 61 907 26T785 -9Q708 -9 663 25T619 118Q619 157 640 184T706 227Q638 255 638 322Q638 372 678 404T785 437ZM786 370Q758 370 741 355T725 316Q725 291 741 276T786 262Q813 262 830 276T847 316Q847 341 830 355T786 370ZM786 186Q754 186 733 170T713 124Q713 95 733 78T787 61Q821 61 840 77T860 123Q860 153 839 169T786 186Z" horiz-adv-x="993" unicode="⅜"/>
			<glyph d="M95 711H348V629H164L154 547Q183 558 215 558Q280 558 322 522T364 421Q364 354 317 316T190 279Q97 279 37 332L82 406Q129 359 193 359Q230 359 251 376T272 422Q272 452 251 468T194 484Q156 484 127 466L68 484ZM712 710H816L283 0H179ZM787 437Q855 437 895 405T936 323Q936 258 867 227Q911 210 932 184T954 120Q954 61 909 26T787 -9Q710 -9 665 25T621 118Q621 157 642 184T708 227Q640 255 640 322Q640 372 680 404T787 437ZM788 370Q760 370 743 355T727 316Q727 291 743 276T788 262Q815 262 832 276T849 316Q849 341 832 355T788 370ZM788 186Q756 186 735 170T715 124Q715 95 735 78T789 61Q823 61 842 77T862 123Q862 153 841 169T788 186Z" horiz-adv-x="995" unicode="⅝"/>
			<glyph d="M45 711H365V657L190 285H89L262 629H45ZM636 710H740L207 0H103ZM711 437Q779 437 819 405T860 323Q860 258 791 227Q835 210 856 184T878 120Q878 61 833 26T711 -9Q634 -9 589 25T545 118Q545 157 566 184T632 227Q564 255 564 322Q564 372 604 404T711 437ZM712 370Q684 370 667 355T651 316Q651 291 667 276T712 262Q739 262 756 276T773 316Q773 341 756 355T712 370ZM712 186Q680 186 659 170T639 124Q639 95 659 78T713 61Q747 61 766 77T786 123Q786 153 765 169T712 186Z" horiz-adv-x="919" unicode="⅞"/>
			<glyph d="M-2 710H144L330 158L515 710H659L402 0H255ZM743 710H878V0H743ZM1050 710H1185V0H1050Z" horiz-adv-x="1271" unicode="Ⅶ"/>
			<glyph d="M198 742Q297 714 376 649T502 486T549 268Q549 116 479 39T296 -38Q225 -38 170 -8T83 79T52 217Q52 296 79 356T156 448T271 481Q310 481 342 467T396 430H398Q365 510 296 569T137 659ZM303 393Q243 393 209 346T175 216Q175 145 209 103T302 61Q359 61 393 106T428 237Q428 311 393 352T303 393Z" horiz-adv-x="600" unicode="∂"/>
			<glyph d="M271 710H418L642 118V0H47V118ZM341 562L181 118H501Z" horiz-adv-x="689" unicode="∆"/>
			<glyph d="M86 710H667V-210H532V592H221V-210H86Z" horiz-adv-x="753" unicode="∏"/>
			<glyph d="M41 710H510V591H208L389 298V226L199 -91H545V-210H31V-113L257 265L41 616Z" horiz-adv-x="573" unicode="∑"/>
			<glyph d="M71 401H521V299H71Z" horiz-adv-x="591" unicode="−"/>
			<glyph d="M574 710H694L284 0H165Z" horiz-adv-x="859" unicode="∕"/>
			<glyph d="M250 350Q282 350 305 327T328 272Q328 240 305 217T250 194Q218 194 195 217T172 272Q172 304 195 327T250 350Z" horiz-adv-x="500" unicode="∙"/>
			<glyph d="M451 710H566L400 -76H233L133 247H32V363H221L280 155Q307 56 312 26L315 27L321 60Q335 136 340 161Z" horiz-adv-x="600" unicode="√"/>
			<glyph d="M215 482Q273 482 317 456T397 375Q463 482 583 482Q636 482 677 458T741 393T764 298Q764 212 711 159T573 107Q516 107 471 133T390 215Q355 159 309 133T204 107Q152 107 111 130T47 196T24 291Q24 377 76 429T215 482ZM228 388Q187 388 161 361T136 292Q136 252 162 226T232 200Q268 200 298 224T348 292Q327 341 297 364T228 388ZM558 388Q521 388 491 363T440 293Q482 200 562 200Q601 200 626 226T652 293Q652 335 627 361T558 388Z" horiz-adv-x="787" unicode="∞"/>
			<glyph d="M392 720Q412 720 426 717T463 709L457 615Q434 623 416 623Q389 623 373 600T357 542V1Q357 -170 207 -170Q188 -170 174 -167T137 -159L144 -66Q166 -72 183 -72Q211 -72 226 -50T242 8V551Q242 634 280 677T392 720Z" horiz-adv-x="600" unicode="∫"/>
			<glyph d="M187 522Q207 522 241 514T308 498L337 490Q341 489 360 484T398 479Q414 479 425 490T440 522H519Q517 479 501 448T463 402T417 386Q376 386 294 410Q266 418 242 423T205 429Q173 429 161 386H82Q85 454 115 488T187 522ZM187 302Q207 302 241 294T308 278L337 270Q341 269 360 264T398 259Q414 259 425 270T440 302H519Q517 259 501 228T463 182T417 166Q376 166 294 190Q266 198 242 203T205 209Q173 209 161 166H82Q85 234 115 268T187 302Z" horiz-adv-x="600" unicode="≈"/>
			<glyph d="M401 635H501L433 510H521V408H377L314 292H521V191H259L190 65H90L159 191H71V292H214L277 408H71V510H333Z" horiz-adv-x="591" unicode="≠"/>
			<glyph d="M520 603V502L144 411L520 320V219L70 338V484ZM70 189H520V97H70Z" horiz-adv-x="591" unicode="≤"/>
			<glyph d="M71 603L521 484V338L71 219V320L447 411L71 502ZM71 189H521V97H71Z" horiz-adv-x="591" unicode="≥"/>
			<glyph d="M164 710H291L445 347L291 0H164L10 347ZM228 640L112 347L228 67L343 347Z" horiz-adv-x="455" unicode="◊"/>
			<glyph d="M608 710Q762 710 888 663T1086 536T1159 355Q1159 259 1085 177T886 48T614 0Q463 0 335 48T134 180T60 361Q60 458 133 538T332 664T608 710ZM611 667Q525 667 451 651T335 610T293 554Q293 520 346 492T485 450Q499 543 533 601T611 660Q654 660 688 601T736 450Q822 464 875 492T928 554Q928 585 885 610T770 651T611 667ZM1978 617Q2049 617 2110 580T2207 483T2243 352Q2243 279 2207 217T2110 120T1975 85Q1902 85 1842 119T1747 214T1713 349Q1713 421 1748 482T1845 580T1978 617ZM3025 617Q3095 617 3156 580T3253 483T3289 352Q3289 279 3253 217T3157 120T3025 85Q2952 85 2891 119T2795 214T2760 349Q2760 421 2796 482T2893 580T3025 617ZM1264 601H1688V507H1530V102H1417V507H1264ZM2246 601H2380L2502 393L2632 601H2760L2560 286V102H2445V289ZM3314 601H3741V507H3582V102H3470V507H3314ZM3906 601H4046L4245 102H4124L4080 215H3869L3828 102H3704ZM611 577Q585 577 563 540T532 445Q565 441 611 441Q652 441 689 444Q679 503 658 540T611 577ZM199 535Q137 459 137 372Q137 287 194 214T350 96T568 44Q528 76 502 158T477 344V362Q350 381 274 427T199 535ZM1020 533Q1020 494 985 459T888 399T744 362V344Q744 241 719 158T654 44Q773 52 870 97T1024 215T1081 372Q1081 459 1020 533ZM1978 517Q1914 517 1874 471T1831 352Q1831 276 1871 230T1978 184Q2041 184 2081 231T2122 352Q2122 425 2081 471T1978 517ZM3028 517Q2962 517 2921 471T2881 352Q2881 275 2920 229T3025 184Q3090 184 3129 230T3168 352Q3168 425 3129 471T3028 517ZM3974 495L3903 302H4046ZM526 356Q527 300 538 253T569 179T611 152Q633 152 652 179T682 253T695 356Q659 352 610 352Q562 352 526 356Z" horiz-adv-x="4305" unicode=""/>
			<glyph d="M551 710Q655 710 740 678T874 592T923 472Q923 407 873 351T738 263T555 231Q453 231 368 264T233 353T183 475Q183 540 232 594T365 679T551 710ZM553 680Q495 680 446 670T368 643T339 605Q339 582 374 563T469 535Q477 597 501 636T553 676Q582 676 605 636T637 535Q696 545 731 563T767 605Q767 626 738 643T660 670T553 680ZM553 620Q536 620 521 596T499 532Q526 529 553 529Q572 529 606 531Q599 571 584 595T553 620ZM277 592Q235 542 235 483Q235 426 273 376T378 296T525 262Q498 283 480 339T462 464V476Q377 489 327 520T277 592ZM828 590Q828 551 777 520T643 476V464Q643 395 626 339T583 262Q663 267 728 298T832 377T870 483Q870 544 828 590ZM496 473Q497 416 513 375T553 335Q576 335 592 375T610 473Q592 470 553 470Q515 470 496 473ZM299 171Q334 171 360 144T387 83Q387 46 361 19T297 -7Q261 -7 235 18T210 81Q210 118 236 144T299 171ZM648 171Q683 171 709 144T735 83Q735 46 709 19T648 -7Q610 -7 584 18T559 81Q559 118 585 144T648 171ZM60 165H202V134H149V-1H112V134H60ZM388 165H431L472 96L516 165H559L493 61V-1H453V62ZM744 165H886V134H833V-1H796V134H744ZM941 165H987L1054 -1H1013L999 37H929L915 -1H873ZM299 137Q277 137 263 122T249 83Q249 57 263 41T299 26Q319 26 332 42T346 83Q346 107 332 122T299 137ZM648 137Q626 137 613 122T600 83Q600 57 613 41T648 26Q669 26 681 41T694 83Q694 107 681 122T648 137ZM963 130L939 66H987Z" horiz-adv-x="1114" unicode=""/>
			<glyph d="M608 710Q762 710 888 663T1086 536T1159 355Q1159 259 1085 177T886 48T614 0Q463 0 335 48T134 180T60 361Q60 458 133 538T332 664T608 710ZM611 667Q525 667 451 651T335 610T293 554Q293 520 346 492T485 450Q499 543 533 601T611 660Q654 660 688 601T736 450Q822 464 875 492T928 554Q928 585 885 610T770 651T611 667ZM611 577Q585 577 563 540T532 445Q565 441 611 441Q652 441 689 444Q679 503 658 540T611 577ZM199 535Q137 459 137 372Q137 287 194 214T350 96T568 44Q528 76 502 158T477 344V362Q350 381 274 427T199 535ZM1020 533Q1020 494 985 459T888 399T744 362V344Q744 241 719 158T654 44Q773 52 870 97T1024 215T1081 372Q1081 459 1020 533ZM526 356Q527 300 538 253T569 179T611 152Q633 152 652 179T682 253T695 356Q659 352 610 352Q562 352 526 356Z" horiz-adv-x="1219" unicode=""/>
			<glyph d="M1099 733Q1200 733 1286 681T1424 543T1476 357Q1476 252 1425 164T1287 26T1095 -24Q992 -24 907 25T772 161T723 352Q723 454 773 541T910 681T1099 733ZM2588 733Q2688 733 2774 681T2912 543T2964 357Q2964 252 2913 165T2776 27T2588 -24Q2485 -24 2398 25T2261 161T2211 352Q2211 454 2262 541T2401 681T2588 733ZM84 710H687V576H462V0H302V576H84ZM1480 710H1671L1844 414L2030 710H2211L1927 263V0H1763V267ZM2999 710H3607V576H3381V0H3222V576H2999ZM3841 710H4040L4324 0H4151L4088 160H3788L3730 0H3554ZM1099 591Q1038 591 992 561T919 478T890 357Q890 285 916 231T990 147T1099 117Q1158 117 1205 147T1278 232T1304 357Q1304 424 1278 477T1205 561T1099 591ZM2592 591Q2531 591 2483 561T2410 477T2384 357Q2384 285 2409 230T2480 146T2588 117Q2649 117 2695 147T2767 232T2792 357Q2792 425 2767 478T2696 561T2592 591ZM3938 559L3837 285H4040Z" horiz-adv-x="4379" unicode=""/>
			<glyph d="M269 759Q327 759 381 734L358 629Q322 647 293 647Q263 647 247 628T231 567V506H350V401H231V0H106V401H21V506H106V572Q106 669 150 714T269 759ZM443 506H568V0H443ZM508 744Q540 744 562 722T584 668Q584 636 562 613T508 591Q475 591 453 613T431 668Q431 700 453 722T508 744Z" horiz-adv-x="641" unicode=""/>
			<glyph d="M269 759Q327 759 381 734L358 629Q322 647 293 647Q263 647 247 628T231 567V506H350V401H231V0H106V401H21V506H106V572Q106 669 150 714T269 759ZM446 752H571V159Q571 100 618 100Q635 100 665 110L679 11Q635 -10 583 -10Q517 -10 481 26T446 139Z" horiz-adv-x="691" unicode=""/>
			<glyph d="M195 443Q248 443 285 405T323 315Q323 262 285 224T195 187Q142 187 104 224T67 315Q67 368 104 405T195 443Z" horiz-adv-x="390" unicode=""/>
			<glyph d="M269 759Q327 759 381 734L358 629Q322 647 293 647Q263 647 247 628T231 567V506H350V401H231V0H106V401H21V506H106V572Q106 669 150 714T269 759ZM633 759Q691 759 745 734L722 629Q686 647 657 647Q627 647 611 628T595 567V506H714V401H595V0H470V401H385V506H470V572Q470 669 514 714T633 759Z" horiz-adv-x="728" unicode="ﬀ"/>
			<glyph d="M269 759Q327 759 381 734L358 629Q322 647 293 647Q263 647 247 628T231 567V506H350V401H231V0H106V401H21V506H106V572Q106 669 150 714T269 759ZM443 506H568V0H443ZM508 744Q540 744 562 722T584 668Q584 636 562 613T508 591Q475 591 453 613T431 668Q431 700 453 722T508 744Z" horiz-adv-x="641" unicode="ﬁ"/>
			<glyph d="M269 759Q327 759 381 734L358 629Q322 647 293 647Q263 647 247 628T231 567V506H350V401H231V0H106V401H21V506H106V572Q106 669 150 714T269 759ZM446 752H571V159Q571 100 618 100Q635 100 665 110L679 11Q635 -10 583 -10Q517 -10 481 26T446 139Z" horiz-adv-x="691" unicode="ﬂ"/>
			<glyph d="M269 759Q327 759 381 734L358 629Q322 647 293 647Q263 647 247 628T231 567V506H350V401H231V0H106V401H21V506H106V572Q106 669 150 714T269 759ZM633 759Q691 759 745 734L722 629Q686 647 657 647Q627 647 611 628T595 567V506H714V401H595V0H470V401H385V506H470V572Q470 669 514 714T633 759ZM807 506H932V0H807ZM872 744Q904 744 926 722T948 668Q948 636 926 613T872 591Q839 591 817 613T795 668Q795 700 817 722T872 744Z" horiz-adv-x="1005" unicode="ﬃ"/>
			<glyph d="M269 759Q327 759 381 734L358 629Q322 647 293 647Q263 647 247 628T231 567V506H350V401H231V0H106V401H21V506H106V572Q106 669 150 714T269 759ZM633 759Q691 759 745 734L722 629Q686 647 657 647Q627 647 611 628T595 567V506H714V401H595V0H470V401H385V506H470V572Q470 669 514 714T633 759ZM810 752H935V159Q935 100 982 100Q999 100 1029 110L1043 11Q999 -10 947 -10Q881 -10 845 26T810 139Z" horiz-adv-x="1055" unicode="ﬄ"/>
			<glyph d="" horiz-adv-x="0" unicode="﻿"/>
		</font>
</defs>
</svg>
